<svg version="1.1" xmlns="http://www.w3.org/2000/svg" xmlns:xlink="http://www.w3.org/1999/xlink" width="536.6806640625" height="387"><defs/><g><g transform="translate(-158,-142) scale(1,1)"><rect fill="#C0C0C0" stroke="none" x="351" y="159" width="175" height="145" opacity="0.2"/></g><g transform="translate(-158,-142) scale(1,1)"><rect fill="#ffffff" stroke="none" x="344" y="152" width="175" height="145"/></g><g transform="translate(-158,-142) scale(1,1)"><path fill="none" stroke="#000000" d="M 344 152 L 519 152 L 519 297 L 344 297 L 344 152 Z Z" stroke-miterlimit="10"/></g><g transform="translate(-158,-142) scale(1,1)"><path fill="none" stroke="#000000" d="M 344 177 L 519 177" stroke-miterlimit="10"/></g><g transform="translate(-158,-142) scale(1,1)"><path fill="none" stroke="#000000" d="M 344 215 L 519 215" stroke-miterlimit="10"/></g><g transform="translate(-158,-142) scale(1,1)"><g><path fill="none" stroke="none"/><text fill="#000000" stroke="none" font-family="Arial" font-size="13px" font-style="normal" font-weight="bold" text-decoration="none" x="402.60546875" y="169.5">Map Data</text></g></g><g transform="translate(-158,-142) scale(1,1)"><g><path fill="none" stroke="none"/><text fill="#000000" stroke="none" font-family="Arial" font-size="13px" font-style="normal" font-weight="normal" text-decoration="none" x="349" y="192.5">+tuple userLocation</text></g></g><g transform="translate(-158,-142) scale(1,1)"><g><path fill="none" stroke="none"/><text fill="#000000" stroke="none" font-family="Arial" font-size="13px" font-style="normal" font-weight="normal" text-decoration="none" x="349" y="207.5">+tuple [ ] importantLocations</text></g></g><g transform="translate(-158,-142) scale(1,1)"><g><path fill="none" stroke="none"/><text fill="#000000" stroke="none" font-family="Arial" font-size="13px" font-style="normal" font-weight="normal" text-decoration="none" x="349" y="230.5">+saveUserLocation()</text></g></g><g transform="translate(-158,-142) scale(1,1)"><g><path fill="none" stroke="none"/><text fill="#000000" stroke="none" font-family="Arial" font-size="13px" font-style="normal" font-weight="normal" text-decoration="none" x="349" y="245.5">+registerImportantLocation()</text></g></g><g transform="translate(-158,-142) scale(1,1)"><g><path fill="none" stroke="none"/><text fill="#000000" stroke="none" font-family="Arial" font-size="13px" font-style="normal" font-weight="normal" text-decoration="none" x="349" y="260.5">+getUserLocation()</text></g></g><g transform="translate(-158,-142) scale(1,1)"><g><path fill="none" stroke="none"/><text fill="#000000" stroke="none" font-family="Arial" font-size="13px" font-style="normal" font-weight="normal" text-decoration="none" x="349" y="275.5">+getImportantLocations()</text></g></g><g transform="translate(-158,-142) scale(1,1)"><rect fill="#C0C0C0" stroke="none" x="175" y="375" width="151" height="115" opacity="0.2"/></g><g transform="translate(-158,-142) scale(1,1)"><rect fill="#ffffff" stroke="none" x="168" y="368" width="151" height="115"/></g><g transform="translate(-158,-142) scale(1,1)"><path fill="none" stroke="#000000" d="M 168 368 L 319 368 L 319 483 L 168 483 L 168 368 Z Z" stroke-miterlimit="10"/></g><g transform="translate(-158,-142) scale(1,1)"><path fill="none" stroke="#000000" d="M 168 393 L 319 393" stroke-miterlimit="10"/></g><g transform="translate(-158,-142) scale(1,1)"><path fill="none" stroke="#000000" d="M 168 446 L 319 446" stroke-miterlimit="10"/></g><g transform="translate(-158,-142) scale(1,1)"><g><path fill="none" stroke="none"/><text fill="#000000" stroke="none" font-family="Arial" font-size="13px" font-style="normal" font-weight="bold" text-decoration="none" x="227.9736328125" y="385.5">Logs</text></g></g><g transform="translate(-158,-142) scale(1,1)"><g><path fill="none" stroke="none"/><text fill="#000000" stroke="none" font-family="Arial" font-size="13px" font-style="normal" font-weight="normal" text-decoration="none" x="173" y="408.5">+string description</text></g></g><g transform="translate(-158,-142) scale(1,1)"><g><path fill="none" stroke="none"/><text fill="#000000" stroke="none" font-family="Arial" font-size="13px" font-style="normal" font-weight="normal" text-decoration="none" x="173" y="423.5">+Date date</text></g></g><g transform="translate(-158,-142) scale(1,1)"><g><path fill="none" stroke="none"/><text fill="#000000" stroke="none" font-family="Arial" font-size="13px" font-style="normal" font-weight="normal" text-decoration="none" x="173" y="438.5">+string id</text></g></g><g transform="translate(-158,-142) scale(1,1)"><g><path fill="none" stroke="none"/><text fill="#000000" stroke="none" font-family="Arial" font-size="13px" font-style="normal" font-weight="normal" text-decoration="none" x="173" y="461.5">+saveLog()</text></g></g><g transform="translate(-158,-142) scale(1,1)"><g><path fill="none" stroke="none"/><text fill="#000000" stroke="none" font-family="Arial" font-size="13px" font-style="normal" font-weight="normal" text-decoration="none" x="173" y="476.5">+seeLog()</text></g></g><g transform="translate(-158,-142) scale(1,1)"><rect fill="#C0C0C0" stroke="none" x="519" y="375" width="172.6806640625" height="151" opacity="0.2"/></g><g transform="translate(-158,-142) scale(1,1)"><rect fill="#ffffff" stroke="none" x="512" y="368" width="172.6806640625" height="151"/></g><g transform="translate(-158,-142) scale(1,1)"><path fill="none" stroke="#000000" d="M 512 368 L 684.6806640625 368 L 684.6806640625 519 L 512 519 L 512 368 Z Z" stroke-miterlimit="10"/></g><g transform="translate(-158,-142) scale(1,1)"><path fill="none" stroke="#000000" d="M 512 393 L 684.6806640625 393" stroke-miterlimit="10"/></g><g transform="translate(-158,-142) scale(1,1)"><path fill="none" stroke="#000000" d="M 512 431 L 684.6806640625 431" stroke-miterlimit="10"/></g><g transform="translate(-158,-142) scale(1,1)"><g><path fill="none" stroke="none"/><text fill="#000000" stroke="none" font-family="Arial" font-size="13px" font-style="normal" font-weight="bold" text-decoration="none" x="574.8603515625" y="385.5">Backup</text></g></g><g transform="translate(-158,-142) scale(1,1)"><g><path fill="none" stroke="none"/><text fill="#000000" stroke="none" font-family="Arial" font-size="13px" font-style="normal" font-weight="normal" text-decoration="none" x="517" y="408.5">+tuple userLocation</text></g></g><g transform="translate(-158,-142) scale(1,1)"><g><path fill="none" stroke="none"/><text fill="#000000" stroke="none" font-family="Arial" font-size="13px" font-style="normal" font-weight="normal" text-decoration="none" x="517" y="423.5">+tuple [ ] importantLocations</text></g></g><g transform="translate(-158,-142) scale(1,1)"><g><path fill="none" stroke="none"/><text fill="#000000" stroke="none" font-family="Arial" font-size="13px" font-style="normal" font-weight="normal" text-decoration="none" x="517" y="446.5">+save()</text></g></g><g transform="translate(-158,-142) scale(1,1)"><g><path fill="none" stroke="none"/><text fill="#000000" stroke="none" font-family="Arial" font-size="13px" font-style="normal" font-weight="normal" text-decoration="none" x="517" y="461.5">+recover()</text></g></g><g transform="translate(-158,-142) scale(1,1)"><path fill="none" stroke="#000000" d="M 487 298 L 540 367" stroke-miterlimit="10"/></g><g transform="translate(-158,-142) scale(1,1)"><path fill="none" stroke="#000000" d="M 530.4709916090591 361.50472938924963 L 540 367 L 537.1477166620989 356.3762304354654" stroke-miterlimit="10"/></g><g transform="translate(-158,-142) scale(1,1)"><g><path fill="none" stroke="none"/><text fill="#000000" stroke="none" font-family="Arial" font-size="13px" font-style="normal" font-weight="normal" text-decoration="none" x="506.5" y="326">+uses</text></g></g><g transform="translate(-158,-142) scale(1,1)"><path fill="none" stroke="#000000" d="M 511 439 L 320 429" stroke-miterlimit="10"/></g><g transform="translate(-158,-142) scale(1,1)"><path fill="none" stroke="#000000" d="M 330.3688668580655 425.3275893367283 L 320 429 L 329.92868255185977 433.7351095852573" stroke-miterlimit="10"/></g><g transform="translate(-158,-142) scale(1,1)"><g><path fill="none" stroke="none"/><text fill="#000000" stroke="none" font-family="Arial" font-size="13px" font-style="normal" font-weight="normal" text-decoration="none" x="396.5" y="452.5">+adds</text></g></g><g transform="translate(-158,-142) scale(1,1)"><path fill="none" stroke="#000000" d="M 362 298 L 297 367" stroke-miterlimit="10"/></g><g transform="translate(-158,-142) scale(1,1)"><path fill="none" stroke="#000000" d="M 300.9044151669132 356.7162486317308 L 297 367 L 307.03254876963155 362.4891281125524" stroke-miterlimit="10"/></g><g transform="translate(-158,-142) scale(1,1)"><g><path fill="none" stroke="none"/><text fill="#000000" stroke="none" font-family="Arial" font-size="13px" font-style="normal" font-weight="normal" text-decoration="none" x="337.5" y="331.5">+adds</text></g></g></g></svg>