<svg version="1.1" xmlns="http://www.w3.org/2000/svg" xmlns:xlink="http://www.w3.org/1999/xlink" width="932" height="684"><defs/><g><g transform="translate(-30,-54) scale(1,1)"><rect fill="#C0C0C0" stroke="none" x="265" y="71" width="198" height="288" opacity="0.2"/></g><g transform="translate(-30,-54) scale(1,1)"><rect fill="#ffffff" stroke="none" x="258" y="64" width="198" height="288"/></g><g transform="translate(-30,-54) scale(1,1)"><path fill="none" stroke="#000000" d="M 258 64 L 456 64 L 456 352 L 258 352 L 258 64 Z Z" stroke-miterlimit="10"/></g><g transform="translate(-30,-54) scale(1,1)"><rect fill="#ffffff" stroke="none" x="248" y="71" width="20" height="10"/></g><g transform="translate(-30,-54) scale(1,1)"><path fill="none" stroke="#000000" d="M 248 71 L 268 71 L 268 81 L 248 81 L 248 71 Z Z" stroke-miterlimit="10"/></g><g transform="translate(-30,-54) scale(1,1)"><rect fill="#ffffff" stroke="none" x="248" y="91" width="20" height="10"/></g><g transform="translate(-30,-54) scale(1,1)"><path fill="none" stroke="#000000" d="M 248 91 L 268 91 L 268 101 L 248 101 L 248 91 Z Z" stroke-miterlimit="10"/></g><g transform="translate(-30,-54) scale(1,1)"><g><path fill="none" stroke="none"/><text fill="#000000" stroke="none" font-family="Arial" font-size="13px" font-style="normal" font-weight="normal" text-decoration="none" x="323.70458984375" y="79.7099609375">«subsystem»</text></g></g><g transform="translate(-30,-54) scale(1,1)"><g><path fill="none" stroke="none"/><text fill="#000000" stroke="none" font-family="Arial" font-size="13px" font-style="normal" font-weight="bold" text-decoration="none" x="333.838623046875" y="94.7099609375">Frontend</text></g></g><g transform="translate(-30,-54) scale(1,1)"><rect fill="#C0C0C0" stroke="none" x="793" y="103" width="166" height="248" opacity="0.2"/></g><g transform="translate(-30,-54) scale(1,1)"><rect fill="#ffffff" stroke="none" x="786" y="96" width="166" height="248"/></g><g transform="translate(-30,-54) scale(1,1)"><path fill="none" stroke="#000000" d="M 786 96 L 952 96 L 952 344 L 786 344 L 786 96 Z Z" stroke-miterlimit="10"/></g><g transform="translate(-30,-54) scale(1,1)"><rect fill="#ffffff" stroke="none" x="776" y="103" width="20" height="10"/></g><g transform="translate(-30,-54) scale(1,1)"><path fill="none" stroke="#000000" d="M 776 103 L 796 103 L 796 113 L 776 113 L 776 103 Z Z" stroke-miterlimit="10"/></g><g transform="translate(-30,-54) scale(1,1)"><rect fill="#ffffff" stroke="none" x="776" y="123" width="20" height="10"/></g><g transform="translate(-30,-54) scale(1,1)"><path fill="none" stroke="#000000" d="M 776 123 L 796 123 L 796 133 L 776 133 L 776 123 Z Z" stroke-miterlimit="10"/></g><g transform="translate(-30,-54) scale(1,1)"><g><path fill="none" stroke="none"/><text fill="#000000" stroke="none" font-family="Arial" font-size="13px" font-style="normal" font-weight="normal" text-decoration="none" x="843.6455078125" y="111.7099609375">«external»</text></g></g><g transform="translate(-30,-54) scale(1,1)"><g><path fill="none" stroke="none"/><text fill="#000000" stroke="none" font-family="Arial" font-size="13px" font-style="normal" font-weight="bold" text-decoration="none" x="857.385009765625" y="126.471923828125">Maps</text></g></g><g transform="translate(-30,-54) scale(1,1)"><rect fill="#C0C0C0" stroke="none" x="737" y="447" width="182" height="264" opacity="0.2"/></g><g transform="translate(-30,-54) scale(1,1)"><rect fill="#ffffff" stroke="none" x="730" y="440" width="182" height="264"/></g><g transform="translate(-30,-54) scale(1,1)"><path fill="none" stroke="#000000" d="M 730 440 L 912 440 L 912 704 L 730 704 L 730 440 Z Z" stroke-miterlimit="10"/></g><g transform="translate(-30,-54) scale(1,1)"><rect fill="#ffffff" stroke="none" x="720" y="447" width="20" height="10"/></g><g transform="translate(-30,-54) scale(1,1)"><path fill="none" stroke="#000000" d="M 720 447 L 740 447 L 740 457 L 720 457 L 720 447 Z Z" stroke-miterlimit="10"/></g><g transform="translate(-30,-54) scale(1,1)"><rect fill="#ffffff" stroke="none" x="720" y="467" width="20" height="10"/></g><g transform="translate(-30,-54) scale(1,1)"><path fill="none" stroke="#000000" d="M 720 467 L 740 467 L 740 477 L 720 477 L 720 467 Z Z" stroke-miterlimit="10"/></g><g transform="translate(-30,-54) scale(1,1)"><g><path fill="none" stroke="none"/><text fill="#000000" stroke="none" font-family="Arial" font-size="13px" font-style="normal" font-weight="normal" text-decoration="none" x="795.6455078125" y="455.7099609375">«external»</text></g></g><g transform="translate(-30,-54) scale(1,1)"><g><path fill="none" stroke="none"/><text fill="#000000" stroke="none" font-family="Arial" font-size="13px" font-style="normal" font-weight="bold" text-decoration="none" x="811.194091796875" y="470.53857421875">AWS</text></g></g><g transform="translate(-30,-54) scale(1,1)"><rect fill="#C0C0C0" stroke="none" x="193" y="503" width="98.44091796875" height="44" opacity="0.2"/></g><g transform="translate(-30,-54) scale(1,1)"><rect fill="#ffffff" stroke="none" x="186" y="496" width="98.44091796875" height="44"/></g><g transform="translate(-30,-54) scale(1,1)"><path fill="none" stroke="#000000" d="M 186 496 L 284.44091796875 496 L 284.44091796875 540 L 186 540 L 186 496 Z Z" stroke-miterlimit="10"/></g><g transform="translate(-30,-54) scale(1,1)"><rect fill="#ffffff" stroke="none" x="176" y="503" width="20" height="10"/></g><g transform="translate(-30,-54) scale(1,1)"><path fill="none" stroke="#000000" d="M 176 503 L 196 503 L 196 513 L 176 513 L 176 503 Z Z" stroke-miterlimit="10"/></g><g transform="translate(-30,-54) scale(1,1)"><rect fill="#ffffff" stroke="none" x="176" y="523" width="20" height="10"/></g><g transform="translate(-30,-54) scale(1,1)"><path fill="none" stroke="#000000" d="M 176 523 L 196 523 L 196 533 L 176 533 L 176 523 Z Z" stroke-miterlimit="10"/></g><g transform="translate(-30,-54) scale(1,1)"><g><path fill="none" stroke="none"/><text fill="#000000" stroke="none" font-family="Arial" font-size="13px" font-style="normal" font-weight="normal" text-decoration="none" x="209.865966796875" y="511.7099609375">«external»</text></g></g><g transform="translate(-30,-54) scale(1,1)"><g><path fill="none" stroke="none"/><text fill="#000000" stroke="none" font-family="Arial" font-size="13px" font-style="normal" font-weight="bold" text-decoration="none" x="218.55908203125" y="526.7099609375">GitHub</text></g></g><g transform="translate(-30,-54) scale(1,1)"><rect fill="#ffffff" stroke="none" x="449" y="120" width="14" height="14"/></g><g transform="translate(-30,-54) scale(1,1)"><path fill="none" stroke="#000000" d="M 449 120 L 463 120 L 463 134 L 449 134 L 449 120 Z Z" stroke-miterlimit="10"/></g><g transform="translate(-30,-54) scale(1,1)"><g><path fill="none" stroke="none"/><text fill="#000000" stroke="none" font-family="Arial" font-size="13px" font-style="normal" font-weight="normal" text-decoration="none" x="410.872314453125" y="116.2099609375">: Frontend</text></g></g><g transform="translate(-30,-54) scale(1,1)"><rect fill="#ffffff" stroke="none" x="449" y="280" width="14" height="14"/></g><g transform="translate(-30,-54) scale(1,1)"><path fill="none" stroke="#000000" d="M 449 280 L 463 280 L 463 294 L 449 294 L 449 280 Z Z" stroke-miterlimit="10"/></g><g transform="translate(-30,-54) scale(1,1)"><rect fill="#ffffff" stroke="none" x="769" y="158" width="14" height="14"/></g><g transform="translate(-30,-54) scale(1,1)"><path fill="none" stroke="#000000" d="M 769 158 L 783 158 L 783 172 L 769 172 L 769 158 Z Z" stroke-miterlimit="10"/></g><g transform="translate(-30,-54) scale(1,1)"><rect fill="#ffffff" stroke="none" x="840" y="337" width="14" height="14"/></g><g transform="translate(-30,-54) scale(1,1)"><path fill="none" stroke="#000000" d="M 840 337 L 854 337 L 854 351 L 840 351 L 840 337 Z Z" stroke-miterlimit="10"/></g><g transform="translate(-30,-54) scale(1,1)"><rect fill="#ffffff" stroke="none" x="768" y="433" width="14" height="14"/></g><g transform="translate(-30,-54) scale(1,1)"><path fill="none" stroke="#000000" d="M 768 433 L 782 433 L 782 447 L 768 447 L 768 433 Z Z" stroke-miterlimit="10"/></g><g transform="translate(-30,-54) scale(1,1)"><g><path fill="none" stroke="none"/><text fill="#000000" stroke="none" font-family="Arial" font-size="13px" font-style="normal" font-weight="normal" text-decoration="none" x="741.323486328125" y="429.03857421875">: AWS</text></g></g><g transform="translate(-30,-54) scale(1,1)"><rect fill="#ffffff" stroke="none" x="856" y="433" width="14" height="14"/></g><g transform="translate(-30,-54) scale(1,1)"><path fill="none" stroke="#000000" d="M 856 433 L 870 433 L 870 447 L 856 447 L 856 433 Z Z" stroke-miterlimit="10"/></g><g transform="translate(-30,-54) scale(1,1)"><g><path fill="none" stroke="none"/><text fill="#000000" stroke="none" font-family="Arial" font-size="13px" font-style="normal" font-weight="normal" text-decoration="none" x="829.323486328125" y="429.03857421875">: AWS</text></g></g><g transform="translate(-30,-54) scale(1,1)"><rect fill="#ffffff" stroke="none" x="201" y="489" width="14" height="14"/></g><g transform="translate(-30,-54) scale(1,1)"><path fill="none" stroke="#000000" d="M 201 489 L 215 489 L 215 503 L 201 503 L 201 489 Z Z" stroke-miterlimit="10"/></g><g transform="translate(-30,-54) scale(1,1)"><g><path fill="none" stroke="none"/><text fill="#000000" stroke="none" font-family="Arial" font-size="13px" font-style="normal" font-weight="normal" text-decoration="none" x="168.658203125" y="485.2099609375">: GitHub</text></g></g><g transform="translate(-30,-54) scale(1,1)"><rect fill="#C0C0C0" stroke="none" x="287" y="119" width="136" height="37" opacity="0.2"/></g><g transform="translate(-30,-54) scale(1,1)"><rect fill="#ffffff" stroke="none" x="280" y="112" width="136" height="37"/></g><g transform="translate(-30,-54) scale(1,1)"><path fill="none" stroke="#000000" d="M 280 112 L 416 112 L 416 149 L 280 149 L 280 112 Z Z" stroke-miterlimit="10"/></g><g transform="translate(-30,-54) scale(1,1)"><g><path fill="none" stroke="none"/><text fill="#000000" stroke="none" font-family="Arial" font-size="13px" font-style="normal" font-weight="bold" text-decoration="none" x="310.802734375" y="129.53857421875">Open Maps:</text><text fill="#000000" stroke="none" font-family="Arial" font-size="13px" font-style="normal" font-weight="bold" text-decoration="none" x="319.838623046875" y="142.7099609375">Frontend</text></g></g><g transform="translate(-30,-54) scale(1,1)"><rect fill="#ffffff" stroke="none" x="288" y="345" width="14" height="14"/></g><g transform="translate(-30,-54) scale(1,1)"><path fill="none" stroke="#000000" d="M 288 345 L 302 345 L 302 359 L 288 359 L 288 345 Z Z" stroke-miterlimit="10"/></g><g transform="translate(-30,-54) scale(1,1)"><rect fill="#ffffff" stroke="none" x="409" y="120" width="14" height="14"/></g><g transform="translate(-30,-54) scale(1,1)"><path fill="none" stroke="#000000" d="M 409 120 L 423 120 L 423 134 L 409 134 L 409 120 Z Z" stroke-miterlimit="10"/></g><g transform="translate(-30,-54) scale(1,1)"><path fill="none" stroke="#000000" d="M 448 127 L 424 127" stroke-miterlimit="10"/></g><g transform="translate(-30,-54) scale(1,1)"><path fill="#C0C0C0" stroke="none" d="M 613.450439453125 154.5 C 613.450439453125 148.1487248 618.599164253125 143 624.950439453125 143 C 631.301714653125 143 636.450439453125 148.1487248 636.450439453125 154.5 C 636.450439453125 160.8512752 631.301714653125 166 624.950439453125 166 C 618.599164253125 166 613.450439453125 160.8512752 613.450439453125 154.5 Z" opacity="0.2"/></g><g transform="translate(-30,-54) scale(1,1)"><path fill="none" stroke="#000000" d="M 619.7891596879178 135.84336124832868 A 11.5 11.5 0 0 1 614.2108403120822 158.15663875167132" stroke-miterlimit="10"/></g><g transform="translate(-30,-54) scale(1,1)"><path fill="#ffffff" stroke="none" d="M 609.450439453125 147.5 C 609.450439453125 142.8055792 613.256018653125 139 617.950439453125 139 C 622.644860253125 139 626.450439453125 142.8055792 626.450439453125 147.5 C 626.450439453125 152.1944208 622.644860253125 156 617.950439453125 156 C 613.256018653125 156 609.450439453125 152.1944208 609.450439453125 147.5 Z"/></g><g transform="translate(-30,-54) scale(1,1)"><path fill="none" stroke="#000000" d="M 609.450439453125 147.5 C 609.450439453125 142.8055792 613.256018653125 139 617.950439453125 139 C 622.644860253125 139 626.450439453125 142.8055792 626.450439453125 147.5 C 626.450439453125 152.1944208 622.644860253125 156 617.950439453125 156 C 613.256018653125 156 609.450439453125 152.1944208 609.450439453125 147.5 Z" stroke-miterlimit="10"/></g><g transform="translate(-30,-54) scale(1,1)"><g><path fill="none" stroke="none"/><text fill="#000000" stroke="none" font-family="Arial" font-size="13px" font-style="normal" font-weight="bold" text-decoration="none" x="564.5" y="176.7099609375">Google Maps API</text></g></g><g transform="translate(-30,-54) scale(1,1)"><path fill="none" stroke="#000000" d="M 464 129 L 606.450439453125 147.18188897494613" stroke-miterlimit="10"/></g><g transform="translate(-30,-54) scale(1,1)"><path fill="none" stroke="#000000" d="M 768 165 L 629.450439453125 150.11260986328125" stroke-miterlimit="10"/></g><g transform="translate(-30,-54) scale(1,1)"><rect fill="#C0C0C0" stroke="none" x="823" y="183" width="100.74267578125" height="24" opacity="0.2"/></g><g transform="translate(-30,-54) scale(1,1)"><rect fill="#ffffff" stroke="none" x="816" y="176" width="100.74267578125" height="24"/></g><g transform="translate(-30,-54) scale(1,1)"><path fill="none" stroke="#000000" d="M 816 176 L 916.74267578125 176 L 916.74267578125 200 L 816 200 L 816 176 Z Z" stroke-miterlimit="10"/></g><g transform="translate(-30,-54) scale(1,1)"><g><path fill="none" stroke="none"/><text fill="#000000" stroke="none" font-family="Arial" font-size="13px" font-style="normal" font-weight="bold" text-decoration="none" x="820.5" y="193.53857421875">Map Generator</text></g></g><g transform="translate(-30,-54) scale(1,1)"><path fill="none" stroke="#000000" d="M 815 175 L 784 167" stroke-miterlimit="10"/></g><g transform="translate(-30,-54) scale(1,1)"><rect fill="#C0C0C0" stroke="none" x="295" y="271" width="143.3291015625" height="48" opacity="0.2"/></g><g transform="translate(-30,-54) scale(1,1)"><rect fill="#ffffff" stroke="none" x="288" y="264" width="143.3291015625" height="48"/></g><g transform="translate(-30,-54) scale(1,1)"><path fill="none" stroke="#000000" d="M 288 264 L 431.3291015625 264 L 431.3291015625 312 L 288 312 L 288 264 Z Z" stroke-miterlimit="10"/></g><g transform="translate(-30,-54) scale(1,1)"><g><path fill="none" stroke="none"/><text fill="#000000" stroke="none" font-family="Arial" font-size="13px" font-style="normal" font-weight="bold" text-decoration="none" x="292.5" y="281.7099609375">Open PDFs: Frontend</text></g></g><g transform="translate(-30,-54) scale(1,1)"><rect fill="#C0C0C0" stroke="none" x="57" y="79" width="101.8369140625" height="44" opacity="0.2"/></g><g transform="translate(-30,-54) scale(1,1)"><rect fill="#ffffff" stroke="none" x="50" y="72" width="101.8369140625" height="44"/></g><g transform="translate(-30,-54) scale(1,1)"><path fill="none" stroke="#000000" d="M 50 72 L 151.8369140625 72 L 151.8369140625 116 L 50 116 L 50 72 Z Z" stroke-miterlimit="10"/></g><g transform="translate(-30,-54) scale(1,1)"><rect fill="#ffffff" stroke="none" x="40" y="79" width="20" height="10"/></g><g transform="translate(-30,-54) scale(1,1)"><path fill="none" stroke="#000000" d="M 40 79 L 60 79 L 60 89 L 40 89 L 40 79 Z Z" stroke-miterlimit="10"/></g><g transform="translate(-30,-54) scale(1,1)"><rect fill="#ffffff" stroke="none" x="40" y="99" width="20" height="10"/></g><g transform="translate(-30,-54) scale(1,1)"><path fill="none" stroke="#000000" d="M 40 99 L 60 99 L 60 109 L 40 109 L 40 99 Z Z" stroke-miterlimit="10"/></g><g transform="translate(-30,-54) scale(1,1)"><g><path fill="none" stroke="none"/><text fill="#000000" stroke="none" font-family="Arial" font-size="13px" font-style="normal" font-weight="normal" text-decoration="none" x="75.56396484375" y="87.7099609375">«external»</text></g></g><g transform="translate(-30,-54) scale(1,1)"><g><path fill="none" stroke="none"/><text fill="#000000" stroke="none" font-family="Arial" font-size="13px" font-style="normal" font-weight="bold" text-decoration="none" x="64.5" y="102.7099609375">Web Browser</text></g></g><g transform="translate(-30,-54) scale(1,1)"><rect fill="#ffffff" stroke="none" x="144.8369140625" y="88" width="14" height="14"/></g><g transform="translate(-30,-54) scale(1,1)"><path fill="none" stroke="#000000" d="M 144.8369140625 88 L 158.8369140625 88 L 158.8369140625 102 L 144.8369140625 102 L 144.8369140625 88 Z Z" stroke-miterlimit="10"/></g><g transform="translate(-30,-54) scale(1,1)"><g><path fill="none" stroke="none"/><text fill="#000000" stroke="none" font-family="Arial" font-size="13px" font-style="normal" font-weight="normal" text-decoration="none" x="93.8330078125" y="84.2099609375">: Web Browser</text></g></g><g transform="translate(-30,-54) scale(1,1)"><path fill="#C0C0C0" stroke="none" d="M 156.309814453125 178.5 C 156.309814453125 172.1487248 161.458539253125 167 167.809814453125 167 C 174.161089653125 167 179.309814453125 172.1487248 179.309814453125 178.5 C 179.309814453125 184.8512752 174.161089653125 190 167.809814453125 190 C 161.458539253125 190 156.309814453125 184.8512752 156.309814453125 178.5 Z" opacity="0.2"/></g><g transform="translate(-30,-54) scale(1,1)"><path fill="none" stroke="#000000" d="M 162.6339523378438 159.80570256416388 A 11.5 11.5 0 0 1 157.3660476621562 182.19429743583612" stroke-miterlimit="10"/></g><g transform="translate(-30,-54) scale(1,1)"><path fill="#ffffff" stroke="none" d="M 152.309814453125 171.5 C 152.309814453125 166.8055792 156.115393653125 163 160.809814453125 163 C 165.504235253125 163 169.309814453125 166.8055792 169.309814453125 171.5 C 169.309814453125 176.1944208 165.504235253125 180 160.809814453125 180 C 156.115393653125 180 152.309814453125 176.1944208 152.309814453125 171.5 Z"/></g><g transform="translate(-30,-54) scale(1,1)"><path fill="none" stroke="#000000" d="M 152.309814453125 171.5 C 152.309814453125 166.8055792 156.115393653125 163 160.809814453125 163 C 165.504235253125 163 169.309814453125 166.8055792 169.309814453125 171.5 C 169.309814453125 176.1944208 165.504235253125 180 160.809814453125 180 C 156.115393653125 180 152.309814453125 176.1944208 152.309814453125 171.5 Z" stroke-miterlimit="10"/></g><g transform="translate(-30,-54) scale(1,1)"><g><path fill="none" stroke="none"/><text fill="#000000" stroke="none" font-family="Arial" font-size="13px" font-style="normal" font-weight="bold" text-decoration="none" x="116.5" y="200.7099609375">Static Website</text></g></g><g transform="translate(-30,-54) scale(1,1)"><rect fill="#ffffff" stroke="none" x="241" y="176" width="14" height="14"/></g><g transform="translate(-30,-54) scale(1,1)"><path fill="none" stroke="#000000" d="M 241 176 L 255 176 L 255 190 L 241 190 L 241 176 Z Z" stroke-miterlimit="10"/></g><g transform="translate(-30,-54) scale(1,1)"><path fill="none" stroke="#000000" d="M 333 263 L 256 191" stroke-miterlimit="10"/></g><g transform="translate(-30,-54) scale(1,1)"><path fill="none" stroke="#000000" d="M 310 150 L 256 179" stroke-miterlimit="10"/></g><g transform="translate(-30,-54) scale(1,1)"><path fill="none" stroke="#000000" d="M 240 183 L 172.309814453125 173.89642693014707" stroke-miterlimit="10"/></g><g transform="translate(-30,-54) scale(1,1)"><path fill="none" stroke="#000000" d="M 152 103 L 157.25 160" stroke-miterlimit="10"/></g><g transform="translate(-30,-54) scale(1,1)"><path fill="#C0C0C0" stroke="none" d="M 256.091796875 426.5 C 256.091796875 420.1487248 261.240521675 415 267.591796875 415 C 273.943072075 415 279.091796875 420.1487248 279.091796875 426.5 C 279.091796875 432.8512752 273.943072075 438 267.591796875 438 C 261.240521675 438 256.091796875 432.8512752 256.091796875 426.5 Z" opacity="0.2"/></g><g transform="translate(-30,-54) scale(1,1)"><path fill="none" stroke="#000000" d="M 251.52272738769148 411.2291667720505 A 11.5 11.5 0 0 1 268.4772726123085 426.7708332279495" stroke-miterlimit="10"/></g><g transform="translate(-30,-54) scale(1,1)"><path fill="#ffffff" stroke="none" d="M 252.091796875 419.5 C 252.091796875 414.8055792 255.897376075 411 260.591796875 411 C 265.286217675 411 269.091796875 414.8055792 269.091796875 419.5 C 269.091796875 424.1944208 265.286217675 428 260.591796875 428 C 255.897376075 428 252.091796875 424.1944208 252.091796875 419.5 Z"/></g><g transform="translate(-30,-54) scale(1,1)"><path fill="none" stroke="#000000" d="M 252.091796875 419.5 C 252.091796875 414.8055792 255.897376075 411 260.591796875 411 C 265.286217675 411 269.091796875 414.8055792 269.091796875 419.5 C 269.091796875 424.1944208 265.286217675 428 260.591796875 428 C 255.897376075 428 252.091796875 424.1944208 252.091796875 419.5 Z" stroke-miterlimit="10"/></g><g transform="translate(-30,-54) scale(1,1)"><g><path fill="none" stroke="none"/><text fill="#000000" stroke="none" font-family="Arial" font-size="13px" font-style="normal" font-weight="bold" text-decoration="none" x="220.5" y="448.7099609375">Source Code</text></g></g><g transform="translate(-30,-54) scale(1,1)"><path fill="none" stroke="#000000" d="M 215 488 L 253.68421052631578 431" stroke-miterlimit="10"/></g><g transform="translate(-30,-54) scale(1,1)"><path fill="none" stroke="#000000" d="M 292 360 L 270.0833333333333 408" stroke-miterlimit="10"/></g><g transform="translate(-30,-54) scale(1,1)"><rect fill="#C0C0C0" stroke="none" x="759" y="527" width="136.1689453125" height="24" opacity="0.2"/></g><g transform="translate(-30,-54) scale(1,1)"><rect fill="#ffffff" stroke="none" x="752" y="520" width="136.1689453125" height="24"/></g><g transform="translate(-30,-54) scale(1,1)"><path fill="none" stroke="#000000" d="M 752 520 L 888.1689453125 520 L 888.1689453125 544 L 752 544 L 752 520 Z Z" stroke-miterlimit="10"/></g><g transform="translate(-30,-54) scale(1,1)"><g><path fill="none" stroke="none"/><text fill="#000000" stroke="none" font-family="Arial" font-size="13px" font-style="normal" font-weight="bold" text-decoration="none" x="756.5" y="537.7099609375">Primary Data Bucket</text></g></g><g transform="translate(-30,-54) scale(1,1)"><rect fill="#C0C0C0" stroke="none" x="759" y="615" width="134.708984375" height="24" opacity="0.2"/></g><g transform="translate(-30,-54) scale(1,1)"><rect fill="#ffffff" stroke="none" x="752" y="608" width="134.708984375" height="24"/></g><g transform="translate(-30,-54) scale(1,1)"><path fill="none" stroke="#000000" d="M 752 608 L 886.708984375 608 L 886.708984375 632 L 752 632 L 752 608 Z Z" stroke-miterlimit="10"/></g><g transform="translate(-30,-54) scale(1,1)"><g><path fill="none" stroke="none"/><text fill="#000000" stroke="none" font-family="Arial" font-size="13px" font-style="normal" font-weight="bold" text-decoration="none" x="756.5" y="625.7099609375">Backup Data Bucket</text></g></g><g transform="translate(-30,-54) scale(1,1)"><path fill="#C0C0C0" stroke="none" d="M 542.7099609375 338.5 C 542.7099609375 332.1487248 547.8586857375 327 554.2099609375 327 C 560.5612361375 327 565.7099609375 332.1487248 565.7099609375 338.5 C 565.7099609375 344.8512752 560.5612361375 350 554.2099609375 350 C 547.8586857375 350 542.7099609375 344.8512752 542.7099609375 338.5 Z" opacity="0.2"/></g><g transform="translate(-30,-54) scale(1,1)"><path fill="none" stroke="#000000" d="M 543.9220955664599 342.0804559607443 A 11.5 11.5 0 0 1 550.0779044335401 319.9195440392557" stroke-miterlimit="10"/></g><g transform="translate(-30,-54) scale(1,1)"><path fill="#ffffff" stroke="none" d="M 538.7099609375 331.5 C 538.7099609375 326.8055792 542.5155401375 323 547.2099609375 323 C 551.9043817375 323 555.7099609375 326.8055792 555.7099609375 331.5 C 555.7099609375 336.1944208 551.9043817375 340 547.2099609375 340 C 542.5155401375 340 538.7099609375 336.1944208 538.7099609375 331.5 Z"/></g><g transform="translate(-30,-54) scale(1,1)"><path fill="none" stroke="#000000" d="M 538.7099609375 331.5 C 538.7099609375 326.8055792 542.5155401375 323 547.2099609375 323 C 551.9043817375 323 555.7099609375 326.8055792 555.7099609375 331.5 C 555.7099609375 336.1944208 551.9043817375 340 547.2099609375 340 C 542.5155401375 340 538.7099609375 336.1944208 538.7099609375 331.5 Z" stroke-miterlimit="10"/></g><g transform="translate(-30,-54) scale(1,1)"><g><path fill="none" stroke="none"/><text fill="#000000" stroke="none" font-family="Arial" font-size="13px" font-style="normal" font-weight="bold" text-decoration="none" x="521.568603515625" y="360.53857421875">Get PDF</text></g></g><g transform="translate(-30,-54) scale(1,1)"><path fill="none" stroke="#000000" d="M 767 437 L 558.7099609375 340.1077473958333" stroke-miterlimit="10"/></g><g transform="translate(-30,-54) scale(1,1)"><path fill="none" stroke="#000000" d="M 464 292 L 535.7099609375 327.86387803819446" stroke-miterlimit="10"/></g><g transform="translate(-30,-54) scale(1,1)"><path fill="#C0C0C0" stroke="none" d="M 843.338623046875 386.5 C 843.338623046875 380.1487248 848.487347846875 375 854.838623046875 375 C 861.189898246875 375 866.338623046875 380.1487248 866.338623046875 386.5 C 866.338623046875 392.8512752 861.189898246875 398 854.838623046875 398 C 848.487347846875 398 843.338623046875 392.8512752 843.338623046875 386.5 Z" opacity="0.2"/></g><g transform="translate(-30,-54) scale(1,1)"><path fill="none" stroke="#000000" d="M 835.5 379 A 11.5 11.5 0 0 1 858.5 379" stroke-miterlimit="10"/></g><g transform="translate(-30,-54) scale(1,1)"><path fill="#ffffff" stroke="none" d="M 839.338623046875 379.5 C 839.338623046875 374.8055792 843.144202246875 371 847.838623046875 371 C 852.533043846875 371 856.338623046875 374.8055792 856.338623046875 379.5 C 856.338623046875 384.1944208 852.533043846875 388 847.838623046875 388 C 843.144202246875 388 839.338623046875 384.1944208 839.338623046875 379.5 Z"/></g><g transform="translate(-30,-54) scale(1,1)"><path fill="none" stroke="#000000" d="M 839.338623046875 379.5 C 839.338623046875 374.8055792 843.144202246875 371 847.838623046875 371 C 852.533043846875 371 856.338623046875 374.8055792 856.338623046875 379.5 C 856.338623046875 384.1944208 852.533043846875 388 847.838623046875 388 C 843.144202246875 388 839.338623046875 384.1944208 839.338623046875 379.5 Z" stroke-miterlimit="10"/></g><g transform="translate(-30,-54) scale(1,1)"><g><path fill="none" stroke="none"/><text fill="#000000" stroke="none" font-family="Arial" font-size="13px" font-style="normal" font-weight="bold" text-decoration="none" x="804.5" y="408.7099609375">Get Locations</text></g></g><g transform="translate(-30,-54) scale(1,1)"><path fill="none" stroke="#000000" d="M 860 432 L 849.5263157894736 391" stroke-miterlimit="10"/></g><g transform="translate(-30,-54) scale(1,1)"><path fill="none" stroke="#000000" d="M 847 352 L 847 368" stroke-miterlimit="10"/></g><g transform="translate(-30,-54) scale(1,1)"><path fill="none" stroke="#000000" d="M 864 201 L 848 336" stroke-miterlimit="10"/></g><g transform="translate(-30,-54) scale(1,1)"><rect fill="#C0C0C0" stroke="none" x="369" y="567" width="174" height="168" opacity="0.2"/></g><g transform="translate(-30,-54) scale(1,1)"><rect fill="#ffffff" stroke="none" x="362" y="560" width="174" height="168"/></g><g transform="translate(-30,-54) scale(1,1)"><path fill="none" stroke="#000000" d="M 362 560 L 536 560 L 536 728 L 362 728 L 362 560 Z Z" stroke-miterlimit="10"/></g><g transform="translate(-30,-54) scale(1,1)"><rect fill="#ffffff" stroke="none" x="352" y="567" width="20" height="10"/></g><g transform="translate(-30,-54) scale(1,1)"><path fill="none" stroke="#000000" d="M 352 567 L 372 567 L 372 577 L 352 577 L 352 567 Z Z" stroke-miterlimit="10"/></g><g transform="translate(-30,-54) scale(1,1)"><rect fill="#ffffff" stroke="none" x="352" y="587" width="20" height="10"/></g><g transform="translate(-30,-54) scale(1,1)"><path fill="none" stroke="#000000" d="M 352 587 L 372 587 L 372 597 L 352 597 L 352 587 Z Z" stroke-miterlimit="10"/></g><g transform="translate(-30,-54) scale(1,1)"><g><path fill="none" stroke="none"/><text fill="#000000" stroke="none" font-family="Arial" font-size="13px" font-style="normal" font-weight="normal" text-decoration="none" x="415.70458984375" y="575.7099609375">«subsystem»</text></g></g><g transform="translate(-30,-54) scale(1,1)"><g><path fill="none" stroke="none"/><text fill="#000000" stroke="none" font-family="Arial" font-size="13px" font-style="normal" font-weight="bold" text-decoration="none" x="408.128662109375" y="590.53857421875">PDF Generator</text></g></g><g transform="translate(-30,-54) scale(1,1)"><rect fill="#C0C0C0" stroke="none" x="399" y="639" width="111.58447265625" height="24" opacity="0.2"/></g><g transform="translate(-30,-54) scale(1,1)"><rect fill="#ffffff" stroke="none" x="392" y="632" width="111.58447265625" height="24"/></g><g transform="translate(-30,-54) scale(1,1)"><path fill="none" stroke="#000000" d="M 392 632 L 503.58447265625 632 L 503.58447265625 656 L 392 656 L 392 632 Z Z" stroke-miterlimit="10"/></g><g transform="translate(-30,-54) scale(1,1)"><g><path fill="none" stroke="none"/><text fill="#000000" stroke="none" font-family="Arial" font-size="13px" font-style="normal" font-weight="bold" text-decoration="none" x="396.5" y="649.7099609375">Generator Script</text></g></g><g transform="translate(-30,-54) scale(1,1)"><rect fill="#ffffff" stroke="none" x="345" y="640" width="14" height="14"/></g><g transform="translate(-30,-54) scale(1,1)"><path fill="none" stroke="#000000" d="M 345 640 L 359 640 L 359 654 L 345 654 L 345 640 Z Z" stroke-miterlimit="10"/></g><g transform="translate(-30,-54) scale(1,1)"><g><path fill="none" stroke="none"/><text fill="#000000" stroke="none" font-family="Arial" font-size="13px" font-style="normal" font-weight="normal" text-decoration="none" x="288.81640625" y="636.03857421875">: PDF Generator</text></g></g><g transform="translate(-30,-54) scale(1,1)"><rect fill="#ffffff" stroke="none" x="529" y="640" width="14" height="14"/></g><g transform="translate(-30,-54) scale(1,1)"><path fill="none" stroke="#000000" d="M 529 640 L 543 640 L 543 654 L 529 654 L 529 640 Z Z" stroke-miterlimit="10"/></g><g transform="translate(-30,-54) scale(1,1)"><g><path fill="none" stroke="none"/><text fill="#000000" stroke="none" font-family="Arial" font-size="13px" font-style="normal" font-weight="normal" text-decoration="none" x="472.81640625" y="636.03857421875">: PDF Generator</text></g></g><g transform="translate(-30,-54) scale(1,1)"><path fill="#C0C0C0" stroke="none" d="M 263.302734375 586.5 C 263.302734375 580.1487248 268.451459175 575 274.802734375 575 C 281.154009575 575 286.302734375 580.1487248 286.302734375 586.5 C 286.302734375 592.8512752 281.154009575 598 274.802734375 598 C 268.451459175 598 263.302734375 592.8512752 263.302734375 586.5 Z" opacity="0.2"/></g><g transform="translate(-30,-54) scale(1,1)"><path fill="none" stroke="#000000" d="M 275.02544435946993 570.7633597363335 A 11.5 11.5 0 0 1 258.97455564053007 587.2366402636665" stroke-miterlimit="10"/></g><g transform="translate(-30,-54) scale(1,1)"><path fill="#ffffff" stroke="none" d="M 259.302734375 579.5 C 259.302734375 574.8055792 263.108313575 571 267.802734375 571 C 272.497155175 571 276.302734375 574.8055792 276.302734375 579.5 C 276.302734375 584.1944208 272.497155175 588 267.802734375 588 C 263.108313575 588 259.302734375 584.1944208 259.302734375 579.5 Z"/></g><g transform="translate(-30,-54) scale(1,1)"><path fill="none" stroke="#000000" d="M 259.302734375 579.5 C 259.302734375 574.8055792 263.108313575 571 267.802734375 571 C 272.497155175 571 276.302734375 574.8055792 276.302734375 579.5 C 276.302734375 584.1944208 272.497155175 588 267.802734375 588 C 263.108313575 588 259.302734375 584.1944208 259.302734375 579.5 Z" stroke-miterlimit="10"/></g><g transform="translate(-30,-54) scale(1,1)"><g><path fill="none" stroke="none"/><text fill="#000000" stroke="none" font-family="Arial" font-size="13px" font-style="normal" font-weight="bold" text-decoration="none" x="220.5" y="608.7099609375">GitHub Actions</text></g></g><g transform="translate(-30,-54) scale(1,1)"><path fill="none" stroke="#000000" d="M 344 642 L 279.302734375 590.9872796474359" stroke-miterlimit="10"/></g><g transform="translate(-30,-54) scale(1,1)"><rect fill="#ffffff" stroke="none" x="214" y="533" width="14" height="14"/></g><g transform="translate(-30,-54) scale(1,1)"><path fill="none" stroke="#000000" d="M 214 533 L 228 533 L 228 547 L 214 547 L 214 533 Z Z" stroke-miterlimit="10"/></g><g transform="translate(-30,-54) scale(1,1)"><g><path fill="none" stroke="none"/><text fill="#000000" stroke="none" font-family="Arial" font-size="13px" font-style="normal" font-weight="normal" text-decoration="none" x="181.658203125" y="529.2099609375">: GitHub</text></g></g><g transform="translate(-30,-54) scale(1,1)"><path fill="none" stroke="#000000" d="M 228 548 L 256.302734375 573.1651278409091" stroke-miterlimit="10"/></g><g transform="translate(-30,-54) scale(1,1)"><rect fill="#ffffff" stroke="none" x="713" y="568" width="14" height="14"/></g><g transform="translate(-30,-54) scale(1,1)"><path fill="none" stroke="#000000" d="M 713 568 L 727 568 L 727 582 L 713 582 L 713 568 Z Z" stroke-miterlimit="10"/></g><g transform="translate(-30,-54) scale(1,1)"><g><path fill="none" stroke="none"/><text fill="#000000" stroke="none" font-family="Arial" font-size="13px" font-style="normal" font-weight="normal" text-decoration="none" x="686.323486328125" y="564.03857421875">: AWS</text></g></g><g transform="translate(-30,-54) scale(1,1)"><path fill="#C0C0C0" stroke="none" d="M 631.4208984375 610.5 C 631.4208984375 604.1487248 636.5696232375 599 642.9208984375 599 C 649.2721736375 599 654.4208984375 604.1487248 654.4208984375 610.5 C 654.4208984375 616.8512752 649.2721736375 622 642.9208984375 622 C 636.5696232375 622 631.4208984375 616.8512752 631.4208984375 610.5 Z" opacity="0.2"/></g><g transform="translate(-30,-54) scale(1,1)"><path fill="none" stroke="#000000" d="M 633.499773105429 591.5982756012608 A 11.5 11.5 0 0 1 636.500226894571 614.4017243987392" stroke-miterlimit="10"/></g><g transform="translate(-30,-54) scale(1,1)"><path fill="#ffffff" stroke="none" d="M 627.4208984375 603.5 C 627.4208984375 598.8055792 631.2264776375 595 635.9208984375 595 C 640.6153192375 595 644.4208984375 598.8055792 644.4208984375 603.5 C 644.4208984375 608.1944208 640.6153192375 612 635.9208984375 612 C 631.2264776375 612 627.4208984375 608.1944208 627.4208984375 603.5 Z"/></g><g transform="translate(-30,-54) scale(1,1)"><path fill="none" stroke="#000000" d="M 627.4208984375 603.5 C 627.4208984375 598.8055792 631.2264776375 595 635.9208984375 595 C 640.6153192375 595 644.4208984375 598.8055792 644.4208984375 603.5 C 644.4208984375 608.1944208 640.6153192375 612 635.9208984375 612 C 631.2264776375 612 627.4208984375 608.1944208 627.4208984375 603.5 Z" stroke-miterlimit="10"/></g><g transform="translate(-30,-54) scale(1,1)"><g><path fill="none" stroke="none"/><text fill="#000000" stroke="none" font-family="Arial" font-size="13px" font-style="normal" font-weight="bold" text-decoration="none" x="604.5" y="632.53857421875">Store PDF</text></g></g><g transform="translate(-30,-54) scale(1,1)"><path fill="none" stroke="#000000" d="M 544 644 L 624.4208984375 610.052734375" stroke-miterlimit="10"/></g><g transform="translate(-30,-54) scale(1,1)"><path fill="none" stroke="#000000" d="M 712 579 L 647.4208984375 601.3656712582236" stroke-miterlimit="10"/></g></g></svg>