<svg version="1.1" xmlns="http://www.w3.org/2000/svg" xmlns:xlink="http://www.w3.org/1999/xlink" width="932" height="604"><defs/><g><text fill="#eeeeee" stroke="none" font-family="Arial" font-size="24px" font-style="normal" font-weight="normal" text-decoration="none" x="0" y="0">UNREGISTERED</text><text fill="#eeeeee" stroke="none" font-family="Arial" font-size="24px" font-style="normal" font-weight="normal" text-decoration="none" x="0" y="30">UNREGISTERED</text><text fill="#eeeeee" stroke="none" font-family="Arial" font-size="24px" font-style="normal" font-weight="normal" text-decoration="none" x="0" y="60">UNREGISTERED</text><text fill="#eeeeee" stroke="none" font-family="Arial" font-size="24px" font-style="normal" font-weight="normal" text-decoration="none" x="0" y="90">UNREGISTERED</text><text fill="#eeeeee" stroke="none" font-family="Arial" font-size="24px" font-style="normal" font-weight="normal" text-decoration="none" x="0" y="120">UNREGISTERED</text><text fill="#eeeeee" stroke="none" font-family="Arial" font-size="24px" font-style="normal" font-weight="normal" text-decoration="none" x="0" y="150">UNREGISTERED</text><text fill="#eeeeee" stroke="none" font-family="Arial" font-size="24px" font-style="normal" font-weight="normal" text-decoration="none" x="0" y="180">UNREGISTERED</text><text fill="#eeeeee" stroke="none" font-family="Arial" font-size="24px" font-style="normal" font-weight="normal" text-decoration="none" x="0" y="210">UNREGISTERED</text><text fill="#eeeeee" stroke="none" font-family="Arial" font-size="24px" font-style="normal" font-weight="normal" text-decoration="none" x="0" y="240">UNREGISTERED</text><text fill="#eeeeee" stroke="none" font-family="Arial" font-size="24px" font-style="normal" font-weight="normal" text-decoration="none" x="0" y="270">UNREGISTERED</text><text fill="#eeeeee" stroke="none" font-family="Arial" font-size="24px" font-style="normal" font-weight="normal" text-decoration="none" x="0" y="300">UNREGISTERED</text><text fill="#eeeeee" stroke="none" font-family="Arial" font-size="24px" font-style="normal" font-weight="normal" text-decoration="none" x="0" y="330">UNREGISTERED</text><text fill="#eeeeee" stroke="none" font-family="Arial" font-size="24px" font-style="normal" font-weight="normal" text-decoration="none" x="0" y="360">UNREGISTERED</text><text fill="#eeeeee" stroke="none" font-family="Arial" font-size="24px" font-style="normal" font-weight="normal" text-decoration="none" x="0" y="390">UNREGISTERED</text><text fill="#eeeeee" stroke="none" font-family="Arial" font-size="24px" font-style="normal" font-weight="normal" text-decoration="none" x="0" y="420">UNREGISTERED</text><text fill="#eeeeee" stroke="none" font-family="Arial" font-size="24px" font-style="normal" font-weight="normal" text-decoration="none" x="0" y="450">UNREGISTERED</text><text fill="#eeeeee" stroke="none" font-family="Arial" font-size="24px" font-style="normal" font-weight="normal" text-decoration="none" x="0" y="480">UNREGISTERED</text><text fill="#eeeeee" stroke="none" font-family="Arial" font-size="24px" font-style="normal" font-weight="normal" text-decoration="none" x="0" y="510">UNREGISTERED</text><text fill="#eeeeee" stroke="none" font-family="Arial" font-size="24px" font-style="normal" font-weight="normal" text-decoration="none" x="0" y="540">UNREGISTERED</text><text fill="#eeeeee" stroke="none" font-family="Arial" font-size="24px" font-style="normal" font-weight="normal" text-decoration="none" x="0" y="570">UNREGISTERED</text><text fill="#eeeeee" stroke="none" font-family="Arial" font-size="24px" font-style="normal" font-weight="normal" text-decoration="none" x="0" y="600">UNREGISTERED</text><text fill="#eeeeee" stroke="none" font-family="Arial" font-size="24px" font-style="normal" font-weight="normal" text-decoration="none" x="200" y="0">UNREGISTERED</text><text fill="#eeeeee" stroke="none" font-family="Arial" font-size="24px" font-style="normal" font-weight="normal" text-decoration="none" x="200" y="30">UNREGISTERED</text><text fill="#eeeeee" stroke="none" font-family="Arial" font-size="24px" font-style="normal" font-weight="normal" text-decoration="none" x="200" y="60">UNREGISTERED</text><text fill="#eeeeee" stroke="none" font-family="Arial" font-size="24px" font-style="normal" font-weight="normal" text-decoration="none" x="200" y="90">UNREGISTERED</text><text fill="#eeeeee" stroke="none" font-family="Arial" font-size="24px" font-style="normal" font-weight="normal" text-decoration="none" x="200" y="120">UNREGISTERED</text><text fill="#eeeeee" stroke="none" font-family="Arial" font-size="24px" font-style="normal" font-weight="normal" text-decoration="none" x="200" y="150">UNREGISTERED</text><text fill="#eeeeee" stroke="none" font-family="Arial" font-size="24px" font-style="normal" font-weight="normal" text-decoration="none" x="200" y="180">UNREGISTERED</text><text fill="#eeeeee" stroke="none" font-family="Arial" font-size="24px" font-style="normal" font-weight="normal" text-decoration="none" x="200" y="210">UNREGISTERED</text><text fill="#eeeeee" stroke="none" font-family="Arial" font-size="24px" font-style="normal" font-weight="normal" text-decoration="none" x="200" y="240">UNREGISTERED</text><text fill="#eeeeee" stroke="none" font-family="Arial" font-size="24px" font-style="normal" font-weight="normal" text-decoration="none" x="200" y="270">UNREGISTERED</text><text fill="#eeeeee" stroke="none" font-family="Arial" font-size="24px" font-style="normal" font-weight="normal" text-decoration="none" x="200" y="300">UNREGISTERED</text><text fill="#eeeeee" stroke="none" font-family="Arial" font-size="24px" font-style="normal" font-weight="normal" text-decoration="none" x="200" y="330">UNREGISTERED</text><text fill="#eeeeee" stroke="none" font-family="Arial" font-size="24px" font-style="normal" font-weight="normal" text-decoration="none" x="200" y="360">UNREGISTERED</text><text fill="#eeeeee" stroke="none" font-family="Arial" font-size="24px" font-style="normal" font-weight="normal" text-decoration="none" x="200" y="390">UNREGISTERED</text><text fill="#eeeeee" stroke="none" font-family="Arial" font-size="24px" font-style="normal" font-weight="normal" text-decoration="none" x="200" y="420">UNREGISTERED</text><text fill="#eeeeee" stroke="none" font-family="Arial" font-size="24px" font-style="normal" font-weight="normal" text-decoration="none" x="200" y="450">UNREGISTERED</text><text fill="#eeeeee" stroke="none" font-family="Arial" font-size="24px" font-style="normal" font-weight="normal" text-decoration="none" x="200" y="480">UNREGISTERED</text><text fill="#eeeeee" stroke="none" font-family="Arial" font-size="24px" font-style="normal" font-weight="normal" text-decoration="none" x="200" y="510">UNREGISTERED</text><text fill="#eeeeee" stroke="none" font-family="Arial" font-size="24px" font-style="normal" font-weight="normal" text-decoration="none" x="200" y="540">UNREGISTERED</text><text fill="#eeeeee" stroke="none" font-family="Arial" font-size="24px" font-style="normal" font-weight="normal" text-decoration="none" x="200" y="570">UNREGISTERED</text><text fill="#eeeeee" stroke="none" font-family="Arial" font-size="24px" font-style="normal" font-weight="normal" text-decoration="none" x="200" y="600">UNREGISTERED</text><text fill="#eeeeee" stroke="none" font-family="Arial" font-size="24px" font-style="normal" font-weight="normal" text-decoration="none" x="400" y="0">UNREGISTERED</text><text fill="#eeeeee" stroke="none" font-family="Arial" font-size="24px" font-style="normal" font-weight="normal" text-decoration="none" x="400" y="30">UNREGISTERED</text><text fill="#eeeeee" stroke="none" font-family="Arial" font-size="24px" font-style="normal" font-weight="normal" text-decoration="none" x="400" y="60">UNREGISTERED</text><text fill="#eeeeee" stroke="none" font-family="Arial" font-size="24px" font-style="normal" font-weight="normal" text-decoration="none" x="400" y="90">UNREGISTERED</text><text fill="#eeeeee" stroke="none" font-family="Arial" font-size="24px" font-style="normal" font-weight="normal" text-decoration="none" x="400" y="120">UNREGISTERED</text><text fill="#eeeeee" stroke="none" font-family="Arial" font-size="24px" font-style="normal" font-weight="normal" text-decoration="none" x="400" y="150">UNREGISTERED</text><text fill="#eeeeee" stroke="none" font-family="Arial" font-size="24px" font-style="normal" font-weight="normal" text-decoration="none" x="400" y="180">UNREGISTERED</text><text fill="#eeeeee" stroke="none" font-family="Arial" font-size="24px" font-style="normal" font-weight="normal" text-decoration="none" x="400" y="210">UNREGISTERED</text><text fill="#eeeeee" stroke="none" font-family="Arial" font-size="24px" font-style="normal" font-weight="normal" text-decoration="none" x="400" y="240">UNREGISTERED</text><text fill="#eeeeee" stroke="none" font-family="Arial" font-size="24px" font-style="normal" font-weight="normal" text-decoration="none" x="400" y="270">UNREGISTERED</text><text fill="#eeeeee" stroke="none" font-family="Arial" font-size="24px" font-style="normal" font-weight="normal" text-decoration="none" x="400" y="300">UNREGISTERED</text><text fill="#eeeeee" stroke="none" font-family="Arial" font-size="24px" font-style="normal" font-weight="normal" text-decoration="none" x="400" y="330">UNREGISTERED</text><text fill="#eeeeee" stroke="none" font-family="Arial" font-size="24px" font-style="normal" font-weight="normal" text-decoration="none" x="400" y="360">UNREGISTERED</text><text fill="#eeeeee" stroke="none" font-family="Arial" font-size="24px" font-style="normal" font-weight="normal" text-decoration="none" x="400" y="390">UNREGISTERED</text><text fill="#eeeeee" stroke="none" font-family="Arial" font-size="24px" font-style="normal" font-weight="normal" text-decoration="none" x="400" y="420">UNREGISTERED</text><text fill="#eeeeee" stroke="none" font-family="Arial" font-size="24px" font-style="normal" font-weight="normal" text-decoration="none" x="400" y="450">UNREGISTERED</text><text fill="#eeeeee" stroke="none" font-family="Arial" font-size="24px" font-style="normal" font-weight="normal" text-decoration="none" x="400" y="480">UNREGISTERED</text><text fill="#eeeeee" stroke="none" font-family="Arial" font-size="24px" font-style="normal" font-weight="normal" text-decoration="none" x="400" y="510">UNREGISTERED</text><text fill="#eeeeee" stroke="none" font-family="Arial" font-size="24px" font-style="normal" font-weight="normal" text-decoration="none" x="400" y="540">UNREGISTERED</text><text fill="#eeeeee" stroke="none" font-family="Arial" font-size="24px" font-style="normal" font-weight="normal" text-decoration="none" x="400" y="570">UNREGISTERED</text><text fill="#eeeeee" stroke="none" font-family="Arial" font-size="24px" font-style="normal" font-weight="normal" text-decoration="none" x="400" y="600">UNREGISTERED</text><text fill="#eeeeee" stroke="none" font-family="Arial" font-size="24px" font-style="normal" font-weight="normal" text-decoration="none" x="600" y="0">UNREGISTERED</text><text fill="#eeeeee" stroke="none" font-family="Arial" font-size="24px" font-style="normal" font-weight="normal" text-decoration="none" x="600" y="30">UNREGISTERED</text><text fill="#eeeeee" stroke="none" font-family="Arial" font-size="24px" font-style="normal" font-weight="normal" text-decoration="none" x="600" y="60">UNREGISTERED</text><text fill="#eeeeee" stroke="none" font-family="Arial" font-size="24px" font-style="normal" font-weight="normal" text-decoration="none" x="600" y="90">UNREGISTERED</text><text fill="#eeeeee" stroke="none" font-family="Arial" font-size="24px" font-style="normal" font-weight="normal" text-decoration="none" x="600" y="120">UNREGISTERED</text><text fill="#eeeeee" stroke="none" font-family="Arial" font-size="24px" font-style="normal" font-weight="normal" text-decoration="none" x="600" y="150">UNREGISTERED</text><text fill="#eeeeee" stroke="none" font-family="Arial" font-size="24px" font-style="normal" font-weight="normal" text-decoration="none" x="600" y="180">UNREGISTERED</text><text fill="#eeeeee" stroke="none" font-family="Arial" font-size="24px" font-style="normal" font-weight="normal" text-decoration="none" x="600" y="210">UNREGISTERED</text><text fill="#eeeeee" stroke="none" font-family="Arial" font-size="24px" font-style="normal" font-weight="normal" text-decoration="none" x="600" y="240">UNREGISTERED</text><text fill="#eeeeee" stroke="none" font-family="Arial" font-size="24px" font-style="normal" font-weight="normal" text-decoration="none" x="600" y="270">UNREGISTERED</text><text fill="#eeeeee" stroke="none" font-family="Arial" font-size="24px" font-style="normal" font-weight="normal" text-decoration="none" x="600" y="300">UNREGISTERED</text><text fill="#eeeeee" stroke="none" font-family="Arial" font-size="24px" font-style="normal" font-weight="normal" text-decoration="none" x="600" y="330">UNREGISTERED</text><text fill="#eeeeee" stroke="none" font-family="Arial" font-size="24px" font-style="normal" font-weight="normal" text-decoration="none" x="600" y="360">UNREGISTERED</text><text fill="#eeeeee" stroke="none" font-family="Arial" font-size="24px" font-style="normal" font-weight="normal" text-decoration="none" x="600" y="390">UNREGISTERED</text><text fill="#eeeeee" stroke="none" font-family="Arial" font-size="24px" font-style="normal" font-weight="normal" text-decoration="none" x="600" y="420">UNREGISTERED</text><text fill="#eeeeee" stroke="none" font-family="Arial" font-size="24px" font-style="normal" font-weight="normal" text-decoration="none" x="600" y="450">UNREGISTERED</text><text fill="#eeeeee" stroke="none" font-family="Arial" font-size="24px" font-style="normal" font-weight="normal" text-decoration="none" x="600" y="480">UNREGISTERED</text><text fill="#eeeeee" stroke="none" font-family="Arial" font-size="24px" font-style="normal" font-weight="normal" text-decoration="none" x="600" y="510">UNREGISTERED</text><text fill="#eeeeee" stroke="none" font-family="Arial" font-size="24px" font-style="normal" font-weight="normal" text-decoration="none" x="600" y="540">UNREGISTERED</text><text fill="#eeeeee" stroke="none" font-family="Arial" font-size="24px" font-style="normal" font-weight="normal" text-decoration="none" x="600" y="570">UNREGISTERED</text><text fill="#eeeeee" stroke="none" font-family="Arial" font-size="24px" font-style="normal" font-weight="normal" text-decoration="none" x="600" y="600">UNREGISTERED</text><text fill="#eeeeee" stroke="none" font-family="Arial" font-size="24px" font-style="normal" font-weight="normal" text-decoration="none" x="800" y="0">UNREGISTERED</text><text fill="#eeeeee" stroke="none" font-family="Arial" font-size="24px" font-style="normal" font-weight="normal" text-decoration="none" x="800" y="30">UNREGISTERED</text><text fill="#eeeeee" stroke="none" font-family="Arial" font-size="24px" font-style="normal" font-weight="normal" text-decoration="none" x="800" y="60">UNREGISTERED</text><text fill="#eeeeee" stroke="none" font-family="Arial" font-size="24px" font-style="normal" font-weight="normal" text-decoration="none" x="800" y="90">UNREGISTERED</text><text fill="#eeeeee" stroke="none" font-family="Arial" font-size="24px" font-style="normal" font-weight="normal" text-decoration="none" x="800" y="120">UNREGISTERED</text><text fill="#eeeeee" stroke="none" font-family="Arial" font-size="24px" font-style="normal" font-weight="normal" text-decoration="none" x="800" y="150">UNREGISTERED</text><text fill="#eeeeee" stroke="none" font-family="Arial" font-size="24px" font-style="normal" font-weight="normal" text-decoration="none" x="800" y="180">UNREGISTERED</text><text fill="#eeeeee" stroke="none" font-family="Arial" font-size="24px" font-style="normal" font-weight="normal" text-decoration="none" x="800" y="210">UNREGISTERED</text><text fill="#eeeeee" stroke="none" font-family="Arial" font-size="24px" font-style="normal" font-weight="normal" text-decoration="none" x="800" y="240">UNREGISTERED</text><text fill="#eeeeee" stroke="none" font-family="Arial" font-size="24px" font-style="normal" font-weight="normal" text-decoration="none" x="800" y="270">UNREGISTERED</text><text fill="#eeeeee" stroke="none" font-family="Arial" font-size="24px" font-style="normal" font-weight="normal" text-decoration="none" x="800" y="300">UNREGISTERED</text><text fill="#eeeeee" stroke="none" font-family="Arial" font-size="24px" font-style="normal" font-weight="normal" text-decoration="none" x="800" y="330">UNREGISTERED</text><text fill="#eeeeee" stroke="none" font-family="Arial" font-size="24px" font-style="normal" font-weight="normal" text-decoration="none" x="800" y="360">UNREGISTERED</text><text fill="#eeeeee" stroke="none" font-family="Arial" font-size="24px" font-style="normal" font-weight="normal" text-decoration="none" x="800" y="390">UNREGISTERED</text><text fill="#eeeeee" stroke="none" font-family="Arial" font-size="24px" font-style="normal" font-weight="normal" text-decoration="none" x="800" y="420">UNREGISTERED</text><text fill="#eeeeee" stroke="none" font-family="Arial" font-size="24px" font-style="normal" font-weight="normal" text-decoration="none" x="800" y="450">UNREGISTERED</text><text fill="#eeeeee" stroke="none" font-family="Arial" font-size="24px" font-style="normal" font-weight="normal" text-decoration="none" x="800" y="480">UNREGISTERED</text><text fill="#eeeeee" stroke="none" font-family="Arial" font-size="24px" font-style="normal" font-weight="normal" text-decoration="none" x="800" y="510">UNREGISTERED</text><text fill="#eeeeee" stroke="none" font-family="Arial" font-size="24px" font-style="normal" font-weight="normal" text-decoration="none" x="800" y="540">UNREGISTERED</text><text fill="#eeeeee" stroke="none" font-family="Arial" font-size="24px" font-style="normal" font-weight="normal" text-decoration="none" x="800" y="570">UNREGISTERED</text><text fill="#eeeeee" stroke="none" font-family="Arial" font-size="24px" font-style="normal" font-weight="normal" text-decoration="none" x="800" y="600">UNREGISTERED</text><g transform="translate(-30,-54) scale(1,1)"><rect fill="#C0C0C0" stroke="none" x="265" y="71" width="198" height="288" opacity="0.2"/></g><g transform="translate(-30,-54) scale(1,1)"><rect fill="#ffffff" stroke="none" x="258" y="64" width="198" height="288"/></g><g transform="translate(-30,-54) scale(1,1)"><path fill="none" stroke="#000000" d="M 258 64 L 456 64 L 456 352 L 258 352 L 258 64 Z Z" stroke-miterlimit="10"/></g><g transform="translate(-30,-54) scale(1,1)"><rect fill="#ffffff" stroke="none" x="248" y="71" width="20" height="10"/></g><g transform="translate(-30,-54) scale(1,1)"><path fill="none" stroke="#000000" d="M 248 71 L 268 71 L 268 81 L 248 81 L 248 71 Z Z" stroke-miterlimit="10"/></g><g transform="translate(-30,-54) scale(1,1)"><rect fill="#ffffff" stroke="none" x="248" y="91" width="20" height="10"/></g><g transform="translate(-30,-54) scale(1,1)"><path fill="none" stroke="#000000" d="M 248 91 L 268 91 L 268 101 L 248 101 L 248 91 Z Z" stroke-miterlimit="10"/></g><g transform="translate(-30,-54) scale(1,1)"><g><path fill="none" stroke="none"/><text fill="#000000" stroke="none" font-family="Arial" font-size="13px" font-style="normal" font-weight="normal" text-decoration="none" x="323.70458984375" y="79.7099609375">«subsystem»</text></g></g><g transform="translate(-30,-54) scale(1,1)"><g><path fill="none" stroke="none"/><text fill="#000000" stroke="none" font-family="Arial" font-size="13px" font-style="normal" font-weight="bold" text-decoration="none" x="333.838623046875" y="94.7099609375">Frontend</text></g></g><g transform="translate(-30,-54) scale(1,1)"><rect fill="#C0C0C0" stroke="none" x="793" y="103" width="166" height="248" opacity="0.2"/></g><g transform="translate(-30,-54) scale(1,1)"><rect fill="#ffffff" stroke="none" x="786" y="96" width="166" height="248"/></g><g transform="translate(-30,-54) scale(1,1)"><path fill="none" stroke="#000000" d="M 786 96 L 952 96 L 952 344 L 786 344 L 786 96 Z Z" stroke-miterlimit="10"/></g><g transform="translate(-30,-54) scale(1,1)"><rect fill="#ffffff" stroke="none" x="776" y="103" width="20" height="10"/></g><g transform="translate(-30,-54) scale(1,1)"><path fill="none" stroke="#000000" d="M 776 103 L 796 103 L 796 113 L 776 113 L 776 103 Z Z" stroke-miterlimit="10"/></g><g transform="translate(-30,-54) scale(1,1)"><rect fill="#ffffff" stroke="none" x="776" y="123" width="20" height="10"/></g><g transform="translate(-30,-54) scale(1,1)"><path fill="none" stroke="#000000" d="M 776 123 L 796 123 L 796 133 L 776 133 L 776 123 Z Z" stroke-miterlimit="10"/></g><g transform="translate(-30,-54) scale(1,1)"><g><path fill="none" stroke="none"/><text fill="#000000" stroke="none" font-family="Arial" font-size="13px" font-style="normal" font-weight="normal" text-decoration="none" x="835.70458984375" y="111.7099609375">«subsystem»</text></g></g><g transform="translate(-30,-54) scale(1,1)"><g><path fill="none" stroke="none"/><text fill="#000000" stroke="none" font-family="Arial" font-size="13px" font-style="normal" font-weight="bold" text-decoration="none" x="857.385009765625" y="126.471923828125">Maps</text></g></g><g transform="translate(-30,-54) scale(1,1)"><rect fill="#C0C0C0" stroke="none" x="529" y="391" width="182" height="264" opacity="0.2"/></g><g transform="translate(-30,-54) scale(1,1)"><rect fill="#ffffff" stroke="none" x="522" y="384" width="182" height="264"/></g><g transform="translate(-30,-54) scale(1,1)"><path fill="none" stroke="#000000" d="M 522 384 L 704 384 L 704 648 L 522 648 L 522 384 Z Z" stroke-miterlimit="10"/></g><g transform="translate(-30,-54) scale(1,1)"><rect fill="#ffffff" stroke="none" x="512" y="391" width="20" height="10"/></g><g transform="translate(-30,-54) scale(1,1)"><path fill="none" stroke="#000000" d="M 512 391 L 532 391 L 532 401 L 512 401 L 512 391 Z Z" stroke-miterlimit="10"/></g><g transform="translate(-30,-54) scale(1,1)"><rect fill="#ffffff" stroke="none" x="512" y="411" width="20" height="10"/></g><g transform="translate(-30,-54) scale(1,1)"><path fill="none" stroke="#000000" d="M 512 411 L 532 411 L 532 421 L 512 421 L 512 411 Z Z" stroke-miterlimit="10"/></g><g transform="translate(-30,-54) scale(1,1)"><g><path fill="none" stroke="none"/><text fill="#000000" stroke="none" font-family="Arial" font-size="13px" font-style="normal" font-weight="normal" text-decoration="none" x="587.6455078125" y="399.7099609375">«external»</text></g></g><g transform="translate(-30,-54) scale(1,1)"><g><path fill="none" stroke="none"/><text fill="#000000" stroke="none" font-family="Arial" font-size="13px" font-style="normal" font-weight="bold" text-decoration="none" x="603.194091796875" y="414.53857421875">AWS</text></g></g><g transform="translate(-30,-54) scale(1,1)"><rect fill="#C0C0C0" stroke="none" x="345" y="503" width="98.44091796875" height="44" opacity="0.2"/></g><g transform="translate(-30,-54) scale(1,1)"><rect fill="#ffffff" stroke="none" x="338" y="496" width="98.44091796875" height="44"/></g><g transform="translate(-30,-54) scale(1,1)"><path fill="none" stroke="#000000" d="M 338 496 L 436.44091796875 496 L 436.44091796875 540 L 338 540 L 338 496 Z Z" stroke-miterlimit="10"/></g><g transform="translate(-30,-54) scale(1,1)"><rect fill="#ffffff" stroke="none" x="328" y="503" width="20" height="10"/></g><g transform="translate(-30,-54) scale(1,1)"><path fill="none" stroke="#000000" d="M 328 503 L 348 503 L 348 513 L 328 513 L 328 503 Z Z" stroke-miterlimit="10"/></g><g transform="translate(-30,-54) scale(1,1)"><rect fill="#ffffff" stroke="none" x="328" y="523" width="20" height="10"/></g><g transform="translate(-30,-54) scale(1,1)"><path fill="none" stroke="#000000" d="M 328 523 L 348 523 L 348 533 L 328 533 L 328 523 Z Z" stroke-miterlimit="10"/></g><g transform="translate(-30,-54) scale(1,1)"><g><path fill="none" stroke="none"/><text fill="#000000" stroke="none" font-family="Arial" font-size="13px" font-style="normal" font-weight="normal" text-decoration="none" x="361.865966796875" y="511.7099609375">«external»</text></g></g><g transform="translate(-30,-54) scale(1,1)"><g><path fill="none" stroke="none"/><text fill="#000000" stroke="none" font-family="Arial" font-size="13px" font-style="normal" font-weight="bold" text-decoration="none" x="370.55908203125" y="526.7099609375">GitHub</text></g></g><g transform="translate(-30,-54) scale(1,1)"><rect fill="#ffffff" stroke="none" x="449" y="120" width="14" height="14"/></g><g transform="translate(-30,-54) scale(1,1)"><path fill="none" stroke="#000000" d="M 449 120 L 463 120 L 463 134 L 449 134 L 449 120 Z Z" stroke-miterlimit="10"/></g><g transform="translate(-30,-54) scale(1,1)"><g><path fill="none" stroke="none"/><text fill="#000000" stroke="none" font-family="Arial" font-size="13px" font-style="normal" font-weight="normal" text-decoration="none" x="410.872314453125" y="116.2099609375">: Frontend</text></g></g><g transform="translate(-30,-54) scale(1,1)"><rect fill="#ffffff" stroke="none" x="449" y="280" width="14" height="14"/></g><g transform="translate(-30,-54) scale(1,1)"><path fill="none" stroke="#000000" d="M 449 280 L 463 280 L 463 294 L 449 294 L 449 280 Z Z" stroke-miterlimit="10"/></g><g transform="translate(-30,-54) scale(1,1)"><rect fill="#ffffff" stroke="none" x="769" y="158" width="14" height="14"/></g><g transform="translate(-30,-54) scale(1,1)"><path fill="none" stroke="#000000" d="M 769 158 L 783 158 L 783 172 L 769 172 L 769 158 Z Z" stroke-miterlimit="10"/></g><g transform="translate(-30,-54) scale(1,1)"><rect fill="#ffffff" stroke="none" x="769" y="242" width="14" height="14"/></g><g transform="translate(-30,-54) scale(1,1)"><path fill="none" stroke="#000000" d="M 769 242 L 783 242 L 783 256 L 769 256 L 769 242 Z Z" stroke-miterlimit="10"/></g><g transform="translate(-30,-54) scale(1,1)"><rect fill="#ffffff" stroke="none" x="560" y="377" width="14" height="14"/></g><g transform="translate(-30,-54) scale(1,1)"><path fill="none" stroke="#000000" d="M 560 377 L 574 377 L 574 391 L 560 391 L 560 377 Z Z" stroke-miterlimit="10"/></g><g transform="translate(-30,-54) scale(1,1)"><g><path fill="none" stroke="none"/><text fill="#000000" stroke="none" font-family="Arial" font-size="13px" font-style="normal" font-weight="normal" text-decoration="none" x="533.323486328125" y="373.03857421875">: AWS</text></g></g><g transform="translate(-30,-54) scale(1,1)"><rect fill="#ffffff" stroke="none" x="648" y="377" width="14" height="14"/></g><g transform="translate(-30,-54) scale(1,1)"><path fill="none" stroke="#000000" d="M 648 377 L 662 377 L 662 391 L 648 391 L 648 377 Z Z" stroke-miterlimit="10"/></g><g transform="translate(-30,-54) scale(1,1)"><g><path fill="none" stroke="none"/><text fill="#000000" stroke="none" font-family="Arial" font-size="13px" font-style="normal" font-weight="normal" text-decoration="none" x="621.323486328125" y="373.03857421875">: AWS</text></g></g><g transform="translate(-30,-54) scale(1,1)"><rect fill="#ffffff" stroke="none" x="353" y="489" width="14" height="14"/></g><g transform="translate(-30,-54) scale(1,1)"><path fill="none" stroke="#000000" d="M 353 489 L 367 489 L 367 503 L 353 503 L 353 489 Z Z" stroke-miterlimit="10"/></g><g transform="translate(-30,-54) scale(1,1)"><g><path fill="none" stroke="none"/><text fill="#000000" stroke="none" font-family="Arial" font-size="13px" font-style="normal" font-weight="normal" text-decoration="none" x="320.658203125" y="485.2099609375">: GitHub</text></g></g><g transform="translate(-30,-54) scale(1,1)"><rect fill="#C0C0C0" stroke="none" x="287" y="119" width="136" height="37" opacity="0.2"/></g><g transform="translate(-30,-54) scale(1,1)"><rect fill="#ffffff" stroke="none" x="280" y="112" width="136" height="37"/></g><g transform="translate(-30,-54) scale(1,1)"><path fill="none" stroke="#000000" d="M 280 112 L 416 112 L 416 149 L 280 149 L 280 112 Z Z" stroke-miterlimit="10"/></g><g transform="translate(-30,-54) scale(1,1)"><g><path fill="none" stroke="none"/><text fill="#000000" stroke="none" font-family="Arial" font-size="13px" font-style="normal" font-weight="bold" text-decoration="none" x="310.802734375" y="129.53857421875">Open Maps:</text><text fill="#000000" stroke="none" font-family="Arial" font-size="13px" font-style="normal" font-weight="bold" text-decoration="none" x="319.838623046875" y="142.7099609375">Frontend</text></g></g><g transform="translate(-30,-54) scale(1,1)"><rect fill="#ffffff" stroke="none" x="288" y="345" width="14" height="14"/></g><g transform="translate(-30,-54) scale(1,1)"><path fill="none" stroke="#000000" d="M 288 345 L 302 345 L 302 359 L 288 359 L 288 345 Z Z" stroke-miterlimit="10"/></g><g transform="translate(-30,-54) scale(1,1)"><rect fill="#ffffff" stroke="none" x="409" y="120" width="14" height="14"/></g><g transform="translate(-30,-54) scale(1,1)"><path fill="none" stroke="#000000" d="M 409 120 L 423 120 L 423 134 L 409 134 L 409 120 Z Z" stroke-miterlimit="10"/></g><g transform="translate(-30,-54) scale(1,1)"><path fill="none" stroke="#000000" d="M 448 127 L 424 127" stroke-miterlimit="10"/></g><g transform="translate(-30,-54) scale(1,1)"><path fill="#C0C0C0" stroke="none" d="M 613.450439453125 154.5 C 613.450439453125 148.1487248 618.599164253125 143 624.950439453125 143 C 631.301714653125 143 636.450439453125 148.1487248 636.450439453125 154.5 C 636.450439453125 160.8512752 631.301714653125 166 624.950439453125 166 C 618.599164253125 166 613.450439453125 160.8512752 613.450439453125 154.5 Z" opacity="0.2"/></g><g transform="translate(-30,-54) scale(1,1)"><path fill="none" stroke="#000000" d="M 619.7891596879178 135.84336124832868 A 11.5 11.5 0 0 1 614.2108403120822 158.15663875167132" stroke-miterlimit="10"/></g><g transform="translate(-30,-54) scale(1,1)"><path fill="#ffffff" stroke="none" d="M 609.450439453125 147.5 C 609.450439453125 142.8055792 613.256018653125 139 617.950439453125 139 C 622.644860253125 139 626.450439453125 142.8055792 626.450439453125 147.5 C 626.450439453125 152.1944208 622.644860253125 156 617.950439453125 156 C 613.256018653125 156 609.450439453125 152.1944208 609.450439453125 147.5 Z"/></g><g transform="translate(-30,-54) scale(1,1)"><path fill="none" stroke="#000000" d="M 609.450439453125 147.5 C 609.450439453125 142.8055792 613.256018653125 139 617.950439453125 139 C 622.644860253125 139 626.450439453125 142.8055792 626.450439453125 147.5 C 626.450439453125 152.1944208 622.644860253125 156 617.950439453125 156 C 613.256018653125 156 609.450439453125 152.1944208 609.450439453125 147.5 Z" stroke-miterlimit="10"/></g><g transform="translate(-30,-54) scale(1,1)"><g><path fill="none" stroke="none"/><text fill="#000000" stroke="none" font-family="Arial" font-size="13px" font-style="normal" font-weight="bold" text-decoration="none" x="564.5" y="176.7099609375">Google Maps API</text></g></g><g transform="translate(-30,-54) scale(1,1)"><path fill="none" stroke="#000000" d="M 464 129 L 606.450439453125 147.18188897494613" stroke-miterlimit="10"/></g><g transform="translate(-30,-54) scale(1,1)"><path fill="none" stroke="#000000" d="M 768 165 L 629.450439453125 150.11260986328125" stroke-miterlimit="10"/></g><g transform="translate(-30,-54) scale(1,1)"><rect fill="#C0C0C0" stroke="none" x="823" y="183" width="100.74267578125" height="24" opacity="0.2"/></g><g transform="translate(-30,-54) scale(1,1)"><rect fill="#ffffff" stroke="none" x="816" y="176" width="100.74267578125" height="24"/></g><g transform="translate(-30,-54) scale(1,1)"><path fill="none" stroke="#000000" d="M 816 176 L 916.74267578125 176 L 916.74267578125 200 L 816 200 L 816 176 Z Z" stroke-miterlimit="10"/></g><g transform="translate(-30,-54) scale(1,1)"><g><path fill="none" stroke="none"/><text fill="#000000" stroke="none" font-family="Arial" font-size="13px" font-style="normal" font-weight="bold" text-decoration="none" x="820.5" y="193.53857421875">Map Generator</text></g></g><g transform="translate(-30,-54) scale(1,1)"><path fill="none" stroke="#000000" d="M 815 175 L 784 167" stroke-miterlimit="10"/></g><g transform="translate(-30,-54) scale(1,1)"><rect fill="#C0C0C0" stroke="none" x="295" y="271" width="143.3291015625" height="48" opacity="0.2"/></g><g transform="translate(-30,-54) scale(1,1)"><rect fill="#ffffff" stroke="none" x="288" y="264" width="143.3291015625" height="48"/></g><g transform="translate(-30,-54) scale(1,1)"><path fill="none" stroke="#000000" d="M 288 264 L 431.3291015625 264 L 431.3291015625 312 L 288 312 L 288 264 Z Z" stroke-miterlimit="10"/></g><g transform="translate(-30,-54) scale(1,1)"><g><path fill="none" stroke="none"/><text fill="#000000" stroke="none" font-family="Arial" font-size="13px" font-style="normal" font-weight="bold" text-decoration="none" x="292.5" y="281.7099609375">Open PDFs: Frontend</text></g></g><g transform="translate(-30,-54) scale(1,1)"><rect fill="#C0C0C0" stroke="none" x="57" y="79" width="101.8369140625" height="44" opacity="0.2"/></g><g transform="translate(-30,-54) scale(1,1)"><rect fill="#ffffff" stroke="none" x="50" y="72" width="101.8369140625" height="44"/></g><g transform="translate(-30,-54) scale(1,1)"><path fill="none" stroke="#000000" d="M 50 72 L 151.8369140625 72 L 151.8369140625 116 L 50 116 L 50 72 Z Z" stroke-miterlimit="10"/></g><g transform="translate(-30,-54) scale(1,1)"><rect fill="#ffffff" stroke="none" x="40" y="79" width="20" height="10"/></g><g transform="translate(-30,-54) scale(1,1)"><path fill="none" stroke="#000000" d="M 40 79 L 60 79 L 60 89 L 40 89 L 40 79 Z Z" stroke-miterlimit="10"/></g><g transform="translate(-30,-54) scale(1,1)"><rect fill="#ffffff" stroke="none" x="40" y="99" width="20" height="10"/></g><g transform="translate(-30,-54) scale(1,1)"><path fill="none" stroke="#000000" d="M 40 99 L 60 99 L 60 109 L 40 109 L 40 99 Z Z" stroke-miterlimit="10"/></g><g transform="translate(-30,-54) scale(1,1)"><g><path fill="none" stroke="none"/><text fill="#000000" stroke="none" font-family="Arial" font-size="13px" font-style="normal" font-weight="normal" text-decoration="none" x="75.56396484375" y="87.7099609375">«external»</text></g></g><g transform="translate(-30,-54) scale(1,1)"><g><path fill="none" stroke="none"/><text fill="#000000" stroke="none" font-family="Arial" font-size="13px" font-style="normal" font-weight="bold" text-decoration="none" x="64.5" y="102.7099609375">Web Browser</text></g></g><g transform="translate(-30,-54) scale(1,1)"><rect fill="#ffffff" stroke="none" x="144.8369140625" y="88" width="14" height="14"/></g><g transform="translate(-30,-54) scale(1,1)"><path fill="none" stroke="#000000" d="M 144.8369140625 88 L 158.8369140625 88 L 158.8369140625 102 L 144.8369140625 102 L 144.8369140625 88 Z Z" stroke-miterlimit="10"/></g><g transform="translate(-30,-54) scale(1,1)"><g><path fill="none" stroke="none"/><text fill="#000000" stroke="none" font-family="Arial" font-size="13px" font-style="normal" font-weight="normal" text-decoration="none" x="93.8330078125" y="84.2099609375">: Web Browser</text></g></g><g transform="translate(-30,-54) scale(1,1)"><path fill="#C0C0C0" stroke="none" d="M 156.309814453125 178.5 C 156.309814453125 172.1487248 161.458539253125 167 167.809814453125 167 C 174.161089653125 167 179.309814453125 172.1487248 179.309814453125 178.5 C 179.309814453125 184.8512752 174.161089653125 190 167.809814453125 190 C 161.458539253125 190 156.309814453125 184.8512752 156.309814453125 178.5 Z" opacity="0.2"/></g><g transform="translate(-30,-54) scale(1,1)"><path fill="none" stroke="#000000" d="M 162.6339523378438 159.80570256416388 A 11.5 11.5 0 0 1 157.3660476621562 182.19429743583612" stroke-miterlimit="10"/></g><g transform="translate(-30,-54) scale(1,1)"><path fill="#ffffff" stroke="none" d="M 152.309814453125 171.5 C 152.309814453125 166.8055792 156.115393653125 163 160.809814453125 163 C 165.504235253125 163 169.309814453125 166.8055792 169.309814453125 171.5 C 169.309814453125 176.1944208 165.504235253125 180 160.809814453125 180 C 156.115393653125 180 152.309814453125 176.1944208 152.309814453125 171.5 Z"/></g><g transform="translate(-30,-54) scale(1,1)"><path fill="none" stroke="#000000" d="M 152.309814453125 171.5 C 152.309814453125 166.8055792 156.115393653125 163 160.809814453125 163 C 165.504235253125 163 169.309814453125 166.8055792 169.309814453125 171.5 C 169.309814453125 176.1944208 165.504235253125 180 160.809814453125 180 C 156.115393653125 180 152.309814453125 176.1944208 152.309814453125 171.5 Z" stroke-miterlimit="10"/></g><g transform="translate(-30,-54) scale(1,1)"><g><path fill="none" stroke="none"/><text fill="#000000" stroke="none" font-family="Arial" font-size="13px" font-style="normal" font-weight="bold" text-decoration="none" x="116.5" y="200.7099609375">Static Website</text></g></g><g transform="translate(-30,-54) scale(1,1)"><rect fill="#ffffff" stroke="none" x="241" y="176" width="14" height="14"/></g><g transform="translate(-30,-54) scale(1,1)"><path fill="none" stroke="#000000" d="M 241 176 L 255 176 L 255 190 L 241 190 L 241 176 Z Z" stroke-miterlimit="10"/></g><g transform="translate(-30,-54) scale(1,1)"><path fill="none" stroke="#000000" d="M 333 263 L 256 191" stroke-miterlimit="10"/></g><g transform="translate(-30,-54) scale(1,1)"><path fill="none" stroke="#000000" d="M 310 150 L 256 179" stroke-miterlimit="10"/></g><g transform="translate(-30,-54) scale(1,1)"><path fill="none" stroke="#000000" d="M 240 183 L 172.309814453125 173.89642693014707" stroke-miterlimit="10"/></g><g transform="translate(-30,-54) scale(1,1)"><path fill="none" stroke="#000000" d="M 152 103 L 157.25 160" stroke-miterlimit="10"/></g><g transform="translate(-30,-54) scale(1,1)"><path fill="#C0C0C0" stroke="none" d="M 328.091796875 426.5 C 328.091796875 420.1487248 333.240521675 415 339.591796875 415 C 345.943072075 415 351.091796875 420.1487248 351.091796875 426.5 C 351.091796875 432.8512752 345.943072075 438 339.591796875 438 C 333.240521675 438 328.091796875 432.8512752 328.091796875 426.5 Z" opacity="0.2"/></g><g transform="translate(-30,-54) scale(1,1)"><path fill="none" stroke="#000000" d="M 323.8682720163547 427.1317279836453 A 11.5 11.5 0 0 1 340.1317279836453 410.8682720163547" stroke-miterlimit="10"/></g><g transform="translate(-30,-54) scale(1,1)"><path fill="#ffffff" stroke="none" d="M 324.091796875 419.5 C 324.091796875 414.8055792 327.897376075 411 332.591796875 411 C 337.286217675 411 341.091796875 414.8055792 341.091796875 419.5 C 341.091796875 424.1944208 337.286217675 428 332.591796875 428 C 327.897376075 428 324.091796875 424.1944208 324.091796875 419.5 Z"/></g><g transform="translate(-30,-54) scale(1,1)"><path fill="none" stroke="#000000" d="M 324.091796875 419.5 C 324.091796875 414.8055792 327.897376075 411 332.591796875 411 C 337.286217675 411 341.091796875 414.8055792 341.091796875 419.5 C 341.091796875 424.1944208 337.286217675 428 332.591796875 428 C 327.897376075 428 324.091796875 424.1944208 324.091796875 419.5 Z" stroke-miterlimit="10"/></g><g transform="translate(-30,-54) scale(1,1)"><g><path fill="none" stroke="none"/><text fill="#000000" stroke="none" font-family="Arial" font-size="13px" font-style="normal" font-weight="bold" text-decoration="none" x="292.5" y="448.7099609375">Source Code</text></g></g><g transform="translate(-30,-54) scale(1,1)"><path fill="none" stroke="#000000" d="M 357 488 L 335.4736842105263 431" stroke-miterlimit="10"/></g><g transform="translate(-30,-54) scale(1,1)"><path fill="none" stroke="#000000" d="M 299 360 L 321.091796875 408.091796875" stroke-miterlimit="10"/></g><g transform="translate(-30,-54) scale(1,1)"><rect fill="#C0C0C0" stroke="none" x="551" y="471" width="136.1689453125" height="24" opacity="0.2"/></g><g transform="translate(-30,-54) scale(1,1)"><rect fill="#ffffff" stroke="none" x="544" y="464" width="136.1689453125" height="24"/></g><g transform="translate(-30,-54) scale(1,1)"><path fill="none" stroke="#000000" d="M 544 464 L 680.1689453125 464 L 680.1689453125 488 L 544 488 L 544 464 Z Z" stroke-miterlimit="10"/></g><g transform="translate(-30,-54) scale(1,1)"><g><path fill="none" stroke="none"/><text fill="#000000" stroke="none" font-family="Arial" font-size="13px" font-style="normal" font-weight="bold" text-decoration="none" x="548.5" y="481.7099609375">Primary Data Bucket</text></g></g><g transform="translate(-30,-54) scale(1,1)"><rect fill="#C0C0C0" stroke="none" x="551" y="559" width="134.708984375" height="24" opacity="0.2"/></g><g transform="translate(-30,-54) scale(1,1)"><rect fill="#ffffff" stroke="none" x="544" y="552" width="134.708984375" height="24"/></g><g transform="translate(-30,-54) scale(1,1)"><path fill="none" stroke="#000000" d="M 544 552 L 678.708984375 552 L 678.708984375 576 L 544 576 L 544 552 Z Z" stroke-miterlimit="10"/></g><g transform="translate(-30,-54) scale(1,1)"><g><path fill="none" stroke="none"/><text fill="#000000" stroke="none" font-family="Arial" font-size="13px" font-style="normal" font-weight="bold" text-decoration="none" x="548.5" y="569.7099609375">Backup Data Bucket</text></g></g><g transform="translate(-30,-54) scale(1,1)"><path fill="#C0C0C0" stroke="none" d="M 502.7099609375 338.5 C 502.7099609375 332.1487248 507.8586857375 327 514.2099609375 327 C 520.5612361375 327 525.7099609375 332.1487248 525.7099609375 338.5 C 525.7099609375 344.8512752 520.5612361375 350 514.2099609375 350 C 507.8586857375 350 502.7099609375 344.8512752 502.7099609375 338.5 Z" opacity="0.2"/></g><g transform="translate(-30,-54) scale(1,1)"><path fill="none" stroke="#000000" d="M 501.4932004971734 341.09579908851543 A 11.5 11.5 0 0 1 512.5067995028265 320.90420091148457" stroke-miterlimit="10"/></g><g transform="translate(-30,-54) scale(1,1)"><path fill="#ffffff" stroke="none" d="M 498.7099609375 331.5 C 498.7099609375 326.8055792 502.5155401375 323 507.2099609375 323 C 511.9043817375 323 515.7099609375 326.8055792 515.7099609375 331.5 C 515.7099609375 336.1944208 511.9043817375 340 507.2099609375 340 C 502.5155401375 340 498.7099609375 336.1944208 498.7099609375 331.5 Z"/></g><g transform="translate(-30,-54) scale(1,1)"><path fill="none" stroke="#000000" d="M 498.7099609375 331.5 C 498.7099609375 326.8055792 502.5155401375 323 507.2099609375 323 C 511.9043817375 323 515.7099609375 326.8055792 515.7099609375 331.5 C 515.7099609375 336.1944208 511.9043817375 340 507.2099609375 340 C 502.5155401375 340 498.7099609375 336.1944208 498.7099609375 331.5 Z" stroke-miterlimit="10"/></g><g transform="translate(-30,-54) scale(1,1)"><g><path fill="none" stroke="none"/><text fill="#000000" stroke="none" font-family="Arial" font-size="13px" font-style="normal" font-weight="bold" text-decoration="none" x="481.568603515625" y="360.53857421875">Get PDF</text></g></g><g transform="translate(-30,-54) scale(1,1)"><path fill="none" stroke="#000000" d="M 559 379 L 518.6756756756756 343" stroke-miterlimit="10"/></g><g transform="translate(-30,-54) scale(1,1)"><path fill="none" stroke="#000000" d="M 463 295 L 495.7099609375 324.841796875" stroke-miterlimit="10"/></g><g transform="translate(-30,-54) scale(1,1)"><path fill="#C0C0C0" stroke="none" d="M 699.338623046875 306.5 C 699.338623046875 300.1487248 704.487347846875 295 710.838623046875 295 C 717.189898246875 295 722.338623046875 300.1487248 722.338623046875 306.5 C 722.338623046875 312.8512752 717.189898246875 318 710.838623046875 318 C 704.487347846875 318 699.338623046875 312.8512752 699.338623046875 306.5 Z" opacity="0.2"/></g><g transform="translate(-30,-54) scale(1,1)"><path fill="none" stroke="#000000" d="M 698.6029543836476 288.3738064271483 A 11.5 11.5 0 0 1 707.3970456163524 309.6261935728517" stroke-miterlimit="10"/></g><g transform="translate(-30,-54) scale(1,1)"><path fill="#ffffff" stroke="none" d="M 695.338623046875 299.5 C 695.338623046875 294.8055792 699.144202246875 291 703.838623046875 291 C 708.533043846875 291 712.338623046875 294.8055792 712.338623046875 299.5 C 712.338623046875 304.1944208 708.533043846875 308 703.838623046875 308 C 699.144202246875 308 695.338623046875 304.1944208 695.338623046875 299.5 Z"/></g><g transform="translate(-30,-54) scale(1,1)"><path fill="none" stroke="#000000" d="M 695.338623046875 299.5 C 695.338623046875 294.8055792 699.144202246875 291 703.838623046875 291 C 708.533043846875 291 712.338623046875 294.8055792 712.338623046875 299.5 C 712.338623046875 304.1944208 708.533043846875 308 703.838623046875 308 C 699.144202246875 308 695.338623046875 304.1944208 695.338623046875 299.5 Z" stroke-miterlimit="10"/></g><g transform="translate(-30,-54) scale(1,1)"><g><path fill="none" stroke="none"/><text fill="#000000" stroke="none" font-family="Arial" font-size="13px" font-style="normal" font-weight="bold" text-decoration="none" x="660.5" y="328.7099609375">Get Locations</text></g></g><g transform="translate(-30,-54) scale(1,1)"><path fill="none" stroke="#000000" d="M 660 376 L 697.6315789473684 311" stroke-miterlimit="10"/></g><g transform="translate(-30,-54) scale(1,1)"><path fill="none" stroke="#000000" d="M 768 256 L 715.338623046875 293.8943628771552" stroke-miterlimit="10"/></g><g transform="translate(-30,-54) scale(1,1)"><path fill="none" stroke="#000000" d="M 847 201 L 784 244" stroke-miterlimit="10"/></g></g></svg>