<svg version="1.1" xmlns="http://www.w3.org/2000/svg" xmlns:xlink="http://www.w3.org/1999/xlink" width="795" height="588"><defs/><g><g transform="translate(-46,-78) scale(1,1)"><path fill="#C0C0C0" stroke="none" d="M 63 105 L 371 105 L 371 550 L 63 550" opacity="0.2"/></g><g transform="translate(-46,-78) scale(1,1)"><path fill="#C0C0C0" stroke="none" d="M 63 105 L 73 95 L 381 95 L 371 105" opacity="0.2"/></g><g transform="translate(-46,-78) scale(1,1)"><path fill="#C0C0C0" stroke="none" d="M 381 95 L 371 105 L 371 550 L 381 540" opacity="0.2"/></g><g transform="translate(-46,-78) scale(1,1)"><path fill="#ffffff" stroke="none" d="M 56 98 L 364 98 L 364 543 L 56 543"/></g><g transform="translate(-46,-78) scale(1,1)"><path fill="#ffffff" stroke="none" d="M 56 98 L 66 88 L 374 88 L 364 98"/></g><g transform="translate(-46,-78) scale(1,1)"><path fill="#ffffff" stroke="none" d="M 374 88 L 364 98 L 364 543 L 374 533"/></g><g transform="translate(-46,-78) scale(1,1)"><path fill="none" stroke="#000000" d="M 56 98 L 364 98 L 364 543 L 56 543 L 56 98" stroke-miterlimit="10"/></g><g transform="translate(-46,-78) scale(1,1)"><path fill="none" stroke="#000000" d="M 56 98 L 66 88 L 374 88 L 364 98 L 56 98" stroke-miterlimit="10"/></g><g transform="translate(-46,-78) scale(1,1)"><path fill="none" stroke="#000000" d="M 374 88 L 364 98 L 364 543 L 374 533 L 374 88" stroke-miterlimit="10"/></g><g transform="translate(-46,-78) scale(1,1)"><g><path fill="none" stroke="none"/><text fill="#000000" stroke="none" font-family="Arial" font-size="13px" font-style="normal" font-weight="normal" text-decoration="none" x="174.73095703125" y="113.7099609375">«repository»</text></g></g><g transform="translate(-46,-78) scale(1,1)"><g><path fill="none" stroke="none"/><text fill="#000000" stroke="none" font-family="Arial" font-size="13px" font-style="normal" font-weight="bold" text-decoration="none" x="188.838623046875" y="128.7099609375">GitHub</text></g></g><g transform="translate(-46,-78) scale(1,1)"><path fill="#C0C0C0" stroke="none" d="M 79 185 L 348 185 L 348 326 L 79 326" opacity="0.2"/></g><g transform="translate(-46,-78) scale(1,1)"><path fill="#C0C0C0" stroke="none" d="M 79 185 L 89 175 L 358 175 L 348 185" opacity="0.2"/></g><g transform="translate(-46,-78) scale(1,1)"><path fill="#C0C0C0" stroke="none" d="M 358 175 L 348 185 L 348 326 L 358 316" opacity="0.2"/></g><g transform="translate(-46,-78) scale(1,1)"><path fill="#ffffff" stroke="none" d="M 72 178 L 341 178 L 341 319 L 72 319"/></g><g transform="translate(-46,-78) scale(1,1)"><path fill="#ffffff" stroke="none" d="M 72 178 L 82 168 L 351 168 L 341 178"/></g><g transform="translate(-46,-78) scale(1,1)"><path fill="#ffffff" stroke="none" d="M 351 168 L 341 178 L 341 319 L 351 309"/></g><g transform="translate(-46,-78) scale(1,1)"><path fill="none" stroke="#000000" d="M 72 178 L 341 178 L 341 319 L 72 319 L 72 178" stroke-miterlimit="10"/></g><g transform="translate(-46,-78) scale(1,1)"><path fill="none" stroke="#000000" d="M 72 178 L 82 168 L 351 168 L 341 178 L 72 178" stroke-miterlimit="10"/></g><g transform="translate(-46,-78) scale(1,1)"><path fill="none" stroke="#000000" d="M 351 168 L 341 178 L 341 319 L 351 309 L 351 168" stroke-miterlimit="10"/></g><g transform="translate(-46,-78) scale(1,1)"><g><path fill="none" stroke="none"/><text fill="#000000" stroke="none" font-family="Arial" font-size="13px" font-style="normal" font-weight="bold" text-decoration="none" x="167.9873046875" y="195.7099609375">Source code</text></g></g><g transform="translate(-46,-78) scale(1,1)"><path fill="#C0C0C0" stroke="none" d="M 95.4 215 L 122.84 215 L 134.60000000000002 226.76 L 134.60000000000002 264 L 95.4 264" opacity="0.2"/></g><g transform="translate(-46,-78) scale(1,1)"><path fill="#ffffff" stroke="none" d="M 88.4 208 L 115.84 208 L 127.6 219.76 L 127.6 257 L 88.4 257"/></g><g transform="translate(-46,-78) scale(1,1)"><path fill="none" stroke="#000000" d="M 88.4 208 L 115.84 208 L 127.6 219.76 L 127.6 257 L 88.4 257 L 88.4 208" stroke-miterlimit="10"/></g><g transform="translate(-46,-78) scale(1,1)"><path fill="none" stroke="#000000" d="M 115.84 208 L 115.84 219.76 L 127.6 219.76 L 115.84 208" stroke-miterlimit="10"/></g><g transform="translate(-46,-78) scale(1,1)"><g><path fill="none" stroke="none"/><text fill="#000000" stroke="none" font-family="Arial" font-size="13px" font-style="normal" font-weight="bold" text-decoration="none" x="102.220458984375" y="274.70361328125">fe</text></g></g><g transform="translate(-46,-78) scale(1,1)"><path fill="#C0C0C0" stroke="none" d="M 162.2681640625 215 L 189.70816406250003 215 L 201.46816406250002 226.76 L 201.46816406250002 264 L 162.2681640625 264" opacity="0.2"/></g><g transform="translate(-46,-78) scale(1,1)"><path fill="#ffffff" stroke="none" d="M 155.26816406249998 208 L 182.7081640625 208 L 194.46816406250002 219.76000000000002 L 194.46816406250002 257 L 155.26816406249998 257"/></g><g transform="translate(-46,-78) scale(1,1)"><path fill="none" stroke="#000000" d="M 155.26816406249998 208 L 182.7081640625 208 L 194.46816406250002 219.76000000000002 L 194.46816406250002 257 L 155.26816406249998 257 L 155.26816406249998 208" stroke-miterlimit="10"/></g><g transform="translate(-46,-78) scale(1,1)"><path fill="none" stroke="#000000" d="M 182.7081640625 208 L 182.7081640625 219.76000000000002 L 194.46816406250002 219.76000000000002 L 182.7081640625 208" stroke-miterlimit="10"/></g><g transform="translate(-46,-78) scale(1,1)"><g><path fill="none" stroke="none"/><text fill="#000000" stroke="none" font-family="Arial" font-size="13px" font-style="normal" font-weight="bold" text-decoration="none" x="164.7626953125" y="274.7099609375">pdf</text></g></g><g transform="translate(-46,-78) scale(1,1)"><path fill="#C0C0C0" stroke="none" d="M 226.2681640625 215 L 253.70816406250003 215 L 265.4681640625 226.76 L 265.4681640625 264 L 226.2681640625 264" opacity="0.2"/></g><g transform="translate(-46,-78) scale(1,1)"><path fill="#ffffff" stroke="none" d="M 219.26816406249998 208 L 246.7081640625 208 L 258.4681640625 219.76000000000002 L 258.4681640625 257 L 219.26816406249998 257"/></g><g transform="translate(-46,-78) scale(1,1)"><path fill="none" stroke="#000000" d="M 219.26816406249998 208 L 246.7081640625 208 L 258.4681640625 219.76000000000002 L 258.4681640625 257 L 219.26816406249998 257 L 219.26816406249998 208" stroke-miterlimit="10"/></g><g transform="translate(-46,-78) scale(1,1)"><path fill="none" stroke="#000000" d="M 246.7081640625 208 L 246.7081640625 219.76000000000002 L 258.4681640625 219.76000000000002 L 246.7081640625 208" stroke-miterlimit="10"/></g><g transform="translate(-46,-78) scale(1,1)"><g><path fill="none" stroke="none"/><text fill="#000000" stroke="none" font-family="Arial" font-size="13px" font-style="normal" font-weight="bold" text-decoration="none" x="225.503173828125" y="274.7099609375">data</text></g></g><g transform="translate(-46,-78) scale(1,1)"><path fill="#C0C0C0" stroke="none" d="M 290.2681640625 215 L 317.7081640625 215 L 329.46816406249997 226.76 L 329.46816406249997 264 L 290.2681640625 264" opacity="0.2"/></g><g transform="translate(-46,-78) scale(1,1)"><path fill="#ffffff" stroke="none" d="M 283.2681640625 208 L 310.70816406250003 208 L 322.4681640625 219.76000000000002 L 322.4681640625 257 L 283.2681640625 257"/></g><g transform="translate(-46,-78) scale(1,1)"><path fill="none" stroke="#000000" d="M 283.2681640625 208 L 310.70816406250003 208 L 322.4681640625 219.76000000000002 L 322.4681640625 257 L 283.2681640625 257 L 283.2681640625 208" stroke-miterlimit="10"/></g><g transform="translate(-46,-78) scale(1,1)"><path fill="none" stroke="#000000" d="M 310.70816406250003 208 L 310.70816406250003 219.76000000000002 L 322.4681640625 219.76000000000002 L 310.70816406250003 208" stroke-miterlimit="10"/></g><g transform="translate(-46,-78) scale(1,1)"><g><path fill="none" stroke="none"/><text fill="#000000" stroke="none" font-family="Arial" font-size="13px" font-style="normal" font-weight="bold" text-decoration="none" x="285.88818359375" y="273.49755859375">maps</text></g></g><g transform="translate(-46,-78) scale(1,1)"><path fill="#C0C0C0" stroke="none" d="M 79 377 L 348 377 L 348 502 L 79 502" opacity="0.2"/></g><g transform="translate(-46,-78) scale(1,1)"><path fill="#C0C0C0" stroke="none" d="M 79 377 L 89 367 L 358 367 L 348 377" opacity="0.2"/></g><g transform="translate(-46,-78) scale(1,1)"><path fill="#C0C0C0" stroke="none" d="M 358 367 L 348 377 L 348 502 L 358 492" opacity="0.2"/></g><g transform="translate(-46,-78) scale(1,1)"><path fill="#ffffff" stroke="none" d="M 72 370 L 341 370 L 341 495 L 72 495"/></g><g transform="translate(-46,-78) scale(1,1)"><path fill="#ffffff" stroke="none" d="M 72 370 L 82 360 L 351 360 L 341 370"/></g><g transform="translate(-46,-78) scale(1,1)"><path fill="#ffffff" stroke="none" d="M 351 360 L 341 370 L 341 495 L 351 485"/></g><g transform="translate(-46,-78) scale(1,1)"><path fill="none" stroke="#000000" d="M 72 370 L 341 370 L 341 495 L 72 495 L 72 370" stroke-miterlimit="10"/></g><g transform="translate(-46,-78) scale(1,1)"><path fill="none" stroke="#000000" d="M 72 370 L 82 360 L 351 360 L 341 370 L 72 370" stroke-miterlimit="10"/></g><g transform="translate(-46,-78) scale(1,1)"><path fill="none" stroke="#000000" d="M 351 360 L 341 370 L 341 495 L 351 485 L 351 360" stroke-miterlimit="10"/></g><g transform="translate(-46,-78) scale(1,1)"><g><path fill="none" stroke="none"/><text fill="#000000" stroke="none" font-family="Arial" font-size="13px" font-style="normal" font-weight="bold" text-decoration="none" x="159.697265625" y="387.7099609375">GitHub Actions</text></g></g><g transform="translate(-46,-78) scale(1,1)"><path fill="#C0C0C0" stroke="none" d="M 194.2681640625 415 L 221.70816406250003 415 L 233.46816406250002 426.76 L 233.46816406250002 464 L 194.2681640625 464" opacity="0.2"/></g><g transform="translate(-46,-78) scale(1,1)"><path fill="#ffffff" stroke="none" d="M 187.26816406249998 408 L 214.7081640625 408 L 226.46816406250002 419.76 L 226.46816406250002 457 L 187.26816406249998 457"/></g><g transform="translate(-46,-78) scale(1,1)"><path fill="none" stroke="#000000" d="M 187.26816406249998 408 L 214.7081640625 408 L 226.46816406250002 419.76 L 226.46816406250002 457 L 187.26816406249998 457 L 187.26816406249998 408" stroke-miterlimit="10"/></g><g transform="translate(-46,-78) scale(1,1)"><path fill="none" stroke="#000000" d="M 214.7081640625 408 L 214.7081640625 419.76 L 226.46816406250002 419.76 L 214.7081640625 408" stroke-miterlimit="10"/></g><g transform="translate(-46,-78) scale(1,1)"><g><path fill="none" stroke="none"/><text fill="#000000" stroke="none" font-family="Arial" font-size="13px" font-style="normal" font-weight="bold" text-decoration="none" x="188.07275390625" y="474.7099609375">vercel</text></g></g><g transform="translate(-46,-78) scale(1,1)"><path fill="#C0C0C0" stroke="none" d="M 511 105 L 796 105 L 796 397 L 511 397" opacity="0.2"/></g><g transform="translate(-46,-78) scale(1,1)"><path fill="#C0C0C0" stroke="none" d="M 511 105 L 521 95 L 806 95 L 796 105" opacity="0.2"/></g><g transform="translate(-46,-78) scale(1,1)"><path fill="#C0C0C0" stroke="none" d="M 806 95 L 796 105 L 796 397 L 806 387" opacity="0.2"/></g><g transform="translate(-46,-78) scale(1,1)"><path fill="#ffffff" stroke="none" d="M 504 98 L 789 98 L 789 390 L 504 390"/></g><g transform="translate(-46,-78) scale(1,1)"><path fill="#ffffff" stroke="none" d="M 504 98 L 514 88 L 799 88 L 789 98"/></g><g transform="translate(-46,-78) scale(1,1)"><path fill="#ffffff" stroke="none" d="M 799 88 L 789 98 L 789 390 L 799 380"/></g><g transform="translate(-46,-78) scale(1,1)"><path fill="none" stroke="#000000" d="M 504 98 L 789 98 L 789 390 L 504 390 L 504 98" stroke-miterlimit="10"/></g><g transform="translate(-46,-78) scale(1,1)"><path fill="none" stroke="#000000" d="M 504 98 L 514 88 L 799 88 L 789 98 L 504 98" stroke-miterlimit="10"/></g><g transform="translate(-46,-78) scale(1,1)"><path fill="none" stroke="#000000" d="M 799 88 L 789 98 L 789 390 L 799 380 L 799 88" stroke-miterlimit="10"/></g><g transform="translate(-46,-78) scale(1,1)"><g><path fill="none" stroke="none"/><text fill="#000000" stroke="none" font-family="Arial" font-size="13px" font-style="normal" font-weight="normal" text-decoration="none" x="624.23095703125" y="113.7099609375">«cloud»</text></g></g><g transform="translate(-46,-78) scale(1,1)"><g><path fill="none" stroke="none"/><text fill="#000000" stroke="none" font-family="Arial" font-size="13px" font-style="normal" font-weight="bold" text-decoration="none" x="632.194091796875" y="128.53857421875">AWS</text></g></g><g transform="translate(-46,-78) scale(1,1)"><path fill="#C0C0C0" stroke="none" d="M 552.472216796875 159 L 587.1922167968751 159 L 602.0722167968751 173.88 L 602.0722167968751 221 L 552.472216796875 221" opacity="0.2"/></g><g transform="translate(-46,-78) scale(1,1)"><path fill="#ffffff" stroke="none" d="M 545.472216796875 152 L 580.192216796875 152 L 595.072216796875 166.87999999999997 L 595.072216796875 214 L 545.472216796875 214"/></g><g transform="translate(-46,-78) scale(1,1)"><path fill="none" stroke="#000000" d="M 545.472216796875 152 L 580.192216796875 152 L 595.072216796875 166.87999999999997 L 595.072216796875 214 L 545.472216796875 214 L 545.472216796875 152" stroke-miterlimit="10"/></g><g transform="translate(-46,-78) scale(1,1)"><path fill="none" stroke="#000000" d="M 580.192216796875 152 L 580.192216796875 166.87999999999997 L 595.072216796875 166.87999999999997 L 580.192216796875 152" stroke-miterlimit="10"/></g><g transform="translate(-46,-78) scale(1,1)"><g><path fill="none" stroke="none"/><text fill="#000000" stroke="none" font-family="Arial" font-size="13px" font-style="normal" font-weight="bold" text-decoration="none" x="508.5" y="231.7099609375">primary data bucket</text></g></g><g transform="translate(-46,-78) scale(1,1)"><path fill="#C0C0C0" stroke="none" d="M 689.8 159 L 725.0799999999999 159 L 740.1999999999999 174.12 L 740.1999999999999 222 L 689.8 222" opacity="0.2"/></g><g transform="translate(-46,-78) scale(1,1)"><path fill="#ffffff" stroke="none" d="M 682.8 152 L 718.08 152 L 733.2 167.12000000000003 L 733.2 215 L 682.8 215"/></g><g transform="translate(-46,-78) scale(1,1)"><path fill="none" stroke="#000000" d="M 682.8 152 L 718.08 152 L 733.2 167.12000000000003 L 733.2 215 L 682.8 215 L 682.8 152" stroke-miterlimit="10"/></g><g transform="translate(-46,-78) scale(1,1)"><path fill="none" stroke="#000000" d="M 718.08 152 L 718.08 167.12000000000003 L 733.2 167.12000000000003 L 718.08 152" stroke-miterlimit="10"/></g><g transform="translate(-46,-78) scale(1,1)"><g><path fill="none" stroke="none"/><text fill="#000000" stroke="none" font-family="Arial" font-size="13px" font-style="normal" font-weight="bold" text-decoration="none" x="647.31640625" y="232.7099609375">backup data bucket</text></g></g><g transform="translate(-46,-78) scale(1,1)"><path fill="#C0C0C0" stroke="none" d="M 625 279 L 655.8 279 L 669 292.2 L 669 334 L 625 334" opacity="0.2"/></g><g transform="translate(-46,-78) scale(1,1)"><path fill="#ffffff" stroke="none" d="M 618 272 L 648.8 272 L 662 285.2 L 662 327 L 618 327"/></g><g transform="translate(-46,-78) scale(1,1)"><path fill="none" stroke="#000000" d="M 618 272 L 648.8 272 L 662 285.2 L 662 327 L 618 327 L 618 272" stroke-miterlimit="10"/></g><g transform="translate(-46,-78) scale(1,1)"><path fill="none" stroke="#000000" d="M 648.8 272 L 648.8 285.2 L 662 285.2 L 648.8 272" stroke-miterlimit="10"/></g><g transform="translate(-46,-78) scale(1,1)"><g><path fill="none" stroke="none"/><text fill="#000000" stroke="none" font-family="Arial" font-size="13px" font-style="normal" font-weight="bold" text-decoration="none" x="626.63818359375" y="344.7099609375">logs</text></g></g><g transform="translate(-46,-78) scale(1,1)"><path fill="#C0C0C0" stroke="none" d="M 503 617 L 795 617 L 795 662 L 503 662" opacity="0.2"/></g><g transform="translate(-46,-78) scale(1,1)"><path fill="#C0C0C0" stroke="none" d="M 503 617 L 513 607 L 805 607 L 795 617" opacity="0.2"/></g><g transform="translate(-46,-78) scale(1,1)"><path fill="#C0C0C0" stroke="none" d="M 805 607 L 795 617 L 795 662 L 805 652" opacity="0.2"/></g><g transform="translate(-46,-78) scale(1,1)"><path fill="#ffffff" stroke="none" d="M 496 610 L 788 610 L 788 655 L 496 655"/></g><g transform="translate(-46,-78) scale(1,1)"><path fill="#ffffff" stroke="none" d="M 496 610 L 506 600 L 798 600 L 788 610"/></g><g transform="translate(-46,-78) scale(1,1)"><path fill="#ffffff" stroke="none" d="M 798 600 L 788 610 L 788 655 L 798 645"/></g><g transform="translate(-46,-78) scale(1,1)"><path fill="none" stroke="#000000" d="M 496 610 L 788 610 L 788 655 L 496 655 L 496 610" stroke-miterlimit="10"/></g><g transform="translate(-46,-78) scale(1,1)"><path fill="none" stroke="#000000" d="M 496 610 L 506 600 L 798 600 L 788 610 L 496 610" stroke-miterlimit="10"/></g><g transform="translate(-46,-78) scale(1,1)"><path fill="none" stroke="#000000" d="M 798 600 L 788 610 L 788 655 L 798 645 L 798 600" stroke-miterlimit="10"/></g><g transform="translate(-46,-78) scale(1,1)"><g><path fill="none" stroke="none"/><text fill="#000000" stroke="none" font-family="Arial" font-size="13px" font-style="normal" font-weight="normal" text-decoration="none" x="591.91552734375" y="625.7099609375">«hosting service»</text></g></g><g transform="translate(-46,-78) scale(1,1)"><g><path fill="none" stroke="none"/><text fill="#000000" stroke="none" font-family="Arial" font-size="13px" font-style="normal" font-weight="bold" text-decoration="none" x="611.437744140625" y="640.7099609375">cloudflare</text></g></g><g transform="translate(-46,-78) scale(1,1)"><path fill="#C0C0C0" stroke="none" d="M 535 481 L 827 481 L 827 541 L 535 541" opacity="0.2"/></g><g transform="translate(-46,-78) scale(1,1)"><path fill="#C0C0C0" stroke="none" d="M 535 481 L 545 471 L 837 471 L 827 481" opacity="0.2"/></g><g transform="translate(-46,-78) scale(1,1)"><path fill="#C0C0C0" stroke="none" d="M 837 471 L 827 481 L 827 541 L 837 531" opacity="0.2"/></g><g transform="translate(-46,-78) scale(1,1)"><path fill="#ffffff" stroke="none" d="M 528 474 L 820 474 L 820 534 L 528 534"/></g><g transform="translate(-46,-78) scale(1,1)"><path fill="#ffffff" stroke="none" d="M 528 474 L 538 464 L 830 464 L 820 474"/></g><g transform="translate(-46,-78) scale(1,1)"><path fill="#ffffff" stroke="none" d="M 830 464 L 820 474 L 820 534 L 830 524"/></g><g transform="translate(-46,-78) scale(1,1)"><path fill="none" stroke="#000000" d="M 528 474 L 820 474 L 820 534 L 528 534 L 528 474" stroke-miterlimit="10"/></g><g transform="translate(-46,-78) scale(1,1)"><path fill="none" stroke="#000000" d="M 528 474 L 538 464 L 830 464 L 820 474 L 528 474" stroke-miterlimit="10"/></g><g transform="translate(-46,-78) scale(1,1)"><path fill="none" stroke="#000000" d="M 830 464 L 820 474 L 820 534 L 830 524 L 830 464" stroke-miterlimit="10"/></g><g transform="translate(-46,-78) scale(1,1)"><g><path fill="none" stroke="none"/><text fill="#000000" stroke="none" font-family="Arial" font-size="13px" font-style="normal" font-weight="normal" text-decoration="none" x="628.254150390625" y="489.7099609375">«static website»</text></g></g><g transform="translate(-46,-78) scale(1,1)"><g><path fill="none" stroke="none"/><text fill="#000000" stroke="none" font-family="Arial" font-size="13px" font-style="normal" font-weight="bold" text-decoration="none" x="634.411376953125" y="504.7099609375">afetbilgi.com</text></g></g><g transform="translate(-46,-78) scale(1,1)"><path fill="none" stroke="#000000" d="M 376 288 L 503 265" stroke-miterlimit="10"/></g><g transform="translate(-46,-78) scale(1,1)"><g><path fill="none" stroke="none"/><text fill="#000000" stroke="none" font-family="Arial" font-size="13px" font-style="normal" font-weight="normal" text-decoration="none" x="415.3017578125" y="265.471923828125">+HTTP</text></g></g><g transform="translate(-46,-78) scale(1,1)"><g><path fill="none" stroke="none"/><text fill="#000000" stroke="none" font-family="Arial" font-size="13px" font-style="normal" font-weight="normal" text-decoration="none" x="402.5" y="250.7099609375">«protocol»</text></g></g><g transform="translate(-46,-78) scale(1,1)"><path fill="none" stroke="#000000" d="M 630 392 L 624 432 L 649 463" stroke-miterlimit="10"/></g><g transform="translate(-46,-78) scale(1,1)"><g><path fill="none" stroke="none"/><text fill="#000000" stroke="none" font-family="Arial" font-size="13px" font-style="normal" font-weight="normal" text-decoration="none" x="613.5" y="426.471923828125">+HTML</text></g></g><g transform="translate(-46,-78) scale(1,1)"><g><path fill="none" stroke="none"/><text fill="#000000" stroke="none" font-family="Arial" font-size="13px" font-style="normal" font-weight="normal" text-decoration="none" x="623.1455078125" y="410.7099609375">«protocol»</text></g></g><g transform="translate(-46,-78) scale(1,1)"><path fill="none" stroke="#000000" d="M 684 536 L 688 568 L 667 599" stroke-miterlimit="10"/></g><g transform="translate(-46,-78) scale(1,1)"><g><path fill="none" stroke="none"/><text fill="#000000" stroke="none" font-family="Arial" font-size="13px" font-style="normal" font-weight="normal" text-decoration="none" x="678.5" y="580.471923828125">+HTML</text></g></g><g transform="translate(-46,-78) scale(1,1)"><g><path fill="none" stroke="none"/><text fill="#000000" stroke="none" font-family="Arial" font-size="13px" font-style="normal" font-weight="normal" text-decoration="none" x="681.5" y="588.7099609375">«protocol»</text></g></g></g></svg>