<svg version="1.1" xmlns="http://www.w3.org/2000/svg" xmlns:xlink="http://www.w3.org/1999/xlink" width="964" height="596"><defs/><g><g transform="translate(-118,-278) scale(1,1)"><rect fill="#C0C0C0" stroke="none" x="479" y="295" width="216" height="216" opacity="0.2"/></g><g transform="translate(-118,-278) scale(1,1)"><rect fill="#ffffff" stroke="none" x="472" y="288" width="216" height="216"/></g><g transform="translate(-118,-278) scale(1,1)"><path fill="none" stroke="#000000" d="M 472 288 L 688 288 L 688 504 L 472 504 L 472 288 Z Z" stroke-miterlimit="10"/></g><g transform="translate(-118,-278) scale(1,1)"><path fill="none" stroke="#000000" d="M 472 313 L 688 313" stroke-miterlimit="10"/></g><g transform="translate(-118,-278) scale(1,1)"><path fill="none" stroke="#000000" d="M 472 366 L 688 366" stroke-miterlimit="10"/></g><g transform="translate(-118,-278) scale(1,1)"><g><path fill="none" stroke="none"/><text fill="#000000" stroke="none" font-family="Arial" font-size="13px" font-style="normal" font-weight="bold" text-decoration="none" x="558.338623046875" y="305.7099609375">GitHub</text></g></g><g transform="translate(-118,-278) scale(1,1)"><g><path fill="none" stroke="none"/><text fill="#000000" stroke="none" font-family="Arial" font-size="13px" font-style="normal" font-weight="normal" text-decoration="none" x="477" y="328.7099609375">+string repositoryName</text></g></g><g transform="translate(-118,-278) scale(1,1)"><g><path fill="none" stroke="none"/><text fill="#000000" stroke="none" font-family="Arial" font-size="13px" font-style="normal" font-weight="normal" text-decoration="none" x="477" y="343.7099609375">+string[ ] contributors</text></g></g><g transform="translate(-118,-278) scale(1,1)"><g><path fill="none" stroke="none"/><text fill="#000000" stroke="none" font-family="Arial" font-size="13px" font-style="normal" font-weight="normal" text-decoration="none" x="477" y="358.7099609375">+string[ ] issues</text></g></g><g transform="translate(-118,-278) scale(1,1)"><g><path fill="none" stroke="none"/><text fill="#000000" stroke="none" font-family="Arial" font-size="13px" font-style="normal" font-weight="normal" text-decoration="none" x="477" y="381.7099609375">+push()</text></g></g><g transform="translate(-118,-278) scale(1,1)"><g><path fill="none" stroke="none"/><text fill="#000000" stroke="none" font-family="Arial" font-size="13px" font-style="normal" font-weight="normal" text-decoration="none" x="477" y="396.7099609375">+pull()</text></g></g><g transform="translate(-118,-278) scale(1,1)"><g><path fill="none" stroke="none"/><text fill="#000000" stroke="none" font-family="Arial" font-size="13px" font-style="normal" font-weight="normal" text-decoration="none" x="477" y="411.7099609375">+clone()</text></g></g><g transform="translate(-118,-278) scale(1,1)"><g><path fill="none" stroke="none"/><text fill="#000000" stroke="none" font-family="Arial" font-size="13px" font-style="normal" font-weight="normal" text-decoration="none" x="477" y="426.7099609375">+commit()</text></g></g><g transform="translate(-118,-278) scale(1,1)"><g><path fill="none" stroke="none"/><text fill="#000000" stroke="none" font-family="Arial" font-size="13px" font-style="normal" font-weight="normal" text-decoration="none" x="477" y="441.7099609375">+parseData()</text></g></g><g transform="translate(-118,-278) scale(1,1)"><g><path fill="none" stroke="none"/><text fill="#000000" stroke="none" font-family="Arial" font-size="13px" font-style="normal" font-weight="normal" text-decoration="none" x="477" y="456.7099609375">+generatePDF()</text></g></g><g transform="translate(-118,-278) scale(1,1)"><g><path fill="none" stroke="none"/><text fill="#000000" stroke="none" font-family="Arial" font-size="13px" font-style="normal" font-weight="normal" text-decoration="none" x="477" y="471.7099609375">+validateData()</text></g></g><g transform="translate(-118,-278) scale(1,1)"><rect fill="#C0C0C0" stroke="none" x="839" y="295" width="240" height="224" opacity="0.2"/></g><g transform="translate(-118,-278) scale(1,1)"><rect fill="#ffffff" stroke="none" x="832" y="288" width="240" height="224"/></g><g transform="translate(-118,-278) scale(1,1)"><path fill="none" stroke="#000000" d="M 832 288 L 1072 288 L 1072 512 L 832 512 L 832 288 Z Z" stroke-miterlimit="10"/></g><g transform="translate(-118,-278) scale(1,1)"><path fill="none" stroke="#000000" d="M 832 313 L 1072 313" stroke-miterlimit="10"/></g><g transform="translate(-118,-278) scale(1,1)"><path fill="none" stroke="#000000" d="M 832 366 L 1072 366" stroke-miterlimit="10"/></g><g transform="translate(-118,-278) scale(1,1)"><g><path fill="none" stroke="none"/><text fill="#000000" stroke="none" font-family="Arial" font-size="13px" font-style="normal" font-weight="bold" text-decoration="none" x="937.194091796875" y="305.53857421875">AWS</text></g></g><g transform="translate(-118,-278) scale(1,1)"><g><path fill="none" stroke="none"/><text fill="#000000" stroke="none" font-family="Arial" font-size="13px" font-style="normal" font-weight="normal" text-decoration="none" x="837" y="328.7099609375">+record[ ] primaryDataBucket</text></g></g><g transform="translate(-118,-278) scale(1,1)"><g><path fill="none" stroke="none"/><text fill="#000000" stroke="none" font-family="Arial" font-size="13px" font-style="normal" font-weight="normal" text-decoration="none" x="837" y="343.7099609375">+record[ ] backUpBucket</text></g></g><g transform="translate(-118,-278) scale(1,1)"><g><path fill="none" stroke="none"/><text fill="#000000" stroke="none" font-family="Arial" font-size="13px" font-style="normal" font-weight="normal" text-decoration="none" x="837" y="358.7099609375">+string[ ] logBucket</text></g></g><g transform="translate(-118,-278) scale(1,1)"><g><path fill="none" stroke="none"/><text fill="#000000" stroke="none" font-family="Arial" font-size="13px" font-style="normal" font-weight="normal" text-decoration="none" x="837" y="381.7099609375">+storeData()</text></g></g><g transform="translate(-118,-278) scale(1,1)"><g><path fill="none" stroke="none"/><text fill="#000000" stroke="none" font-family="Arial" font-size="13px" font-style="normal" font-weight="normal" text-decoration="none" x="837" y="396.7099609375">+sendData()</text></g></g><g transform="translate(-118,-278) scale(1,1)"><rect fill="#C0C0C0" stroke="none" x="463" y="647" width="232" height="224" opacity="0.2"/></g><g transform="translate(-118,-278) scale(1,1)"><rect fill="#ffffff" stroke="none" x="456" y="640" width="232" height="224"/></g><g transform="translate(-118,-278) scale(1,1)"><path fill="none" stroke="#000000" d="M 456 640 L 688 640 L 688 864 L 456 864 L 456 640 Z Z" stroke-miterlimit="10"/></g><g transform="translate(-118,-278) scale(1,1)"><path fill="none" stroke="#000000" d="M 456 665 L 688 665" stroke-miterlimit="10"/></g><g transform="translate(-118,-278) scale(1,1)"><path fill="none" stroke="#000000" d="M 456 718 L 688 718" stroke-miterlimit="10"/></g><g transform="translate(-118,-278) scale(1,1)"><g><path fill="none" stroke="none"/><text fill="#000000" stroke="none" font-family="Arial" font-size="13px" font-style="normal" font-weight="bold" text-decoration="none" x="526.490478515625" y="657.7099609375">Google Sheets</text></g></g><g transform="translate(-118,-278) scale(1,1)"><g><path fill="none" stroke="none"/><text fill="#000000" stroke="none" font-family="Arial" font-size="13px" font-style="normal" font-weight="normal" text-decoration="none" x="461" y="680.7099609375">+string[ ] [ ] stagingDataSheet</text></g></g><g transform="translate(-118,-278) scale(1,1)"><g><path fill="none" stroke="none"/><text fill="#000000" stroke="none" font-family="Arial" font-size="13px" font-style="normal" font-weight="normal" text-decoration="none" x="461" y="695.7099609375">+string[ ] [ ] productionDataSheet_hot</text></g></g><g transform="translate(-118,-278) scale(1,1)"><g><path fill="none" stroke="none"/><text fill="#000000" stroke="none" font-family="Arial" font-size="13px" font-style="normal" font-weight="normal" text-decoration="none" x="461" y="710.7099609375">+string[ ] [ ] productionDataSheet_cold</text></g></g><g transform="translate(-118,-278) scale(1,1)"><g><path fill="none" stroke="none"/><text fill="#000000" stroke="none" font-family="Arial" font-size="13px" font-style="normal" font-weight="normal" text-decoration="none" x="461" y="733.7099609375">+read()</text></g></g><g transform="translate(-118,-278) scale(1,1)"><g><path fill="none" stroke="none"/><text fill="#000000" stroke="none" font-family="Arial" font-size="13px" font-style="normal" font-weight="normal" text-decoration="none" x="461" y="748.7099609375">+write()</text></g></g><g transform="translate(-118,-278) scale(1,1)"><rect fill="#C0C0C0" stroke="none" x="847" y="639" width="216" height="216" opacity="0.2"/></g><g transform="translate(-118,-278) scale(1,1)"><rect fill="#ffffff" stroke="none" x="840" y="632" width="216" height="216"/></g><g transform="translate(-118,-278) scale(1,1)"><path fill="none" stroke="#000000" d="M 840 632 L 1056 632 L 1056 848 L 840 848 L 840 632 Z Z" stroke-miterlimit="10"/></g><g transform="translate(-118,-278) scale(1,1)"><path fill="none" stroke="#000000" d="M 840 657 L 1056 657" stroke-miterlimit="10"/></g><g transform="translate(-118,-278) scale(1,1)"><path fill="none" stroke="#000000" d="M 840 695 L 1056 695" stroke-miterlimit="10"/></g><g transform="translate(-118,-278) scale(1,1)"><g><path fill="none" stroke="none"/><text fill="#000000" stroke="none" font-family="Arial" font-size="13px" font-style="normal" font-weight="bold" text-decoration="none" x="916.569580078125" y="649.7099609375">Developer</text></g></g><g transform="translate(-118,-278) scale(1,1)"><g><path fill="none" stroke="none"/><text fill="#000000" stroke="none" font-family="Arial" font-size="13px" font-style="normal" font-weight="normal" text-decoration="none" x="845" y="672.7099609375">+string userName</text></g></g><g transform="translate(-118,-278) scale(1,1)"><g><path fill="none" stroke="none"/><text fill="#000000" stroke="none" font-family="Arial" font-size="13px" font-style="normal" font-weight="normal" text-decoration="none" x="845" y="687.7099609375">+string email</text></g></g><g transform="translate(-118,-278) scale(1,1)"><g><path fill="none" stroke="none"/><text fill="#000000" stroke="none" font-family="Arial" font-size="13px" font-style="normal" font-weight="normal" text-decoration="none" x="845" y="710.7099609375">+viewCode()</text></g></g><g transform="translate(-118,-278) scale(1,1)"><g><path fill="none" stroke="none"/><text fill="#000000" stroke="none" font-family="Arial" font-size="13px" font-style="normal" font-weight="normal" text-decoration="none" x="845" y="725.7099609375">+editCode()</text></g></g><g transform="translate(-118,-278) scale(1,1)"><g><path fill="none" stroke="none"/><text fill="#000000" stroke="none" font-family="Arial" font-size="13px" font-style="normal" font-weight="normal" text-decoration="none" x="845" y="740.7099609375">+editAutomaitons()</text></g></g><g transform="translate(-118,-278) scale(1,1)"><path fill="none" stroke="#000000" d="M 689 498 L 839 638" stroke-miterlimit="10"/></g><g transform="translate(-118,-278) scale(1,1)"><path fill="#FFFFFF" stroke="none" d="M 699.3017077842497 501.8567883955344 L 689 498 L 693.5572462039613 508.01156866012917 L 705.0832159013431 513.0110015079202"/></g><g transform="translate(-118,-278) scale(1,1)"><path fill="none" stroke="#000000" d="M 699.3017077842497 501.8567883955344 L 689 498 L 693.5572462039613 508.01156866012917 L 705.0832159013431 513.0110015079202 L 699.3017077842497 501.8567883955344" stroke-miterlimit="10"/></g><g transform="translate(-118,-278) scale(1,1)"><g><path fill="none" stroke="none"/><text fill="#000000" stroke="none" font-family="Arial" font-size="13px" font-style="normal" font-weight="normal" text-decoration="none" x="719.5" y="561.7099609375">+adds functionality</text></g></g><g transform="translate(-118,-278) scale(1,1)"><path fill="none" stroke="#000000" d="M 689 397 L 831 399" stroke-miterlimit="10"/></g><g transform="translate(-118,-278) scale(1,1)"><path fill="#000000" stroke="none" d="M 699.2209501083767 392.9340217804229 L 689 397 L 699.1023839030223 401.35222236058274 L 710.9978182178753 397.3098284256039"/></g><g transform="translate(-118,-278) scale(1,1)"><path fill="none" stroke="#000000" d="M 699.2209501083767 392.9340217804229 L 689 397 L 699.1023839030223 401.35222236058274 L 710.9978182178753 397.3098284256039 L 699.2209501083767 392.9340217804229" stroke-miterlimit="10"/></g><g transform="translate(-118,-278) scale(1,1)"><g><path fill="none" stroke="none"/><text fill="#000000" stroke="none" font-family="Arial" font-size="13px" font-style="normal" font-weight="normal" text-decoration="none" x="724.5" y="387.7099609375">+sends data</text></g></g><g transform="translate(-118,-278) scale(1,1)"><path fill="none" stroke="#000000" d="M 832 440 L 688 440" stroke-miterlimit="10"/></g><g transform="translate(-118,-278) scale(1,1)"><path fill="#000000" stroke="none" d="M 821.8373251423759 444.209517756016 L 832 440 L 821.8373251423758 435.790482243984 L 810 440"/></g><g transform="translate(-118,-278) scale(1,1)"><path fill="none" stroke="#000000" d="M 821.8373251423759 444.209517756016 L 832 440 L 821.8373251423758 435.790482243984 L 810 440 L 821.8373251423759 444.209517756016" stroke-miterlimit="10"/></g><g transform="translate(-118,-278) scale(1,1)"><g><path fill="none" stroke="none"/><text fill="#000000" stroke="none" font-family="Arial" font-size="13px" font-style="normal" font-weight="normal" text-decoration="none" x="723.5" y="459.7099609375">+stores data</text></g></g><g transform="translate(-118,-278) scale(1,1)"><path fill="none" stroke="#000000" d="M 578 505 L 575 639" stroke-miterlimit="10"/></g><g transform="translate(-118,-278) scale(1,1)"><path fill="#000000" stroke="none" d="M 581.9809976213633 515.2543482454372 L 578 505 L 573.5640712329565 515.0659095949504 L 577.5075860762455 526.994488594366"/></g><g transform="translate(-118,-278) scale(1,1)"><path fill="none" stroke="#000000" d="M 581.9809976213633 515.2543482454372 L 578 505 L 573.5640712329565 515.0659095949504 L 577.5075860762455 526.994488594366 L 581.9809976213633 515.2543482454372" stroke-miterlimit="10"/></g><g transform="translate(-118,-278) scale(1,1)"><g><path fill="none" stroke="none"/><text fill="#000000" stroke="none" font-family="Arial" font-size="13px" font-style="normal" font-weight="normal" text-decoration="none" x="530.5" y="576.7099609375">+provide information</text></g></g><g transform="translate(-118,-278) scale(1,1)"><rect fill="#C0C0C0" stroke="none" x="135" y="295" width="216" height="216" opacity="0.2"/></g><g transform="translate(-118,-278) scale(1,1)"><rect fill="#ffffff" stroke="none" x="128" y="288" width="216" height="216"/></g><g transform="translate(-118,-278) scale(1,1)"><path fill="none" stroke="#000000" d="M 128 288 L 344 288 L 344 504 L 128 504 L 128 288 Z Z" stroke-miterlimit="10"/></g><g transform="translate(-118,-278) scale(1,1)"><path fill="none" stroke="#000000" d="M 128 313 L 344 313" stroke-miterlimit="10"/></g><g transform="translate(-118,-278) scale(1,1)"><path fill="none" stroke="#000000" d="M 128 351 L 344 351" stroke-miterlimit="10"/></g><g transform="translate(-118,-278) scale(1,1)"><g><path fill="none" stroke="none"/><text fill="#000000" stroke="none" font-family="Arial" font-size="13px" font-style="normal" font-weight="bold" text-decoration="none" x="172.075927734375" y="305.7099609375">Information Provider</text></g></g><g transform="translate(-118,-278) scale(1,1)"><g><path fill="none" stroke="none"/><text fill="#000000" stroke="none" font-family="Arial" font-size="13px" font-style="normal" font-weight="normal" text-decoration="none" x="133" y="328.7099609375">+string informationType</text></g></g><g transform="translate(-118,-278) scale(1,1)"><g><path fill="none" stroke="none"/><text fill="#000000" stroke="none" font-family="Arial" font-size="13px" font-style="normal" font-weight="normal" text-decoration="none" x="133" y="343.7099609375">+string informationContent</text></g></g><g transform="translate(-118,-278) scale(1,1)"><g><path fill="none" stroke="none"/><text fill="#000000" stroke="none" font-family="Arial" font-size="13px" font-style="normal" font-weight="normal" text-decoration="none" x="133" y="366.7099609375">+registerInformation()</text></g></g><g transform="translate(-118,-278) scale(1,1)"><rect fill="#C0C0C0" stroke="none" x="135" y="639" width="216" height="203" opacity="0.2"/></g><g transform="translate(-118,-278) scale(1,1)"><rect fill="#ffffff" stroke="none" x="128" y="632" width="216" height="203"/></g><g transform="translate(-118,-278) scale(1,1)"><path fill="none" stroke="#000000" d="M 128 632 L 344 632 L 344 835 L 128 835 L 128 632 Z Z" stroke-miterlimit="10"/></g><g transform="translate(-118,-278) scale(1,1)"><path fill="none" stroke="#000000" d="M 128 657 L 344 657" stroke-miterlimit="10"/></g><g transform="translate(-118,-278) scale(1,1)"><path fill="none" stroke="#000000" d="M 128 680 L 344 680" stroke-miterlimit="10"/></g><g transform="translate(-118,-278) scale(1,1)"><g><path fill="none" stroke="none"/><text fill="#000000" stroke="none" font-family="Arial" font-size="13px" font-style="normal" font-weight="bold" text-decoration="none" x="170.99365234375" y="649.7099609375">Information Validator</text></g></g><g transform="translate(-118,-278) scale(1,1)"><g><path fill="none" stroke="none"/><text fill="#000000" stroke="none" font-family="Arial" font-size="13px" font-style="normal" font-weight="normal" text-decoration="none" x="133" y="672.7099609375">+string name</text></g></g><g transform="translate(-118,-278) scale(1,1)"><g><path fill="none" stroke="none"/><text fill="#000000" stroke="none" font-family="Arial" font-size="13px" font-style="normal" font-weight="normal" text-decoration="none" x="133" y="695.7099609375">+seeInformation()</text></g></g><g transform="translate(-118,-278) scale(1,1)"><g><path fill="none" stroke="none"/><text fill="#000000" stroke="none" font-family="Arial" font-size="13px" font-style="normal" font-weight="normal" text-decoration="none" x="133" y="710.7099609375">+editInformation()</text></g></g><g transform="translate(-118,-278) scale(1,1)"><g><path fill="none" stroke="none"/><text fill="#000000" stroke="none" font-family="Arial" font-size="13px" font-style="normal" font-weight="normal" text-decoration="none" x="133" y="725.7099609375">+confirmInformation()</text></g></g><g transform="translate(-118,-278) scale(1,1)"><path fill="none" stroke="#000000" d="M 345 739 L 455 745" stroke-miterlimit="10"/></g><g transform="translate(-118,-278) scale(1,1)"><path fill="#FFFFFF" stroke="none" d="M 434.24628053807703 752.2995293338543 L 455 745 L 435.16335754219256 735.4864509250696"/></g><g transform="translate(-118,-278) scale(1,1)"><path fill="none" stroke="#000000" d="M 434.24628053807703 752.2995293338543 L 455 745 L 435.16335754219256 735.4864509250696 L 434.24628053807703 752.2995293338543" stroke-miterlimit="10"/></g><g transform="translate(-118,-278) scale(1,1)"><g><path fill="none" stroke="none"/><text fill="#000000" stroke="none" font-family="Arial" font-size="13px" font-style="normal" font-weight="normal" text-decoration="none" x="339.5" y="731.7099609375">+validate information</text></g></g><g transform="translate(-118,-278) scale(1,1)"><path fill="none" stroke="#000000" d="M 339 505 L 465 639" stroke-miterlimit="10"/></g><g transform="translate(-118,-278) scale(1,1)"><path fill="#FFFFFF" stroke="none" d="M 444.9431896332585 629.9598474618749 L 465 639 L 457.2100465433735 618.4253402180353"/></g><g transform="translate(-118,-278) scale(1,1)"><path fill="none" stroke="#000000" d="M 444.9431896332585 629.9598474618749 L 465 639 L 457.2100465433735 618.4253402180353 L 444.9431896332585 629.9598474618749" stroke-miterlimit="10"/></g><g transform="translate(-118,-278) scale(1,1)"><g><path fill="none" stroke="none"/><text fill="#000000" stroke="none" font-family="Arial" font-size="13px" font-style="normal" font-weight="normal" text-decoration="none" x="352.5" y="565.7099609375">+register information</text></g></g></g></svg>