<svg version="1.1" xmlns="http://www.w3.org/2000/svg" xmlns:xlink="http://www.w3.org/1999/xlink" width="837" height="791"><defs/><g><g transform="translate(-6,2) scale(1,1)"><path fill="#C0C0C0" stroke="none" d="M 63 96.5 C 63 91.2532944 67.2532944 87 72.5 87 C 77.7467056 87 82 91.2532944 82 96.5 C 82 101.7467056 77.7467056 106 72.5 106 C 67.2532944 106 63 101.7467056 63 96.5 Z" opacity="0.2"/></g><g transform="translate(-6,2) scale(1,1)"><path fill="#000000" stroke="none" d="M 56 89.5 C 56 84.2532944 60.2532944 80 65.5 80 C 70.7467056 80 75 84.2532944 75 89.5 C 75 94.7467056 70.7467056 99 65.5 99 C 60.2532944 99 56 94.7467056 56 89.5 Z"/></g><g transform="translate(-6,2) scale(1,1)"><path fill="#C0C0C0" stroke="none" d="M 217 95 L 331.68359375 95 Q 341.68359375 95 341.68359375 105 L 341.68359375 125 Q 341.68359375 135 331.68359375 135 L 217 135 Q 207 135 207 125 L 207 105 Q 207 95 217 95 Z" opacity="0.2"/></g><g transform="translate(-6,2) scale(1,1)"><path fill="#ffffff" stroke="none" d="M 210 88 L 324.68359375 88 Q 334.68359375 88 334.68359375 98 L 334.68359375 118 Q 334.68359375 128 324.68359375 128 L 210 128 Q 200 128 200 118 L 200 98 Q 200 88 210 88 Z"/></g><g transform="translate(-6,2) scale(1,1)"><path fill="none" stroke="#000000" d="M 210 88 L 324.68359375 88 Q 334.68359375 88 334.68359375 98 L 334.68359375 118 Q 334.68359375 128 324.68359375 128 L 210 128 Q 200 128 200 118 L 200 98 Q 200 88 210 88 Z" stroke-miterlimit="10"/></g><g transform="translate(-6,2) scale(1,1)"><g><path fill="none" stroke="none"/><text fill="#000000" stroke="none" font-family="Arial" font-size="13px" font-style="normal" font-weight="bold" text-decoration="none" x="204.5" y="105.7099609375">Initialise automation</text></g></g><g transform="translate(-6,2) scale(1,1)"><path fill="none" stroke="#000000" d="M 76 90 L 199 102" stroke-miterlimit="10"/></g><g transform="translate(-6,2) scale(1,1)"><path fill="none" stroke="#000000" d="M 188.47660347760504 105.2028308779025 L 199 102 L 189.29409152514108 96.82357839065811" stroke-miterlimit="10"/></g><g transform="translate(-6,2) scale(1,1)"><path fill="#C0C0C0" stroke="none" d="M 169 183 L 379.76171875 183 Q 389.76171875 183 389.76171875 193 L 389.76171875 213 Q 389.76171875 223 379.76171875 223 L 169 223 Q 159 223 159 213 L 159 193 Q 159 183 169 183 Z" opacity="0.2"/></g><g transform="translate(-6,2) scale(1,1)"><path fill="#ffffff" stroke="none" d="M 162 176 L 372.76171875 176 Q 382.76171875 176 382.76171875 186 L 382.76171875 206 Q 382.76171875 216 372.76171875 216 L 162 216 Q 152 216 152 206 L 152 186 Q 152 176 162 176 Z"/></g><g transform="translate(-6,2) scale(1,1)"><path fill="none" stroke="#000000" d="M 162 176 L 372.76171875 176 Q 382.76171875 176 382.76171875 186 L 382.76171875 206 Q 382.76171875 216 372.76171875 216 L 162 216 Q 152 216 152 206 L 152 186 Q 152 176 162 176 Z" stroke-miterlimit="10"/></g><g transform="translate(-6,2) scale(1,1)"><g><path fill="none" stroke="none"/><text fill="#000000" stroke="none" font-family="Arial" font-size="13px" font-style="normal" font-weight="bold" text-decoration="none" x="156.5" y="193.7099609375">Determine city and information type</text></g></g><g transform="translate(-6,2) scale(1,1)"><path fill="none" stroke="#000000" d="M 267 129 L 267 175" stroke-miterlimit="10"/></g><g transform="translate(-6,2) scale(1,1)"><path fill="none" stroke="#000000" d="M 262.790482243984 164.83732514237585 L 267 175 L 271.209517756016 164.83732514237585" stroke-miterlimit="10"/></g><g transform="translate(-6,2) scale(1,1)"><path fill="#C0C0C0" stroke="none" d="M 657 295 L 745.7216796875 295 Q 755.7216796875 295 755.7216796875 305 L 755.7216796875 325 Q 755.7216796875 335 745.7216796875 335 L 657 335 Q 647 335 647 325 L 647 305 Q 647 295 657 295 Z" opacity="0.2"/></g><g transform="translate(-6,2) scale(1,1)"><path fill="#ffffff" stroke="none" d="M 650 288 L 738.7216796875 288 Q 748.7216796875 288 748.7216796875 298 L 748.7216796875 318 Q 748.7216796875 328 738.7216796875 328 L 650 328 Q 640 328 640 318 L 640 298 Q 640 288 650 288 Z"/></g><g transform="translate(-6,2) scale(1,1)"><path fill="none" stroke="#000000" d="M 650 288 L 738.7216796875 288 Q 748.7216796875 288 748.7216796875 298 L 748.7216796875 318 Q 748.7216796875 328 738.7216796875 328 L 650 328 Q 640 328 640 318 L 640 298 Q 640 288 650 288 Z" stroke-miterlimit="10"/></g><g transform="translate(-6,2) scale(1,1)"><g><path fill="none" stroke="none"/><text fill="#000000" stroke="none" font-family="Arial" font-size="13px" font-style="normal" font-weight="bold" text-decoration="none" x="644.5" y="305.7099609375">Receive request</text></g></g><g transform="translate(-6,2) scale(1,1)"><path fill="#C0C0C0" stroke="none" d="M 241 287 L 312.3544921875 287 Q 322.3544921875 287 322.3544921875 297 L 322.3544921875 317 Q 322.3544921875 327 312.3544921875 327 L 241 327 Q 231 327 231 317 L 231 297 Q 231 287 241 287 Z" opacity="0.2"/></g><g transform="translate(-6,2) scale(1,1)"><path fill="#ffffff" stroke="none" d="M 234 280 L 305.3544921875 280 Q 315.3544921875 280 315.3544921875 290 L 315.3544921875 310 Q 315.3544921875 320 305.3544921875 320 L 234 320 Q 224 320 224 310 L 224 290 Q 224 280 234 280 Z"/></g><g transform="translate(-6,2) scale(1,1)"><path fill="none" stroke="#000000" d="M 234 280 L 305.3544921875 280 Q 315.3544921875 280 315.3544921875 290 L 315.3544921875 310 Q 315.3544921875 320 305.3544921875 320 L 234 320 Q 224 320 224 310 L 224 290 Q 224 280 234 280 Z" stroke-miterlimit="10"/></g><g transform="translate(-6,2) scale(1,1)"><g><path fill="none" stroke="none"/><text fill="#000000" stroke="none" font-family="Arial" font-size="13px" font-style="normal" font-weight="bold" text-decoration="none" x="228.5" y="297.7099609375">Send request</text></g></g><g transform="translate(-6,2) scale(1,1)"><path fill="none" stroke="#000000" d="M 267 217 L 269 279" stroke-miterlimit="10"/></g><g transform="translate(-6,2) scale(1,1)"><path fill="none" stroke="#000000" d="M 264.4650129238797 268.9783288709207 L 269 279 L 272.8796715000754 268.70688827168857" stroke-miterlimit="10"/></g><g transform="translate(-6,2) scale(1,1)"><path fill="none" stroke="#000000" d="M 316 301 L 639 307" stroke-miterlimit="10"/></g><g transform="translate(-6,2) scale(1,1)"><path fill="none" stroke="#000000" d="M 628.7608961778627 311.02004389521966 L 639 307 L 628.9172599551162 302.602460553071" stroke-miterlimit="10"/></g><g transform="translate(-6,2) scale(1,1)"><g><path fill="none" stroke="none"/><text fill="#000000" stroke="none" font-family="Arial" font-size="13px" font-style="normal" font-weight="normal" text-decoration="none" x="205" y="38.419921875">GitHub</text></g></g><g transform="translate(-6,2) scale(1,1)"><g><path fill="none" stroke="none"/><text fill="#000000" stroke="none" font-family="Arial" font-size="13px" font-style="normal" font-weight="normal" text-decoration="none" x="637" y="46.0771484375">AWS</text></g></g><g transform="translate(-6,2) scale(1,1)"><path fill="none" stroke="#000000" d="M 16 8 L 16 776" stroke-miterlimit="10"/></g><g transform="translate(-6,2) scale(1,1)"><path fill="none" stroke="#000000" d="M 16 776 L 832 776" stroke-miterlimit="10"/></g><g transform="translate(-6,2) scale(1,1)"><path fill="none" stroke="#000000" d="M 832 776 L 832 8" stroke-miterlimit="10"/></g><g transform="translate(-6,2) scale(1,1)"><path fill="none" stroke="#000000" d="M 16 8 L 830 8" stroke-miterlimit="10"/></g><g transform="translate(-6,2) scale(1,1)"><path fill="none" stroke="#000000" d="M 16 64 L 830 69" stroke-miterlimit="10"/></g><g transform="translate(-6,2) scale(1,1)"><path fill="none" stroke="#000000" d="M 440 8 L 437 778" stroke-miterlimit="10"/></g><g transform="translate(-6,2) scale(1,1)"><path fill="#C0C0C0" stroke="none" d="M 687 392.5 L 698.5 383 L 709 392.5 L 698.5 401 L 687 392.5" opacity="0.2"/></g><g transform="translate(-6,2) scale(1,1)"><path fill="#ffffff" stroke="none" d="M 680 385 L 691 376 L 702 385 L 691 394 L 680 385"/></g><g transform="translate(-6,2) scale(1,1)"><path fill="none" stroke="#000000" d="M 680 385 L 691 376 L 702 385 L 691 394 L 680 385 L 680 385" stroke-miterlimit="10"/></g><g transform="translate(-6,2) scale(1,1)"><path fill="none" stroke="#000000" d="M 693 329 L 691 375" stroke-miterlimit="10"/></g><g transform="translate(-6,2) scale(1,1)"><path fill="none" stroke="#000000" d="M 687.235893749185 364.6640673312673 L 691 375 L 695.6469830248906 365.02976686499363" stroke-miterlimit="10"/></g><g transform="translate(-6,2) scale(1,1)"><path fill="#C0C0C0" stroke="none" d="M 249 695 L 297.95361328125 695 Q 307.95361328125 695 307.95361328125 705 L 307.95361328125 725 Q 307.95361328125 735 297.95361328125 735 L 249 735 Q 239 735 239 725 L 239 705 Q 239 695 249 695 Z" opacity="0.2"/></g><g transform="translate(-6,2) scale(1,1)"><path fill="#ffffff" stroke="none" d="M 242 688 L 290.95361328125 688 Q 300.95361328125 688 300.95361328125 698 L 300.95361328125 718 Q 300.95361328125 728 290.95361328125 728 L 242 728 Q 232 728 232 718 L 232 698 Q 232 688 242 688 Z"/></g><g transform="translate(-6,2) scale(1,1)"><path fill="none" stroke="#000000" d="M 242 688 L 290.95361328125 688 Q 300.95361328125 688 300.95361328125 698 L 300.95361328125 718 Q 300.95361328125 728 290.95361328125 728 L 242 728 Q 232 728 232 718 L 232 698 Q 232 688 242 688 Z" stroke-miterlimit="10"/></g><g transform="translate(-6,2) scale(1,1)"><g><path fill="none" stroke="none"/><text fill="#000000" stroke="none" font-family="Arial" font-size="13px" font-style="normal" font-weight="bold" text-decoration="none" x="236.5" y="705.7099609375">End story</text></g></g><g transform="translate(-6,2) scale(1,1)"><path fill="#C0C0C0" stroke="none" d="M 729 447 L 807.5908203125 447 Q 817.5908203125 447 817.5908203125 457 L 817.5908203125 477 Q 817.5908203125 487 807.5908203125 487 L 729 487 Q 719 487 719 477 L 719 457 Q 719 447 729 447 Z" opacity="0.2"/></g><g transform="translate(-6,2) scale(1,1)"><path fill="#ffffff" stroke="none" d="M 722 440 L 800.5908203125 440 Q 810.5908203125 440 810.5908203125 450 L 810.5908203125 470 Q 810.5908203125 480 800.5908203125 480 L 722 480 Q 712 480 712 470 L 712 450 Q 712 440 722 440 Z"/></g><g transform="translate(-6,2) scale(1,1)"><path fill="none" stroke="#000000" d="M 722 440 L 800.5908203125 440 Q 810.5908203125 440 810.5908203125 450 L 810.5908203125 470 Q 810.5908203125 480 800.5908203125 480 L 722 480 Q 712 480 712 470 L 712 450 Q 712 440 722 440 Z" stroke-miterlimit="10"/></g><g transform="translate(-6,2) scale(1,1)"><g><path fill="none" stroke="none"/><text fill="#000000" stroke="none" font-family="Arial" font-size="13px" font-style="normal" font-weight="bold" text-decoration="none" x="716.5" y="457.7099609375">Reject request</text></g></g><g transform="translate(-6,2) scale(1,1)"><path fill="none" stroke="#000000" d="M 700 395 L 741 439" stroke-miterlimit="10"/></g><g transform="translate(-6,2) scale(1,1)"><path fill="none" stroke="#000000" d="M 730.992127694212 434.434642192441 L 741 439 L 737.1515610915961 428.69517016306025" stroke-miterlimit="10"/></g><g transform="translate(-6,2) scale(1,1)"><path fill="none" stroke="#000000" d="M 768 480 L 768 720 L 301 720" stroke-miterlimit="10"/></g><g transform="translate(-6,2) scale(1,1)"><path fill="none" stroke="#000000" d="M 311.16267485762415 715.790482243984 L 301 720 L 311.16267485762415 724.209517756016" stroke-miterlimit="10"/></g><g transform="translate(-6,2) scale(1,1)"><path fill="#C0C0C0" stroke="none" d="M 233 431 L 301.49169921875 431 Q 311.49169921875 431 311.49169921875 441 L 311.49169921875 469 Q 311.49169921875 479 301.49169921875 479 L 233 479 Q 223 479 223 469 L 223 441 Q 223 431 233 431 Z" opacity="0.2"/></g><g transform="translate(-6,2) scale(1,1)"><path fill="#ffffff" stroke="none" d="M 226 424 L 294.49169921875 424 Q 304.49169921875 424 304.49169921875 434 L 304.49169921875 462 Q 304.49169921875 472 294.49169921875 472 L 226 472 Q 216 472 216 462 L 216 434 Q 216 424 226 424 Z"/></g><g transform="translate(-6,2) scale(1,1)"><path fill="none" stroke="#000000" d="M 226 424 L 294.49169921875 424 Q 304.49169921875 424 304.49169921875 434 L 304.49169921875 462 Q 304.49169921875 472 294.49169921875 472 L 226 472 Q 216 472 216 462 L 216 434 Q 216 424 226 424 Z" stroke-miterlimit="10"/></g><g transform="translate(-6,2) scale(1,1)"><g><path fill="none" stroke="none"/><text fill="#000000" stroke="none" font-family="Arial" font-size="13px" font-style="normal" font-weight="bold" text-decoration="none" x="220.5" y="441.7099609375">Receive data</text></g></g><g transform="translate(-6,2) scale(1,1)"><path fill="none" stroke="#000000" d="M 679 387 L 305 441" stroke-miterlimit="10"/></g><g transform="translate(-6,2) scale(1,1)"><path fill="none" stroke="#000000" d="M 314.4568186587801 435.3814075735155 L 305 441 L 315.6599254075654 443.7140357965843" stroke-miterlimit="10"/></g><g transform="translate(-6,2) scale(1,1)"><path fill="#C0C0C0" stroke="none" d="M 233 511 L 287.76171875 511 Q 297.76171875 511 297.76171875 521 L 297.76171875 541 Q 297.76171875 551 287.76171875 551 L 233 551 Q 223 551 223 541 L 223 521 Q 223 511 233 511 Z" opacity="0.2"/></g><g transform="translate(-6,2) scale(1,1)"><path fill="#ffffff" stroke="none" d="M 226 504 L 280.76171875 504 Q 290.76171875 504 290.76171875 514 L 290.76171875 534 Q 290.76171875 544 280.76171875 544 L 226 544 Q 216 544 216 534 L 216 514 Q 216 504 226 504 Z"/></g><g transform="translate(-6,2) scale(1,1)"><path fill="none" stroke="#000000" d="M 226 504 L 280.76171875 504 Q 290.76171875 504 290.76171875 514 L 290.76171875 534 Q 290.76171875 544 280.76171875 544 L 226 544 Q 216 544 216 534 L 216 514 Q 216 504 226 504 Z" stroke-miterlimit="10"/></g><g transform="translate(-6,2) scale(1,1)"><g><path fill="none" stroke="none"/><text fill="#000000" stroke="none" font-family="Arial" font-size="13px" font-style="normal" font-weight="bold" text-decoration="none" x="220.5" y="521.7099609375">Parse data</text></g></g><g transform="translate(-6,2) scale(1,1)"><path fill="none" stroke="#000000" d="M 258 473 L 255 503" stroke-miterlimit="10"/></g><g transform="translate(-6,2) scale(1,1)"><path fill="none" stroke="#000000" d="M 251.8225972234496 492.46889789264344 L 255 503 L 260.19985066362 493.30662323666047" stroke-miterlimit="10"/></g><g transform="translate(-6,2) scale(1,1)"><path fill="#C0C0C0" stroke="none" d="M 225 583 L 299.97265625 583 Q 309.97265625 583 309.97265625 593 L 309.97265625 613 Q 309.97265625 623 299.97265625 623 L 225 623 Q 215 623 215 613 L 215 593 Q 215 583 225 583 Z" opacity="0.2"/></g><g transform="translate(-6,2) scale(1,1)"><path fill="#ffffff" stroke="none" d="M 218 576 L 292.97265625 576 Q 302.97265625 576 302.97265625 586 L 302.97265625 606 Q 302.97265625 616 292.97265625 616 L 218 616 Q 208 616 208 606 L 208 586 Q 208 576 218 576 Z"/></g><g transform="translate(-6,2) scale(1,1)"><path fill="none" stroke="#000000" d="M 218 576 L 292.97265625 576 Q 302.97265625 576 302.97265625 586 L 302.97265625 606 Q 302.97265625 616 292.97265625 616 L 218 616 Q 208 616 208 606 L 208 586 Q 208 576 218 576 Z" stroke-miterlimit="10"/></g><g transform="translate(-6,2) scale(1,1)"><g><path fill="none" stroke="none"/><text fill="#000000" stroke="none" font-family="Arial" font-size="13px" font-style="normal" font-weight="bold" text-decoration="none" x="212.5" y="593.53857421875">Generate PDF</text></g></g><g transform="translate(-6,2) scale(1,1)"><path fill="#C0C0C0" stroke="none" d="M 561 511 L 628.76171875 511 Q 638.76171875 511 638.76171875 521 L 638.76171875 541 Q 638.76171875 551 628.76171875 551 L 561 551 Q 551 551 551 541 L 551 521 Q 551 511 561 511 Z" opacity="0.2"/></g><g transform="translate(-6,2) scale(1,1)"><path fill="#ffffff" stroke="none" d="M 554 504 L 621.76171875 504 Q 631.76171875 504 631.76171875 514 L 631.76171875 534 Q 631.76171875 544 621.76171875 544 L 554 544 Q 544 544 544 534 L 544 514 Q 544 504 554 504 Z"/></g><g transform="translate(-6,2) scale(1,1)"><path fill="none" stroke="#000000" d="M 554 504 L 621.76171875 504 Q 631.76171875 504 631.76171875 514 L 631.76171875 534 Q 631.76171875 544 621.76171875 544 L 554 544 Q 544 544 544 534 L 544 514 Q 544 504 554 504 Z" stroke-miterlimit="10"/></g><g transform="translate(-6,2) scale(1,1)"><g><path fill="none" stroke="none"/><text fill="#000000" stroke="none" font-family="Arial" font-size="13px" font-style="normal" font-weight="bold" text-decoration="none" x="548.5" y="521.7099609375">Receive PDF</text></g></g><g transform="translate(-6,2) scale(1,1)"><path fill="#C0C0C0" stroke="none" d="M 562 591 L 625 591 Q 628 591 628 594 L 628 593 Q 628 596 625 596 L 562 596 Q 559 596 559 593 L 559 594 Q 559 591 562 591 Z" opacity="0.2"/></g><g transform="translate(-6,2) scale(1,1)"><path fill="#000000" stroke="none" d="M 555 584 L 618 584 Q 621 584 621 587 L 621 587 Q 621 590 618 590 L 555 590 Q 552 590 552 587 L 552 587 Q 552 584 555 584 Z"/></g><g transform="translate(-6,2) scale(1,1)"><path fill="#C0C0C0" stroke="none" d="M 473 615 L 565 615 Q 575 615 575 625 L 575 671 Q 575 681 565 681 L 473 681 Q 463 681 463 671 L 463 625 Q 463 615 473 615 Z" opacity="0.2"/></g><g transform="translate(-6,2) scale(1,1)"><path fill="#ffffff" stroke="none" d="M 466 608 L 558 608 Q 568 608 568 618 L 568 664 Q 568 674 558 674 L 466 674 Q 456 674 456 664 L 456 618 Q 456 608 466 608 Z"/></g><g transform="translate(-6,2) scale(1,1)"><path fill="none" stroke="#000000" d="M 466 608 L 558 608 Q 568 608 568 618 L 568 664 Q 568 674 558 674 L 466 674 Q 456 674 456 664 L 456 618 Q 456 608 466 608 Z" stroke-miterlimit="10"/></g><g transform="translate(-6,2) scale(1,1)"><g><path fill="none" stroke="none"/><text fill="#000000" stroke="none" font-family="Arial" font-size="13px" font-style="normal" font-weight="bold" text-decoration="none" x="472.996826171875" y="625.7099609375">Store PDF in</text><text fill="#000000" stroke="none" font-family="Arial" font-size="13px" font-style="normal" font-weight="bold" text-decoration="none" x="472.984130859375" y="638.7099609375">primary data</text><text fill="#000000" stroke="none" font-family="Arial" font-size="13px" font-style="normal" font-weight="bold" text-decoration="none" x="491.049560546875" y="651.7099609375">bucket</text></g></g><g transform="translate(-6,2) scale(1,1)"><path fill="#C0C0C0" stroke="none" d="M 625 615 L 709 615 Q 719 615 719 625 L 719 671 Q 719 681 709 681 L 625 681 Q 615 681 615 671 L 615 625 Q 615 615 625 615 Z" opacity="0.2"/></g><g transform="translate(-6,2) scale(1,1)"><path fill="#ffffff" stroke="none" d="M 618 608 L 702 608 Q 712 608 712 618 L 712 664 Q 712 674 702 674 L 618 674 Q 608 674 608 664 L 608 618 Q 608 608 618 608 Z"/></g><g transform="translate(-6,2) scale(1,1)"><path fill="none" stroke="#000000" d="M 618 608 L 702 608 Q 712 608 712 618 L 712 664 Q 712 674 702 674 L 618 674 Q 608 674 608 664 L 608 618 Q 608 608 618 608 Z" stroke-miterlimit="10"/></g><g transform="translate(-6,2) scale(1,1)"><g><path fill="none" stroke="none"/><text fill="#000000" stroke="none" font-family="Arial" font-size="13px" font-style="normal" font-weight="bold" text-decoration="none" x="620.996826171875" y="625.7099609375">Store PDF in</text><text fill="#000000" stroke="none" font-family="Arial" font-size="13px" font-style="normal" font-weight="bold" text-decoration="none" x="622.07275390625" y="638.7099609375">backup data</text><text fill="#000000" stroke="none" font-family="Arial" font-size="13px" font-style="normal" font-weight="bold" text-decoration="none" x="639.049560546875" y="651.7099609375">bucket</text></g></g><g transform="translate(-6,2) scale(1,1)"><path fill="none" stroke="#000000" d="M 254 545 L 254 575" stroke-miterlimit="10"/></g><g transform="translate(-6,2) scale(1,1)"><path fill="none" stroke="#000000" d="M 249.790482243984 564.8373251423759 L 254 575 L 258.209517756016 564.8373251423759" stroke-miterlimit="10"/></g><g transform="translate(-6,2) scale(1,1)"><path fill="none" stroke="#000000" d="M 304 585 L 543 534" stroke-miterlimit="10"/></g><g transform="translate(-6,2) scale(1,1)"><path fill="none" stroke="#000000" d="M 533.9395769653229 540.2376866250793 L 543 534 L 532.1826029202508 532.0040239432711" stroke-miterlimit="10"/></g><g transform="translate(-6,2) scale(1,1)"><path fill="none" stroke="#000000" d="M 587 545 L 586 583" stroke-miterlimit="10"/></g><g transform="translate(-6,2) scale(1,1)"><path fill="none" stroke="#000000" d="M 582.0592853332588 572.7301038021151 L 586 583 L 590.4754071800323 572.9515806928197" stroke-miterlimit="10"/></g><g transform="translate(-6,2) scale(1,1)"><path fill="none" stroke="#000000" d="M 581 590 L 558 607" stroke-miterlimit="10"/></g><g transform="translate(-6,2) scale(1,1)"><path fill="none" stroke="#000000" d="M 563.6704809283316 597.5742031614601 L 558 607 L 568.6746803796304 604.344590654394" stroke-miterlimit="10"/></g><g transform="translate(-6,2) scale(1,1)"><path fill="none" stroke="#000000" d="M 591 590 L 614 607" stroke-miterlimit="10"/></g><g transform="translate(-6,2) scale(1,1)"><path fill="none" stroke="#000000" d="M 603.3253196203696 604.344590654394 L 614 607 L 608.3295190716684 597.5742031614601" stroke-miterlimit="10"/></g><g transform="translate(-6,2) scale(1,1)"><path fill="#C0C0C0" stroke="none" d="M 562 703 L 625 703 Q 628 703 628 706 L 628 705 Q 628 708 625 708 L 562 708 Q 559 708 559 705 L 559 706 Q 559 703 562 703 Z" opacity="0.2"/></g><g transform="translate(-6,2) scale(1,1)"><path fill="#000000" stroke="none" d="M 555 696 L 618 696 Q 621 696 621 699 L 621 699 Q 621 702 618 702 L 555 702 Q 552 702 552 699 L 552 699 Q 552 696 555 696 Z"/></g><g transform="translate(-6,2) scale(1,1)"><path fill="none" stroke="#000000" d="M 556 675 L 582 695" stroke-miterlimit="10"/></g><g transform="translate(-6,2) scale(1,1)"><path fill="none" stroke="#000000" d="M 571.3782318405462 692.14027253627 L 582 695 L 576.5114083882078 685.4671430243098" stroke-miterlimit="10"/></g><g transform="translate(-6,2) scale(1,1)"><path fill="none" stroke="#000000" d="M 616 675 L 590 695" stroke-miterlimit="10"/></g><g transform="translate(-6,2) scale(1,1)"><path fill="none" stroke="#000000" d="M 595.4885916117922 685.4671430243098 L 590 695 L 600.6217681594538 692.14027253627" stroke-miterlimit="10"/></g><g transform="translate(-6,2) scale(1,1)"><path fill="none" stroke="#000000" d="M 551 699 L 302 707" stroke-miterlimit="10"/></g><g transform="translate(-6,2) scale(1,1)"><path fill="none" stroke="#000000" d="M 312.0222579465446 702.4663099297676 L 302 707 L 312.2926095492619 710.881003564343" stroke-miterlimit="10"/></g><g transform="translate(-6,2) scale(1,1)"><path fill="#C0C0C0" stroke="none" d="M 255 755.5 C 255 748.59644 260.59644 743 267.5 743 C 274.40356 743 280 748.59644 280 755.5 C 280 762.40356 274.40356 768 267.5 768 C 260.59644 768 255 762.40356 255 755.5 Z" opacity="0.2"/></g><g transform="translate(-6,2) scale(1,1)"><path fill="none" stroke="#000000" d="M 248 748.5 C 248 741.59644 253.59644 736 260.5 736 C 267.40356 736 273 741.59644 273 748.5 C 273 755.40356 267.40356 761 260.5 761 C 253.59644 761 248 755.40356 248 748.5 Z" stroke-miterlimit="10"/></g><g transform="translate(-6,2) scale(1,1)"><path fill="#000000" stroke="none" d="M 253 748.5 C 253 744.357864 256.357864 741 260.5 741 C 264.642136 741 268 744.357864 268 748.5 C 268 752.642136 264.642136 756 260.5 756 C 256.357864 756 253 752.642136 253 748.5 Z"/></g><g transform="translate(-6,2) scale(1,1)"><path fill="none" stroke="#000000" d="M 263 729 L 262 735" stroke-miterlimit="10"/></g><g transform="translate(-6,2) scale(1,1)"><path fill="none" stroke="#000000" d="M 259.5184907181093 724.2835588144249 L 262 735 L 267.8229761917047 725.6676397266908" stroke-miterlimit="10"/></g></g></svg>