<svg version="1.1" xmlns="http://www.w3.org/2000/svg" xmlns:xlink="http://www.w3.org/1999/xlink" width="628.4697265625" height="595"><defs/><g><g transform="translate(-78,-102) scale(1,1)"><rect fill="#C0C0C0" stroke="none" x="95" y="119" width="207" height="255" opacity="0.2"/></g><g transform="translate(-78,-102) scale(1,1)"><rect fill="#ffffff" stroke="none" x="88" y="112" width="207" height="255"/></g><g transform="translate(-78,-102) scale(1,1)"><path fill="none" stroke="#000000" d="M 88 112 L 295 112 L 295 367 L 88 367 L 88 112 Z Z" stroke-miterlimit="10"/></g><g transform="translate(-78,-102) scale(1,1)"><path fill="none" stroke="#000000" d="M 88 137 L 295 137" stroke-miterlimit="10"/></g><g transform="translate(-78,-102) scale(1,1)"><path fill="none" stroke="#000000" d="M 88 160 L 295 160" stroke-miterlimit="10"/></g><g transform="translate(-78,-102) scale(1,1)"><g><path fill="none" stroke="none"/><text fill="#000000" stroke="none" font-family="Arial" font-size="13px" font-style="normal" font-weight="bold" text-decoration="none" x="163.338623046875" y="129.7099609375">Frontend</text></g></g><g transform="translate(-78,-102) scale(1,1)"><g><path fill="none" stroke="none"/><text fill="#000000" stroke="none" font-family="Arial" font-size="13px" font-style="normal" font-weight="normal" text-decoration="none" x="93" y="152.7099609375">+string HTMLData</text></g></g><g transform="translate(-78,-102) scale(1,1)"><g><path fill="none" stroke="none"/><text fill="#000000" stroke="none" font-family="Arial" font-size="13px" font-style="normal" font-weight="normal" text-decoration="none" x="93" y="175.7099609375">+redirectTo()</text></g></g><g transform="translate(-78,-102) scale(1,1)"><g><path fill="none" stroke="none"/><text fill="#000000" stroke="none" font-family="Arial" font-size="13px" font-style="normal" font-weight="normal" text-decoration="none" x="93" y="190.7099609375">+citySelection()</text></g></g><g transform="translate(-78,-102) scale(1,1)"><g><path fill="none" stroke="none"/><text fill="#000000" stroke="none" font-family="Arial" font-size="13px" font-style="normal" font-weight="normal" text-decoration="none" x="93" y="205.7099609375">+sendRequest()</text></g></g><g transform="translate(-78,-102) scale(1,1)"><g><path fill="none" stroke="none"/><text fill="#000000" stroke="none" font-family="Arial" font-size="13px" font-style="normal" font-weight="normal" text-decoration="none" x="93" y="220.7099609375">+changeLanguage()</text></g></g><g transform="translate(-78,-102) scale(1,1)"><rect fill="#C0C0C0" stroke="none" x="471" y="119" width="215" height="263" opacity="0.2"/></g><g transform="translate(-78,-102) scale(1,1)"><rect fill="#ffffff" stroke="none" x="464" y="112" width="215" height="263"/></g><g transform="translate(-78,-102) scale(1,1)"><path fill="none" stroke="#000000" d="M 464 112 L 679 112 L 679 375 L 464 375 L 464 112 Z Z" stroke-miterlimit="10"/></g><g transform="translate(-78,-102) scale(1,1)"><path fill="none" stroke="#000000" d="M 464 137 L 679 137" stroke-miterlimit="10"/></g><g transform="translate(-78,-102) scale(1,1)"><path fill="none" stroke="#000000" d="M 464 220 L 679 220" stroke-miterlimit="10"/></g><g transform="translate(-78,-102) scale(1,1)"><g><path fill="none" stroke="none"/><text fill="#000000" stroke="none" font-family="Arial" font-size="13px" font-style="normal" font-weight="bold" text-decoration="none" x="557.411376953125" y="129.471923828125">Data</text></g></g><g transform="translate(-78,-102) scale(1,1)"><g><path fill="none" stroke="none"/><text fill="#000000" stroke="none" font-family="Arial" font-size="13px" font-style="normal" font-weight="normal" text-decoration="none" x="469" y="152.7099609375">+string [ ][ ] generalNeeds</text></g></g><g transform="translate(-78,-102) scale(1,1)"><g><path fill="none" stroke="none"/><text fill="#000000" stroke="none" font-family="Arial" font-size="13px" font-style="normal" font-weight="normal" text-decoration="none" x="469" y="167.7099609375">+string [ ] importantSources</text></g></g><g transform="translate(-78,-102) scale(1,1)"><g><path fill="none" stroke="none"/><text fill="#000000" stroke="none" font-family="Arial" font-size="13px" font-style="normal" font-weight="normal" text-decoration="none" x="469" y="182.7099609375">+string [ ][ ] healthServices</text></g></g><g transform="translate(-78,-102) scale(1,1)"><g><path fill="none" stroke="none"/><text fill="#000000" stroke="none" font-family="Arial" font-size="13px" font-style="normal" font-weight="normal" text-decoration="none" x="469" y="197.7099609375">+string [ ][ ] forHelp</text></g></g><g transform="translate(-78,-102) scale(1,1)"><g><path fill="none" stroke="none"/><text fill="#000000" stroke="none" font-family="Arial" font-size="13px" font-style="normal" font-weight="normal" text-decoration="none" x="469" y="212.7099609375">+string [ ] about</text></g></g><g transform="translate(-78,-102) scale(1,1)"><g><path fill="none" stroke="none"/><text fill="#000000" stroke="none" font-family="Arial" font-size="13px" font-style="normal" font-weight="normal" text-decoration="none" x="469" y="235.7099609375">+parseData()</text></g></g><g transform="translate(-78,-102) scale(1,1)"><g><path fill="none" stroke="none"/><text fill="#000000" stroke="none" font-family="Arial" font-size="13px" font-style="normal" font-weight="normal" text-decoration="none" x="469" y="250.7099609375">+parseMapData()</text></g></g><g transform="translate(-78,-102) scale(1,1)"><g><path fill="none" stroke="none"/><text fill="#000000" stroke="none" font-family="Arial" font-size="13px" font-style="normal" font-weight="normal" text-decoration="none" x="469" y="265.7099609375">+readGoogleSheetsDoc()</text></g></g><g transform="translate(-78,-102) scale(1,1)"><g><path fill="none" stroke="none"/><text fill="#000000" stroke="none" font-family="Arial" font-size="13px" font-style="normal" font-weight="normal" text-decoration="none" x="469" y="280.7099609375">+writeGoogleSheetsDoc()</text></g></g><g transform="translate(-78,-102) scale(1,1)"><rect fill="#C0C0C0" stroke="none" x="95" y="439" width="207" height="248" opacity="0.2"/></g><g transform="translate(-78,-102) scale(1,1)"><rect fill="#ffffff" stroke="none" x="88" y="432" width="207" height="248"/></g><g transform="translate(-78,-102) scale(1,1)"><path fill="none" stroke="#000000" d="M 88 432 L 295 432 L 295 680 L 88 680 L 88 432 Z Z" stroke-miterlimit="10"/></g><g transform="translate(-78,-102) scale(1,1)"><path fill="none" stroke="#000000" d="M 88 457 L 295 457" stroke-miterlimit="10"/></g><g transform="translate(-78,-102) scale(1,1)"><path fill="none" stroke="#000000" d="M 88 510 L 295 510" stroke-miterlimit="10"/></g><g transform="translate(-78,-102) scale(1,1)"><g><path fill="none" stroke="none"/><text fill="#000000" stroke="none" font-family="Arial" font-size="13px" font-style="normal" font-weight="bold" text-decoration="none" x="174.885009765625" y="449.471923828125">Maps</text></g></g><g transform="translate(-78,-102) scale(1,1)"><g><path fill="none" stroke="none"/><text fill="#000000" stroke="none" font-family="Arial" font-size="13px" font-style="normal" font-weight="normal" text-decoration="none" x="93" y="471.75146484375">+map map</text></g></g><g transform="translate(-78,-102) scale(1,1)"><g><path fill="none" stroke="none"/><text fill="#000000" stroke="none" font-family="Arial" font-size="13px" font-style="normal" font-weight="normal" text-decoration="none" x="93" y="487.7099609375">+string [ ] selfLocation</text></g></g><g transform="translate(-78,-102) scale(1,1)"><g><path fill="none" stroke="none"/><text fill="#000000" stroke="none" font-family="Arial" font-size="13px" font-style="normal" font-weight="normal" text-decoration="none" x="93" y="502.7099609375">+mapData [ ] mapData</text></g></g><g transform="translate(-78,-102) scale(1,1)"><g><path fill="none" stroke="none"/><text fill="#000000" stroke="none" font-family="Arial" font-size="13px" font-style="normal" font-weight="normal" text-decoration="none" x="93" y="525.7099609375">+getCurrentPosition()</text></g></g><g transform="translate(-78,-102) scale(1,1)"><g><path fill="none" stroke="none"/><text fill="#000000" stroke="none" font-family="Arial" font-size="13px" font-style="normal" font-weight="normal" text-decoration="none" x="93" y="540.7099609375">+search()</text></g></g><g transform="translate(-78,-102) scale(1,1)"><g><path fill="none" stroke="none"/><text fill="#000000" stroke="none" font-family="Arial" font-size="13px" font-style="normal" font-weight="normal" text-decoration="none" x="93" y="555.7099609375">+changeLanguage()</text></g></g><g transform="translate(-78,-102) scale(1,1)"><rect fill="#C0C0C0" stroke="none" x="447" y="439" width="256.4697265625" height="255" opacity="0.2"/></g><g transform="translate(-78,-102) scale(1,1)"><rect fill="#ffffff" stroke="none" x="440" y="432" width="256.4697265625" height="255"/></g><g transform="translate(-78,-102) scale(1,1)"><path fill="none" stroke="#000000" d="M 440 432 L 696.4697265625 432 L 696.4697265625 687 L 440 687 L 440 432 Z Z" stroke-miterlimit="10"/></g><g transform="translate(-78,-102) scale(1,1)"><path fill="none" stroke="#000000" d="M 440 457 L 696.4697265625 457" stroke-miterlimit="10"/></g><g transform="translate(-78,-102) scale(1,1)"><path fill="none" stroke="#000000" d="M 440 510 L 696.4697265625 510" stroke-miterlimit="10"/></g><g transform="translate(-78,-102) scale(1,1)"><g><path fill="none" stroke="none"/><text fill="#000000" stroke="none" font-family="Arial" font-size="13px" font-style="normal" font-weight="bold" text-decoration="none" x="530.68212890625" y="449.7099609375">PDF Module</text></g></g><g transform="translate(-78,-102) scale(1,1)"><g><path fill="none" stroke="none"/><text fill="#000000" stroke="none" font-family="Arial" font-size="13px" font-style="normal" font-weight="normal" text-decoration="none" x="445" y="472.7099609375">+string [ ] cities</text></g></g><g transform="translate(-78,-102) scale(1,1)"><g><path fill="none" stroke="none"/><text fill="#000000" stroke="none" font-family="Arial" font-size="13px" font-style="normal" font-weight="normal" text-decoration="none" x="445" y="487.7099609375">+string [ ] affectedCities</text></g></g><g transform="translate(-78,-102) scale(1,1)"><g><path fill="none" stroke="none"/><text fill="#000000" stroke="none" font-family="Arial" font-size="13px" font-style="normal" font-weight="normal" text-decoration="none" x="445" y="502.7099609375">+string markdownContent</text></g></g><g transform="translate(-78,-102) scale(1,1)"><g><path fill="none" stroke="none"/><text fill="#000000" stroke="none" font-family="Arial" font-size="13px" font-style="normal" font-weight="normal" text-decoration="none" x="445" y="525.7099609375">+createLeafTemporaryAccomodationPDF()</text></g></g><g transform="translate(-78,-102) scale(1,1)"><g><path fill="none" stroke="none"/><text fill="#000000" stroke="none" font-family="Arial" font-size="13px" font-style="normal" font-weight="normal" text-decoration="none" x="445" y="540.7099609375">+createLeafSafeGatheringPlacesPDF()</text></g></g><g transform="translate(-78,-102) scale(1,1)"><g><path fill="none" stroke="none"/><text fill="#000000" stroke="none" font-family="Arial" font-size="13px" font-style="normal" font-weight="normal" text-decoration="none" x="445" y="555.7099609375">+createLeafMealPDF()</text></g></g><g transform="translate(-78,-102) scale(1,1)"><g><path fill="none" stroke="none"/><text fill="#000000" stroke="none" font-family="Arial" font-size="13px" font-style="normal" font-weight="normal" text-decoration="none" x="445" y="570.7099609375">+createPhoneNumbersPDF()</text></g></g><g transform="translate(-78,-102) scale(1,1)"><g><path fill="none" stroke="none"/><text fill="#000000" stroke="none" font-family="Arial" font-size="13px" font-style="normal" font-weight="normal" text-decoration="none" x="445" y="585.7099609375">+createWebSitesPDF()</text></g></g><g transform="translate(-78,-102) scale(1,1)"><g><path fill="none" stroke="none"/><text fill="#000000" stroke="none" font-family="Arial" font-size="13px" font-style="normal" font-weight="normal" text-decoration="none" x="445" y="600.7099609375">+createArticlePDF()</text></g></g><g transform="translate(-78,-102) scale(1,1)"><g><path fill="none" stroke="none"/><text fill="#000000" stroke="none" font-family="Arial" font-size="13px" font-style="normal" font-weight="normal" text-decoration="none" x="445" y="615.7099609375">+createVeterinerPlacesPDF()</text></g></g><g transform="translate(-78,-102) scale(1,1)"><g><path fill="none" stroke="none"/><text fill="#000000" stroke="none" font-family="Arial" font-size="13px" font-style="normal" font-weight="normal" text-decoration="none" x="445" y="630.7099609375">+createHelpCentersPDF()</text></g></g><g transform="translate(-78,-102) scale(1,1)"><g><path fill="none" stroke="none"/><text fill="#000000" stroke="none" font-family="Arial" font-size="13px" font-style="normal" font-weight="normal" text-decoration="none" x="445" y="645.7099609375">+createStemCellsPDF()</text></g></g><g transform="translate(-78,-102) scale(1,1)"><g><path fill="none" stroke="none"/><text fill="#000000" stroke="none" font-family="Arial" font-size="13px" font-style="normal" font-weight="normal" text-decoration="none" x="445" y="660.7099609375">+createPharmacyPDF()</text></g></g><g transform="translate(-78,-102) scale(1,1)"><path fill="none" stroke="#000000" d="M 463 242 L 296 240" stroke-miterlimit="10" stroke-dasharray="3"/></g><g transform="translate(-78,-102) scale(1,1)"><path fill="none" stroke="#000000" d="M 306.21235591291435 235.9124840418705 L 296 240 L 306.11153637011387 244.33091586571067" stroke-miterlimit="10"/></g><g transform="translate(-78,-102) scale(1,1)"><g><path fill="none" stroke="none"/><text fill="#000000" stroke="none" font-family="Arial" font-size="13px" font-style="normal" font-weight="normal" text-decoration="none" x="333.5" y="259.7099609375">+provides_data</text></g></g><g transform="translate(-78,-102) scale(1,1)"><path fill="none" stroke="#000000" d="M 463 332 L 296 470" stroke-miterlimit="10" stroke-dasharray="3"/></g><g transform="translate(-78,-102) scale(1,1)"><path fill="none" stroke="#000000" d="M 301.15256618360826 460.2814063916873 L 296 470 L 306.515497932976 466.77133104490775" stroke-miterlimit="10"/></g><g transform="translate(-78,-102) scale(1,1)"><g><path fill="none" stroke="none"/><text fill="#000000" stroke="none" font-family="Arial" font-size="13px" font-style="normal" font-weight="normal" text-decoration="none" x="303.5" y="458.7099609375">+provides_data</text></g></g><g transform="translate(-78,-102) scale(1,1)"><path fill="none" stroke="#000000" d="M 570 376 L 569 431" stroke-miterlimit="10" stroke-dasharray="3"/></g><g transform="translate(-78,-102) scale(1,1)"><path fill="none" stroke="#000000" d="M 564.9759232321812 420.7624804680674 L 569 431 L 573.3935675130193 420.9155285459008" stroke-miterlimit="10"/></g><g transform="translate(-78,-102) scale(1,1)"><g><path fill="none" stroke="none"/><text fill="#000000" stroke="none" font-family="Arial" font-size="13px" font-style="normal" font-weight="normal" text-decoration="none" x="538.5" y="406.7099609375">+provides_data</text></g></g><g transform="translate(-78,-102) scale(1,1)"><path fill="none" stroke="#000000" d="M 191 431 L 191 368" stroke-miterlimit="10"/></g><g transform="translate(-78,-102) scale(1,1)"><path fill="#FFFFFF" stroke="none" d="M 199.41903551203197 388.3253497152483 L 191 368 L 182.58096448796803 388.3253497152483"/></g><g transform="translate(-78,-102) scale(1,1)"><path fill="none" stroke="#000000" d="M 199.41903551203197 388.3253497152483 L 191 368 L 182.58096448796803 388.3253497152483 L 199.41903551203197 388.3253497152483" stroke-miterlimit="10"/></g><g transform="translate(-78,-102) scale(1,1)"><path fill="none" stroke="#000000" d="M 439 450 L 296 328" stroke-miterlimit="10"/></g><g transform="translate(-78,-102) scale(1,1)"><path fill="#FFFFFF" stroke="none" d="M 316.9269128345994 334.78707000207584 L 296 328 L 305.99837875178946 347.5967451975007"/></g><g transform="translate(-78,-102) scale(1,1)"><path fill="none" stroke="#000000" d="M 316.9269128345994 334.78707000207584 L 296 328 L 305.99837875178946 347.5967451975007 L 316.9269128345994 334.78707000207584" stroke-miterlimit="10"/></g></g></svg>