<svg version="1.1" xmlns="http://www.w3.org/2000/svg" xmlns:xlink="http://www.w3.org/1999/xlink" width="282.5634765625" height="388"><defs/><g><text fill="#eeeeee" stroke="none" font-family="Arial" font-size="24px" font-style="normal" font-weight="normal" text-decoration="none" x="0" y="0">UNREGISTERED</text><text fill="#eeeeee" stroke="none" font-family="Arial" font-size="24px" font-style="normal" font-weight="normal" text-decoration="none" x="0" y="30">UNREGISTERED</text><text fill="#eeeeee" stroke="none" font-family="Arial" font-size="24px" font-style="normal" font-weight="normal" text-decoration="none" x="0" y="60">UNREGISTERED</text><text fill="#eeeeee" stroke="none" font-family="Arial" font-size="24px" font-style="normal" font-weight="normal" text-decoration="none" x="0" y="90">UNREGISTERED</text><text fill="#eeeeee" stroke="none" font-family="Arial" font-size="24px" font-style="normal" font-weight="normal" text-decoration="none" x="0" y="120">UNREGISTERED</text><text fill="#eeeeee" stroke="none" font-family="Arial" font-size="24px" font-style="normal" font-weight="normal" text-decoration="none" x="0" y="150">UNREGISTERED</text><text fill="#eeeeee" stroke="none" font-family="Arial" font-size="24px" font-style="normal" font-weight="normal" text-decoration="none" x="0" y="180">UNREGISTERED</text><text fill="#eeeeee" stroke="none" font-family="Arial" font-size="24px" font-style="normal" font-weight="normal" text-decoration="none" x="0" y="210">UNREGISTERED</text><text fill="#eeeeee" stroke="none" font-family="Arial" font-size="24px" font-style="normal" font-weight="normal" text-decoration="none" x="0" y="240">UNREGISTERED</text><text fill="#eeeeee" stroke="none" font-family="Arial" font-size="24px" font-style="normal" font-weight="normal" text-decoration="none" x="0" y="270">UNREGISTERED</text><text fill="#eeeeee" stroke="none" font-family="Arial" font-size="24px" font-style="normal" font-weight="normal" text-decoration="none" x="0" y="300">UNREGISTERED</text><text fill="#eeeeee" stroke="none" font-family="Arial" font-size="24px" font-style="normal" font-weight="normal" text-decoration="none" x="0" y="330">UNREGISTERED</text><text fill="#eeeeee" stroke="none" font-family="Arial" font-size="24px" font-style="normal" font-weight="normal" text-decoration="none" x="0" y="360">UNREGISTERED</text><text fill="#eeeeee" stroke="none" font-family="Arial" font-size="24px" font-style="normal" font-weight="normal" text-decoration="none" x="200" y="0">UNREGISTERED</text><text fill="#eeeeee" stroke="none" font-family="Arial" font-size="24px" font-style="normal" font-weight="normal" text-decoration="none" x="200" y="30">UNREGISTERED</text><text fill="#eeeeee" stroke="none" font-family="Arial" font-size="24px" font-style="normal" font-weight="normal" text-decoration="none" x="200" y="60">UNREGISTERED</text><text fill="#eeeeee" stroke="none" font-family="Arial" font-size="24px" font-style="normal" font-weight="normal" text-decoration="none" x="200" y="90">UNREGISTERED</text><text fill="#eeeeee" stroke="none" font-family="Arial" font-size="24px" font-style="normal" font-weight="normal" text-decoration="none" x="200" y="120">UNREGISTERED</text><text fill="#eeeeee" stroke="none" font-family="Arial" font-size="24px" font-style="normal" font-weight="normal" text-decoration="none" x="200" y="150">UNREGISTERED</text><text fill="#eeeeee" stroke="none" font-family="Arial" font-size="24px" font-style="normal" font-weight="normal" text-decoration="none" x="200" y="180">UNREGISTERED</text><text fill="#eeeeee" stroke="none" font-family="Arial" font-size="24px" font-style="normal" font-weight="normal" text-decoration="none" x="200" y="210">UNREGISTERED</text><text fill="#eeeeee" stroke="none" font-family="Arial" font-size="24px" font-style="normal" font-weight="normal" text-decoration="none" x="200" y="240">UNREGISTERED</text><text fill="#eeeeee" stroke="none" font-family="Arial" font-size="24px" font-style="normal" font-weight="normal" text-decoration="none" x="200" y="270">UNREGISTERED</text><text fill="#eeeeee" stroke="none" font-family="Arial" font-size="24px" font-style="normal" font-weight="normal" text-decoration="none" x="200" y="300">UNREGISTERED</text><text fill="#eeeeee" stroke="none" font-family="Arial" font-size="24px" font-style="normal" font-weight="normal" text-decoration="none" x="200" y="330">UNREGISTERED</text><text fill="#eeeeee" stroke="none" font-family="Arial" font-size="24px" font-style="normal" font-weight="normal" text-decoration="none" x="200" y="360">UNREGISTERED</text><g transform="translate(-438,-182) scale(1,1)"><path fill="#C0C0C0" stroke="none" d="M 575 208.5 C 575 203.2532944 579.2532944 199 584.5 199 C 589.7467056 199 594 203.2532944 594 208.5 C 594 213.7467056 589.7467056 218 584.5 218 C 579.2532944 218 575 213.7467056 575 208.5 Z" opacity="0.2"/></g><g transform="translate(-438,-182) scale(1,1)"><path fill="#000000" stroke="none" d="M 568 201.5 C 568 196.2532944 572.2532944 192 577.5 192 C 582.7467056 192 587 196.2532944 587 201.5 C 587 206.7467056 582.7467056 211 577.5 211 C 572.2532944 211 568 206.7467056 568 201.5 Z"/></g><g transform="translate(-438,-182) scale(1,1)"><path fill="#C0C0C0" stroke="none" d="M 521 303 L 658.814453125 303 Q 668.814453125 303 668.814453125 313 L 668.814453125 333 Q 668.814453125 343 658.814453125 343 L 521 343 Q 511 343 511 333 L 511 313 Q 511 303 521 303 Z" opacity="0.2"/></g><g transform="translate(-438,-182) scale(1,1)"><path fill="#ffffff" stroke="none" d="M 514 296 L 651.814453125 296 Q 661.814453125 296 661.814453125 306 L 661.814453125 326 Q 661.814453125 336 651.814453125 336 L 514 336 Q 504 336 504 326 L 504 306 Q 504 296 514 296 Z"/></g><g transform="translate(-438,-182) scale(1,1)"><path fill="none" stroke="#000000" d="M 514 296 L 651.814453125 296 Q 661.814453125 296 661.814453125 306 L 661.814453125 326 Q 661.814453125 336 651.814453125 336 L 514 336 Q 504 336 504 326 L 504 306 Q 504 296 514 296 Z" stroke-miterlimit="10"/></g><g transform="translate(-438,-182) scale(1,1)"><g><path fill="none" stroke="none"/><text fill="#000000" stroke="none" font-family="Arial" font-size="13px" font-style="normal" font-weight="bold" text-decoration="none" x="508.5" y="313.5">Fetch Data From Sheets</text></g></g><g transform="translate(-438,-182) scale(1,1)"><path fill="none" stroke="#000000" d="M 577 212 L 581 295" stroke-miterlimit="10"/></g><g transform="translate(-438,-182) scale(1,1)"><path fill="none" stroke="#000000" d="M 576.3061624399126 285.0517394003016 L 581 295 L 584.7154381625318 284.6464731004163" stroke-miterlimit="10"/></g><g transform="translate(-438,-182) scale(1,1)"><g><path fill="none" stroke="none"/><text fill="#000000" stroke="none" font-family="Arial" font-size="13px" font-style="normal" font-weight="normal" text-decoration="none" x="586.5" y="253.5">Generate PDF</text></g></g><g transform="translate(-438,-182) scale(1,1)"><path fill="#C0C0C0" stroke="none" d="M 465 423 L 707.5634765625 423 Q 717.5634765625 423 717.5634765625 433 L 717.5634765625 453 Q 717.5634765625 463 707.5634765625 463 L 465 463 Q 455 463 455 453 L 455 433 Q 455 423 465 423 Z" opacity="0.2"/></g><g transform="translate(-438,-182) scale(1,1)"><path fill="#ffffff" stroke="none" d="M 458 416 L 700.5634765625 416 Q 710.5634765625 416 710.5634765625 426 L 710.5634765625 446 Q 710.5634765625 456 700.5634765625 456 L 458 456 Q 448 456 448 446 L 448 426 Q 448 416 458 416 Z"/></g><g transform="translate(-438,-182) scale(1,1)"><path fill="none" stroke="#000000" d="M 458 416 L 700.5634765625 416 Q 710.5634765625 416 710.5634765625 426 L 710.5634765625 446 Q 710.5634765625 456 700.5634765625 456 L 458 456 Q 448 456 448 446 L 448 426 Q 448 416 458 416 Z" stroke-miterlimit="10"/></g><g transform="translate(-438,-182) scale(1,1)"><g><path fill="none" stroke="none"/><text fill="#000000" stroke="none" font-family="Arial" font-size="13px" font-style="normal" font-weight="bold" text-decoration="none" x="453.950439453125" y="433.5">Generate PDF File Using a Python Script</text></g></g><g transform="translate(-438,-182) scale(1,1)"><path fill="none" stroke="#000000" d="M 581 337 L 580 415" stroke-miterlimit="10"/></g><g transform="translate(-438,-182) scale(1,1)"><path fill="none" stroke="#000000" d="M 575.9211081481628 404.7841964945964 L 580 415 L 584.3394518457795 404.8921239778992" stroke-miterlimit="10"/></g><g transform="translate(-438,-182) scale(1,1)"><path fill="#C0C0C0" stroke="none" d="M 497 527 L 686.78271484375 527 Q 696.78271484375 527 696.78271484375 537 L 696.78271484375 557 Q 696.78271484375 567 686.78271484375 567 L 497 567 Q 487 567 487 557 L 487 537 Q 487 527 497 527 Z" opacity="0.2"/></g><g transform="translate(-438,-182) scale(1,1)"><path fill="#ffffff" stroke="none" d="M 490 520 L 679.78271484375 520 Q 689.78271484375 520 689.78271484375 530 L 689.78271484375 550 Q 689.78271484375 560 679.78271484375 560 L 490 560 Q 480 560 480 550 L 480 530 Q 480 520 490 520 Z"/></g><g transform="translate(-438,-182) scale(1,1)"><path fill="none" stroke="#000000" d="M 490 520 L 679.78271484375 520 Q 689.78271484375 520 689.78271484375 530 L 689.78271484375 550 Q 689.78271484375 560 679.78271484375 560 L 490 560 Q 480 560 480 550 L 480 530 Q 480 520 490 520 Z" stroke-miterlimit="10"/></g><g transform="translate(-438,-182) scale(1,1)"><g><path fill="none" stroke="none"/><text fill="#000000" stroke="none" font-family="Arial" font-size="13px" font-style="normal" font-weight="bold" text-decoration="none" x="484.5" y="537.5">Store the PDF File in AWS Cloud</text></g></g><g transform="translate(-438,-182) scale(1,1)"><path fill="none" stroke="#000000" d="M 580 457 L 583 519" stroke-miterlimit="10"/></g><g transform="translate(-438,-182) scale(1,1)"><path fill="none" stroke="#000000" d="M 578.3042338231216 509.05264959840633 L 583 519 L 586.7134308172685 508.6457529696573" stroke-miterlimit="10"/></g></g></svg>