<svg version="1.1" xmlns="http://www.w3.org/2000/svg" xmlns:xlink="http://www.w3.org/1999/xlink" width="272.41357421875" height="309"><defs/><g><text fill="#eeeeee" stroke="none" font-family="Arial" font-size="24px" font-style="normal" font-weight="normal" text-decoration="none" x="0" y="0">UNREGISTERED</text><text fill="#eeeeee" stroke="none" font-family="Arial" font-size="24px" font-style="normal" font-weight="normal" text-decoration="none" x="0" y="30">UNREGISTERED</text><text fill="#eeeeee" stroke="none" font-family="Arial" font-size="24px" font-style="normal" font-weight="normal" text-decoration="none" x="0" y="60">UNREGISTERED</text><text fill="#eeeeee" stroke="none" font-family="Arial" font-size="24px" font-style="normal" font-weight="normal" text-decoration="none" x="0" y="90">UNREGISTERED</text><text fill="#eeeeee" stroke="none" font-family="Arial" font-size="24px" font-style="normal" font-weight="normal" text-decoration="none" x="0" y="120">UNREGISTERED</text><text fill="#eeeeee" stroke="none" font-family="Arial" font-size="24px" font-style="normal" font-weight="normal" text-decoration="none" x="0" y="150">UNREGISTERED</text><text fill="#eeeeee" stroke="none" font-family="Arial" font-size="24px" font-style="normal" font-weight="normal" text-decoration="none" x="0" y="180">UNREGISTERED</text><text fill="#eeeeee" stroke="none" font-family="Arial" font-size="24px" font-style="normal" font-weight="normal" text-decoration="none" x="0" y="210">UNREGISTERED</text><text fill="#eeeeee" stroke="none" font-family="Arial" font-size="24px" font-style="normal" font-weight="normal" text-decoration="none" x="0" y="240">UNREGISTERED</text><text fill="#eeeeee" stroke="none" font-family="Arial" font-size="24px" font-style="normal" font-weight="normal" text-decoration="none" x="0" y="270">UNREGISTERED</text><text fill="#eeeeee" stroke="none" font-family="Arial" font-size="24px" font-style="normal" font-weight="normal" text-decoration="none" x="0" y="300">UNREGISTERED</text><text fill="#eeeeee" stroke="none" font-family="Arial" font-size="24px" font-style="normal" font-weight="normal" text-decoration="none" x="200" y="0">UNREGISTERED</text><text fill="#eeeeee" stroke="none" font-family="Arial" font-size="24px" font-style="normal" font-weight="normal" text-decoration="none" x="200" y="30">UNREGISTERED</text><text fill="#eeeeee" stroke="none" font-family="Arial" font-size="24px" font-style="normal" font-weight="normal" text-decoration="none" x="200" y="60">UNREGISTERED</text><text fill="#eeeeee" stroke="none" font-family="Arial" font-size="24px" font-style="normal" font-weight="normal" text-decoration="none" x="200" y="90">UNREGISTERED</text><text fill="#eeeeee" stroke="none" font-family="Arial" font-size="24px" font-style="normal" font-weight="normal" text-decoration="none" x="200" y="120">UNREGISTERED</text><text fill="#eeeeee" stroke="none" font-family="Arial" font-size="24px" font-style="normal" font-weight="normal" text-decoration="none" x="200" y="150">UNREGISTERED</text><text fill="#eeeeee" stroke="none" font-family="Arial" font-size="24px" font-style="normal" font-weight="normal" text-decoration="none" x="200" y="180">UNREGISTERED</text><text fill="#eeeeee" stroke="none" font-family="Arial" font-size="24px" font-style="normal" font-weight="normal" text-decoration="none" x="200" y="210">UNREGISTERED</text><text fill="#eeeeee" stroke="none" font-family="Arial" font-size="24px" font-style="normal" font-weight="normal" text-decoration="none" x="200" y="240">UNREGISTERED</text><text fill="#eeeeee" stroke="none" font-family="Arial" font-size="24px" font-style="normal" font-weight="normal" text-decoration="none" x="200" y="270">UNREGISTERED</text><text fill="#eeeeee" stroke="none" font-family="Arial" font-size="24px" font-style="normal" font-weight="normal" text-decoration="none" x="200" y="300">UNREGISTERED</text><g transform="translate(-230,-174) scale(1,1)"><path fill="#C0C0C0" stroke="none" d="M 359 200.5 C 359 195.2532944 363.2532944 191 368.5 191 C 373.7467056 191 378 195.2532944 378 200.5 C 378 205.7467056 373.7467056 210 368.5 210 C 363.2532944 210 359 205.7467056 359 200.5 Z" opacity="0.2"/></g><g transform="translate(-230,-174) scale(1,1)"><path fill="#000000" stroke="none" d="M 352 193.5 C 352 188.2532944 356.2532944 184 361.5 184 C 366.7467056 184 371 188.2532944 371 193.5 C 371 198.7467056 366.7467056 203 361.5 203 C 356.2532944 203 352 198.7467056 352 193.5 Z"/></g><g transform="translate(-230,-174) scale(1,1)"><path fill="#C0C0C0" stroke="none" d="M 265 295 L 478.65625 295 Q 488.65625 295 488.65625 305 L 488.65625 325 Q 488.65625 335 478.65625 335 L 265 335 Q 255 335 255 325 L 255 305 Q 255 295 265 295 Z" opacity="0.2"/></g><g transform="translate(-230,-174) scale(1,1)"><path fill="#ffffff" stroke="none" d="M 258 288 L 471.65625 288 Q 481.65625 288 481.65625 298 L 481.65625 318 Q 481.65625 328 471.65625 328 L 258 328 Q 248 328 248 318 L 248 298 Q 248 288 258 288 Z"/></g><g transform="translate(-230,-174) scale(1,1)"><path fill="none" stroke="#000000" d="M 258 288 L 471.65625 288 Q 481.65625 288 481.65625 298 L 481.65625 318 Q 481.65625 328 471.65625 328 L 258 328 Q 248 328 248 318 L 248 298 Q 248 288 258 288 Z" stroke-miterlimit="10"/></g><g transform="translate(-230,-174) scale(1,1)"><g><path fill="none" stroke="none"/><text fill="#000000" stroke="none" font-family="Arial" font-size="13px" font-style="normal" font-weight="bold" text-decoration="none" x="252.5" y="305.5">The User Clicks the Heatmap Button</text></g></g><g transform="translate(-230,-174) scale(1,1)"><path fill="#C0C0C0" stroke="none" d="M 257 383 L 489.41357421875 383 Q 499.41357421875 383 499.41357421875 393 L 499.41357421875 413 Q 499.41357421875 423 489.41357421875 423 L 257 423 Q 247 423 247 413 L 247 393 Q 247 383 257 383 Z" opacity="0.2"/></g><g transform="translate(-230,-174) scale(1,1)"><path fill="#ffffff" stroke="none" d="M 250 376 L 482.41357421875 376 Q 492.41357421875 376 492.41357421875 386 L 492.41357421875 406 Q 492.41357421875 416 482.41357421875 416 L 250 416 Q 240 416 240 406 L 240 386 Q 240 376 250 376 Z"/></g><g transform="translate(-230,-174) scale(1,1)"><path fill="none" stroke="#000000" d="M 250 376 L 482.41357421875 376 Q 492.41357421875 376 492.41357421875 386 L 492.41357421875 406 Q 492.41357421875 416 482.41357421875 416 L 250 416 Q 240 416 240 406 L 240 386 Q 240 376 250 376 Z" stroke-miterlimit="10"/></g><g transform="translate(-230,-174) scale(1,1)"><g><path fill="none" stroke="none"/><text fill="#000000" stroke="none" font-family="Arial" font-size="13px" font-style="normal" font-weight="bold" text-decoration="none" x="244.5" y="393.5">The User is Shown the Heatmap Button</text></g></g><g transform="translate(-230,-174) scale(1,1)"><path fill="#C0C0C0" stroke="none" d="M 367 467.5 C 367 460.59644 372.59644 455 379.5 455 C 386.40356 455 392 460.59644 392 467.5 C 392 474.40356 386.40356 480 379.5 480 C 372.59644 480 367 474.40356 367 467.5 Z" opacity="0.2"/></g><g transform="translate(-230,-174) scale(1,1)"><path fill="none" stroke="#000000" d="M 360 460.5 C 360 453.59644 365.59644 448 372.5 448 C 379.40356 448 385 453.59644 385 460.5 C 385 467.40356 379.40356 473 372.5 473 C 365.59644 473 360 467.40356 360 460.5 Z" stroke-miterlimit="10"/></g><g transform="translate(-230,-174) scale(1,1)"><path fill="#000000" stroke="none" d="M 365 460.5 C 365 456.357864 368.357864 453 372.5 453 C 376.642136 453 380 456.357864 380 460.5 C 380 464.642136 376.642136 468 372.5 468 C 368.357864 468 365 464.642136 365 460.5 Z"/></g><g transform="translate(-230,-174) scale(1,1)"><path fill="none" stroke="#000000" d="M 361 204 L 363 287" stroke-miterlimit="10"/></g><g transform="translate(-230,-174) scale(1,1)"><path fill="none" stroke="#000000" d="M 358.5468911420691 276.9416789920277 L 363 287 L 366.96348352128354 276.73886953710684" stroke-miterlimit="10"/></g><g transform="translate(-230,-174) scale(1,1)"><path fill="none" stroke="#000000" d="M 364 329 L 366 375" stroke-miterlimit="10"/></g><g transform="translate(-230,-174) scale(1,1)"><path fill="none" stroke="#000000" d="M 361.3530169751094 365.02976686499363 L 366 375 L 369.7641062508149 364.6640673312673" stroke-miterlimit="10"/></g><g transform="translate(-230,-174) scale(1,1)"><path fill="none" stroke="#000000" d="M 368 417 L 371 447" stroke-miterlimit="10"/></g><g transform="translate(-230,-174) scale(1,1)"><path fill="none" stroke="#000000" d="M 365.80014933638 437.30662323666047 L 371 447 L 374.1774027765504 436.46889789264344" stroke-miterlimit="10"/></g></g></svg>