<svg version="1.1" xmlns="http://www.w3.org/2000/svg" xmlns:xlink="http://www.w3.org/1999/xlink" width="821.86083984375" height="239"><defs/><g><g transform="translate(-246,-194) scale(1,1)"><path fill="#C0C0C0" stroke="none" d="M 263 232.5 C 263 227.2532944 267.2532944 223 272.5 223 C 277.7467056 223 282 227.2532944 282 232.5 C 282 237.7467056 277.7467056 242 272.5 242 C 267.2532944 242 263 237.7467056 263 232.5 Z" opacity="0.2"/></g><g transform="translate(-246,-194) scale(1,1)"><path fill="#000000" stroke="none" d="M 256 225.5 C 256 220.2532944 260.2532944 216 265.5 216 C 270.7467056 216 275 220.2532944 275 225.5 C 275 230.7467056 270.7467056 235 265.5 235 C 260.2532944 235 256 230.7467056 256 225.5 Z"/></g><g transform="translate(-246,-194) scale(1,1)"><path fill="#C0C0C0" stroke="none" d="M 425 215 L 531.72998046875 215 Q 541.72998046875 215 541.72998046875 225 L 541.72998046875 244 Q 541.72998046875 254 531.72998046875 254 L 425 254 Q 415 254 415 244 L 415 225 Q 415 215 425 215 Z" opacity="0.2"/></g><g transform="translate(-246,-194) scale(1,1)"><path fill="#ffffff" stroke="none" d="M 418 208 L 524.72998046875 208 Q 534.72998046875 208 534.72998046875 218 L 534.72998046875 237 Q 534.72998046875 247 524.72998046875 247 L 418 247 Q 408 247 408 237 L 408 218 Q 408 208 418 208 Z"/></g><g transform="translate(-246,-194) scale(1,1)"><path fill="none" stroke="#000000" d="M 418 208 L 524.72998046875 208 Q 534.72998046875 208 534.72998046875 218 L 534.72998046875 237 Q 534.72998046875 247 524.72998046875 247 L 418 247 Q 408 247 408 237 L 408 218 Q 408 208 418 208 Z" stroke-miterlimit="10"/></g><g transform="translate(-246,-194) scale(1,1)"><g><path fill="none" stroke="none"/><text fill="#000000" stroke="none" font-family="Arial" font-size="13px" font-style="normal" font-weight="bold" text-decoration="none" x="427.781982421875" y="225.5">Initial Website</text></g></g><g transform="translate(-246,-194) scale(1,1)"><path fill="none" stroke="#000000" d="M 276 225 L 407 226" stroke-miterlimit="10"/></g><g transform="translate(-246,-194) scale(1,1)"><path fill="none" stroke="#000000" d="M 396.80548844028897 230.13181970309918 L 407 226 L 396.8697540145421 221.71302947594532" stroke-miterlimit="10"/></g><g transform="translate(-246,-194) scale(1,1)"><g><path fill="none" stroke="none"/><text fill="#000000" stroke="none" font-family="Arial" font-size="13px" font-style="normal" font-weight="normal" text-decoration="none" x="297.63330078125" y="214.5">Website Loads</text></g></g><g transform="translate(-246,-194) scale(1,1)"><path fill="#C0C0C0" stroke="none" d="M 417 391 L 523.72998046875 391 Q 533.72998046875 391 533.72998046875 401 L 533.72998046875 420 Q 533.72998046875 430 523.72998046875 430 L 417 430 Q 407 430 407 420 L 407 401 Q 407 391 417 391 Z" opacity="0.2"/></g><g transform="translate(-246,-194) scale(1,1)"><path fill="#ffffff" stroke="none" d="M 410 384 L 516.72998046875 384 Q 526.72998046875 384 526.72998046875 394 L 526.72998046875 413 Q 526.72998046875 423 516.72998046875 423 L 410 423 Q 400 423 400 413 L 400 394 Q 400 384 410 384 Z"/></g><g transform="translate(-246,-194) scale(1,1)"><path fill="none" stroke="#000000" d="M 410 384 L 516.72998046875 384 Q 526.72998046875 384 526.72998046875 394 L 526.72998046875 413 Q 526.72998046875 423 516.72998046875 423 L 410 423 Q 400 423 400 413 L 400 394 Q 400 384 410 384 Z" stroke-miterlimit="10"/></g><g transform="translate(-246,-194) scale(1,1)"><g><path fill="none" stroke="none"/><text fill="#000000" stroke="none" font-family="Arial" font-size="13px" font-style="normal" font-weight="bold" text-decoration="none" x="404.5" y="401.5">Description Shown</text></g></g><g transform="translate(-246,-194) scale(1,1)"><path fill="none" stroke="#000000" d="M 457 248 L 408 320 L 450 383" stroke-miterlimit="10"/></g><g transform="translate(-246,-194) scale(1,1)"><path fill="none" stroke="#000000" d="M 440.8602317743892 376.87916371872967 L 450 383 L 447.86529275021616 372.20912306817837" stroke-miterlimit="10"/></g><g transform="translate(-246,-194) scale(1,1)"><g><path fill="none" stroke="none"/><text fill="#000000" stroke="none" font-family="Arial" font-size="13px" font-style="normal" font-weight="normal" text-decoration="none" x="325.5" y="297.5">User hovers over the icon</text></g></g><g transform="translate(-246,-194) scale(1,1)"><path fill="none" stroke="#000000" d="M 477 383 L 528 312 L 485 248" stroke-miterlimit="10"/></g><g transform="translate(-246,-194) scale(1,1)"><path fill="none" stroke="#000000" d="M 494.1617263493859 254.08792003059892 L 485 248 L 487.17350929206833 258.78312836598417" stroke-miterlimit="10"/></g><g transform="translate(-246,-194) scale(1,1)"><path fill="#C0C0C0" stroke="none" d="M 689 391 L 824.64990234375 391 Q 834.64990234375 391 834.64990234375 401 L 834.64990234375 420 Q 834.64990234375 430 824.64990234375 430 L 689 430 Q 679 430 679 420 L 679 401 Q 679 391 689 391 Z" opacity="0.2"/></g><g transform="translate(-246,-194) scale(1,1)"><path fill="#ffffff" stroke="none" d="M 682 384 L 817.64990234375 384 Q 827.64990234375 384 827.64990234375 394 L 827.64990234375 413 Q 827.64990234375 423 817.64990234375 423 L 682 423 Q 672 423 672 413 L 672 394 Q 672 384 682 384 Z"/></g><g transform="translate(-246,-194) scale(1,1)"><path fill="none" stroke="#000000" d="M 682 384 L 817.64990234375 384 Q 827.64990234375 384 827.64990234375 394 L 827.64990234375 413 Q 827.64990234375 423 817.64990234375 423 L 682 423 Q 672 423 672 413 L 672 394 Q 672 384 682 384 Z" stroke-miterlimit="10"/></g><g transform="translate(-246,-194) scale(1,1)"><g><path fill="none" stroke="none"/><text fill="#000000" stroke="none" font-family="Arial" font-size="13px" font-style="normal" font-weight="bold" text-decoration="none" x="676.5" y="401.5">Redirection in Progress</text></g></g><g transform="translate(-246,-194) scale(1,1)"><path fill="none" stroke="#000000" d="M 528 403 L 671 403" stroke-miterlimit="10"/></g><g transform="translate(-246,-194) scale(1,1)"><path fill="none" stroke="#000000" d="M 660.8373251423759 407.209517756016 L 671 403 L 660.8373251423758 398.790482243984" stroke-miterlimit="10"/></g><g transform="translate(-246,-194) scale(1,1)"><g><path fill="none" stroke="none"/><text fill="#000000" stroke="none" font-family="Arial" font-size="13px" font-style="normal" font-weight="normal" text-decoration="none" x="544.5" y="392.5">User clicks on icon</text></g></g><g transform="translate(-246,-194) scale(1,1)"><path fill="#C0C0C0" stroke="none" d="M 977 391 L 1054.86083984375 391 Q 1064.86083984375 391 1064.86083984375 401 L 1064.86083984375 420 Q 1064.86083984375 430 1054.86083984375 430 L 977 430 Q 967 430 967 420 L 967 401 Q 967 391 977 391 Z" opacity="0.2"/></g><g transform="translate(-246,-194) scale(1,1)"><path fill="#ffffff" stroke="none" d="M 970 384 L 1047.86083984375 384 Q 1057.86083984375 384 1057.86083984375 394 L 1057.86083984375 413 Q 1057.86083984375 423 1047.86083984375 423 L 970 423 Q 960 423 960 413 L 960 394 Q 960 384 970 384 Z"/></g><g transform="translate(-246,-194) scale(1,1)"><path fill="none" stroke="#000000" d="M 970 384 L 1047.86083984375 384 Q 1057.86083984375 384 1057.86083984375 394 L 1057.86083984375 413 Q 1057.86083984375 423 1047.86083984375 423 L 970 423 Q 960 423 960 413 L 960 394 Q 960 384 970 384 Z" stroke-miterlimit="10"/></g><g transform="translate(-246,-194) scale(1,1)"><g><path fill="none" stroke="none"/><text fill="#000000" stroke="none" font-family="Arial" font-size="13px" font-style="normal" font-weight="bold" text-decoration="none" x="964.5" y="401.5">afetharita.com</text></g></g><g transform="translate(-246,-194) scale(1,1)"><path fill="none" stroke="#000000" d="M 829 403 L 959 403" stroke-miterlimit="10"/></g><g transform="translate(-246,-194) scale(1,1)"><path fill="none" stroke="#000000" d="M 948.8373251423759 407.209517756016 L 959 403 L 948.8373251423758 398.790482243984" stroke-miterlimit="10"/></g><g transform="translate(-246,-194) scale(1,1)"><g><path fill="none" stroke="none"/><text fill="#000000" stroke="none" font-family="Arial" font-size="13px" font-style="normal" font-weight="normal" text-decoration="none" x="861.5" y="392.5">Redirection</text></g></g></g></svg>