<svg version="1.1" xmlns="http://www.w3.org/2000/svg" xmlns:xlink="http://www.w3.org/1999/xlink" width="687" height="272"><defs/><g><text fill="#eeeeee" stroke="none" font-family="Arial" font-size="24px" font-style="normal" font-weight="normal" text-decoration="none" x="0" y="0">UNREGISTERED</text><text fill="#eeeeee" stroke="none" font-family="Arial" font-size="24px" font-style="normal" font-weight="normal" text-decoration="none" x="0" y="30">UNREGISTERED</text><text fill="#eeeeee" stroke="none" font-family="Arial" font-size="24px" font-style="normal" font-weight="normal" text-decoration="none" x="0" y="60">UNREGISTERED</text><text fill="#eeeeee" stroke="none" font-family="Arial" font-size="24px" font-style="normal" font-weight="normal" text-decoration="none" x="0" y="90">UNREGISTERED</text><text fill="#eeeeee" stroke="none" font-family="Arial" font-size="24px" font-style="normal" font-weight="normal" text-decoration="none" x="0" y="120">UNREGISTERED</text><text fill="#eeeeee" stroke="none" font-family="Arial" font-size="24px" font-style="normal" font-weight="normal" text-decoration="none" x="0" y="150">UNREGISTERED</text><text fill="#eeeeee" stroke="none" font-family="Arial" font-size="24px" font-style="normal" font-weight="normal" text-decoration="none" x="0" y="180">UNREGISTERED</text><text fill="#eeeeee" stroke="none" font-family="Arial" font-size="24px" font-style="normal" font-weight="normal" text-decoration="none" x="0" y="210">UNREGISTERED</text><text fill="#eeeeee" stroke="none" font-family="Arial" font-size="24px" font-style="normal" font-weight="normal" text-decoration="none" x="0" y="240">UNREGISTERED</text><text fill="#eeeeee" stroke="none" font-family="Arial" font-size="24px" font-style="normal" font-weight="normal" text-decoration="none" x="0" y="270">UNREGISTERED</text><text fill="#eeeeee" stroke="none" font-family="Arial" font-size="24px" font-style="normal" font-weight="normal" text-decoration="none" x="200" y="0">UNREGISTERED</text><text fill="#eeeeee" stroke="none" font-family="Arial" font-size="24px" font-style="normal" font-weight="normal" text-decoration="none" x="200" y="30">UNREGISTERED</text><text fill="#eeeeee" stroke="none" font-family="Arial" font-size="24px" font-style="normal" font-weight="normal" text-decoration="none" x="200" y="60">UNREGISTERED</text><text fill="#eeeeee" stroke="none" font-family="Arial" font-size="24px" font-style="normal" font-weight="normal" text-decoration="none" x="200" y="90">UNREGISTERED</text><text fill="#eeeeee" stroke="none" font-family="Arial" font-size="24px" font-style="normal" font-weight="normal" text-decoration="none" x="200" y="120">UNREGISTERED</text><text fill="#eeeeee" stroke="none" font-family="Arial" font-size="24px" font-style="normal" font-weight="normal" text-decoration="none" x="200" y="150">UNREGISTERED</text><text fill="#eeeeee" stroke="none" font-family="Arial" font-size="24px" font-style="normal" font-weight="normal" text-decoration="none" x="200" y="180">UNREGISTERED</text><text fill="#eeeeee" stroke="none" font-family="Arial" font-size="24px" font-style="normal" font-weight="normal" text-decoration="none" x="200" y="210">UNREGISTERED</text><text fill="#eeeeee" stroke="none" font-family="Arial" font-size="24px" font-style="normal" font-weight="normal" text-decoration="none" x="200" y="240">UNREGISTERED</text><text fill="#eeeeee" stroke="none" font-family="Arial" font-size="24px" font-style="normal" font-weight="normal" text-decoration="none" x="200" y="270">UNREGISTERED</text><text fill="#eeeeee" stroke="none" font-family="Arial" font-size="24px" font-style="normal" font-weight="normal" text-decoration="none" x="400" y="0">UNREGISTERED</text><text fill="#eeeeee" stroke="none" font-family="Arial" font-size="24px" font-style="normal" font-weight="normal" text-decoration="none" x="400" y="30">UNREGISTERED</text><text fill="#eeeeee" stroke="none" font-family="Arial" font-size="24px" font-style="normal" font-weight="normal" text-decoration="none" x="400" y="60">UNREGISTERED</text><text fill="#eeeeee" stroke="none" font-family="Arial" font-size="24px" font-style="normal" font-weight="normal" text-decoration="none" x="400" y="90">UNREGISTERED</text><text fill="#eeeeee" stroke="none" font-family="Arial" font-size="24px" font-style="normal" font-weight="normal" text-decoration="none" x="400" y="120">UNREGISTERED</text><text fill="#eeeeee" stroke="none" font-family="Arial" font-size="24px" font-style="normal" font-weight="normal" text-decoration="none" x="400" y="150">UNREGISTERED</text><text fill="#eeeeee" stroke="none" font-family="Arial" font-size="24px" font-style="normal" font-weight="normal" text-decoration="none" x="400" y="180">UNREGISTERED</text><text fill="#eeeeee" stroke="none" font-family="Arial" font-size="24px" font-style="normal" font-weight="normal" text-decoration="none" x="400" y="210">UNREGISTERED</text><text fill="#eeeeee" stroke="none" font-family="Arial" font-size="24px" font-style="normal" font-weight="normal" text-decoration="none" x="400" y="240">UNREGISTERED</text><text fill="#eeeeee" stroke="none" font-family="Arial" font-size="24px" font-style="normal" font-weight="normal" text-decoration="none" x="400" y="270">UNREGISTERED</text><text fill="#eeeeee" stroke="none" font-family="Arial" font-size="24px" font-style="normal" font-weight="normal" text-decoration="none" x="600" y="0">UNREGISTERED</text><text fill="#eeeeee" stroke="none" font-family="Arial" font-size="24px" font-style="normal" font-weight="normal" text-decoration="none" x="600" y="30">UNREGISTERED</text><text fill="#eeeeee" stroke="none" font-family="Arial" font-size="24px" font-style="normal" font-weight="normal" text-decoration="none" x="600" y="60">UNREGISTERED</text><text fill="#eeeeee" stroke="none" font-family="Arial" font-size="24px" font-style="normal" font-weight="normal" text-decoration="none" x="600" y="90">UNREGISTERED</text><text fill="#eeeeee" stroke="none" font-family="Arial" font-size="24px" font-style="normal" font-weight="normal" text-decoration="none" x="600" y="120">UNREGISTERED</text><text fill="#eeeeee" stroke="none" font-family="Arial" font-size="24px" font-style="normal" font-weight="normal" text-decoration="none" x="600" y="150">UNREGISTERED</text><text fill="#eeeeee" stroke="none" font-family="Arial" font-size="24px" font-style="normal" font-weight="normal" text-decoration="none" x="600" y="180">UNREGISTERED</text><text fill="#eeeeee" stroke="none" font-family="Arial" font-size="24px" font-style="normal" font-weight="normal" text-decoration="none" x="600" y="210">UNREGISTERED</text><text fill="#eeeeee" stroke="none" font-family="Arial" font-size="24px" font-style="normal" font-weight="normal" text-decoration="none" x="600" y="240">UNREGISTERED</text><text fill="#eeeeee" stroke="none" font-family="Arial" font-size="24px" font-style="normal" font-weight="normal" text-decoration="none" x="600" y="270">UNREGISTERED</text><g transform="translate(-198,-145) scale(1,1)"><path fill="#C0C0C0" stroke="none" d="M 215 280.5 C 215 275.2532944 219.2532944 271 224.5 271 C 229.7467056 271 234 275.2532944 234 280.5 C 234 285.7467056 229.7467056 290 224.5 290 C 219.2532944 290 215 285.7467056 215 280.5 Z" opacity="0.2"/></g><g transform="translate(-198,-145) scale(1,1)"><path fill="#000000" stroke="none" d="M 208 273.5 C 208 268.2532944 212.2532944 264 217.5 264 C 222.7467056 264 227 268.2532944 227 273.5 C 227 278.7467056 222.7467056 283 217.5 283 C 212.2532944 283 208 278.7467056 208 273.5 Z"/></g><g transform="translate(-198,-145) scale(1,1)"><path fill="#C0C0C0" stroke="none" d="M 617 191 L 656 191 Q 666 191 666 201 L 666 220 Q 666 230 656 230 L 617 230 Q 607 230 607 220 L 607 201 Q 607 191 617 191 Z" opacity="0.2"/></g><g transform="translate(-198,-145) scale(1,1)"><path fill="#ffffff" stroke="none" d="M 610 184 L 649 184 Q 659 184 659 194 L 659 213 Q 659 223 649 223 L 610 223 Q 600 223 600 213 L 600 194 Q 600 184 610 184 Z"/></g><g transform="translate(-198,-145) scale(1,1)"><path fill="none" stroke="#000000" d="M 610 184 L 649 184 Q 659 184 659 194 L 659 213 Q 659 223 649 223 L 610 223 Q 600 223 600 213 L 600 194 Q 600 184 610 184 Z" stroke-miterlimit="10"/></g><g transform="translate(-198,-145) scale(1,1)"><g><path fill="none" stroke="none"/><text fill="#000000" stroke="none" font-family="Arial" font-size="13px" font-style="normal" font-weight="bold" text-decoration="none" x="609.990478515625" y="201.5">State1</text></g></g><g transform="translate(-198,-145) scale(1,1)"><path fill="none" stroke="#000000" d="M 228 269 L 488 176 L 599 197" stroke-miterlimit="10"/></g><g transform="translate(-198,-145) scale(1,1)"><path fill="none" stroke="#000000" d="M 588.231943790622 199.2469903141038 L 599 197 L 589.7969723457876 190.97469652251422" stroke-miterlimit="10"/></g><g transform="translate(-198,-145) scale(1,1)"><g><path fill="none" stroke="none"/><text fill="#000000" stroke="none" font-family="Arial" font-size="13px" font-style="normal" font-weight="normal" text-decoration="none" x="396.5" y="165.5">User Clicks "Submit Information"</text></g></g><g transform="translate(-198,-145) scale(1,1)"><path fill="none" stroke="#000000" d="M 599 207 L 472 224 L 228 271" stroke-miterlimit="10"/></g><g transform="translate(-198,-145) scale(1,1)"><path fill="none" stroke="#000000" d="M 237.18301526006297 264.9442398715396 L 228 271 L 238.77544141420353 273.2113033100566" stroke-miterlimit="10"/></g><g transform="translate(-198,-145) scale(1,1)"><g><path fill="none" stroke="none"/><text fill="#000000" stroke="none" font-family="Arial" font-size="13px" font-style="normal" font-weight="normal" text-decoration="none" x="419.5" y="242.5">User Cancels Click</text></g></g><g transform="translate(-198,-145) scale(1,1)"><path fill="#C0C0C0" stroke="none" d="M 833 183 L 872 183 Q 882 183 882 193 L 882 212 Q 882 222 872 222 L 833 222 Q 823 222 823 212 L 823 193 Q 823 183 833 183 Z" opacity="0.2"/></g><g transform="translate(-198,-145) scale(1,1)"><path fill="#ffffff" stroke="none" d="M 826 176 L 865 176 Q 875 176 875 186 L 875 205 Q 875 215 865 215 L 826 215 Q 816 215 816 205 L 816 186 Q 816 176 826 176 Z"/></g><g transform="translate(-198,-145) scale(1,1)"><path fill="none" stroke="#000000" d="M 826 176 L 865 176 Q 875 176 875 186 L 875 205 Q 875 215 865 215 L 826 215 Q 816 215 816 205 L 816 186 Q 816 176 826 176 Z" stroke-miterlimit="10"/></g><g transform="translate(-198,-145) scale(1,1)"><g><path fill="none" stroke="none"/><text fill="#000000" stroke="none" font-family="Arial" font-size="13px" font-style="normal" font-weight="bold" text-decoration="none" x="825.990478515625" y="193.5">State2</text></g></g><g transform="translate(-198,-145) scale(1,1)"><path fill="none" stroke="#000000" d="M 660 197 L 732 184 L 815 192" stroke-miterlimit="10"/></g><g transform="translate(-198,-145) scale(1,1)"><path fill="none" stroke="#000000" d="M 804.4803402529875 195.21508301713726 L 815 192 L 805.2880702536169 186.83488426060774" stroke-miterlimit="10"/></g><g transform="translate(-198,-145) scale(1,1)"><g><path fill="none" stroke="none"/><text fill="#000000" stroke="none" font-family="Arial" font-size="13px" font-style="normal" font-weight="normal" text-decoration="none" x="664.5" y="173.5">User Enters Information</text></g></g><g transform="translate(-198,-145) scale(1,1)"><path fill="#C0C0C0" stroke="none" d="M 593 311 L 632 311 Q 642 311 642 321 L 642 340 Q 642 350 632 350 L 593 350 Q 583 350 583 340 L 583 321 Q 583 311 593 311 Z" opacity="0.2"/></g><g transform="translate(-198,-145) scale(1,1)"><path fill="#ffffff" stroke="none" d="M 586 304 L 625 304 Q 635 304 635 314 L 635 333 Q 635 343 625 343 L 586 343 Q 576 343 576 333 L 576 314 Q 576 304 586 304 Z"/></g><g transform="translate(-198,-145) scale(1,1)"><path fill="none" stroke="#000000" d="M 586 304 L 625 304 Q 635 304 635 314 L 635 333 Q 635 343 625 343 L 586 343 Q 576 343 576 333 L 576 314 Q 576 304 586 304 Z" stroke-miterlimit="10"/></g><g transform="translate(-198,-145) scale(1,1)"><g><path fill="none" stroke="none"/><text fill="#000000" stroke="none" font-family="Arial" font-size="13px" font-style="normal" font-weight="bold" text-decoration="none" x="585.990478515625" y="321.5">State3</text></g></g><g transform="translate(-198,-145) scale(1,1)"><path fill="none" stroke="#000000" d="M 815 201 L 736 216 L 660 207" stroke-miterlimit="10"/></g><g transform="translate(-198,-145) scale(1,1)"><path fill="none" stroke="#000000" d="M 670.5871938334817 204.01481546093262 L 660 207 L 669.5971207840591 212.37543232272353" stroke-miterlimit="10"/></g><g transform="translate(-198,-145) scale(1,1)"><path fill="none" stroke="#000000" d="M 815 211 L 636 306" stroke-miterlimit="10"/></g><g transform="translate(-198,-145) scale(1,1)"><path fill="none" stroke="#000000" d="M 643.0033667952391 297.5174972130071 L 636 306 L 646.9501633941668 304.9540929099339" stroke-miterlimit="10"/></g><g transform="translate(-198,-145) scale(1,1)"><g><path fill="none" stroke="none"/><text fill="#000000" stroke="none" font-family="Arial" font-size="13px" font-style="normal" font-weight="normal" text-decoration="none" x="672.5" y="275.5">User Clicks "Submit"</text></g></g><g transform="translate(-198,-145) scale(1,1)"><path fill="#C0C0C0" stroke="none" d="M 369 375 L 480.07177734375 375 Q 490.07177734375 375 490.07177734375 385 L 490.07177734375 404 Q 490.07177734375 414 480.07177734375 414 L 369 414 Q 359 414 359 404 L 359 385 Q 359 375 369 375 Z" opacity="0.2"/></g><g transform="translate(-198,-145) scale(1,1)"><path fill="#ffffff" stroke="none" d="M 362 368 L 473.07177734375 368 Q 483.07177734375 368 483.07177734375 378 L 483.07177734375 397 Q 483.07177734375 407 473.07177734375 407 L 362 407 Q 352 407 352 397 L 352 378 Q 352 368 362 368 Z"/></g><g transform="translate(-198,-145) scale(1,1)"><path fill="none" stroke="#000000" d="M 362 368 L 473.07177734375 368 Q 483.07177734375 368 483.07177734375 378 L 483.07177734375 397 Q 483.07177734375 407 473.07177734375 407 L 362 407 Q 352 407 352 397 L 352 378 Q 352 368 362 368 Z" stroke-miterlimit="10"/></g><g transform="translate(-198,-145) scale(1,1)"><g><path fill="none" stroke="none"/><text fill="#000000" stroke="none" font-family="Arial" font-size="13px" font-style="normal" font-weight="bold" text-decoration="none" x="356.5" y="385.5">Information Verified</text></g></g><g transform="translate(-198,-145) scale(1,1)"><path fill="none" stroke="#000000" d="M 575 333 L 476 367" stroke-miterlimit="10"/></g><g transform="translate(-198,-145) scale(1,1)"><path fill="none" stroke="#000000" d="M 484.24433266436165 359.7177627806189 L 476 367 L 486.97894285336133 367.68030421329445" stroke-miterlimit="10"/></g><g transform="translate(-198,-145) scale(1,1)"><path fill="#C0C0C0" stroke="none" d="M 353 295 L 487.89453125 295 Q 497.89453125 295 497.89453125 305 L 497.89453125 324 Q 497.89453125 334 487.89453125 334 L 353 334 Q 343 334 343 324 L 343 305 Q 343 295 353 295 Z" opacity="0.2"/></g><g transform="translate(-198,-145) scale(1,1)"><path fill="#ffffff" stroke="none" d="M 346 288 L 480.89453125 288 Q 490.89453125 288 490.89453125 298 L 490.89453125 317 Q 490.89453125 327 480.89453125 327 L 346 327 Q 336 327 336 317 L 336 298 Q 336 288 346 288 Z"/></g><g transform="translate(-198,-145) scale(1,1)"><path fill="none" stroke="#000000" d="M 346 288 L 480.89453125 288 Q 490.89453125 288 490.89453125 298 L 490.89453125 317 Q 490.89453125 327 480.89453125 327 L 346 327 Q 336 327 336 317 L 336 298 Q 336 288 346 288 Z" stroke-miterlimit="10"/></g><g transform="translate(-198,-145) scale(1,1)"><g><path fill="none" stroke="none"/><text fill="#000000" stroke="none" font-family="Arial" font-size="13px" font-style="normal" font-weight="bold" text-decoration="none" x="340.5" y="305.5">Information not Verified</text></g></g><g transform="translate(-198,-145) scale(1,1)"><path fill="none" stroke="#000000" d="M 575 321 L 492 314" stroke-miterlimit="10"/></g><g transform="translate(-198,-145) scale(1,1)"><path fill="none" stroke="#000000" d="M 502.4804877247306 310.6594346209405 L 492 314 L 501.7729603728294 319.0486875077694" stroke-miterlimit="10"/></g><g transform="translate(-198,-145) scale(1,1)"><path fill="none" stroke="#000000" d="M 335 293 L 228 275" stroke-miterlimit="10"/></g><g transform="translate(-198,-145) scale(1,1)"><path fill="none" stroke="#000000" d="M 238.720188743047 272.534730579947 L 228 275 L 237.32352688017954 280.8371094314369" stroke-miterlimit="10"/></g><g transform="translate(-198,-145) scale(1,1)"><path fill="none" stroke="#000000" d="M 382 367 L 228 279" stroke-miterlimit="10"/></g><g transform="translate(-198,-145) scale(1,1)"><path fill="none" stroke="#000000" d="M 238.91217842123686 280.3872137914153 L 228 279 L 234.73516708030883 287.69698363803934" stroke-miterlimit="10"/></g></g></svg>