<svg version="1.1" xmlns="http://www.w3.org/2000/svg" xmlns:xlink="http://www.w3.org/1999/xlink" width="725.61962890625" height="820"><defs/><g><text fill="#eeeeee" stroke="none" font-family="Arial" font-size="24px" font-style="normal" font-weight="normal" text-decoration="none" x="0" y="0">UNREGISTERED</text><text fill="#eeeeee" stroke="none" font-family="Arial" font-size="24px" font-style="normal" font-weight="normal" text-decoration="none" x="0" y="30">UNREGISTERED</text><text fill="#eeeeee" stroke="none" font-family="Arial" font-size="24px" font-style="normal" font-weight="normal" text-decoration="none" x="0" y="60">UNREGISTERED</text><text fill="#eeeeee" stroke="none" font-family="Arial" font-size="24px" font-style="normal" font-weight="normal" text-decoration="none" x="0" y="90">UNREGISTERED</text><text fill="#eeeeee" stroke="none" font-family="Arial" font-size="24px" font-style="normal" font-weight="normal" text-decoration="none" x="0" y="120">UNREGISTERED</text><text fill="#eeeeee" stroke="none" font-family="Arial" font-size="24px" font-style="normal" font-weight="normal" text-decoration="none" x="0" y="150">UNREGISTERED</text><text fill="#eeeeee" stroke="none" font-family="Arial" font-size="24px" font-style="normal" font-weight="normal" text-decoration="none" x="0" y="180">UNREGISTERED</text><text fill="#eeeeee" stroke="none" font-family="Arial" font-size="24px" font-style="normal" font-weight="normal" text-decoration="none" x="0" y="210">UNREGISTERED</text><text fill="#eeeeee" stroke="none" font-family="Arial" font-size="24px" font-style="normal" font-weight="normal" text-decoration="none" x="0" y="240">UNREGISTERED</text><text fill="#eeeeee" stroke="none" font-family="Arial" font-size="24px" font-style="normal" font-weight="normal" text-decoration="none" x="0" y="270">UNREGISTERED</text><text fill="#eeeeee" stroke="none" font-family="Arial" font-size="24px" font-style="normal" font-weight="normal" text-decoration="none" x="0" y="300">UNREGISTERED</text><text fill="#eeeeee" stroke="none" font-family="Arial" font-size="24px" font-style="normal" font-weight="normal" text-decoration="none" x="0" y="330">UNREGISTERED</text><text fill="#eeeeee" stroke="none" font-family="Arial" font-size="24px" font-style="normal" font-weight="normal" text-decoration="none" x="0" y="360">UNREGISTERED</text><text fill="#eeeeee" stroke="none" font-family="Arial" font-size="24px" font-style="normal" font-weight="normal" text-decoration="none" x="0" y="390">UNREGISTERED</text><text fill="#eeeeee" stroke="none" font-family="Arial" font-size="24px" font-style="normal" font-weight="normal" text-decoration="none" x="0" y="420">UNREGISTERED</text><text fill="#eeeeee" stroke="none" font-family="Arial" font-size="24px" font-style="normal" font-weight="normal" text-decoration="none" x="0" y="450">UNREGISTERED</text><text fill="#eeeeee" stroke="none" font-family="Arial" font-size="24px" font-style="normal" font-weight="normal" text-decoration="none" x="0" y="480">UNREGISTERED</text><text fill="#eeeeee" stroke="none" font-family="Arial" font-size="24px" font-style="normal" font-weight="normal" text-decoration="none" x="0" y="510">UNREGISTERED</text><text fill="#eeeeee" stroke="none" font-family="Arial" font-size="24px" font-style="normal" font-weight="normal" text-decoration="none" x="0" y="540">UNREGISTERED</text><text fill="#eeeeee" stroke="none" font-family="Arial" font-size="24px" font-style="normal" font-weight="normal" text-decoration="none" x="0" y="570">UNREGISTERED</text><text fill="#eeeeee" stroke="none" font-family="Arial" font-size="24px" font-style="normal" font-weight="normal" text-decoration="none" x="0" y="600">UNREGISTERED</text><text fill="#eeeeee" stroke="none" font-family="Arial" font-size="24px" font-style="normal" font-weight="normal" text-decoration="none" x="0" y="630">UNREGISTERED</text><text fill="#eeeeee" stroke="none" font-family="Arial" font-size="24px" font-style="normal" font-weight="normal" text-decoration="none" x="0" y="660">UNREGISTERED</text><text fill="#eeeeee" stroke="none" font-family="Arial" font-size="24px" font-style="normal" font-weight="normal" text-decoration="none" x="0" y="690">UNREGISTERED</text><text fill="#eeeeee" stroke="none" font-family="Arial" font-size="24px" font-style="normal" font-weight="normal" text-decoration="none" x="0" y="720">UNREGISTERED</text><text fill="#eeeeee" stroke="none" font-family="Arial" font-size="24px" font-style="normal" font-weight="normal" text-decoration="none" x="0" y="750">UNREGISTERED</text><text fill="#eeeeee" stroke="none" font-family="Arial" font-size="24px" font-style="normal" font-weight="normal" text-decoration="none" x="0" y="780">UNREGISTERED</text><text fill="#eeeeee" stroke="none" font-family="Arial" font-size="24px" font-style="normal" font-weight="normal" text-decoration="none" x="0" y="810">UNREGISTERED</text><text fill="#eeeeee" stroke="none" font-family="Arial" font-size="24px" font-style="normal" font-weight="normal" text-decoration="none" x="200" y="0">UNREGISTERED</text><text fill="#eeeeee" stroke="none" font-family="Arial" font-size="24px" font-style="normal" font-weight="normal" text-decoration="none" x="200" y="30">UNREGISTERED</text><text fill="#eeeeee" stroke="none" font-family="Arial" font-size="24px" font-style="normal" font-weight="normal" text-decoration="none" x="200" y="60">UNREGISTERED</text><text fill="#eeeeee" stroke="none" font-family="Arial" font-size="24px" font-style="normal" font-weight="normal" text-decoration="none" x="200" y="90">UNREGISTERED</text><text fill="#eeeeee" stroke="none" font-family="Arial" font-size="24px" font-style="normal" font-weight="normal" text-decoration="none" x="200" y="120">UNREGISTERED</text><text fill="#eeeeee" stroke="none" font-family="Arial" font-size="24px" font-style="normal" font-weight="normal" text-decoration="none" x="200" y="150">UNREGISTERED</text><text fill="#eeeeee" stroke="none" font-family="Arial" font-size="24px" font-style="normal" font-weight="normal" text-decoration="none" x="200" y="180">UNREGISTERED</text><text fill="#eeeeee" stroke="none" font-family="Arial" font-size="24px" font-style="normal" font-weight="normal" text-decoration="none" x="200" y="210">UNREGISTERED</text><text fill="#eeeeee" stroke="none" font-family="Arial" font-size="24px" font-style="normal" font-weight="normal" text-decoration="none" x="200" y="240">UNREGISTERED</text><text fill="#eeeeee" stroke="none" font-family="Arial" font-size="24px" font-style="normal" font-weight="normal" text-decoration="none" x="200" y="270">UNREGISTERED</text><text fill="#eeeeee" stroke="none" font-family="Arial" font-size="24px" font-style="normal" font-weight="normal" text-decoration="none" x="200" y="300">UNREGISTERED</text><text fill="#eeeeee" stroke="none" font-family="Arial" font-size="24px" font-style="normal" font-weight="normal" text-decoration="none" x="200" y="330">UNREGISTERED</text><text fill="#eeeeee" stroke="none" font-family="Arial" font-size="24px" font-style="normal" font-weight="normal" text-decoration="none" x="200" y="360">UNREGISTERED</text><text fill="#eeeeee" stroke="none" font-family="Arial" font-size="24px" font-style="normal" font-weight="normal" text-decoration="none" x="200" y="390">UNREGISTERED</text><text fill="#eeeeee" stroke="none" font-family="Arial" font-size="24px" font-style="normal" font-weight="normal" text-decoration="none" x="200" y="420">UNREGISTERED</text><text fill="#eeeeee" stroke="none" font-family="Arial" font-size="24px" font-style="normal" font-weight="normal" text-decoration="none" x="200" y="450">UNREGISTERED</text><text fill="#eeeeee" stroke="none" font-family="Arial" font-size="24px" font-style="normal" font-weight="normal" text-decoration="none" x="200" y="480">UNREGISTERED</text><text fill="#eeeeee" stroke="none" font-family="Arial" font-size="24px" font-style="normal" font-weight="normal" text-decoration="none" x="200" y="510">UNREGISTERED</text><text fill="#eeeeee" stroke="none" font-family="Arial" font-size="24px" font-style="normal" font-weight="normal" text-decoration="none" x="200" y="540">UNREGISTERED</text><text fill="#eeeeee" stroke="none" font-family="Arial" font-size="24px" font-style="normal" font-weight="normal" text-decoration="none" x="200" y="570">UNREGISTERED</text><text fill="#eeeeee" stroke="none" font-family="Arial" font-size="24px" font-style="normal" font-weight="normal" text-decoration="none" x="200" y="600">UNREGISTERED</text><text fill="#eeeeee" stroke="none" font-family="Arial" font-size="24px" font-style="normal" font-weight="normal" text-decoration="none" x="200" y="630">UNREGISTERED</text><text fill="#eeeeee" stroke="none" font-family="Arial" font-size="24px" font-style="normal" font-weight="normal" text-decoration="none" x="200" y="660">UNREGISTERED</text><text fill="#eeeeee" stroke="none" font-family="Arial" font-size="24px" font-style="normal" font-weight="normal" text-decoration="none" x="200" y="690">UNREGISTERED</text><text fill="#eeeeee" stroke="none" font-family="Arial" font-size="24px" font-style="normal" font-weight="normal" text-decoration="none" x="200" y="720">UNREGISTERED</text><text fill="#eeeeee" stroke="none" font-family="Arial" font-size="24px" font-style="normal" font-weight="normal" text-decoration="none" x="200" y="750">UNREGISTERED</text><text fill="#eeeeee" stroke="none" font-family="Arial" font-size="24px" font-style="normal" font-weight="normal" text-decoration="none" x="200" y="780">UNREGISTERED</text><text fill="#eeeeee" stroke="none" font-family="Arial" font-size="24px" font-style="normal" font-weight="normal" text-decoration="none" x="200" y="810">UNREGISTERED</text><text fill="#eeeeee" stroke="none" font-family="Arial" font-size="24px" font-style="normal" font-weight="normal" text-decoration="none" x="400" y="0">UNREGISTERED</text><text fill="#eeeeee" stroke="none" font-family="Arial" font-size="24px" font-style="normal" font-weight="normal" text-decoration="none" x="400" y="30">UNREGISTERED</text><text fill="#eeeeee" stroke="none" font-family="Arial" font-size="24px" font-style="normal" font-weight="normal" text-decoration="none" x="400" y="60">UNREGISTERED</text><text fill="#eeeeee" stroke="none" font-family="Arial" font-size="24px" font-style="normal" font-weight="normal" text-decoration="none" x="400" y="90">UNREGISTERED</text><text fill="#eeeeee" stroke="none" font-family="Arial" font-size="24px" font-style="normal" font-weight="normal" text-decoration="none" x="400" y="120">UNREGISTERED</text><text fill="#eeeeee" stroke="none" font-family="Arial" font-size="24px" font-style="normal" font-weight="normal" text-decoration="none" x="400" y="150">UNREGISTERED</text><text fill="#eeeeee" stroke="none" font-family="Arial" font-size="24px" font-style="normal" font-weight="normal" text-decoration="none" x="400" y="180">UNREGISTERED</text><text fill="#eeeeee" stroke="none" font-family="Arial" font-size="24px" font-style="normal" font-weight="normal" text-decoration="none" x="400" y="210">UNREGISTERED</text><text fill="#eeeeee" stroke="none" font-family="Arial" font-size="24px" font-style="normal" font-weight="normal" text-decoration="none" x="400" y="240">UNREGISTERED</text><text fill="#eeeeee" stroke="none" font-family="Arial" font-size="24px" font-style="normal" font-weight="normal" text-decoration="none" x="400" y="270">UNREGISTERED</text><text fill="#eeeeee" stroke="none" font-family="Arial" font-size="24px" font-style="normal" font-weight="normal" text-decoration="none" x="400" y="300">UNREGISTERED</text><text fill="#eeeeee" stroke="none" font-family="Arial" font-size="24px" font-style="normal" font-weight="normal" text-decoration="none" x="400" y="330">UNREGISTERED</text><text fill="#eeeeee" stroke="none" font-family="Arial" font-size="24px" font-style="normal" font-weight="normal" text-decoration="none" x="400" y="360">UNREGISTERED</text><text fill="#eeeeee" stroke="none" font-family="Arial" font-size="24px" font-style="normal" font-weight="normal" text-decoration="none" x="400" y="390">UNREGISTERED</text><text fill="#eeeeee" stroke="none" font-family="Arial" font-size="24px" font-style="normal" font-weight="normal" text-decoration="none" x="400" y="420">UNREGISTERED</text><text fill="#eeeeee" stroke="none" font-family="Arial" font-size="24px" font-style="normal" font-weight="normal" text-decoration="none" x="400" y="450">UNREGISTERED</text><text fill="#eeeeee" stroke="none" font-family="Arial" font-size="24px" font-style="normal" font-weight="normal" text-decoration="none" x="400" y="480">UNREGISTERED</text><text fill="#eeeeee" stroke="none" font-family="Arial" font-size="24px" font-style="normal" font-weight="normal" text-decoration="none" x="400" y="510">UNREGISTERED</text><text fill="#eeeeee" stroke="none" font-family="Arial" font-size="24px" font-style="normal" font-weight="normal" text-decoration="none" x="400" y="540">UNREGISTERED</text><text fill="#eeeeee" stroke="none" font-family="Arial" font-size="24px" font-style="normal" font-weight="normal" text-decoration="none" x="400" y="570">UNREGISTERED</text><text fill="#eeeeee" stroke="none" font-family="Arial" font-size="24px" font-style="normal" font-weight="normal" text-decoration="none" x="400" y="600">UNREGISTERED</text><text fill="#eeeeee" stroke="none" font-family="Arial" font-size="24px" font-style="normal" font-weight="normal" text-decoration="none" x="400" y="630">UNREGISTERED</text><text fill="#eeeeee" stroke="none" font-family="Arial" font-size="24px" font-style="normal" font-weight="normal" text-decoration="none" x="400" y="660">UNREGISTERED</text><text fill="#eeeeee" stroke="none" font-family="Arial" font-size="24px" font-style="normal" font-weight="normal" text-decoration="none" x="400" y="690">UNREGISTERED</text><text fill="#eeeeee" stroke="none" font-family="Arial" font-size="24px" font-style="normal" font-weight="normal" text-decoration="none" x="400" y="720">UNREGISTERED</text><text fill="#eeeeee" stroke="none" font-family="Arial" font-size="24px" font-style="normal" font-weight="normal" text-decoration="none" x="400" y="750">UNREGISTERED</text><text fill="#eeeeee" stroke="none" font-family="Arial" font-size="24px" font-style="normal" font-weight="normal" text-decoration="none" x="400" y="780">UNREGISTERED</text><text fill="#eeeeee" stroke="none" font-family="Arial" font-size="24px" font-style="normal" font-weight="normal" text-decoration="none" x="400" y="810">UNREGISTERED</text><text fill="#eeeeee" stroke="none" font-family="Arial" font-size="24px" font-style="normal" font-weight="normal" text-decoration="none" x="600" y="0">UNREGISTERED</text><text fill="#eeeeee" stroke="none" font-family="Arial" font-size="24px" font-style="normal" font-weight="normal" text-decoration="none" x="600" y="30">UNREGISTERED</text><text fill="#eeeeee" stroke="none" font-family="Arial" font-size="24px" font-style="normal" font-weight="normal" text-decoration="none" x="600" y="60">UNREGISTERED</text><text fill="#eeeeee" stroke="none" font-family="Arial" font-size="24px" font-style="normal" font-weight="normal" text-decoration="none" x="600" y="90">UNREGISTERED</text><text fill="#eeeeee" stroke="none" font-family="Arial" font-size="24px" font-style="normal" font-weight="normal" text-decoration="none" x="600" y="120">UNREGISTERED</text><text fill="#eeeeee" stroke="none" font-family="Arial" font-size="24px" font-style="normal" font-weight="normal" text-decoration="none" x="600" y="150">UNREGISTERED</text><text fill="#eeeeee" stroke="none" font-family="Arial" font-size="24px" font-style="normal" font-weight="normal" text-decoration="none" x="600" y="180">UNREGISTERED</text><text fill="#eeeeee" stroke="none" font-family="Arial" font-size="24px" font-style="normal" font-weight="normal" text-decoration="none" x="600" y="210">UNREGISTERED</text><text fill="#eeeeee" stroke="none" font-family="Arial" font-size="24px" font-style="normal" font-weight="normal" text-decoration="none" x="600" y="240">UNREGISTERED</text><text fill="#eeeeee" stroke="none" font-family="Arial" font-size="24px" font-style="normal" font-weight="normal" text-decoration="none" x="600" y="270">UNREGISTERED</text><text fill="#eeeeee" stroke="none" font-family="Arial" font-size="24px" font-style="normal" font-weight="normal" text-decoration="none" x="600" y="300">UNREGISTERED</text><text fill="#eeeeee" stroke="none" font-family="Arial" font-size="24px" font-style="normal" font-weight="normal" text-decoration="none" x="600" y="330">UNREGISTERED</text><text fill="#eeeeee" stroke="none" font-family="Arial" font-size="24px" font-style="normal" font-weight="normal" text-decoration="none" x="600" y="360">UNREGISTERED</text><text fill="#eeeeee" stroke="none" font-family="Arial" font-size="24px" font-style="normal" font-weight="normal" text-decoration="none" x="600" y="390">UNREGISTERED</text><text fill="#eeeeee" stroke="none" font-family="Arial" font-size="24px" font-style="normal" font-weight="normal" text-decoration="none" x="600" y="420">UNREGISTERED</text><text fill="#eeeeee" stroke="none" font-family="Arial" font-size="24px" font-style="normal" font-weight="normal" text-decoration="none" x="600" y="450">UNREGISTERED</text><text fill="#eeeeee" stroke="none" font-family="Arial" font-size="24px" font-style="normal" font-weight="normal" text-decoration="none" x="600" y="480">UNREGISTERED</text><text fill="#eeeeee" stroke="none" font-family="Arial" font-size="24px" font-style="normal" font-weight="normal" text-decoration="none" x="600" y="510">UNREGISTERED</text><text fill="#eeeeee" stroke="none" font-family="Arial" font-size="24px" font-style="normal" font-weight="normal" text-decoration="none" x="600" y="540">UNREGISTERED</text><text fill="#eeeeee" stroke="none" font-family="Arial" font-size="24px" font-style="normal" font-weight="normal" text-decoration="none" x="600" y="570">UNREGISTERED</text><text fill="#eeeeee" stroke="none" font-family="Arial" font-size="24px" font-style="normal" font-weight="normal" text-decoration="none" x="600" y="600">UNREGISTERED</text><text fill="#eeeeee" stroke="none" font-family="Arial" font-size="24px" font-style="normal" font-weight="normal" text-decoration="none" x="600" y="630">UNREGISTERED</text><text fill="#eeeeee" stroke="none" font-family="Arial" font-size="24px" font-style="normal" font-weight="normal" text-decoration="none" x="600" y="660">UNREGISTERED</text><text fill="#eeeeee" stroke="none" font-family="Arial" font-size="24px" font-style="normal" font-weight="normal" text-decoration="none" x="600" y="690">UNREGISTERED</text><text fill="#eeeeee" stroke="none" font-family="Arial" font-size="24px" font-style="normal" font-weight="normal" text-decoration="none" x="600" y="720">UNREGISTERED</text><text fill="#eeeeee" stroke="none" font-family="Arial" font-size="24px" font-style="normal" font-weight="normal" text-decoration="none" x="600" y="750">UNREGISTERED</text><text fill="#eeeeee" stroke="none" font-family="Arial" font-size="24px" font-style="normal" font-weight="normal" text-decoration="none" x="600" y="780">UNREGISTERED</text><text fill="#eeeeee" stroke="none" font-family="Arial" font-size="24px" font-style="normal" font-weight="normal" text-decoration="none" x="600" y="810">UNREGISTERED</text><g transform="translate(-150,-278) scale(1,1)"><rect fill="#C0C0C0" stroke="none" x="255" y="295" width="480" height="800" opacity="0.2"/></g><g transform="translate(-150,-278) scale(1,1)"><rect fill="#ffffff" stroke="none" x="248" y="288" width="480" height="800"/></g><g transform="translate(-150,-278) scale(1,1)"><path fill="none" stroke="#000000" d="M 248 288 L 728 288 L 728 1088 L 248 1088 L 248 288 Z Z" stroke-miterlimit="10"/></g><g transform="translate(-150,-278) scale(1,1)"><g><path fill="none" stroke="none"/><text fill="#000000" stroke="none" font-family="Arial" font-size="13px" font-style="normal" font-weight="bold" text-decoration="none" x="446.832275390625" y="305.5">Afetbilgi.com</text></g></g><g transform="translate(-150,-278) scale(1,1)"><path fill="#ffffff" stroke="none" d="M 176.40935031960228 545.6800000000001 C 176.40935031960228 540.8861679360001 180.29519264454774 537 185.088623046875 537 C 189.88205344920226 537 193.76789577414772 540.8861679360001 193.76789577414772 545.6800000000001 C 193.76789577414772 550.473832064 189.88205344920226 554.36 185.088623046875 554.36 C 180.29519264454774 554.36 176.40935031960228 550.473832064 176.40935031960228 545.6800000000001 Z"/></g><g transform="translate(-150,-278) scale(1,1)"><path fill="none" stroke="#000000" d="M 176.40935031960228 545.6800000000001 C 176.40935031960228 540.8861679360001 180.29519264454774 537 185.088623046875 537 C 189.88205344920226 537 193.76789577414772 540.8861679360001 193.76789577414772 545.6800000000001 C 193.76789577414772 550.473832064 189.88205344920226 554.36 185.088623046875 554.36 C 180.29519264454774 554.36 176.40935031960228 550.473832064 176.40935031960228 545.6800000000001 Z" stroke-miterlimit="10"/></g><g transform="translate(-150,-278) scale(1,1)"><path fill="none" stroke="#000000" d="M 185.088623046875 554.36 L 185.088623046875 571.64" stroke-miterlimit="10"/></g><g transform="translate(-150,-278) scale(1,1)"><path fill="none" stroke="#000000" d="M 175.89880486505683 560.84 L 194.27844122869317 560.84" stroke-miterlimit="10"/></g><g transform="translate(-150,-278) scale(1,1)"><path fill="none" stroke="#000000" d="M 185.088623046875 571.64 L 172.32498668323865 589" stroke-miterlimit="10"/></g><g transform="translate(-150,-278) scale(1,1)"><path fill="none" stroke="#000000" d="M 185.088623046875 571.64 L 197.85225941051135 589" stroke-miterlimit="10"/></g><g transform="translate(-150,-278) scale(1,1)"><g><path fill="none" stroke="none"/><text fill="#000000" stroke="none" font-family="Arial" font-size="13px" font-style="normal" font-weight="bold" text-decoration="none" x="170.635009765625" y="607.5">User</text></g></g><g transform="translate(-150,-278) scale(1,1)"><path fill="#C0C0C0" stroke="none" d="M 375 480 C 375 470.6111584 416.413656 463 467.5 463 C 518.586344 463 560 470.6111584 560 480 C 560 489.3888416 518.586344 497 467.5 497 C 416.413656 497 375 489.3888416 375 480 Z" opacity="0.2"/></g><g transform="translate(-150,-278) scale(1,1)"><path fill="#ffffff" stroke="none" d="M 368 473 C 368 463.6111584 409.413656 456 460.5 456 C 511.586344 456 553 463.6111584 553 473 C 553 482.3888416 511.586344 490 460.5 490 C 409.413656 490 368 482.3888416 368 473 Z"/></g><g transform="translate(-150,-278) scale(1,1)"><path fill="none" stroke="#000000" d="M 368 473 C 368 463.6111584 409.413656 456 460.5 456 C 511.586344 456 553 463.6111584 553 473 C 553 482.3888416 511.586344 490 460.5 490 C 409.413656 490 368 482.3888416 368 473 Z" stroke-miterlimit="10"/></g><g transform="translate(-150,-278) scale(1,1)"><g><path fill="none" stroke="none"/><text fill="#000000" stroke="none" font-family="Arial" font-size="13px" font-style="normal" font-weight="bold" text-decoration="none" x="399.46728515625" y="478">See PDF About City</text></g></g><g transform="translate(-150,-278) scale(1,1)"><path fill="none" stroke="#000000" d="M 211 565 L 411 491" stroke-miterlimit="10"/></g><g transform="translate(-150,-278) scale(1,1)"><path fill="#C0C0C0" stroke="none" d="M 343 536 C 343 526.6111584 404.7846976 519 481 519 C 557.2153024 519 619 526.6111584 619 536 C 619 545.3888416 557.2153024 553 481 553 C 404.7846976 553 343 545.3888416 343 536 Z" opacity="0.2"/></g><g transform="translate(-150,-278) scale(1,1)"><path fill="#ffffff" stroke="none" d="M 336 529 C 336 519.6111584 397.7846976 512 474 512 C 550.2153024 512 612 519.6111584 612 529 C 612 538.3888416 550.2153024 546 474 546 C 397.7846976 546 336 538.3888416 336 529 Z"/></g><g transform="translate(-150,-278) scale(1,1)"><path fill="none" stroke="#000000" d="M 336 529 C 336 519.6111584 397.7846976 512 474 512 C 550.2153024 512 612 519.6111584 612 529 C 612 538.3888416 550.2153024 546 474 546 C 397.7846976 546 336 538.3888416 336 529 Z" stroke-miterlimit="10"/></g><g transform="translate(-150,-278) scale(1,1)"><g><path fill="none" stroke="none"/><text fill="#000000" stroke="none" font-family="Arial" font-size="13px" font-style="normal" font-weight="bold" text-decoration="none" x="380.81640625" y="534">Kızılay Blood Donation Places</text></g></g><g transform="translate(-150,-278) scale(1,1)"><path fill="#C0C0C0" stroke="none" d="M 351 424 C 351 414.6111584 408.5314032 407 479.5 407 C 550.4685968 407 608 414.6111584 608 424 C 608 433.3888416 550.4685968 441 479.5 441 C 408.5314032 441 351 433.3888416 351 424 Z" opacity="0.2"/></g><g transform="translate(-150,-278) scale(1,1)"><path fill="#ffffff" stroke="none" d="M 344 417 C 344 407.6111584 401.5314032 400 472.5 400 C 543.4685968 400 601 407.6111584 601 417 C 601 426.3888416 543.4685968 434 472.5 434 C 401.5314032 434 344 426.3888416 344 417 Z"/></g><g transform="translate(-150,-278) scale(1,1)"><path fill="none" stroke="#000000" d="M 344 417 C 344 407.6111584 401.5314032 400 472.5 400 C 543.4685968 400 601 407.6111584 601 417 C 601 426.3888416 543.4685968 434 472.5 434 C 401.5314032 434 344 426.3888416 344 417 Z" stroke-miterlimit="10"/></g><g transform="translate(-150,-278) scale(1,1)"><g><path fill="none" stroke="none"/><text fill="#000000" stroke="none" font-family="Arial" font-size="13px" font-style="normal" font-weight="bold" text-decoration="none" x="386.181396484375" y="422">Generating PDF Documents</text></g></g><g transform="translate(-150,-278) scale(1,1)"><path fill="none" stroke="#000000" d="M 468 435 L 464 455" stroke-miterlimit="10"/></g><g transform="translate(-150,-278) scale(1,1)"><path fill="none" stroke="#000000" d="M 461.86529275021616 444.20912306817837 L 464 455 L 470.12083628127033 445.8602317743892" stroke-miterlimit="10"/></g><g transform="translate(-150,-278) scale(1,1)"><path fill="none" stroke="#000000" d="M 211 571 L 361 547" stroke-miterlimit="10"/></g><g transform="translate(-150,-278) scale(1,1)"><path fill="#C0C0C0" stroke="none" d="M 415 584 C 415 574.6111584 446.5639216 567 485.5 567 C 524.4360784 567 556 574.6111584 556 584 C 556 593.3888416 524.4360784 601 485.5 601 C 446.5639216 601 415 593.3888416 415 584 Z" opacity="0.2"/></g><g transform="translate(-150,-278) scale(1,1)"><path fill="#ffffff" stroke="none" d="M 408 577 C 408 567.6111584 439.5639216 560 478.5 560 C 517.4360784 560 549 567.6111584 549 577 C 549 586.3888416 517.4360784 594 478.5 594 C 439.5639216 594 408 586.3888416 408 577 Z"/></g><g transform="translate(-150,-278) scale(1,1)"><path fill="none" stroke="#000000" d="M 408 577 C 408 567.6111584 439.5639216 560 478.5 560 C 517.4360784 560 549 567.6111584 549 577 C 549 586.3888416 517.4360784 594 478.5 594 C 439.5639216 594 408 586.3888416 408 577 Z" stroke-miterlimit="10"/></g><g transform="translate(-150,-278) scale(1,1)"><g><path fill="none" stroke="none"/><text fill="#000000" stroke="none" font-family="Arial" font-size="13px" font-style="normal" font-weight="bold" text-decoration="none" x="433" y="582">Showing Maps</text></g></g><g transform="translate(-150,-278) scale(1,1)"><path fill="none" stroke="#000000" d="M 211 575 L 407 577" stroke-miterlimit="10"/></g><g transform="translate(-150,-278) scale(1,1)"><path fill="#C0C0C0" stroke="none" d="M 399 632 C 399 622.6111584 441.3090864 615 493.5 615 C 545.6909136 615 588 622.6111584 588 632 C 588 641.3888416 545.6909136 649 493.5 649 C 441.3090864 649 399 641.3888416 399 632 Z" opacity="0.2"/></g><g transform="translate(-150,-278) scale(1,1)"><path fill="#ffffff" stroke="none" d="M 392 625 C 392 615.6111584 434.3090864 608 486.5 608 C 538.6909136 608 581 615.6111584 581 625 C 581 634.3888416 538.6909136 642 486.5 642 C 434.3090864 642 392 634.3888416 392 625 Z"/></g><g transform="translate(-150,-278) scale(1,1)"><path fill="none" stroke="#000000" d="M 392 625 C 392 615.6111584 434.3090864 608 486.5 608 C 538.6909136 608 581 615.6111584 581 625 C 581 634.3888416 538.6909136 642 486.5 642 C 434.3090864 642 392 634.3888416 392 625 Z" stroke-miterlimit="10"/></g><g transform="translate(-150,-278) scale(1,1)"><g><path fill="none" stroke="none"/><text fill="#000000" stroke="none" font-family="Arial" font-size="13px" font-style="normal" font-weight="bold" text-decoration="none" x="424.029541015625" y="630">Changing Language</text></g></g><g transform="translate(-150,-278) scale(1,1)"><path fill="none" stroke="#000000" d="M 391 609 L 211 579" stroke-miterlimit="10"/></g><g transform="translate(-150,-278) scale(1,1)"><path fill="#C0C0C0" stroke="none" d="M 351 680 C 351 670.6111584 416.59027679999997 663 497.5 663 C 578.4097232 663 644 670.6111584 644 680 C 644 689.3888416 578.4097232 697 497.5 697 C 416.59027679999997 697 351 689.3888416 351 680 Z" opacity="0.2"/></g><g transform="translate(-150,-278) scale(1,1)"><path fill="#ffffff" stroke="none" d="M 344 673 C 344 663.6111584 409.59027679999997 656 490.5 656 C 571.4097232 656 637 663.6111584 637 673 C 637 682.3888416 571.4097232 690 490.5 690 C 409.59027679999997 690 344 682.3888416 344 673 Z"/></g><g transform="translate(-150,-278) scale(1,1)"><path fill="none" stroke="#000000" d="M 344 673 C 344 663.6111584 409.59027679999997 656 490.5 656 C 571.4097232 656 637 663.6111584 637 673 C 637 682.3888416 571.4097232 690 490.5 690 C 409.59027679999997 690 344 682.3888416 344 673 Z" stroke-miterlimit="10"/></g><g transform="translate(-150,-278) scale(1,1)"><g><path fill="none" stroke="none"/><text fill="#000000" stroke="none" font-family="Arial" font-size="13px" font-style="normal" font-weight="bold" text-decoration="none" x="391.530517578125" y="678">Reaching to depremyardim.com</text></g></g><g transform="translate(-150,-278) scale(1,1)"><path fill="none" stroke="#000000" d="M 434 655 L 211 583" stroke-miterlimit="10"/></g><g transform="translate(-150,-278) scale(1,1)"><path fill="#C0C0C0" stroke="none" d="M 327 744 C 327 734.6111584 382.7405424 727 451.5 727 C 520.2594576 727 576 734.6111584 576 744 C 576 753.3888416 520.2594576 761 451.5 761 C 382.7405424 761 327 753.3888416 327 744 Z" opacity="0.2"/></g><g transform="translate(-150,-278) scale(1,1)"><path fill="#ffffff" stroke="none" d="M 320 737 C 320 727.6111584 375.7405424 720 444.5 720 C 513.2594576 720 569 727.6111584 569 737 C 569 746.3888416 513.2594576 754 444.5 754 C 375.7405424 754 320 746.3888416 320 737 Z"/></g><g transform="translate(-150,-278) scale(1,1)"><path fill="none" stroke="#000000" d="M 320 737 C 320 727.6111584 375.7405424 720 444.5 720 C 513.2594576 720 569 727.6111584 569 737 C 569 746.3888416 513.2594576 754 444.5 754 C 375.7405424 754 320 746.3888416 320 737 Z" stroke-miterlimit="10"/></g><g transform="translate(-150,-278) scale(1,1)"><g><path fill="none" stroke="none"/><text fill="#000000" stroke="none" font-family="Arial" font-size="13px" font-style="normal" font-weight="bold" text-decoration="none" x="361.06640625" y="742">Reaching to afetharita.com</text></g></g><g transform="translate(-150,-278) scale(1,1)"><path fill="none" stroke="#000000" d="M 211 595 L 320 680 L 405 719" stroke-miterlimit="10"/></g><g transform="translate(-150,-278) scale(1,1)"><path fill="#C0C0C0" stroke="none" d="M 351 360 C 351 350.6111584 398.2339536 343 456.5 343 C 514.7660464 343 562 350.6111584 562 360 C 562 369.3888416 514.7660464 377 456.5 377 C 398.2339536 377 351 369.3888416 351 360 Z" opacity="0.2"/></g><g transform="translate(-150,-278) scale(1,1)"><path fill="#ffffff" stroke="none" d="M 344 353 C 344 343.6111584 391.2339536 336 449.5 336 C 507.7660464 336 555 343.6111584 555 353 C 555 362.3888416 507.7660464 370 449.5 370 C 391.2339536 370 344 362.3888416 344 353 Z"/></g><g transform="translate(-150,-278) scale(1,1)"><path fill="none" stroke="#000000" d="M 344 353 C 344 343.6111584 391.2339536 336 449.5 336 C 507.7660464 336 555 343.6111584 555 353 C 555 362.3888416 507.7660464 370 449.5 370 C 391.2339536 370 344 362.3888416 344 353 Z" stroke-miterlimit="10"/></g><g transform="translate(-150,-278) scale(1,1)"><g><path fill="none" stroke="none"/><text fill="#000000" stroke="none" font-family="Arial" font-size="13px" font-style="normal" font-weight="bold" text-decoration="none" x="379.4345703125" y="358">Reaching to deprem.io</text></g></g><g transform="translate(-150,-278) scale(1,1)"><path fill="none" stroke="#000000" d="M 410 371 L 312 416 L 211 542" stroke-miterlimit="10"/></g><g transform="translate(-150,-278) scale(1,1)"><path fill="#C0C0C0" stroke="none" d="M 359 800 C 359 790.6111584 407.5770992 783 467.5 783 C 527.4229008 783 576 790.6111584 576 800 C 576 809.3888416 527.4229008 817 467.5 817 C 407.5770992 817 359 809.3888416 359 800 Z" opacity="0.2"/></g><g transform="translate(-150,-278) scale(1,1)"><path fill="#ffffff" stroke="none" d="M 352 793 C 352 783.6111584 400.5770992 776 460.5 776 C 520.4229008 776 569 783.6111584 569 793 C 569 802.3888416 520.4229008 810 460.5 810 C 400.5770992 810 352 802.3888416 352 793 Z"/></g><g transform="translate(-150,-278) scale(1,1)"><path fill="none" stroke="#000000" d="M 352 793 C 352 783.6111584 400.5770992 776 460.5 776 C 520.4229008 776 569 783.6111584 569 793 C 569 802.3888416 520.4229008 810 460.5 810 C 400.5770992 810 352 802.3888416 352 793 Z" stroke-miterlimit="10"/></g><g transform="translate(-150,-278) scale(1,1)"><g><path fill="none" stroke="none"/><text fill="#000000" stroke="none" font-family="Arial" font-size="13px" font-style="normal" font-weight="bold" text-decoration="none" x="388.2509765625" y="798">Join the Discord server</text></g></g><g transform="translate(-150,-278) scale(1,1)"><path fill="none" stroke="#000000" d="M 211 611 L 312 752 L 395 775" stroke-miterlimit="10"/></g><g transform="translate(-150,-278) scale(1,1)"><path fill="#C0C0C0" stroke="none" d="M 391 856 C 391 846.6111584 420.9969184 839 458 839 C 495.0030816 839 525 846.6111584 525 856 C 525 865.3888416 495.0030816 873 458 873 C 420.9969184 873 391 865.3888416 391 856 Z" opacity="0.2"/></g><g transform="translate(-150,-278) scale(1,1)"><path fill="#ffffff" stroke="none" d="M 384 849 C 384 839.6111584 413.9969184 832 451 832 C 488.0030816 832 518 839.6111584 518 849 C 518 858.3888416 488.0030816 866 451 866 C 413.9969184 866 384 858.3888416 384 849 Z"/></g><g transform="translate(-150,-278) scale(1,1)"><path fill="none" stroke="#000000" d="M 384 849 C 384 839.6111584 413.9969184 832 451 832 C 488.0030816 832 518 839.6111584 518 849 C 518 858.3888416 488.0030816 866 451 866 C 413.9969184 866 384 858.3888416 384 849 Z" stroke-miterlimit="10"/></g><g transform="translate(-150,-278) scale(1,1)"><g><path fill="none" stroke="none"/><text fill="#000000" stroke="none" font-family="Arial" font-size="13px" font-style="normal" font-weight="bold" text-decoration="none" x="408.016845703125" y="854">City Selection</text></g></g><g transform="translate(-150,-278) scale(1,1)"><path fill="none" stroke="#000000" d="M 402 831 L 296 792 L 206 616" stroke-miterlimit="10"/></g><g transform="translate(-150,-278) scale(1,1)"><path fill="#ffffff" stroke="none" d="M 808.1305417258523 505.68 C 808.1305417258523 500.886167936 812.0163840507977 497 816.809814453125 497 C 821.6032448554523 497 825.4890871803977 500.886167936 825.4890871803977 505.68 C 825.4890871803977 510.473832064 821.6032448554523 514.36 816.809814453125 514.36 C 812.0163840507977 514.36 808.1305417258523 510.473832064 808.1305417258523 505.68 Z"/></g><g transform="translate(-150,-278) scale(1,1)"><path fill="none" stroke="#000000" d="M 808.1305417258523 505.68 C 808.1305417258523 500.886167936 812.0163840507977 497 816.809814453125 497 C 821.6032448554523 497 825.4890871803977 500.886167936 825.4890871803977 505.68 C 825.4890871803977 510.473832064 821.6032448554523 514.36 816.809814453125 514.36 C 812.0163840507977 514.36 808.1305417258523 510.473832064 808.1305417258523 505.68 Z" stroke-miterlimit="10"/></g><g transform="translate(-150,-278) scale(1,1)"><path fill="none" stroke="#000000" d="M 816.809814453125 514.36 L 816.809814453125 531.64" stroke-miterlimit="10"/></g><g transform="translate(-150,-278) scale(1,1)"><path fill="none" stroke="#000000" d="M 807.6199962713068 520.84 L 825.9996326349432 520.84" stroke-miterlimit="10"/></g><g transform="translate(-150,-278) scale(1,1)"><path fill="none" stroke="#000000" d="M 816.809814453125 531.64 L 804.0461780894886 549" stroke-miterlimit="10"/></g><g transform="translate(-150,-278) scale(1,1)"><path fill="none" stroke="#000000" d="M 816.809814453125 531.64 L 829.5734508167614 549" stroke-miterlimit="10"/></g><g transform="translate(-150,-278) scale(1,1)"><g><path fill="none" stroke="none"/><text fill="#000000" stroke="none" font-family="Arial" font-size="13px" font-style="normal" font-weight="bold" text-decoration="none" x="772.5" y="567.5">Static Website</text></g></g><g transform="translate(-150,-278) scale(1,1)"><path fill="none" stroke="#000000" d="M 513 371 L 616 400 L 767 502" stroke-miterlimit="10"/></g><g transform="translate(-150,-278) scale(1,1)"><path fill="none" stroke="#000000" d="M 554 489 L 767 526" stroke-miterlimit="10"/></g><g transform="translate(-150,-278) scale(1,1)"><path fill="none" stroke="#000000" d="M 613 531 L 767 534" stroke-miterlimit="10"/></g><g transform="translate(-150,-278) scale(1,1)"><path fill="none" stroke="#000000" d="M 550 568 L 767 541" stroke-miterlimit="10"/></g><g transform="translate(-150,-278) scale(1,1)"><path fill="none" stroke="#000000" d="M 552 607 L 767 548" stroke-miterlimit="10"/></g><g transform="translate(-150,-278) scale(1,1)"><path fill="none" stroke="#000000" d="M 533 655 L 767 556" stroke-miterlimit="10"/></g><g transform="translate(-150,-278) scale(1,1)"><path fill="none" stroke="#000000" d="M 527 719 L 632 696 L 769 576" stroke-miterlimit="10"/></g><g transform="translate(-150,-278) scale(1,1)"><path fill="none" stroke="#000000" d="M 510 775 L 640 728 L 779 576" stroke-miterlimit="10"/></g><g transform="translate(-150,-278) scale(1,1)"><path fill="none" stroke="#000000" d="M 499 831 L 688 760 L 793 576" stroke-miterlimit="10"/></g><g transform="translate(-150,-278) scale(1,1)"><path fill="#C0C0C0" stroke="none" d="M 327 904 C 327 894.6111584 410.7227424 887 514 887 C 617.2772576 887 701 894.6111584 701 904 C 701 913.3888416 617.2772576 921 514 921 C 410.7227424 921 327 913.3888416 327 904 Z" opacity="0.2"/></g><g transform="translate(-150,-278) scale(1,1)"><path fill="#ffffff" stroke="none" d="M 320 897 C 320 887.6111584 403.7227424 880 507 880 C 610.2772576 880 694 887.6111584 694 897 C 694 906.3888416 610.2772576 914 507 914 C 403.7227424 914 320 906.3888416 320 897 Z"/></g><g transform="translate(-150,-278) scale(1,1)"><path fill="none" stroke="#ffff00" d="M 320 897 C 320 887.6111584 403.7227424 880 507 880 C 610.2772576 880 694 887.6111584 694 897 C 694 906.3888416 610.2772576 914 507 914 C 403.7227424 914 320 906.3888416 320 897 Z" stroke-miterlimit="10"/></g><g transform="translate(-150,-278) scale(1,1)"><g><path fill="none" stroke="none"/><text fill="#d8d800" stroke="none" font-family="Arial" font-size="13px" font-style="normal" font-weight="bold" text-decoration="none" x="379.142333984375" y="902">Get data from verified information source</text></g></g><g transform="translate(-150,-278) scale(1,1)"><path fill="#C0C0C0" stroke="none" d="M 343 952 C 343 942.6111584 403.6654096 935 478.5 935 C 553.3345904 935 614 942.6111584 614 952 C 614 961.3888416 553.3345904 969 478.5 969 C 403.6654096 969 343 961.3888416 343 952 Z" opacity="0.2"/></g><g transform="translate(-150,-278) scale(1,1)"><path fill="#ffffff" stroke="none" d="M 336 945 C 336 935.6111584 396.6654096 928 471.5 928 C 546.3345904 928 607 935.6111584 607 945 C 607 954.3888416 546.3345904 962 471.5 962 C 396.6654096 962 336 954.3888416 336 945 Z"/></g><g transform="translate(-150,-278) scale(1,1)"><path fill="none" stroke="#ffff00" d="M 336 945 C 336 935.6111584 396.6654096 928 471.5 928 C 546.3345904 928 607 935.6111584 607 945 C 607 954.3888416 546.3345904 962 471.5 962 C 396.6654096 962 336 954.3888416 336 945 Z" stroke-miterlimit="10"/></g><g transform="translate(-150,-278) scale(1,1)"><g><path fill="none" stroke="none"/><text fill="#d8d800" stroke="none" font-family="Arial" font-size="13px" font-style="normal" font-weight="bold" text-decoration="none" x="380.12548828125" y="950">Filter Information for Disaster</text></g></g><g transform="translate(-150,-278) scale(1,1)"><path fill="#C0C0C0" stroke="none" d="M 343 992 C 343 982.6111584 404.3369824 975 480 975 C 555.6630176 975 617 982.6111584 617 992 C 617 1001.3888416 555.6630176 1009 480 1009 C 404.3369824 1009 343 1001.3888416 343 992 Z" opacity="0.2"/></g><g transform="translate(-150,-278) scale(1,1)"><path fill="#ffffff" stroke="none" d="M 336 985 C 336 975.6111584 397.3369824 968 473 968 C 548.6630176 968 610 975.6111584 610 985 C 610 994.3888416 548.6630176 1002 473 1002 C 397.3369824 1002 336 994.3888416 336 985 Z"/></g><g transform="translate(-150,-278) scale(1,1)"><path fill="none" stroke="#ffff00" d="M 336 985 C 336 975.6111584 397.3369824 968 473 968 C 548.6630176 968 610 975.6111584 610 985 C 610 994.3888416 548.6630176 1002 473 1002 C 397.3369824 1002 336 994.3888416 336 985 Z" stroke-miterlimit="10"/></g><g transform="translate(-150,-278) scale(1,1)"><g><path fill="none" stroke="none"/><text fill="#d8d800" stroke="none" font-family="Arial" font-size="13px" font-style="normal" font-weight="bold" text-decoration="none" x="380.574951171875" y="990">Information About What to Do</text></g></g><g transform="translate(-150,-278) scale(1,1)"><path fill="none" stroke="#000000" d="M 542 879 L 680 808 L 796 576" stroke-miterlimit="10"/></g><g transform="translate(-150,-278) scale(1,1)"><path fill="none" stroke="#ffff00" d="M 608 931 L 712 920 L 805 576" stroke-miterlimit="10"/></g><g transform="translate(-150,-278) scale(1,1)"><path fill="none" stroke="#ffff00" d="M 376 927 L 297 912 L 199 616" stroke-miterlimit="10"/></g><g transform="translate(-150,-278) scale(1,1)"><path fill="none" stroke="#ffff00" d="M 359 967 L 264 952 L 194 616" stroke-miterlimit="10"/></g><g transform="translate(-150,-278) scale(1,1)"><path fill="none" stroke="#ffff00" d="M 592 967 L 744 944 L 809 576" stroke-miterlimit="10"/></g><g transform="translate(-150,-278) scale(1,1)"><path fill="#C0C0C0" stroke="none" d="M 399 1048 C 399 1038.6111584 432.1309248 1031 473 1031 C 513.8690752 1031 547 1038.6111584 547 1048 C 547 1057.3888416 513.8690752 1065 473 1065 C 432.1309248 1065 399 1057.3888416 399 1048 Z" opacity="0.2"/></g><g transform="translate(-150,-278) scale(1,1)"><path fill="#ffffff" stroke="none" d="M 392 1041 C 392 1031.6111584 425.1309248 1024 466 1024 C 506.8690752 1024 540 1031.6111584 540 1041 C 540 1050.3888416 506.8690752 1058 466 1058 C 425.1309248 1058 392 1050.3888416 392 1041 Z"/></g><g transform="translate(-150,-278) scale(1,1)"><path fill="none" stroke="#ffff00" d="M 392 1041 C 392 1031.6111584 425.1309248 1024 466 1024 C 506.8690752 1024 540 1031.6111584 540 1041 C 540 1050.3888416 506.8690752 1058 466 1058 C 425.1309248 1058 392 1050.3888416 392 1041 Z" stroke-miterlimit="10"/></g><g transform="translate(-150,-278) scale(1,1)"><g><path fill="none" stroke="none"/><text fill="#d8d800" stroke="none" font-family="Arial" font-size="13px" font-style="normal" font-weight="bold" text-decoration="none" x="417.96728515625" y="1046">Show Heat Map</text></g></g><g transform="translate(-150,-278) scale(1,1)"><path fill="none" stroke="#ffff00" d="M 541 1024 L 760 976 L 811 576" stroke-miterlimit="10"/></g><g transform="translate(-150,-278) scale(1,1)"><path fill="none" stroke="#ffff00" d="M 391 1024 L 256 992 L 192 616" stroke-miterlimit="10"/></g></g></svg>