<?xml version="1.0" encoding="utf-8" standalone="no"?>
<!DOCTYPE svg PUBLIC "-//W3C//DTD SVG 1.1//EN"
  "http://www.w3.org/Graphics/SVG/1.1/DTD/svg11.dtd">
<svg xmlns:xlink="http://www.w3.org/1999/xlink" width="460.8pt" height="345.6pt" viewBox="0 0 460.8 345.6" xmlns="http://www.w3.org/2000/svg" version="1.1">
 <metadata>
  <rdf:RDF xmlns:dc="http://purl.org/dc/elements/1.1/" xmlns:cc="http://creativecommons.org/ns#" xmlns:rdf="http://www.w3.org/1999/02/22-rdf-syntax-ns#">
   <cc:Work>
    <dc:type rdf:resource="http://purl.org/dc/dcmitype/StillImage"/>
    <dc:date>2023-05-14T23:55:04.072539</dc:date>
    <dc:format>image/svg+xml</dc:format>
    <dc:creator>
     <cc:Agent>
      <dc:title>Matplotlib v3.7.1, https://matplotlib.org/</dc:title>
     </cc:Agent>
    </dc:creator>
   </cc:Work>
  </rdf:RDF>
 </metadata>
 <defs>
  <style type="text/css">*{stroke-linejoin: round; stroke-linecap: butt}</style>
 </defs>
 <g id="figure_1">
  <g id="patch_1">
   <path d="M 0 345.6 
L 460.8 345.6 
L 460.8 0 
L 0 0 
z
" style="fill: #ffffff"/>
  </g>
  <g id="axes_1">
   <g id="patch_2">
    <path d="M 57.6 307.584 
L 414.72 307.584 
L 414.72 41.472 
L 57.6 41.472 
z
" style="fill: #ffffff"/>
   </g>
   <g id="matplotlib.axis_1">
    <g id="xtick_1">
     <g id="line2d_1">
      <defs>
       <path id="m32e9c1384f" d="M 0 0 
L 0 3.5 
" style="stroke: #000000; stroke-width: 0.8"/>
      </defs>
      <g>
       <use xlink:href="#m32e9c1384f" x="106.298182" y="307.584" style="stroke: #000000; stroke-width: 0.8"/>
      </g>
     </g>
     <g id="text_1">
      <!-- −0.4 -->
      <g transform="translate(94.156776 322.182437) scale(0.1 -0.1)">
       <defs>
        <path id="DejaVuSans-2212" d="M 678 2272 
L 4684 2272 
L 4684 1741 
L 678 1741 
L 678 2272 
z
" transform="scale(0.015625)"/>
        <path id="DejaVuSans-30" d="M 2034 4250 
Q 1547 4250 1301 3770 
Q 1056 3291 1056 2328 
Q 1056 1369 1301 889 
Q 1547 409 2034 409 
Q 2525 409 2770 889 
Q 3016 1369 3016 2328 
Q 3016 3291 2770 3770 
Q 2525 4250 2034 4250 
z
M 2034 4750 
Q 2819 4750 3233 4129 
Q 3647 3509 3647 2328 
Q 3647 1150 3233 529 
Q 2819 -91 2034 -91 
Q 1250 -91 836 529 
Q 422 1150 422 2328 
Q 422 3509 836 4129 
Q 1250 4750 2034 4750 
z
" transform="scale(0.015625)"/>
        <path id="DejaVuSans-2e" d="M 684 794 
L 1344 794 
L 1344 0 
L 684 0 
L 684 794 
z
" transform="scale(0.015625)"/>
        <path id="DejaVuSans-34" d="M 2419 4116 
L 825 1625 
L 2419 1625 
L 2419 4116 
z
M 2253 4666 
L 3047 4666 
L 3047 1625 
L 3713 1625 
L 3713 1100 
L 3047 1100 
L 3047 0 
L 2419 0 
L 2419 1100 
L 313 1100 
L 313 1709 
L 2253 4666 
z
" transform="scale(0.015625)"/>
       </defs>
       <use xlink:href="#DejaVuSans-2212"/>
       <use xlink:href="#DejaVuSans-30" x="83.789062"/>
       <use xlink:href="#DejaVuSans-2e" x="147.412109"/>
       <use xlink:href="#DejaVuSans-34" x="179.199219"/>
      </g>
     </g>
    </g>
    <g id="xtick_2">
     <g id="line2d_2">
      <g>
       <use xlink:href="#m32e9c1384f" x="171.229091" y="307.584" style="stroke: #000000; stroke-width: 0.8"/>
      </g>
     </g>
     <g id="text_2">
      <!-- −0.2 -->
      <g transform="translate(159.087685 322.182437) scale(0.1 -0.1)">
       <defs>
        <path id="DejaVuSans-32" d="M 1228 531 
L 3431 531 
L 3431 0 
L 469 0 
L 469 531 
Q 828 903 1448 1529 
Q 2069 2156 2228 2338 
Q 2531 2678 2651 2914 
Q 2772 3150 2772 3378 
Q 2772 3750 2511 3984 
Q 2250 4219 1831 4219 
Q 1534 4219 1204 4116 
Q 875 4013 500 3803 
L 500 4441 
Q 881 4594 1212 4672 
Q 1544 4750 1819 4750 
Q 2544 4750 2975 4387 
Q 3406 4025 3406 3419 
Q 3406 3131 3298 2873 
Q 3191 2616 2906 2266 
Q 2828 2175 2409 1742 
Q 1991 1309 1228 531 
z
" transform="scale(0.015625)"/>
       </defs>
       <use xlink:href="#DejaVuSans-2212"/>
       <use xlink:href="#DejaVuSans-30" x="83.789062"/>
       <use xlink:href="#DejaVuSans-2e" x="147.412109"/>
       <use xlink:href="#DejaVuSans-32" x="179.199219"/>
      </g>
     </g>
    </g>
    <g id="xtick_3">
     <g id="line2d_3">
      <g>
       <use xlink:href="#m32e9c1384f" x="236.16" y="307.584" style="stroke: #000000; stroke-width: 0.8"/>
      </g>
     </g>
     <g id="text_3">
      <!-- 0.0 -->
      <g transform="translate(228.208438 322.182437) scale(0.1 -0.1)">
       <use xlink:href="#DejaVuSans-30"/>
       <use xlink:href="#DejaVuSans-2e" x="63.623047"/>
       <use xlink:href="#DejaVuSans-30" x="95.410156"/>
      </g>
     </g>
    </g>
    <g id="xtick_4">
     <g id="line2d_4">
      <g>
       <use xlink:href="#m32e9c1384f" x="301.090909" y="307.584" style="stroke: #000000; stroke-width: 0.8"/>
      </g>
     </g>
     <g id="text_4">
      <!-- 0.2 -->
      <g transform="translate(293.139347 322.182437) scale(0.1 -0.1)">
       <use xlink:href="#DejaVuSans-30"/>
       <use xlink:href="#DejaVuSans-2e" x="63.623047"/>
       <use xlink:href="#DejaVuSans-32" x="95.410156"/>
      </g>
     </g>
    </g>
    <g id="xtick_5">
     <g id="line2d_5">
      <g>
       <use xlink:href="#m32e9c1384f" x="366.021818" y="307.584" style="stroke: #000000; stroke-width: 0.8"/>
      </g>
     </g>
     <g id="text_5">
      <!-- 0.4 -->
      <g transform="translate(358.070256 322.182437) scale(0.1 -0.1)">
       <use xlink:href="#DejaVuSans-30"/>
       <use xlink:href="#DejaVuSans-2e" x="63.623047"/>
       <use xlink:href="#DejaVuSans-34" x="95.410156"/>
      </g>
     </g>
    </g>
   </g>
   <g id="matplotlib.axis_2">
    <g id="ytick_1">
     <g id="line2d_6">
      <defs>
       <path id="m97df8b51b2" d="M 0 0 
L -3.5 0 
" style="stroke: #000000; stroke-width: 0.8"/>
      </defs>
      <g>
       <use xlink:href="#m97df8b51b2" x="57.6" y="295.609202" style="stroke: #000000; stroke-width: 0.8"/>
      </g>
     </g>
     <g id="text_6">
      <!-- −1.00 -->
      <g transform="translate(19.954687 299.408421) scale(0.1 -0.1)">
       <defs>
        <path id="DejaVuSans-31" d="M 794 531 
L 1825 531 
L 1825 4091 
L 703 3866 
L 703 4441 
L 1819 4666 
L 2450 4666 
L 2450 531 
L 3481 531 
L 3481 0 
L 794 0 
L 794 531 
z
" transform="scale(0.015625)"/>
       </defs>
       <use xlink:href="#DejaVuSans-2212"/>
       <use xlink:href="#DejaVuSans-31" x="83.789062"/>
       <use xlink:href="#DejaVuSans-2e" x="147.412109"/>
       <use xlink:href="#DejaVuSans-30" x="179.199219"/>
       <use xlink:href="#DejaVuSans-30" x="242.822266"/>
      </g>
     </g>
    </g>
    <g id="ytick_2">
     <g id="line2d_7">
      <g>
       <use xlink:href="#m97df8b51b2" x="57.6" y="265.338902" style="stroke: #000000; stroke-width: 0.8"/>
      </g>
     </g>
     <g id="text_7">
      <!-- −0.75 -->
      <g transform="translate(19.954687 269.138121) scale(0.1 -0.1)">
       <defs>
        <path id="DejaVuSans-37" d="M 525 4666 
L 3525 4666 
L 3525 4397 
L 1831 0 
L 1172 0 
L 2766 4134 
L 525 4134 
L 525 4666 
z
" transform="scale(0.015625)"/>
        <path id="DejaVuSans-35" d="M 691 4666 
L 3169 4666 
L 3169 4134 
L 1269 4134 
L 1269 2991 
Q 1406 3038 1543 3061 
Q 1681 3084 1819 3084 
Q 2600 3084 3056 2656 
Q 3513 2228 3513 1497 
Q 3513 744 3044 326 
Q 2575 -91 1722 -91 
Q 1428 -91 1123 -41 
Q 819 9 494 109 
L 494 744 
Q 775 591 1075 516 
Q 1375 441 1709 441 
Q 2250 441 2565 725 
Q 2881 1009 2881 1497 
Q 2881 1984 2565 2268 
Q 2250 2553 1709 2553 
Q 1456 2553 1204 2497 
Q 953 2441 691 2322 
L 691 4666 
z
" transform="scale(0.015625)"/>
       </defs>
       <use xlink:href="#DejaVuSans-2212"/>
       <use xlink:href="#DejaVuSans-30" x="83.789062"/>
       <use xlink:href="#DejaVuSans-2e" x="147.412109"/>
       <use xlink:href="#DejaVuSans-37" x="179.199219"/>
       <use xlink:href="#DejaVuSans-35" x="242.822266"/>
      </g>
     </g>
    </g>
    <g id="ytick_3">
     <g id="line2d_8">
      <g>
       <use xlink:href="#m97df8b51b2" x="57.6" y="235.068601" style="stroke: #000000; stroke-width: 0.8"/>
      </g>
     </g>
     <g id="text_8">
      <!-- −0.50 -->
      <g transform="translate(19.954687 238.86782) scale(0.1 -0.1)">
       <use xlink:href="#DejaVuSans-2212"/>
       <use xlink:href="#DejaVuSans-30" x="83.789062"/>
       <use xlink:href="#DejaVuSans-2e" x="147.412109"/>
       <use xlink:href="#DejaVuSans-35" x="179.199219"/>
       <use xlink:href="#DejaVuSans-30" x="242.822266"/>
      </g>
     </g>
    </g>
    <g id="ytick_4">
     <g id="line2d_9">
      <g>
       <use xlink:href="#m97df8b51b2" x="57.6" y="204.798301" style="stroke: #000000; stroke-width: 0.8"/>
      </g>
     </g>
     <g id="text_9">
      <!-- −0.25 -->
      <g transform="translate(19.954687 208.597519) scale(0.1 -0.1)">
       <use xlink:href="#DejaVuSans-2212"/>
       <use xlink:href="#DejaVuSans-30" x="83.789062"/>
       <use xlink:href="#DejaVuSans-2e" x="147.412109"/>
       <use xlink:href="#DejaVuSans-32" x="179.199219"/>
       <use xlink:href="#DejaVuSans-35" x="242.822266"/>
      </g>
     </g>
    </g>
    <g id="ytick_5">
     <g id="line2d_10">
      <g>
       <use xlink:href="#m97df8b51b2" x="57.6" y="174.528" style="stroke: #000000; stroke-width: 0.8"/>
      </g>
     </g>
     <g id="text_10">
      <!-- 0.00 -->
      <g transform="translate(28.334375 178.327219) scale(0.1 -0.1)">
       <use xlink:href="#DejaVuSans-30"/>
       <use xlink:href="#DejaVuSans-2e" x="63.623047"/>
       <use xlink:href="#DejaVuSans-30" x="95.410156"/>
       <use xlink:href="#DejaVuSans-30" x="159.033203"/>
      </g>
     </g>
    </g>
    <g id="ytick_6">
     <g id="line2d_11">
      <g>
       <use xlink:href="#m97df8b51b2" x="57.6" y="144.257699" style="stroke: #000000; stroke-width: 0.8"/>
      </g>
     </g>
     <g id="text_11">
      <!-- 0.25 -->
      <g transform="translate(28.334375 148.056918) scale(0.1 -0.1)">
       <use xlink:href="#DejaVuSans-30"/>
       <use xlink:href="#DejaVuSans-2e" x="63.623047"/>
       <use xlink:href="#DejaVuSans-32" x="95.410156"/>
       <use xlink:href="#DejaVuSans-35" x="159.033203"/>
      </g>
     </g>
    </g>
    <g id="ytick_7">
     <g id="line2d_12">
      <g>
       <use xlink:href="#m97df8b51b2" x="57.6" y="113.987399" style="stroke: #000000; stroke-width: 0.8"/>
      </g>
     </g>
     <g id="text_12">
      <!-- 0.50 -->
      <g transform="translate(28.334375 117.786618) scale(0.1 -0.1)">
       <use xlink:href="#DejaVuSans-30"/>
       <use xlink:href="#DejaVuSans-2e" x="63.623047"/>
       <use xlink:href="#DejaVuSans-35" x="95.410156"/>
       <use xlink:href="#DejaVuSans-30" x="159.033203"/>
      </g>
     </g>
    </g>
    <g id="ytick_8">
     <g id="line2d_13">
      <g>
       <use xlink:href="#m97df8b51b2" x="57.6" y="83.717098" style="stroke: #000000; stroke-width: 0.8"/>
      </g>
     </g>
     <g id="text_13">
      <!-- 0.75 -->
      <g transform="translate(28.334375 87.516317) scale(0.1 -0.1)">
       <use xlink:href="#DejaVuSans-30"/>
       <use xlink:href="#DejaVuSans-2e" x="63.623047"/>
       <use xlink:href="#DejaVuSans-37" x="95.410156"/>
       <use xlink:href="#DejaVuSans-35" x="159.033203"/>
      </g>
     </g>
    </g>
    <g id="ytick_9">
     <g id="line2d_14">
      <g>
       <use xlink:href="#m97df8b51b2" x="57.6" y="53.446798" style="stroke: #000000; stroke-width: 0.8"/>
      </g>
     </g>
     <g id="text_14">
      <!-- 1.00 -->
      <g transform="translate(28.334375 57.246016) scale(0.1 -0.1)">
       <use xlink:href="#DejaVuSans-31"/>
       <use xlink:href="#DejaVuSans-2e" x="63.623047"/>
       <use xlink:href="#DejaVuSans-30" x="95.410156"/>
       <use xlink:href="#DejaVuSans-30" x="159.033203"/>
      </g>
     </g>
    </g>
   </g>
   <g id="line2d_15">
    <path d="M 73.832727 174.528 
L 235.99751 53.568 
L 236.32249 295.488 
L 398.487273 174.528 
L 398.487273 174.528 
" clip-path="url(#p7d2eff29c7)" style="fill: none; stroke: #1f77b4; stroke-width: 1.5; stroke-linecap: square"/>
   </g>
   <g id="line2d_16">
    <path d="M 73.832727 174.54012 
L 74.482686 174.473299 
L 75.132645 174.111305 
L 76.107584 173.485842 
L 76.757543 173.376748 
L 77.732482 173.268165 
L 78.382441 172.886854 
L 79.357379 172.2727 
L 80.007338 172.173347 
L 80.657297 172.146575 
L 81.307256 171.891121 
L 82.607174 171.060505 
L 83.257133 170.968179 
L 83.907093 170.938808 
L 84.557052 170.675056 
L 85.85697 169.84843 
L 86.506929 169.76257 
L 87.156888 169.730755 
L 87.806847 169.459132 
L 89.106765 168.636388 
L 89.756724 168.556815 
L 90.406683 168.522607 
L 91.056642 168.243253 
L 92.35656 167.424361 
L 93.006519 167.351022 
L 93.656478 167.314433 
L 94.306437 167.027376 
L 95.606355 166.212342 
L 96.581294 166.145246 
L 97.231253 165.99652 
L 99.18113 164.944914 
L 100.156069 164.898135 
L 100.806028 164.595534 
L 101.780966 163.915102 
L 102.430925 163.736834 
L 103.405864 163.690048 
L 104.055823 163.379536 
L 105.030762 162.699112 
L 105.680721 162.528816 
L 106.655659 162.482022 
L 107.305618 162.16347 
L 108.280557 161.483055 
L 108.930516 161.320873 
L 109.905455 161.274069 
L 110.555414 160.947323 
L 111.530352 160.266918 
L 112.180311 160.113018 
L 113.15525 160.066202 
L 113.805209 159.731081 
L 114.780147 159.050689 
L 115.430106 158.905264 
L 116.405045 158.858435 
L 117.055004 158.514732 
L 118.029943 157.834354 
L 118.679902 157.697624 
L 119.65484 157.65078 
L 120.304799 157.298261 
L 121.279738 156.617899 
L 121.929697 156.490112 
L 122.904636 156.443252 
L 123.554595 156.081654 
L 124.529533 155.401309 
L 125.179492 155.282746 
L 126.154431 155.235867 
L 126.80439 154.864893 
L 127.779328 154.184569 
L 128.429287 154.075542 
L 129.404226 154.028642 
L 130.054185 153.647961 
L 131.029124 152.967659 
L 131.679083 152.868519 
L 132.329042 152.890111 
L 132.979001 152.663927 
L 134.278919 151.75056 
L 134.928878 151.661699 
L 135.578837 151.686487 
L 136.228796 151.451846 
L 137.528714 150.53325 
L 138.178673 150.455105 
L 138.828632 150.483226 
L 139.478591 150.239758 
L 140.778509 149.315704 
L 141.428468 149.248765 
L 142.078428 149.280372 
L 142.728387 149.027662 
L 144.028305 148.097893 
L 144.678264 148.042708 
L 145.328223 148.077975 
L 145.978182 147.815557 
L 147.2781 146.879786 
L 147.928059 146.83697 
L 148.578018 146.876089 
L 149.227977 146.603443 
L 150.527895 145.661346 
L 151.177854 145.63159 
L 151.827813 145.674779 
L 152.477772 145.391317 
L 153.77769 144.442532 
L 154.427649 144.426614 
L 155.077609 144.474119 
L 155.727568 144.179178 
L 156.702506 143.368715 
L 157.352465 143.184862 
L 158.327404 143.274195 
L 158.977363 142.967023 
L 159.952301 142.144186 
L 160.60226 141.972977 
L 161.577199 142.075107 
L 162.227158 141.754849 
L 163.202097 140.918765 
L 163.852056 140.761113 
L 164.826994 140.876973 
L 165.476953 140.542654 
L 166.451892 139.692322 
L 167.101851 139.549272 
L 168.07679 139.679935 
L 168.401769 139.564493 
L 169.051728 139.020483 
L 169.701687 138.464704 
L 170.026667 138.340805 
L 170.676626 138.410047 
L 171.326585 138.48416 
L 171.651564 138.362457 
L 172.301523 137.797927 
L 172.951482 137.235724 
L 173.276462 137.118361 
L 173.926421 137.20903 
L 174.57638 137.289853 
L 174.90136 137.161319 
L 175.551319 136.574382 
L 176.201278 136.00516 
L 176.526257 135.894947 
L 177.176216 136.009084 
L 177.826175 136.097261 
L 178.151155 135.961231 
L 179.776052 134.670396 
L 180.426011 134.810399 
L 181.075971 134.906693 
L 181.40095 134.762378 
L 183.025848 133.444498 
L 183.675807 133.613217 
L 184.325766 133.718529 
L 184.650745 133.564994 
L 186.275643 132.216993 
L 186.925602 132.41784 
L 187.575561 132.533256 
L 187.900541 132.369374 
L 189.200459 131.060402 
L 189.525438 130.987548 
L 190.175397 131.224659 
L 190.500377 131.351495 
L 190.825356 131.351495 
L 191.150336 131.175896 
L 192.450254 129.816067 
L 192.775233 129.755731 
L 193.425192 130.034184 
L 193.750172 130.174061 
L 194.075152 130.174061 
L 194.400131 129.985053 
L 195.700049 128.566905 
L 196.025029 128.520976 
L 197.324947 129.002037 
L 197.649926 128.7975 
L 198.949844 127.311653 
L 199.274824 127.282518 
L 200.574742 127.836901 
L 200.899722 127.614131 
L 202.19964 126.04857 
L 202.524619 126.039309 
L 203.824537 126.680718 
L 204.149517 126.436191 
L 205.449435 124.775185 
L 205.774414 124.789859 
L 206.749353 125.536471 
L 207.074333 125.536471 
L 207.399312 125.265472 
L 208.69923 123.487866 
L 209.02421 123.531991 
L 209.999148 124.408627 
L 210.324128 124.408627 
L 210.649107 124.10465 
L 211.624046 122.42346 
L 211.949025 122.181055 
L 212.274005 122.262381 
L 213.248943 123.304195 
L 213.573923 123.304195 
L 213.898903 122.957902 
L 214.873841 121.08819 
L 215.198821 120.845786 
L 215.5238 120.9757 
L 216.498739 122.234831 
L 216.823718 122.234831 
L 217.148698 121.832137 
L 218.123636 119.709021 
L 218.448616 119.466616 
L 218.773595 119.662834 
L 219.748534 121.221443 
L 220.073514 121.221443 
L 220.398493 120.739637 
L 221.373432 118.256908 
L 221.698411 118.014503 
L 222.023391 118.306817 
L 222.998329 120.30562 
L 223.323309 120.30562 
L 223.648288 119.704518 
L 224.623227 116.67007 
L 224.948206 116.427665 
L 225.273186 116.87216 
L 226.248124 119.583422 
L 226.573104 119.583422 
L 226.898084 118.78127 
L 227.873022 114.7902 
L 228.198002 114.547795 
L 228.522981 115.270661 
L 229.49792 119.336689 
L 229.822899 119.336689 
L 230.147879 118.122645 
L 231.122817 112.057971 
L 231.447797 111.815566 
L 231.772776 113.213408 
L 232.747715 120.877664 
L 233.072695 120.877664 
L 233.397674 118.338075 
L 234.372613 104.284701 
L 234.697592 104.042296 
L 235.022572 109.486248 
L 235.347551 121.545561 
L 235.99751 162.41988 
L 236.972449 227.510439 
L 237.297428 239.569752 
L 237.622408 245.013704 
L 237.947387 244.771299 
L 238.272367 240.776818 
L 238.922326 230.717925 
L 239.247305 228.178336 
L 239.572285 228.178336 
L 239.897265 230.213823 
L 240.547224 235.842592 
L 240.872203 237.240434 
L 241.197183 236.998029 
L 241.522162 235.364091 
L 242.172121 230.933355 
L 242.497101 229.719311 
L 242.82208 229.719311 
L 243.14706 230.773357 
L 243.797019 233.785339 
L 244.121998 234.508205 
L 244.446978 234.2658 
L 244.771957 233.177178 
L 245.421916 230.27473 
L 245.746896 229.472578 
L 246.071876 229.472578 
L 246.396855 230.177886 
L 247.046814 232.18384 
L 247.371794 232.628335 
L 247.696773 232.38593 
L 248.346732 230.395235 
L 248.671712 229.351482 
L 248.996691 228.75038 
L 249.321671 228.75038 
L 249.64665 229.276701 
L 250.296609 230.749183 
L 250.621589 231.041497 
L 250.946568 230.799092 
L 251.596527 229.157943 
L 251.921507 228.316363 
L 252.246486 227.834557 
L 252.571466 227.834557 
L 252.896446 228.251787 
L 253.546405 229.393166 
L 253.871384 229.589384 
L 254.196364 229.346979 
L 254.846323 227.932563 
L 255.171302 227.223863 
L 255.496282 226.821169 
L 255.821261 226.821169 
L 256.47122 227.664771 
L 256.7962 228.0803 
L 257.121179 228.210214 
L 257.446159 227.96781 
L 258.746077 225.751805 
L 259.071057 225.751805 
L 259.721016 226.459013 
L 260.045995 226.793619 
L 260.370975 226.874945 
L 260.695954 226.63254 
L 261.995872 224.647373 
L 262.320852 224.647373 
L 263.62077 225.568134 
L 263.945749 225.325729 
L 265.245667 223.519529 
L 265.570647 223.519529 
L 266.870565 224.280815 
L 267.195545 224.03841 
L 268.495463 222.375282 
L 268.820442 222.375282 
L 269.795381 223.016691 
L 270.12036 223.00743 
L 270.44534 222.765025 
L 271.745258 221.219099 
L 272.070238 221.219099 
L 273.045176 221.773482 
L 273.370156 221.744347 
L 273.695135 221.501943 
L 274.995053 220.053963 
L 275.320033 220.053963 
L 276.294971 220.535024 
L 276.619951 220.489095 
L 276.94493 220.24669 
L 277.919869 219.070947 
L 278.244848 218.881939 
L 278.569828 218.881939 
L 279.544767 219.300269 
L 279.869746 219.239933 
L 280.519705 218.621991 
L 281.169664 217.880104 
L 281.494644 217.704505 
L 281.819623 217.704505 
L 282.794562 218.068452 
L 283.119541 217.995598 
L 283.7695 217.389844 
L 284.419459 216.686626 
L 284.744439 216.522744 
L 285.069419 216.522744 
L 286.044357 216.839007 
L 286.369337 216.755155 
L 287.019296 216.16013 
L 287.669255 215.491006 
L 287.994234 215.337471 
L 288.644193 215.442783 
L 289.294152 215.611502 
L 289.619132 215.517894 
L 290.269091 214.932405 
L 290.91905 214.293622 
L 291.244029 214.149307 
L 291.893989 214.245601 
L 292.543948 214.385604 
L 292.868927 214.283265 
L 293.518886 213.706324 
L 294.168845 213.094769 
L 294.493825 212.958739 
L 295.143784 213.046916 
L 295.793743 213.161053 
L 296.118722 213.05084 
L 296.768681 212.481618 
L 297.41864 211.894681 
L 297.74362 211.766147 
L 298.393579 211.84697 
L 299.043538 211.937639 
L 299.368518 211.820276 
L 300.018477 211.258073 
L 300.668436 210.693543 
L 300.993415 210.57184 
L 301.643374 210.645953 
L 302.293333 210.715195 
L 302.943292 210.348892 
L 303.918231 209.491507 
L 304.56819 209.376065 
L 305.543129 209.493583 
L 306.193088 209.121273 
L 307.168026 208.288698 
L 307.817985 208.179027 
L 308.792924 208.272691 
L 309.442883 207.89483 
L 310.417821 207.085218 
L 311.067781 206.980893 
L 312.042719 207.052425 
L 312.692678 206.669409 
L 313.667617 205.881153 
L 314.317576 205.781805 
L 315.292514 205.832707 
L 315.942473 205.444881 
L 316.917412 204.676576 
L 317.567371 204.581881 
L 318.54231 204.613468 
L 319.192269 204.221136 
L 320.167207 203.471548 
L 320.817166 203.381221 
L 321.467125 203.447321 
L 322.117084 203.240488 
L 323.417002 202.266121 
L 324.066962 202.179911 
L 324.716921 202.235393 
L 325.36688 202.018046 
L 326.666798 201.060342 
L 327.316757 200.978025 
L 327.966716 201.023454 
L 328.616675 200.796147 
L 329.916593 199.854248 
L 330.566552 199.775628 
L 331.216511 199.811506 
L 331.86647 199.574731 
L 333.166388 198.647875 
L 333.816347 198.572774 
L 334.466306 198.59955 
L 335.116265 198.353746 
L 336.416183 197.441251 
L 337.066143 197.369513 
L 337.716102 197.387586 
L 338.366061 197.133146 
L 339.665979 196.234405 
L 340.315938 196.165889 
L 340.965897 196.175617 
L 341.615856 195.91289 
L 342.915774 195.027358 
L 343.565733 194.961938 
L 344.215692 194.963641 
L 344.865651 194.692942 
L 346.165569 193.820133 
L 346.815528 193.757697 
L 347.465487 193.75166 
L 348.115446 193.473269 
L 349.415364 192.612748 
L 350.065324 192.553194 
L 350.715283 192.539675 
L 351.365242 192.253843 
L 352.66516 191.40522 
L 353.315119 191.348459 
L 353.965078 191.327685 
L 354.615037 191.034637 
L 355.914955 190.197565 
L 356.564914 190.143517 
L 357.214873 190.115692 
L 357.864832 189.815625 
L 358.839771 189.119693 
L 359.48973 188.938391 
L 360.464668 188.903695 
L 361.114627 188.596786 
L 362.089566 187.907644 
L 362.739525 187.733104 
L 363.714464 187.691694 
L 364.364423 187.378099 
L 365.339361 186.695598 
L 365.98932 186.527676 
L 366.964259 186.479691 
L 367.614218 186.159542 
L 368.589156 185.483555 
L 369.239115 185.322127 
L 370.214054 185.267684 
L 370.864013 184.941094 
L 371.838952 184.271516 
L 372.488911 184.11648 
L 373.463849 184.055673 
L 374.113808 183.722736 
L 375.088747 183.05948 
L 375.738706 182.910754 
L 376.713645 182.843658 
L 377.363604 182.504442 
L 378.338542 181.847449 
L 378.988501 181.704978 
L 379.96344 181.631639 
L 380.613399 181.286184 
L 381.588337 180.635424 
L 382.238296 180.499185 
L 383.213235 180.419612 
L 383.863194 180.067919 
L 384.838133 179.423409 
L 385.488092 179.29343 
L 386.46303 179.20757 
L 387.112989 178.849572 
L 388.087928 178.211414 
L 388.737887 178.087821 
L 389.712826 177.995495 
L 390.362785 177.630974 
L 391.337723 176.99948 
L 391.987682 176.882653 
L 392.962621 176.7833 
L 393.61258 176.411551 
L 394.587518 175.787835 
L 395.237477 175.679252 
L 396.212416 175.570158 
L 396.862375 175.1871 
L 397.837314 174.582701 
L 398.487273 174.51588 
L 398.487273 174.51588 
" clip-path="url(#p7d2eff29c7)" style="fill: none; stroke: #ff7f0e; stroke-width: 1.5; stroke-linecap: square"/>
   </g>
   <g id="patch_3">
    <path d="M 57.6 307.584 
L 57.6 41.472 
" style="fill: none; stroke: #000000; stroke-width: 0.8; stroke-linejoin: miter; stroke-linecap: square"/>
   </g>
   <g id="patch_4">
    <path d="M 414.72 307.584 
L 414.72 41.472 
" style="fill: none; stroke: #000000; stroke-width: 0.8; stroke-linejoin: miter; stroke-linecap: square"/>
   </g>
   <g id="patch_5">
    <path d="M 57.6 307.584 
L 414.72 307.584 
" style="fill: none; stroke: #000000; stroke-width: 0.8; stroke-linejoin: miter; stroke-linecap: square"/>
   </g>
   <g id="patch_6">
    <path d="M 57.6 41.472 
L 414.72 41.472 
" style="fill: none; stroke: #000000; stroke-width: 0.8; stroke-linejoin: miter; stroke-linecap: square"/>
   </g>
   <g id="legend_1">
    <g id="patch_7">
     <path d="M 269.718437 78.82825 
L 407.72 78.82825 
Q 409.72 78.82825 409.72 76.82825 
L 409.72 48.472 
Q 409.72 46.472 407.72 46.472 
L 269.718437 46.472 
Q 267.718437 46.472 267.718437 48.472 
L 267.718437 76.82825 
Q 267.718437 78.82825 269.718437 78.82825 
z
" style="fill: #ffffff; opacity: 0.8; stroke: #cccccc; stroke-linejoin: miter"/>
    </g>
    <g id="line2d_17">
     <path d="M 271.718437 54.570437 
L 281.718437 54.570437 
L 291.718437 54.570437 
" style="fill: none; stroke: #1f77b4; stroke-width: 1.5; stroke-linecap: square"/>
    </g>
    <g id="text_15">
     <!-- Sawtooth Wave -->
     <g transform="translate(299.718437 58.070437) scale(0.1 -0.1)">
      <defs>
       <path id="DejaVuSans-53" d="M 3425 4513 
L 3425 3897 
Q 3066 4069 2747 4153 
Q 2428 4238 2131 4238 
Q 1616 4238 1336 4038 
Q 1056 3838 1056 3469 
Q 1056 3159 1242 3001 
Q 1428 2844 1947 2747 
L 2328 2669 
Q 3034 2534 3370 2195 
Q 3706 1856 3706 1288 
Q 3706 609 3251 259 
Q 2797 -91 1919 -91 
Q 1588 -91 1214 -16 
Q 841 59 441 206 
L 441 856 
Q 825 641 1194 531 
Q 1563 422 1919 422 
Q 2459 422 2753 634 
Q 3047 847 3047 1241 
Q 3047 1584 2836 1778 
Q 2625 1972 2144 2069 
L 1759 2144 
Q 1053 2284 737 2584 
Q 422 2884 422 3419 
Q 422 4038 858 4394 
Q 1294 4750 2059 4750 
Q 2388 4750 2728 4690 
Q 3069 4631 3425 4513 
z
" transform="scale(0.015625)"/>
       <path id="DejaVuSans-61" d="M 2194 1759 
Q 1497 1759 1228 1600 
Q 959 1441 959 1056 
Q 959 750 1161 570 
Q 1363 391 1709 391 
Q 2188 391 2477 730 
Q 2766 1069 2766 1631 
L 2766 1759 
L 2194 1759 
z
M 3341 1997 
L 3341 0 
L 2766 0 
L 2766 531 
Q 2569 213 2275 61 
Q 1981 -91 1556 -91 
Q 1019 -91 701 211 
Q 384 513 384 1019 
Q 384 1609 779 1909 
Q 1175 2209 1959 2209 
L 2766 2209 
L 2766 2266 
Q 2766 2663 2505 2880 
Q 2244 3097 1772 3097 
Q 1472 3097 1187 3025 
Q 903 2953 641 2809 
L 641 3341 
Q 956 3463 1253 3523 
Q 1550 3584 1831 3584 
Q 2591 3584 2966 3190 
Q 3341 2797 3341 1997 
z
" transform="scale(0.015625)"/>
       <path id="DejaVuSans-77" d="M 269 3500 
L 844 3500 
L 1563 769 
L 2278 3500 
L 2956 3500 
L 3675 769 
L 4391 3500 
L 4966 3500 
L 4050 0 
L 3372 0 
L 2619 2869 
L 1863 0 
L 1184 0 
L 269 3500 
z
" transform="scale(0.015625)"/>
       <path id="DejaVuSans-74" d="M 1172 4494 
L 1172 3500 
L 2356 3500 
L 2356 3053 
L 1172 3053 
L 1172 1153 
Q 1172 725 1289 603 
Q 1406 481 1766 481 
L 2356 481 
L 2356 0 
L 1766 0 
Q 1100 0 847 248 
Q 594 497 594 1153 
L 594 3053 
L 172 3053 
L 172 3500 
L 594 3500 
L 594 4494 
L 1172 4494 
z
" transform="scale(0.015625)"/>
       <path id="DejaVuSans-6f" d="M 1959 3097 
Q 1497 3097 1228 2736 
Q 959 2375 959 1747 
Q 959 1119 1226 758 
Q 1494 397 1959 397 
Q 2419 397 2687 759 
Q 2956 1122 2956 1747 
Q 2956 2369 2687 2733 
Q 2419 3097 1959 3097 
z
M 1959 3584 
Q 2709 3584 3137 3096 
Q 3566 2609 3566 1747 
Q 3566 888 3137 398 
Q 2709 -91 1959 -91 
Q 1206 -91 779 398 
Q 353 888 353 1747 
Q 353 2609 779 3096 
Q 1206 3584 1959 3584 
z
" transform="scale(0.015625)"/>
       <path id="DejaVuSans-68" d="M 3513 2113 
L 3513 0 
L 2938 0 
L 2938 2094 
Q 2938 2591 2744 2837 
Q 2550 3084 2163 3084 
Q 1697 3084 1428 2787 
Q 1159 2491 1159 1978 
L 1159 0 
L 581 0 
L 581 4863 
L 1159 4863 
L 1159 2956 
Q 1366 3272 1645 3428 
Q 1925 3584 2291 3584 
Q 2894 3584 3203 3211 
Q 3513 2838 3513 2113 
z
" transform="scale(0.015625)"/>
       <path id="DejaVuSans-20" transform="scale(0.015625)"/>
       <path id="DejaVuSans-57" d="M 213 4666 
L 850 4666 
L 1831 722 
L 2809 4666 
L 3519 4666 
L 4500 722 
L 5478 4666 
L 6119 4666 
L 4947 0 
L 4153 0 
L 3169 4050 
L 2175 0 
L 1381 0 
L 213 4666 
z
" transform="scale(0.015625)"/>
       <path id="DejaVuSans-76" d="M 191 3500 
L 800 3500 
L 1894 563 
L 2988 3500 
L 3597 3500 
L 2284 0 
L 1503 0 
L 191 3500 
z
" transform="scale(0.015625)"/>
       <path id="DejaVuSans-65" d="M 3597 1894 
L 3597 1613 
L 953 1613 
Q 991 1019 1311 708 
Q 1631 397 2203 397 
Q 2534 397 2845 478 
Q 3156 559 3463 722 
L 3463 178 
Q 3153 47 2828 -22 
Q 2503 -91 2169 -91 
Q 1331 -91 842 396 
Q 353 884 353 1716 
Q 353 2575 817 3079 
Q 1281 3584 2069 3584 
Q 2775 3584 3186 3129 
Q 3597 2675 3597 1894 
z
M 3022 2063 
Q 3016 2534 2758 2815 
Q 2500 3097 2075 3097 
Q 1594 3097 1305 2825 
Q 1016 2553 972 2059 
L 3022 2063 
z
" transform="scale(0.015625)"/>
      </defs>
      <use xlink:href="#DejaVuSans-53"/>
      <use xlink:href="#DejaVuSans-61" x="63.476562"/>
      <use xlink:href="#DejaVuSans-77" x="124.755859"/>
      <use xlink:href="#DejaVuSans-74" x="206.542969"/>
      <use xlink:href="#DejaVuSans-6f" x="245.751953"/>
      <use xlink:href="#DejaVuSans-6f" x="306.933594"/>
      <use xlink:href="#DejaVuSans-74" x="368.115234"/>
      <use xlink:href="#DejaVuSans-68" x="407.324219"/>
      <use xlink:href="#DejaVuSans-20" x="470.703125"/>
      <use xlink:href="#DejaVuSans-57" x="502.490234"/>
      <use xlink:href="#DejaVuSans-61" x="594.992188"/>
      <use xlink:href="#DejaVuSans-76" x="656.271484"/>
      <use xlink:href="#DejaVuSans-65" x="715.451172"/>
     </g>
    </g>
    <g id="line2d_18">
     <path d="M 271.718437 69.248562 
L 281.718437 69.248562 
L 291.718437 69.248562 
" style="fill: none; stroke: #ff7f0e; stroke-width: 1.5; stroke-linecap: square"/>
    </g>
    <g id="text_16">
     <!-- Reconstructed Signal -->
     <g transform="translate(299.718437 72.748562) scale(0.1 -0.1)">
      <defs>
       <path id="DejaVuSans-52" d="M 2841 2188 
Q 3044 2119 3236 1894 
Q 3428 1669 3622 1275 
L 4263 0 
L 3584 0 
L 2988 1197 
Q 2756 1666 2539 1819 
Q 2322 1972 1947 1972 
L 1259 1972 
L 1259 0 
L 628 0 
L 628 4666 
L 2053 4666 
Q 2853 4666 3247 4331 
Q 3641 3997 3641 3322 
Q 3641 2881 3436 2590 
Q 3231 2300 2841 2188 
z
M 1259 4147 
L 1259 2491 
L 2053 2491 
Q 2509 2491 2742 2702 
Q 2975 2913 2975 3322 
Q 2975 3731 2742 3939 
Q 2509 4147 2053 4147 
L 1259 4147 
z
" transform="scale(0.015625)"/>
       <path id="DejaVuSans-63" d="M 3122 3366 
L 3122 2828 
Q 2878 2963 2633 3030 
Q 2388 3097 2138 3097 
Q 1578 3097 1268 2742 
Q 959 2388 959 1747 
Q 959 1106 1268 751 
Q 1578 397 2138 397 
Q 2388 397 2633 464 
Q 2878 531 3122 666 
L 3122 134 
Q 2881 22 2623 -34 
Q 2366 -91 2075 -91 
Q 1284 -91 818 406 
Q 353 903 353 1747 
Q 353 2603 823 3093 
Q 1294 3584 2113 3584 
Q 2378 3584 2631 3529 
Q 2884 3475 3122 3366 
z
" transform="scale(0.015625)"/>
       <path id="DejaVuSans-6e" d="M 3513 2113 
L 3513 0 
L 2938 0 
L 2938 2094 
Q 2938 2591 2744 2837 
Q 2550 3084 2163 3084 
Q 1697 3084 1428 2787 
Q 1159 2491 1159 1978 
L 1159 0 
L 581 0 
L 581 3500 
L 1159 3500 
L 1159 2956 
Q 1366 3272 1645 3428 
Q 1925 3584 2291 3584 
Q 2894 3584 3203 3211 
Q 3513 2838 3513 2113 
z
" transform="scale(0.015625)"/>
       <path id="DejaVuSans-73" d="M 2834 3397 
L 2834 2853 
Q 2591 2978 2328 3040 
Q 2066 3103 1784 3103 
Q 1356 3103 1142 2972 
Q 928 2841 928 2578 
Q 928 2378 1081 2264 
Q 1234 2150 1697 2047 
L 1894 2003 
Q 2506 1872 2764 1633 
Q 3022 1394 3022 966 
Q 3022 478 2636 193 
Q 2250 -91 1575 -91 
Q 1294 -91 989 -36 
Q 684 19 347 128 
L 347 722 
Q 666 556 975 473 
Q 1284 391 1588 391 
Q 1994 391 2212 530 
Q 2431 669 2431 922 
Q 2431 1156 2273 1281 
Q 2116 1406 1581 1522 
L 1381 1569 
Q 847 1681 609 1914 
Q 372 2147 372 2553 
Q 372 3047 722 3315 
Q 1072 3584 1716 3584 
Q 2034 3584 2315 3537 
Q 2597 3491 2834 3397 
z
" transform="scale(0.015625)"/>
       <path id="DejaVuSans-72" d="M 2631 2963 
Q 2534 3019 2420 3045 
Q 2306 3072 2169 3072 
Q 1681 3072 1420 2755 
Q 1159 2438 1159 1844 
L 1159 0 
L 581 0 
L 581 3500 
L 1159 3500 
L 1159 2956 
Q 1341 3275 1631 3429 
Q 1922 3584 2338 3584 
Q 2397 3584 2469 3576 
Q 2541 3569 2628 3553 
L 2631 2963 
z
" transform="scale(0.015625)"/>
       <path id="DejaVuSans-75" d="M 544 1381 
L 544 3500 
L 1119 3500 
L 1119 1403 
Q 1119 906 1312 657 
Q 1506 409 1894 409 
Q 2359 409 2629 706 
Q 2900 1003 2900 1516 
L 2900 3500 
L 3475 3500 
L 3475 0 
L 2900 0 
L 2900 538 
Q 2691 219 2414 64 
Q 2138 -91 1772 -91 
Q 1169 -91 856 284 
Q 544 659 544 1381 
z
M 1991 3584 
L 1991 3584 
z
" transform="scale(0.015625)"/>
       <path id="DejaVuSans-64" d="M 2906 2969 
L 2906 4863 
L 3481 4863 
L 3481 0 
L 2906 0 
L 2906 525 
Q 2725 213 2448 61 
Q 2172 -91 1784 -91 
Q 1150 -91 751 415 
Q 353 922 353 1747 
Q 353 2572 751 3078 
Q 1150 3584 1784 3584 
Q 2172 3584 2448 3432 
Q 2725 3281 2906 2969 
z
M 947 1747 
Q 947 1113 1208 752 
Q 1469 391 1925 391 
Q 2381 391 2643 752 
Q 2906 1113 2906 1747 
Q 2906 2381 2643 2742 
Q 2381 3103 1925 3103 
Q 1469 3103 1208 2742 
Q 947 2381 947 1747 
z
" transform="scale(0.015625)"/>
       <path id="DejaVuSans-69" d="M 603 3500 
L 1178 3500 
L 1178 0 
L 603 0 
L 603 3500 
z
M 603 4863 
L 1178 4863 
L 1178 4134 
L 603 4134 
L 603 4863 
z
" transform="scale(0.015625)"/>
       <path id="DejaVuSans-67" d="M 2906 1791 
Q 2906 2416 2648 2759 
Q 2391 3103 1925 3103 
Q 1463 3103 1205 2759 
Q 947 2416 947 1791 
Q 947 1169 1205 825 
Q 1463 481 1925 481 
Q 2391 481 2648 825 
Q 2906 1169 2906 1791 
z
M 3481 434 
Q 3481 -459 3084 -895 
Q 2688 -1331 1869 -1331 
Q 1566 -1331 1297 -1286 
Q 1028 -1241 775 -1147 
L 775 -588 
Q 1028 -725 1275 -790 
Q 1522 -856 1778 -856 
Q 2344 -856 2625 -561 
Q 2906 -266 2906 331 
L 2906 616 
Q 2728 306 2450 153 
Q 2172 0 1784 0 
Q 1141 0 747 490 
Q 353 981 353 1791 
Q 353 2603 747 3093 
Q 1141 3584 1784 3584 
Q 2172 3584 2450 3431 
Q 2728 3278 2906 2969 
L 2906 3500 
L 3481 3500 
L 3481 434 
z
" transform="scale(0.015625)"/>
       <path id="DejaVuSans-6c" d="M 603 4863 
L 1178 4863 
L 1178 0 
L 603 0 
L 603 4863 
z
" transform="scale(0.015625)"/>
      </defs>
      <use xlink:href="#DejaVuSans-52"/>
      <use xlink:href="#DejaVuSans-65" x="64.982422"/>
      <use xlink:href="#DejaVuSans-63" x="126.505859"/>
      <use xlink:href="#DejaVuSans-6f" x="181.486328"/>
      <use xlink:href="#DejaVuSans-6e" x="242.667969"/>
      <use xlink:href="#DejaVuSans-73" x="306.046875"/>
      <use xlink:href="#DejaVuSans-74" x="358.146484"/>
      <use xlink:href="#DejaVuSans-72" x="397.355469"/>
      <use xlink:href="#DejaVuSans-75" x="438.46875"/>
      <use xlink:href="#DejaVuSans-63" x="501.847656"/>
      <use xlink:href="#DejaVuSans-74" x="556.828125"/>
      <use xlink:href="#DejaVuSans-65" x="596.037109"/>
      <use xlink:href="#DejaVuSans-64" x="657.560547"/>
      <use xlink:href="#DejaVuSans-20" x="721.037109"/>
      <use xlink:href="#DejaVuSans-53" x="752.824219"/>
      <use xlink:href="#DejaVuSans-69" x="816.300781"/>
      <use xlink:href="#DejaVuSans-67" x="844.083984"/>
      <use xlink:href="#DejaVuSans-6e" x="907.560547"/>
      <use xlink:href="#DejaVuSans-61" x="970.939453"/>
      <use xlink:href="#DejaVuSans-6c" x="1032.21875"/>
     </g>
    </g>
   </g>
  </g>
 </g>
 <defs>
  <clipPath id="p7d2eff29c7">
   <rect x="57.6" y="41.472" width="357.12" height="266.112"/>
  </clipPath>
 </defs>
</svg>
