<?xml version="1.0" encoding="utf-8" standalone="no"?>
<!DOCTYPE svg PUBLIC "-//W3C//DTD SVG 1.1//EN"
  "http://www.w3.org/Graphics/SVG/1.1/DTD/svg11.dtd">
<!-- Created with matplotlib (https://matplotlib.org/) -->
<svg height="345.6pt" version="1.1" viewBox="0 0 460.8 345.6" width="460.8pt" xmlns="http://www.w3.org/2000/svg" xmlns:xlink="http://www.w3.org/1999/xlink">
 <defs>
  <style type="text/css">
*{stroke-linecap:butt;stroke-linejoin:round;}
  </style>
 </defs>
 <g id="figure_1">
  <g id="patch_1">
   <path d="M 0 345.6 
L 460.8 345.6 
L 460.8 0 
L 0 0 
z
" style="fill:#ffffff;"/>
  </g>
  <g id="axes_1">
   <g id="patch_2">
    <path d="M 57.6 307.584 
L 414.72 307.584 
L 414.72 41.472 
L 57.6 41.472 
z
" style="fill:#ffffff;"/>
   </g>
   <g id="matplotlib.axis_1">
    <g id="xtick_1">
     <g id="line2d_1">
      <defs>
       <path d="M 0 0 
L 0 3.5 
" id="mc68aa525be" style="stroke:#000000;stroke-width:0.8;"/>
      </defs>
      <g>
       <use style="stroke:#000000;stroke-width:0.8;" x="106.298182" xlink:href="#mc68aa525be" y="307.584"/>
      </g>
     </g>
     <g id="text_1">
      <!-- −0.4 -->
      <defs>
       <path d="M 10.59375 35.5 
L 73.1875 35.5 
L 73.1875 27.203125 
L 10.59375 27.203125 
z
" id="DejaVuSans-8722"/>
       <path d="M 31.78125 66.40625 
Q 24.171875 66.40625 20.328125 58.90625 
Q 16.5 51.421875 16.5 36.375 
Q 16.5 21.390625 20.328125 13.890625 
Q 24.171875 6.390625 31.78125 6.390625 
Q 39.453125 6.390625 43.28125 13.890625 
Q 47.125 21.390625 47.125 36.375 
Q 47.125 51.421875 43.28125 58.90625 
Q 39.453125 66.40625 31.78125 66.40625 
z
M 31.78125 74.21875 
Q 44.046875 74.21875 50.515625 64.515625 
Q 56.984375 54.828125 56.984375 36.375 
Q 56.984375 17.96875 50.515625 8.265625 
Q 44.046875 -1.421875 31.78125 -1.421875 
Q 19.53125 -1.421875 13.0625 8.265625 
Q 6.59375 17.96875 6.59375 36.375 
Q 6.59375 54.828125 13.0625 64.515625 
Q 19.53125 74.21875 31.78125 74.21875 
z
" id="DejaVuSans-48"/>
       <path d="M 10.6875 12.40625 
L 21 12.40625 
L 21 0 
L 10.6875 0 
z
" id="DejaVuSans-46"/>
       <path d="M 37.796875 64.3125 
L 12.890625 25.390625 
L 37.796875 25.390625 
z
M 35.203125 72.90625 
L 47.609375 72.90625 
L 47.609375 25.390625 
L 58.015625 25.390625 
L 58.015625 17.1875 
L 47.609375 17.1875 
L 47.609375 0 
L 37.796875 0 
L 37.796875 17.1875 
L 4.890625 17.1875 
L 4.890625 26.703125 
z
" id="DejaVuSans-52"/>
      </defs>
      <g transform="translate(94.156776 322.182437)scale(0.1 -0.1)">
       <use xlink:href="#DejaVuSans-8722"/>
       <use x="83.789062" xlink:href="#DejaVuSans-48"/>
       <use x="147.412109" xlink:href="#DejaVuSans-46"/>
       <use x="179.199219" xlink:href="#DejaVuSans-52"/>
      </g>
     </g>
    </g>
    <g id="xtick_2">
     <g id="line2d_2">
      <g>
       <use style="stroke:#000000;stroke-width:0.8;" x="171.229091" xlink:href="#mc68aa525be" y="307.584"/>
      </g>
     </g>
     <g id="text_2">
      <!-- −0.2 -->
      <defs>
       <path d="M 19.1875 8.296875 
L 53.609375 8.296875 
L 53.609375 0 
L 7.328125 0 
L 7.328125 8.296875 
Q 12.9375 14.109375 22.625 23.890625 
Q 32.328125 33.6875 34.8125 36.53125 
Q 39.546875 41.84375 41.421875 45.53125 
Q 43.3125 49.21875 43.3125 52.78125 
Q 43.3125 58.59375 39.234375 62.25 
Q 35.15625 65.921875 28.609375 65.921875 
Q 23.96875 65.921875 18.8125 64.3125 
Q 13.671875 62.703125 7.8125 59.421875 
L 7.8125 69.390625 
Q 13.765625 71.78125 18.9375 73 
Q 24.125 74.21875 28.421875 74.21875 
Q 39.75 74.21875 46.484375 68.546875 
Q 53.21875 62.890625 53.21875 53.421875 
Q 53.21875 48.921875 51.53125 44.890625 
Q 49.859375 40.875 45.40625 35.40625 
Q 44.1875 33.984375 37.640625 27.21875 
Q 31.109375 20.453125 19.1875 8.296875 
z
" id="DejaVuSans-50"/>
      </defs>
      <g transform="translate(159.087685 322.182437)scale(0.1 -0.1)">
       <use xlink:href="#DejaVuSans-8722"/>
       <use x="83.789062" xlink:href="#DejaVuSans-48"/>
       <use x="147.412109" xlink:href="#DejaVuSans-46"/>
       <use x="179.199219" xlink:href="#DejaVuSans-50"/>
      </g>
     </g>
    </g>
    <g id="xtick_3">
     <g id="line2d_3">
      <g>
       <use style="stroke:#000000;stroke-width:0.8;" x="236.16" xlink:href="#mc68aa525be" y="307.584"/>
      </g>
     </g>
     <g id="text_3">
      <!-- 0.0 -->
      <g transform="translate(228.208438 322.182437)scale(0.1 -0.1)">
       <use xlink:href="#DejaVuSans-48"/>
       <use x="63.623047" xlink:href="#DejaVuSans-46"/>
       <use x="95.410156" xlink:href="#DejaVuSans-48"/>
      </g>
     </g>
    </g>
    <g id="xtick_4">
     <g id="line2d_4">
      <g>
       <use style="stroke:#000000;stroke-width:0.8;" x="301.090909" xlink:href="#mc68aa525be" y="307.584"/>
      </g>
     </g>
     <g id="text_4">
      <!-- 0.2 -->
      <g transform="translate(293.139347 322.182437)scale(0.1 -0.1)">
       <use xlink:href="#DejaVuSans-48"/>
       <use x="63.623047" xlink:href="#DejaVuSans-46"/>
       <use x="95.410156" xlink:href="#DejaVuSans-50"/>
      </g>
     </g>
    </g>
    <g id="xtick_5">
     <g id="line2d_5">
      <g>
       <use style="stroke:#000000;stroke-width:0.8;" x="366.021818" xlink:href="#mc68aa525be" y="307.584"/>
      </g>
     </g>
     <g id="text_5">
      <!-- 0.4 -->
      <g transform="translate(358.070256 322.182437)scale(0.1 -0.1)">
       <use xlink:href="#DejaVuSans-48"/>
       <use x="63.623047" xlink:href="#DejaVuSans-46"/>
       <use x="95.410156" xlink:href="#DejaVuSans-52"/>
      </g>
     </g>
    </g>
   </g>
   <g id="matplotlib.axis_2">
    <g id="ytick_1">
     <g id="line2d_6">
      <defs>
       <path d="M 0 0 
L -3.5 0 
" id="m4250abd8e5" style="stroke:#000000;stroke-width:0.8;"/>
      </defs>
      <g>
       <use style="stroke:#000000;stroke-width:0.8;" x="57.6" xlink:href="#m4250abd8e5" y="295.609202"/>
      </g>
     </g>
     <g id="text_6">
      <!-- −1.00 -->
      <defs>
       <path d="M 12.40625 8.296875 
L 28.515625 8.296875 
L 28.515625 63.921875 
L 10.984375 60.40625 
L 10.984375 69.390625 
L 28.421875 72.90625 
L 38.28125 72.90625 
L 38.28125 8.296875 
L 54.390625 8.296875 
L 54.390625 0 
L 12.40625 0 
z
" id="DejaVuSans-49"/>
      </defs>
      <g transform="translate(19.954687 299.408421)scale(0.1 -0.1)">
       <use xlink:href="#DejaVuSans-8722"/>
       <use x="83.789062" xlink:href="#DejaVuSans-49"/>
       <use x="147.412109" xlink:href="#DejaVuSans-46"/>
       <use x="179.199219" xlink:href="#DejaVuSans-48"/>
       <use x="242.822266" xlink:href="#DejaVuSans-48"/>
      </g>
     </g>
    </g>
    <g id="ytick_2">
     <g id="line2d_7">
      <g>
       <use style="stroke:#000000;stroke-width:0.8;" x="57.6" xlink:href="#m4250abd8e5" y="265.338902"/>
      </g>
     </g>
     <g id="text_7">
      <!-- −0.75 -->
      <defs>
       <path d="M 8.203125 72.90625 
L 55.078125 72.90625 
L 55.078125 68.703125 
L 28.609375 0 
L 18.3125 0 
L 43.21875 64.59375 
L 8.203125 64.59375 
z
" id="DejaVuSans-55"/>
       <path d="M 10.796875 72.90625 
L 49.515625 72.90625 
L 49.515625 64.59375 
L 19.828125 64.59375 
L 19.828125 46.734375 
Q 21.96875 47.46875 24.109375 47.828125 
Q 26.265625 48.1875 28.421875 48.1875 
Q 40.625 48.1875 47.75 41.5 
Q 54.890625 34.8125 54.890625 23.390625 
Q 54.890625 11.625 47.5625 5.09375 
Q 40.234375 -1.421875 26.90625 -1.421875 
Q 22.3125 -1.421875 17.546875 -0.640625 
Q 12.796875 0.140625 7.71875 1.703125 
L 7.71875 11.625 
Q 12.109375 9.234375 16.796875 8.0625 
Q 21.484375 6.890625 26.703125 6.890625 
Q 35.15625 6.890625 40.078125 11.328125 
Q 45.015625 15.765625 45.015625 23.390625 
Q 45.015625 31 40.078125 35.4375 
Q 35.15625 39.890625 26.703125 39.890625 
Q 22.75 39.890625 18.8125 39.015625 
Q 14.890625 38.140625 10.796875 36.28125 
z
" id="DejaVuSans-53"/>
      </defs>
      <g transform="translate(19.954687 269.138121)scale(0.1 -0.1)">
       <use xlink:href="#DejaVuSans-8722"/>
       <use x="83.789062" xlink:href="#DejaVuSans-48"/>
       <use x="147.412109" xlink:href="#DejaVuSans-46"/>
       <use x="179.199219" xlink:href="#DejaVuSans-55"/>
       <use x="242.822266" xlink:href="#DejaVuSans-53"/>
      </g>
     </g>
    </g>
    <g id="ytick_3">
     <g id="line2d_8">
      <g>
       <use style="stroke:#000000;stroke-width:0.8;" x="57.6" xlink:href="#m4250abd8e5" y="235.068601"/>
      </g>
     </g>
     <g id="text_8">
      <!-- −0.50 -->
      <g transform="translate(19.954687 238.86782)scale(0.1 -0.1)">
       <use xlink:href="#DejaVuSans-8722"/>
       <use x="83.789062" xlink:href="#DejaVuSans-48"/>
       <use x="147.412109" xlink:href="#DejaVuSans-46"/>
       <use x="179.199219" xlink:href="#DejaVuSans-53"/>
       <use x="242.822266" xlink:href="#DejaVuSans-48"/>
      </g>
     </g>
    </g>
    <g id="ytick_4">
     <g id="line2d_9">
      <g>
       <use style="stroke:#000000;stroke-width:0.8;" x="57.6" xlink:href="#m4250abd8e5" y="204.798301"/>
      </g>
     </g>
     <g id="text_9">
      <!-- −0.25 -->
      <g transform="translate(19.954687 208.597519)scale(0.1 -0.1)">
       <use xlink:href="#DejaVuSans-8722"/>
       <use x="83.789062" xlink:href="#DejaVuSans-48"/>
       <use x="147.412109" xlink:href="#DejaVuSans-46"/>
       <use x="179.199219" xlink:href="#DejaVuSans-50"/>
       <use x="242.822266" xlink:href="#DejaVuSans-53"/>
      </g>
     </g>
    </g>
    <g id="ytick_5">
     <g id="line2d_10">
      <g>
       <use style="stroke:#000000;stroke-width:0.8;" x="57.6" xlink:href="#m4250abd8e5" y="174.528"/>
      </g>
     </g>
     <g id="text_10">
      <!-- 0.00 -->
      <g transform="translate(28.334375 178.327219)scale(0.1 -0.1)">
       <use xlink:href="#DejaVuSans-48"/>
       <use x="63.623047" xlink:href="#DejaVuSans-46"/>
       <use x="95.410156" xlink:href="#DejaVuSans-48"/>
       <use x="159.033203" xlink:href="#DejaVuSans-48"/>
      </g>
     </g>
    </g>
    <g id="ytick_6">
     <g id="line2d_11">
      <g>
       <use style="stroke:#000000;stroke-width:0.8;" x="57.6" xlink:href="#m4250abd8e5" y="144.257699"/>
      </g>
     </g>
     <g id="text_11">
      <!-- 0.25 -->
      <g transform="translate(28.334375 148.056918)scale(0.1 -0.1)">
       <use xlink:href="#DejaVuSans-48"/>
       <use x="63.623047" xlink:href="#DejaVuSans-46"/>
       <use x="95.410156" xlink:href="#DejaVuSans-50"/>
       <use x="159.033203" xlink:href="#DejaVuSans-53"/>
      </g>
     </g>
    </g>
    <g id="ytick_7">
     <g id="line2d_12">
      <g>
       <use style="stroke:#000000;stroke-width:0.8;" x="57.6" xlink:href="#m4250abd8e5" y="113.987399"/>
      </g>
     </g>
     <g id="text_12">
      <!-- 0.50 -->
      <g transform="translate(28.334375 117.786618)scale(0.1 -0.1)">
       <use xlink:href="#DejaVuSans-48"/>
       <use x="63.623047" xlink:href="#DejaVuSans-46"/>
       <use x="95.410156" xlink:href="#DejaVuSans-53"/>
       <use x="159.033203" xlink:href="#DejaVuSans-48"/>
      </g>
     </g>
    </g>
    <g id="ytick_8">
     <g id="line2d_13">
      <g>
       <use style="stroke:#000000;stroke-width:0.8;" x="57.6" xlink:href="#m4250abd8e5" y="83.717098"/>
      </g>
     </g>
     <g id="text_13">
      <!-- 0.75 -->
      <g transform="translate(28.334375 87.516317)scale(0.1 -0.1)">
       <use xlink:href="#DejaVuSans-48"/>
       <use x="63.623047" xlink:href="#DejaVuSans-46"/>
       <use x="95.410156" xlink:href="#DejaVuSans-55"/>
       <use x="159.033203" xlink:href="#DejaVuSans-53"/>
      </g>
     </g>
    </g>
    <g id="ytick_9">
     <g id="line2d_14">
      <g>
       <use style="stroke:#000000;stroke-width:0.8;" x="57.6" xlink:href="#m4250abd8e5" y="53.446798"/>
      </g>
     </g>
     <g id="text_14">
      <!-- 1.00 -->
      <g transform="translate(28.334375 57.246016)scale(0.1 -0.1)">
       <use xlink:href="#DejaVuSans-49"/>
       <use x="63.623047" xlink:href="#DejaVuSans-46"/>
       <use x="95.410156" xlink:href="#DejaVuSans-48"/>
       <use x="159.033203" xlink:href="#DejaVuSans-48"/>
      </g>
     </g>
    </g>
   </g>
   <g id="line2d_15">
    <path clip-path="url(#pea30364e51)" d="M 73.832727 174.528 
L 235.99751 53.568 
L 236.32249 295.488 
L 398.487273 174.528 
L 398.487273 174.528 
" style="fill:none;stroke:#1f77b4;stroke-linecap:square;stroke-width:1.5;"/>
   </g>
   <g id="line2d_16">
    <path clip-path="url(#pea30364e51)" d="M 73.832727 174.54012 
L 74.482686 174.473299 
L 75.132645 174.111305 
L 76.107584 173.485842 
L 76.757543 173.376748 
L 77.732482 173.268165 
L 78.382441 172.886854 
L 79.357379 172.2727 
L 80.007338 172.173347 
L 80.657297 172.146575 
L 81.307256 171.891121 
L 82.607174 171.060505 
L 83.257133 170.968179 
L 83.907093 170.938808 
L 84.557052 170.675056 
L 85.85697 169.84843 
L 86.506929 169.76257 
L 87.156888 169.730755 
L 87.806847 169.459132 
L 89.106765 168.636388 
L 89.756724 168.556815 
L 90.406683 168.522607 
L 91.056642 168.243253 
L 92.35656 167.424361 
L 93.006519 167.351022 
L 93.656478 167.314433 
L 94.306437 167.027376 
L 95.606355 166.212342 
L 96.581294 166.145246 
L 97.231253 165.99652 
L 99.18113 164.944914 
L 100.156069 164.898135 
L 100.806028 164.595534 
L 101.780966 163.915102 
L 102.430925 163.736834 
L 103.405864 163.690048 
L 104.055823 163.379536 
L 105.030762 162.699112 
L 105.680721 162.528816 
L 106.655659 162.482022 
L 107.305618 162.16347 
L 108.280557 161.483055 
L 108.930516 161.320873 
L 109.905455 161.274069 
L 110.555414 160.947323 
L 111.530352 160.266918 
L 112.180311 160.113018 
L 113.15525 160.066202 
L 113.805209 159.731081 
L 114.780147 159.050689 
L 115.430106 158.905264 
L 116.405045 158.858435 
L 117.055004 158.514732 
L 118.029943 157.834354 
L 118.679902 157.697624 
L 119.65484 157.65078 
L 120.304799 157.298261 
L 121.279738 156.617899 
L 121.929697 156.490112 
L 122.904636 156.443252 
L 123.554595 156.081654 
L 124.529533 155.401309 
L 125.179492 155.282746 
L 126.154431 155.235867 
L 126.80439 154.864893 
L 127.779328 154.184569 
L 128.429287 154.075542 
L 129.404226 154.028642 
L 130.054185 153.647961 
L 131.029124 152.967659 
L 131.679083 152.868519 
L 132.329042 152.890111 
L 132.979001 152.663927 
L 134.278919 151.75056 
L 134.928878 151.661699 
L 135.578837 151.686487 
L 136.228796 151.451846 
L 137.528714 150.53325 
L 138.178673 150.455105 
L 138.828632 150.483226 
L 139.478591 150.239758 
L 140.778509 149.315704 
L 141.428468 149.248765 
L 142.078428 149.280372 
L 142.728387 149.027662 
L 144.028305 148.097893 
L 144.678264 148.042708 
L 145.328223 148.077975 
L 145.978182 147.815557 
L 147.2781 146.879786 
L 147.928059 146.83697 
L 148.578018 146.876089 
L 149.227977 146.603443 
L 150.527895 145.661346 
L 151.177854 145.63159 
L 151.827813 145.674779 
L 152.477772 145.391317 
L 153.77769 144.442532 
L 154.427649 144.426614 
L 155.077609 144.474119 
L 155.727568 144.179178 
L 156.702506 143.368715 
L 157.352465 143.184862 
L 158.327404 143.274195 
L 158.977363 142.967023 
L 159.952301 142.144186 
L 160.60226 141.972977 
L 161.577199 142.075107 
L 162.227158 141.754849 
L 163.202097 140.918765 
L 163.852056 140.761113 
L 164.826994 140.876973 
L 165.476953 140.542654 
L 166.451892 139.692322 
L 167.101851 139.549272 
L 168.07679 139.679935 
L 168.401769 139.564493 
L 169.051728 139.020483 
L 169.701687 138.464704 
L 170.026667 138.340805 
L 170.676626 138.410047 
L 171.326585 138.48416 
L 171.651564 138.362457 
L 172.301523 137.797927 
L 172.951482 137.235724 
L 173.276462 137.118361 
L 173.926421 137.20903 
L 174.57638 137.289853 
L 174.90136 137.161319 
L 175.551319 136.574382 
L 176.201278 136.00516 
L 176.526257 135.894947 
L 177.176216 136.009084 
L 177.826175 136.097261 
L 178.151155 135.961231 
L 179.776052 134.670396 
L 180.426011 134.810399 
L 181.075971 134.906693 
L 181.40095 134.762378 
L 183.025848 133.444498 
L 183.675807 133.613217 
L 184.325766 133.718529 
L 184.650745 133.564994 
L 186.275643 132.216993 
L 186.925602 132.41784 
L 187.575561 132.533256 
L 187.900541 132.369374 
L 189.200459 131.060402 
L 189.525438 130.987548 
L 190.175397 131.224659 
L 190.500377 131.351495 
L 190.825356 131.351495 
L 191.150336 131.175896 
L 192.450254 129.816067 
L 192.775233 129.755731 
L 193.425192 130.034184 
L 193.750172 130.174061 
L 194.075152 130.174061 
L 194.400131 129.985053 
L 195.700049 128.566905 
L 196.025029 128.520976 
L 197.324947 129.002037 
L 197.649926 128.7975 
L 198.949844 127.311653 
L 199.274824 127.282518 
L 200.574742 127.836901 
L 200.899722 127.614131 
L 202.19964 126.04857 
L 202.524619 126.039309 
L 203.824537 126.680718 
L 204.149517 126.436191 
L 205.449435 124.775185 
L 205.774414 124.789859 
L 206.749353 125.536471 
L 207.074333 125.536471 
L 207.399312 125.265472 
L 208.69923 123.487866 
L 209.02421 123.531991 
L 209.999148 124.408627 
L 210.324128 124.408627 
L 210.649107 124.10465 
L 211.624046 122.42346 
L 211.949025 122.181055 
L 212.274005 122.262381 
L 213.248943 123.304195 
L 213.573923 123.304195 
L 213.898903 122.957902 
L 214.873841 121.08819 
L 215.198821 120.845786 
L 215.5238 120.9757 
L 216.498739 122.234831 
L 216.823718 122.234831 
L 217.148698 121.832137 
L 218.123636 119.709021 
L 218.448616 119.466616 
L 218.773595 119.662834 
L 219.748534 121.221443 
L 220.073514 121.221443 
L 220.398493 120.739637 
L 221.373432 118.256908 
L 221.698411 118.014503 
L 222.023391 118.306817 
L 222.998329 120.30562 
L 223.323309 120.30562 
L 223.648288 119.704518 
L 224.623227 116.67007 
L 224.948206 116.427665 
L 225.273186 116.87216 
L 226.248124 119.583422 
L 226.573104 119.583422 
L 226.898084 118.78127 
L 227.873022 114.7902 
L 228.198002 114.547795 
L 228.522981 115.270661 
L 229.49792 119.336689 
L 229.822899 119.336689 
L 230.147879 118.122645 
L 231.122817 112.057971 
L 231.447797 111.815566 
L 231.772776 113.213408 
L 232.747715 120.877664 
L 233.072695 120.877664 
L 233.397674 118.338075 
L 234.372613 104.284701 
L 234.697592 104.042296 
L 235.022572 109.486248 
L 235.347551 121.545561 
L 235.99751 162.41988 
L 236.972449 227.510439 
L 237.297428 239.569752 
L 237.622408 245.013704 
L 237.947387 244.771299 
L 238.272367 240.776818 
L 238.922326 230.717925 
L 239.247305 228.178336 
L 239.572285 228.178336 
L 239.897265 230.213823 
L 240.547224 235.842592 
L 240.872203 237.240434 
L 241.197183 236.998029 
L 241.522162 235.364091 
L 242.172121 230.933355 
L 242.497101 229.719311 
L 242.82208 229.719311 
L 243.14706 230.773357 
L 243.797019 233.785339 
L 244.121998 234.508205 
L 244.446978 234.2658 
L 244.771957 233.177178 
L 245.421916 230.27473 
L 245.746896 229.472578 
L 246.071876 229.472578 
L 246.396855 230.177886 
L 247.046814 232.18384 
L 247.371794 232.628335 
L 247.696773 232.38593 
L 248.346732 230.395235 
L 248.671712 229.351482 
L 248.996691 228.75038 
L 249.321671 228.75038 
L 249.64665 229.276701 
L 250.296609 230.749183 
L 250.621589 231.041497 
L 250.946568 230.799092 
L 251.596527 229.157943 
L 251.921507 228.316363 
L 252.246486 227.834557 
L 252.571466 227.834557 
L 252.896446 228.251787 
L 253.546405 229.393166 
L 253.871384 229.589384 
L 254.196364 229.346979 
L 254.846323 227.932563 
L 255.171302 227.223863 
L 255.496282 226.821169 
L 255.821261 226.821169 
L 256.47122 227.664771 
L 256.7962 228.0803 
L 257.121179 228.210214 
L 257.446159 227.96781 
L 258.746077 225.751805 
L 259.071057 225.751805 
L 259.721016 226.459013 
L 260.045995 226.793619 
L 260.370975 226.874945 
L 260.695954 226.63254 
L 261.995872 224.647373 
L 262.320852 224.647373 
L 263.62077 225.568134 
L 263.945749 225.325729 
L 265.245667 223.519529 
L 265.570647 223.519529 
L 266.870565 224.280815 
L 267.195545 224.03841 
L 268.495463 222.375282 
L 268.820442 222.375282 
L 269.795381 223.016691 
L 270.12036 223.00743 
L 270.44534 222.765025 
L 271.745258 221.219099 
L 272.070238 221.219099 
L 273.045176 221.773482 
L 273.370156 221.744347 
L 273.695135 221.501943 
L 274.995053 220.053963 
L 275.320033 220.053963 
L 276.294971 220.535024 
L 276.619951 220.489095 
L 276.94493 220.24669 
L 277.919869 219.070947 
L 278.244848 218.881939 
L 278.569828 218.881939 
L 279.544767 219.300269 
L 279.869746 219.239933 
L 280.519705 218.621991 
L 281.169664 217.880104 
L 281.494644 217.704505 
L 281.819623 217.704505 
L 282.794562 218.068452 
L 283.119541 217.995598 
L 283.7695 217.389844 
L 284.419459 216.686626 
L 284.744439 216.522744 
L 285.069419 216.522744 
L 286.044357 216.839007 
L 286.369337 216.755155 
L 287.019296 216.16013 
L 287.669255 215.491006 
L 287.994234 215.337471 
L 288.644193 215.442783 
L 289.294152 215.611502 
L 289.619132 215.517894 
L 290.269091 214.932405 
L 290.91905 214.293622 
L 291.244029 214.149307 
L 291.893989 214.245601 
L 292.543948 214.385604 
L 292.868927 214.283265 
L 293.518886 213.706324 
L 294.168845 213.094769 
L 294.493825 212.958739 
L 295.143784 213.046916 
L 295.793743 213.161053 
L 296.118722 213.05084 
L 296.768681 212.481618 
L 297.41864 211.894681 
L 297.74362 211.766147 
L 298.393579 211.84697 
L 299.043538 211.937639 
L 299.368518 211.820276 
L 300.018477 211.258073 
L 300.668436 210.693543 
L 300.993415 210.57184 
L 301.643374 210.645953 
L 302.293333 210.715195 
L 302.943292 210.348892 
L 303.918231 209.491507 
L 304.56819 209.376065 
L 305.543129 209.493583 
L 306.193088 209.121273 
L 307.168026 208.288698 
L 307.817985 208.179027 
L 308.792924 208.272691 
L 309.442883 207.89483 
L 310.417821 207.085218 
L 311.067781 206.980893 
L 312.042719 207.052425 
L 312.692678 206.669409 
L 313.667617 205.881153 
L 314.317576 205.781805 
L 315.292514 205.832707 
L 315.942473 205.444881 
L 316.917412 204.676576 
L 317.567371 204.581881 
L 318.54231 204.613468 
L 319.192269 204.221136 
L 320.167207 203.471548 
L 320.817166 203.381221 
L 321.467125 203.447321 
L 322.117084 203.240488 
L 323.417002 202.266121 
L 324.066962 202.179911 
L 324.716921 202.235393 
L 325.36688 202.018046 
L 326.666798 201.060342 
L 327.316757 200.978025 
L 327.966716 201.023454 
L 328.616675 200.796147 
L 329.916593 199.854248 
L 330.566552 199.775628 
L 331.216511 199.811506 
L 331.86647 199.574731 
L 333.166388 198.647875 
L 333.816347 198.572774 
L 334.466306 198.59955 
L 335.116265 198.353746 
L 336.416183 197.441251 
L 337.066143 197.369513 
L 337.716102 197.387586 
L 338.366061 197.133146 
L 339.665979 196.234405 
L 340.315938 196.165889 
L 340.965897 196.175617 
L 341.615856 195.91289 
L 342.915774 195.027358 
L 343.565733 194.961938 
L 344.215692 194.963641 
L 344.865651 194.692942 
L 346.165569 193.820133 
L 346.815528 193.757697 
L 347.465487 193.75166 
L 348.115446 193.473269 
L 349.415364 192.612748 
L 350.065324 192.553194 
L 350.715283 192.539675 
L 351.365242 192.253843 
L 352.66516 191.40522 
L 353.315119 191.348459 
L 353.965078 191.327685 
L 354.615037 191.034637 
L 355.914955 190.197565 
L 356.564914 190.143517 
L 357.214873 190.115692 
L 357.864832 189.815625 
L 358.839771 189.119693 
L 359.48973 188.938391 
L 360.464668 188.903695 
L 361.114627 188.596786 
L 362.089566 187.907644 
L 362.739525 187.733104 
L 363.714464 187.691694 
L 364.364423 187.378099 
L 365.339361 186.695598 
L 365.98932 186.527676 
L 366.964259 186.479691 
L 367.614218 186.159542 
L 368.589156 185.483555 
L 369.239115 185.322127 
L 370.214054 185.267684 
L 370.864013 184.941094 
L 371.838952 184.271516 
L 372.488911 184.11648 
L 373.463849 184.055673 
L 374.113808 183.722736 
L 375.088747 183.05948 
L 375.738706 182.910754 
L 376.713645 182.843658 
L 377.363604 182.504442 
L 378.338542 181.847449 
L 378.988501 181.704978 
L 379.96344 181.631639 
L 380.613399 181.286184 
L 381.588337 180.635424 
L 382.238296 180.499185 
L 383.213235 180.419612 
L 383.863194 180.067919 
L 384.838133 179.423409 
L 385.488092 179.29343 
L 386.46303 179.20757 
L 387.112989 178.849572 
L 388.087928 178.211414 
L 388.737887 178.087821 
L 389.712826 177.995495 
L 390.362785 177.630974 
L 391.337723 176.99948 
L 391.987682 176.882653 
L 392.962621 176.7833 
L 393.61258 176.411551 
L 394.587518 175.787835 
L 395.237477 175.679252 
L 396.212416 175.570158 
L 396.862375 175.1871 
L 397.837314 174.582701 
L 398.487273 174.51588 
L 398.487273 174.51588 
" style="fill:none;stroke:#ff7f0e;stroke-linecap:square;stroke-width:1.5;"/>
   </g>
   <g id="patch_3">
    <path d="M 57.6 307.584 
L 57.6 41.472 
" style="fill:none;stroke:#000000;stroke-linecap:square;stroke-linejoin:miter;stroke-width:0.8;"/>
   </g>
   <g id="patch_4">
    <path d="M 414.72 307.584 
L 414.72 41.472 
" style="fill:none;stroke:#000000;stroke-linecap:square;stroke-linejoin:miter;stroke-width:0.8;"/>
   </g>
   <g id="patch_5">
    <path d="M 57.6 307.584 
L 414.72 307.584 
" style="fill:none;stroke:#000000;stroke-linecap:square;stroke-linejoin:miter;stroke-width:0.8;"/>
   </g>
   <g id="patch_6">
    <path d="M 57.6 41.472 
L 414.72 41.472 
" style="fill:none;stroke:#000000;stroke-linecap:square;stroke-linejoin:miter;stroke-width:0.8;"/>
   </g>
   <g id="legend_1">
    <g id="patch_7">
     <path d="M 269.274688 78.82825 
L 407.72 78.82825 
Q 409.72 78.82825 409.72 76.82825 
L 409.72 48.472 
Q 409.72 46.472 407.72 46.472 
L 269.274688 46.472 
Q 267.274688 46.472 267.274688 48.472 
L 267.274688 76.82825 
Q 267.274688 78.82825 269.274688 78.82825 
z
" style="fill:#ffffff;opacity:0.8;stroke:#cccccc;stroke-linejoin:miter;"/>
    </g>
    <g id="line2d_17">
     <path d="M 271.274688 54.570437 
L 291.274688 54.570437 
" style="fill:none;stroke:#1f77b4;stroke-linecap:square;stroke-width:1.5;"/>
    </g>
    <g id="line2d_18"/>
    <g id="text_15">
     <!-- Sawtooth Wave -->
     <defs>
      <path d="M 53.515625 70.515625 
L 53.515625 60.890625 
Q 47.90625 63.578125 42.921875 64.890625 
Q 37.9375 66.21875 33.296875 66.21875 
Q 25.25 66.21875 20.875 63.09375 
Q 16.5 59.96875 16.5 54.203125 
Q 16.5 49.359375 19.40625 46.890625 
Q 22.3125 44.4375 30.421875 42.921875 
L 36.375 41.703125 
Q 47.40625 39.59375 52.65625 34.296875 
Q 57.90625 29 57.90625 20.125 
Q 57.90625 9.515625 50.796875 4.046875 
Q 43.703125 -1.421875 29.984375 -1.421875 
Q 24.8125 -1.421875 18.96875 -0.25 
Q 13.140625 0.921875 6.890625 3.21875 
L 6.890625 13.375 
Q 12.890625 10.015625 18.65625 8.296875 
Q 24.421875 6.59375 29.984375 6.59375 
Q 38.421875 6.59375 43.015625 9.90625 
Q 47.609375 13.234375 47.609375 19.390625 
Q 47.609375 24.75 44.3125 27.78125 
Q 41.015625 30.8125 33.5 32.328125 
L 27.484375 33.5 
Q 16.453125 35.6875 11.515625 40.375 
Q 6.59375 45.0625 6.59375 53.421875 
Q 6.59375 63.09375 13.40625 68.65625 
Q 20.21875 74.21875 32.171875 74.21875 
Q 37.3125 74.21875 42.625 73.28125 
Q 47.953125 72.359375 53.515625 70.515625 
z
" id="DejaVuSans-83"/>
      <path d="M 34.28125 27.484375 
Q 23.390625 27.484375 19.1875 25 
Q 14.984375 22.515625 14.984375 16.5 
Q 14.984375 11.71875 18.140625 8.90625 
Q 21.296875 6.109375 26.703125 6.109375 
Q 34.1875 6.109375 38.703125 11.40625 
Q 43.21875 16.703125 43.21875 25.484375 
L 43.21875 27.484375 
z
M 52.203125 31.203125 
L 52.203125 0 
L 43.21875 0 
L 43.21875 8.296875 
Q 40.140625 3.328125 35.546875 0.953125 
Q 30.953125 -1.421875 24.3125 -1.421875 
Q 15.921875 -1.421875 10.953125 3.296875 
Q 6 8.015625 6 15.921875 
Q 6 25.140625 12.171875 29.828125 
Q 18.359375 34.515625 30.609375 34.515625 
L 43.21875 34.515625 
L 43.21875 35.40625 
Q 43.21875 41.609375 39.140625 45 
Q 35.0625 48.390625 27.6875 48.390625 
Q 23 48.390625 18.546875 47.265625 
Q 14.109375 46.140625 10.015625 43.890625 
L 10.015625 52.203125 
Q 14.9375 54.109375 19.578125 55.046875 
Q 24.21875 56 28.609375 56 
Q 40.484375 56 46.34375 49.84375 
Q 52.203125 43.703125 52.203125 31.203125 
z
" id="DejaVuSans-97"/>
      <path d="M 4.203125 54.6875 
L 13.1875 54.6875 
L 24.421875 12.015625 
L 35.59375 54.6875 
L 46.1875 54.6875 
L 57.421875 12.015625 
L 68.609375 54.6875 
L 77.59375 54.6875 
L 63.28125 0 
L 52.6875 0 
L 40.921875 44.828125 
L 29.109375 0 
L 18.5 0 
z
" id="DejaVuSans-119"/>
      <path d="M 18.3125 70.21875 
L 18.3125 54.6875 
L 36.8125 54.6875 
L 36.8125 47.703125 
L 18.3125 47.703125 
L 18.3125 18.015625 
Q 18.3125 11.328125 20.140625 9.421875 
Q 21.96875 7.515625 27.59375 7.515625 
L 36.8125 7.515625 
L 36.8125 0 
L 27.59375 0 
Q 17.1875 0 13.234375 3.875 
Q 9.28125 7.765625 9.28125 18.015625 
L 9.28125 47.703125 
L 2.6875 47.703125 
L 2.6875 54.6875 
L 9.28125 54.6875 
L 9.28125 70.21875 
z
" id="DejaVuSans-116"/>
      <path d="M 30.609375 48.390625 
Q 23.390625 48.390625 19.1875 42.75 
Q 14.984375 37.109375 14.984375 27.296875 
Q 14.984375 17.484375 19.15625 11.84375 
Q 23.34375 6.203125 30.609375 6.203125 
Q 37.796875 6.203125 41.984375 11.859375 
Q 46.1875 17.53125 46.1875 27.296875 
Q 46.1875 37.015625 41.984375 42.703125 
Q 37.796875 48.390625 30.609375 48.390625 
z
M 30.609375 56 
Q 42.328125 56 49.015625 48.375 
Q 55.71875 40.765625 55.71875 27.296875 
Q 55.71875 13.875 49.015625 6.21875 
Q 42.328125 -1.421875 30.609375 -1.421875 
Q 18.84375 -1.421875 12.171875 6.21875 
Q 5.515625 13.875 5.515625 27.296875 
Q 5.515625 40.765625 12.171875 48.375 
Q 18.84375 56 30.609375 56 
z
" id="DejaVuSans-111"/>
      <path d="M 54.890625 33.015625 
L 54.890625 0 
L 45.90625 0 
L 45.90625 32.71875 
Q 45.90625 40.484375 42.875 44.328125 
Q 39.84375 48.1875 33.796875 48.1875 
Q 26.515625 48.1875 22.3125 43.546875 
Q 18.109375 38.921875 18.109375 30.90625 
L 18.109375 0 
L 9.078125 0 
L 9.078125 75.984375 
L 18.109375 75.984375 
L 18.109375 46.1875 
Q 21.34375 51.125 25.703125 53.5625 
Q 30.078125 56 35.796875 56 
Q 45.21875 56 50.046875 50.171875 
Q 54.890625 44.34375 54.890625 33.015625 
z
" id="DejaVuSans-104"/>
      <path id="DejaVuSans-32"/>
      <path d="M 3.328125 72.90625 
L 13.28125 72.90625 
L 28.609375 11.28125 
L 43.890625 72.90625 
L 54.984375 72.90625 
L 70.3125 11.28125 
L 85.59375 72.90625 
L 95.609375 72.90625 
L 77.296875 0 
L 64.890625 0 
L 49.515625 63.28125 
L 33.984375 0 
L 21.578125 0 
z
" id="DejaVuSans-87"/>
      <path d="M 2.984375 54.6875 
L 12.5 54.6875 
L 29.59375 8.796875 
L 46.6875 54.6875 
L 56.203125 54.6875 
L 35.6875 0 
L 23.484375 0 
z
" id="DejaVuSans-118"/>
      <path d="M 56.203125 29.59375 
L 56.203125 25.203125 
L 14.890625 25.203125 
Q 15.484375 15.921875 20.484375 11.0625 
Q 25.484375 6.203125 34.421875 6.203125 
Q 39.59375 6.203125 44.453125 7.46875 
Q 49.3125 8.734375 54.109375 11.28125 
L 54.109375 2.78125 
Q 49.265625 0.734375 44.1875 -0.34375 
Q 39.109375 -1.421875 33.890625 -1.421875 
Q 20.796875 -1.421875 13.15625 6.1875 
Q 5.515625 13.8125 5.515625 26.8125 
Q 5.515625 40.234375 12.765625 48.109375 
Q 20.015625 56 32.328125 56 
Q 43.359375 56 49.78125 48.890625 
Q 56.203125 41.796875 56.203125 29.59375 
z
M 47.21875 32.234375 
Q 47.125 39.59375 43.09375 43.984375 
Q 39.0625 48.390625 32.421875 48.390625 
Q 24.90625 48.390625 20.390625 44.140625 
Q 15.875 39.890625 15.1875 32.171875 
z
" id="DejaVuSans-101"/>
     </defs>
     <g transform="translate(299.274688 58.070437)scale(0.1 -0.1)">
      <use xlink:href="#DejaVuSans-83"/>
      <use x="63.476562" xlink:href="#DejaVuSans-97"/>
      <use x="124.755859" xlink:href="#DejaVuSans-119"/>
      <use x="206.542969" xlink:href="#DejaVuSans-116"/>
      <use x="245.751953" xlink:href="#DejaVuSans-111"/>
      <use x="306.933594" xlink:href="#DejaVuSans-111"/>
      <use x="368.115234" xlink:href="#DejaVuSans-116"/>
      <use x="407.324219" xlink:href="#DejaVuSans-104"/>
      <use x="470.703125" xlink:href="#DejaVuSans-32"/>
      <use x="502.490234" xlink:href="#DejaVuSans-87"/>
      <use x="601.273438" xlink:href="#DejaVuSans-97"/>
      <use x="662.552734" xlink:href="#DejaVuSans-118"/>
      <use x="721.732422" xlink:href="#DejaVuSans-101"/>
     </g>
    </g>
    <g id="line2d_19">
     <path d="M 271.274688 69.248562 
L 291.274688 69.248562 
" style="fill:none;stroke:#ff7f0e;stroke-linecap:square;stroke-width:1.5;"/>
    </g>
    <g id="line2d_20"/>
    <g id="text_16">
     <!-- Reconstructed Signal -->
     <defs>
      <path d="M 44.390625 34.1875 
Q 47.5625 33.109375 50.5625 29.59375 
Q 53.5625 26.078125 56.59375 19.921875 
L 66.609375 0 
L 56 0 
L 46.6875 18.703125 
Q 43.0625 26.03125 39.671875 28.421875 
Q 36.28125 30.8125 30.421875 30.8125 
L 19.671875 30.8125 
L 19.671875 0 
L 9.8125 0 
L 9.8125 72.90625 
L 32.078125 72.90625 
Q 44.578125 72.90625 50.734375 67.671875 
Q 56.890625 62.453125 56.890625 51.90625 
Q 56.890625 45.015625 53.6875 40.46875 
Q 50.484375 35.9375 44.390625 34.1875 
z
M 19.671875 64.796875 
L 19.671875 38.921875 
L 32.078125 38.921875 
Q 39.203125 38.921875 42.84375 42.21875 
Q 46.484375 45.515625 46.484375 51.90625 
Q 46.484375 58.296875 42.84375 61.546875 
Q 39.203125 64.796875 32.078125 64.796875 
z
" id="DejaVuSans-82"/>
      <path d="M 48.78125 52.59375 
L 48.78125 44.1875 
Q 44.96875 46.296875 41.140625 47.34375 
Q 37.3125 48.390625 33.40625 48.390625 
Q 24.65625 48.390625 19.8125 42.84375 
Q 14.984375 37.3125 14.984375 27.296875 
Q 14.984375 17.28125 19.8125 11.734375 
Q 24.65625 6.203125 33.40625 6.203125 
Q 37.3125 6.203125 41.140625 7.25 
Q 44.96875 8.296875 48.78125 10.40625 
L 48.78125 2.09375 
Q 45.015625 0.34375 40.984375 -0.53125 
Q 36.96875 -1.421875 32.421875 -1.421875 
Q 20.0625 -1.421875 12.78125 6.34375 
Q 5.515625 14.109375 5.515625 27.296875 
Q 5.515625 40.671875 12.859375 48.328125 
Q 20.21875 56 33.015625 56 
Q 37.15625 56 41.109375 55.140625 
Q 45.0625 54.296875 48.78125 52.59375 
z
" id="DejaVuSans-99"/>
      <path d="M 54.890625 33.015625 
L 54.890625 0 
L 45.90625 0 
L 45.90625 32.71875 
Q 45.90625 40.484375 42.875 44.328125 
Q 39.84375 48.1875 33.796875 48.1875 
Q 26.515625 48.1875 22.3125 43.546875 
Q 18.109375 38.921875 18.109375 30.90625 
L 18.109375 0 
L 9.078125 0 
L 9.078125 54.6875 
L 18.109375 54.6875 
L 18.109375 46.1875 
Q 21.34375 51.125 25.703125 53.5625 
Q 30.078125 56 35.796875 56 
Q 45.21875 56 50.046875 50.171875 
Q 54.890625 44.34375 54.890625 33.015625 
z
" id="DejaVuSans-110"/>
      <path d="M 44.28125 53.078125 
L 44.28125 44.578125 
Q 40.484375 46.53125 36.375 47.5 
Q 32.28125 48.484375 27.875 48.484375 
Q 21.1875 48.484375 17.84375 46.4375 
Q 14.5 44.390625 14.5 40.28125 
Q 14.5 37.15625 16.890625 35.375 
Q 19.28125 33.59375 26.515625 31.984375 
L 29.59375 31.296875 
Q 39.15625 29.25 43.1875 25.515625 
Q 47.21875 21.78125 47.21875 15.09375 
Q 47.21875 7.46875 41.1875 3.015625 
Q 35.15625 -1.421875 24.609375 -1.421875 
Q 20.21875 -1.421875 15.453125 -0.5625 
Q 10.6875 0.296875 5.421875 2 
L 5.421875 11.28125 
Q 10.40625 8.6875 15.234375 7.390625 
Q 20.0625 6.109375 24.8125 6.109375 
Q 31.15625 6.109375 34.5625 8.28125 
Q 37.984375 10.453125 37.984375 14.40625 
Q 37.984375 18.0625 35.515625 20.015625 
Q 33.0625 21.96875 24.703125 23.78125 
L 21.578125 24.515625 
Q 13.234375 26.265625 9.515625 29.90625 
Q 5.8125 33.546875 5.8125 39.890625 
Q 5.8125 47.609375 11.28125 51.796875 
Q 16.75 56 26.8125 56 
Q 31.78125 56 36.171875 55.265625 
Q 40.578125 54.546875 44.28125 53.078125 
z
" id="DejaVuSans-115"/>
      <path d="M 41.109375 46.296875 
Q 39.59375 47.171875 37.8125 47.578125 
Q 36.03125 48 33.890625 48 
Q 26.265625 48 22.1875 43.046875 
Q 18.109375 38.09375 18.109375 28.8125 
L 18.109375 0 
L 9.078125 0 
L 9.078125 54.6875 
L 18.109375 54.6875 
L 18.109375 46.1875 
Q 20.953125 51.171875 25.484375 53.578125 
Q 30.03125 56 36.53125 56 
Q 37.453125 56 38.578125 55.875 
Q 39.703125 55.765625 41.0625 55.515625 
z
" id="DejaVuSans-114"/>
      <path d="M 8.5 21.578125 
L 8.5 54.6875 
L 17.484375 54.6875 
L 17.484375 21.921875 
Q 17.484375 14.15625 20.5 10.265625 
Q 23.53125 6.390625 29.59375 6.390625 
Q 36.859375 6.390625 41.078125 11.03125 
Q 45.3125 15.671875 45.3125 23.6875 
L 45.3125 54.6875 
L 54.296875 54.6875 
L 54.296875 0 
L 45.3125 0 
L 45.3125 8.40625 
Q 42.046875 3.421875 37.71875 1 
Q 33.40625 -1.421875 27.6875 -1.421875 
Q 18.265625 -1.421875 13.375 4.4375 
Q 8.5 10.296875 8.5 21.578125 
z
M 31.109375 56 
z
" id="DejaVuSans-117"/>
      <path d="M 45.40625 46.390625 
L 45.40625 75.984375 
L 54.390625 75.984375 
L 54.390625 0 
L 45.40625 0 
L 45.40625 8.203125 
Q 42.578125 3.328125 38.25 0.953125 
Q 33.9375 -1.421875 27.875 -1.421875 
Q 17.96875 -1.421875 11.734375 6.484375 
Q 5.515625 14.40625 5.515625 27.296875 
Q 5.515625 40.1875 11.734375 48.09375 
Q 17.96875 56 27.875 56 
Q 33.9375 56 38.25 53.625 
Q 42.578125 51.265625 45.40625 46.390625 
z
M 14.796875 27.296875 
Q 14.796875 17.390625 18.875 11.75 
Q 22.953125 6.109375 30.078125 6.109375 
Q 37.203125 6.109375 41.296875 11.75 
Q 45.40625 17.390625 45.40625 27.296875 
Q 45.40625 37.203125 41.296875 42.84375 
Q 37.203125 48.484375 30.078125 48.484375 
Q 22.953125 48.484375 18.875 42.84375 
Q 14.796875 37.203125 14.796875 27.296875 
z
" id="DejaVuSans-100"/>
      <path d="M 9.421875 54.6875 
L 18.40625 54.6875 
L 18.40625 0 
L 9.421875 0 
z
M 9.421875 75.984375 
L 18.40625 75.984375 
L 18.40625 64.59375 
L 9.421875 64.59375 
z
" id="DejaVuSans-105"/>
      <path d="M 45.40625 27.984375 
Q 45.40625 37.75 41.375 43.109375 
Q 37.359375 48.484375 30.078125 48.484375 
Q 22.859375 48.484375 18.828125 43.109375 
Q 14.796875 37.75 14.796875 27.984375 
Q 14.796875 18.265625 18.828125 12.890625 
Q 22.859375 7.515625 30.078125 7.515625 
Q 37.359375 7.515625 41.375 12.890625 
Q 45.40625 18.265625 45.40625 27.984375 
z
M 54.390625 6.78125 
Q 54.390625 -7.171875 48.1875 -13.984375 
Q 42 -20.796875 29.203125 -20.796875 
Q 24.46875 -20.796875 20.265625 -20.09375 
Q 16.0625 -19.390625 12.109375 -17.921875 
L 12.109375 -9.1875 
Q 16.0625 -11.328125 19.921875 -12.34375 
Q 23.78125 -13.375 27.78125 -13.375 
Q 36.625 -13.375 41.015625 -8.765625 
Q 45.40625 -4.15625 45.40625 5.171875 
L 45.40625 9.625 
Q 42.625 4.78125 38.28125 2.390625 
Q 33.9375 0 27.875 0 
Q 17.828125 0 11.671875 7.65625 
Q 5.515625 15.328125 5.515625 27.984375 
Q 5.515625 40.671875 11.671875 48.328125 
Q 17.828125 56 27.875 56 
Q 33.9375 56 38.28125 53.609375 
Q 42.625 51.21875 45.40625 46.390625 
L 45.40625 54.6875 
L 54.390625 54.6875 
z
" id="DejaVuSans-103"/>
      <path d="M 9.421875 75.984375 
L 18.40625 75.984375 
L 18.40625 0 
L 9.421875 0 
z
" id="DejaVuSans-108"/>
     </defs>
     <g transform="translate(299.274688 72.748562)scale(0.1 -0.1)">
      <use xlink:href="#DejaVuSans-82"/>
      <use x="69.419922" xlink:href="#DejaVuSans-101"/>
      <use x="130.943359" xlink:href="#DejaVuSans-99"/>
      <use x="185.923828" xlink:href="#DejaVuSans-111"/>
      <use x="247.105469" xlink:href="#DejaVuSans-110"/>
      <use x="310.484375" xlink:href="#DejaVuSans-115"/>
      <use x="362.583984" xlink:href="#DejaVuSans-116"/>
      <use x="401.792969" xlink:href="#DejaVuSans-114"/>
      <use x="442.90625" xlink:href="#DejaVuSans-117"/>
      <use x="506.285156" xlink:href="#DejaVuSans-99"/>
      <use x="561.265625" xlink:href="#DejaVuSans-116"/>
      <use x="600.474609" xlink:href="#DejaVuSans-101"/>
      <use x="661.998047" xlink:href="#DejaVuSans-100"/>
      <use x="725.474609" xlink:href="#DejaVuSans-32"/>
      <use x="757.261719" xlink:href="#DejaVuSans-83"/>
      <use x="820.738281" xlink:href="#DejaVuSans-105"/>
      <use x="848.521484" xlink:href="#DejaVuSans-103"/>
      <use x="911.998047" xlink:href="#DejaVuSans-110"/>
      <use x="975.376953" xlink:href="#DejaVuSans-97"/>
      <use x="1036.65625" xlink:href="#DejaVuSans-108"/>
     </g>
    </g>
   </g>
  </g>
 </g>
 <defs>
  <clipPath id="pea30364e51">
   <rect height="266.112" width="357.12" x="57.6" y="41.472"/>
  </clipPath>
 </defs>
</svg>
