<?xml version="1.0" encoding="utf-8" standalone="no"?>
<!DOCTYPE svg PUBLIC "-//W3C//DTD SVG 1.1//EN"
  "http://www.w3.org/Graphics/SVG/1.1/DTD/svg11.dtd">
<svg xmlns:xlink="http://www.w3.org/1999/xlink" width="460.8pt" height="345.6pt" viewBox="0 0 460.8 345.6" xmlns="http://www.w3.org/2000/svg" version="1.1">
 <metadata>
  <rdf:RDF xmlns:dc="http://purl.org/dc/elements/1.1/" xmlns:cc="http://creativecommons.org/ns#" xmlns:rdf="http://www.w3.org/1999/02/22-rdf-syntax-ns#">
   <cc:Work>
    <dc:type rdf:resource="http://purl.org/dc/dcmitype/StillImage"/>
    <dc:date>2023-05-14T23:55:02.466195</dc:date>
    <dc:format>image/svg+xml</dc:format>
    <dc:creator>
     <cc:Agent>
      <dc:title>Matplotlib v3.7.1, https://matplotlib.org/</dc:title>
     </cc:Agent>
    </dc:creator>
   </cc:Work>
  </rdf:RDF>
 </metadata>
 <defs>
  <style type="text/css">*{stroke-linejoin: round; stroke-linecap: butt}</style>
 </defs>
 <g id="figure_1">
  <g id="patch_1">
   <path d="M 0 345.6 
L 460.8 345.6 
L 460.8 0 
L 0 0 
z
" style="fill: #ffffff"/>
  </g>
  <g id="axes_1">
   <g id="patch_2">
    <path d="M 57.6 307.584 
L 414.72 307.584 
L 414.72 41.472 
L 57.6 41.472 
z
" style="fill: #ffffff"/>
   </g>
   <g id="matplotlib.axis_1">
    <g id="xtick_1">
     <g id="line2d_1">
      <defs>
       <path id="maa7ece6558" d="M 0 0 
L 0 3.5 
" style="stroke: #000000; stroke-width: 0.8"/>
      </defs>
      <g>
       <use xlink:href="#maa7ece6558" x="106.298182" y="307.584" style="stroke: #000000; stroke-width: 0.8"/>
      </g>
     </g>
     <g id="text_1">
      <!-- −0.4 -->
      <g transform="translate(94.156776 322.182437) scale(0.1 -0.1)">
       <defs>
        <path id="DejaVuSans-2212" d="M 678 2272 
L 4684 2272 
L 4684 1741 
L 678 1741 
L 678 2272 
z
" transform="scale(0.015625)"/>
        <path id="DejaVuSans-30" d="M 2034 4250 
Q 1547 4250 1301 3770 
Q 1056 3291 1056 2328 
Q 1056 1369 1301 889 
Q 1547 409 2034 409 
Q 2525 409 2770 889 
Q 3016 1369 3016 2328 
Q 3016 3291 2770 3770 
Q 2525 4250 2034 4250 
z
M 2034 4750 
Q 2819 4750 3233 4129 
Q 3647 3509 3647 2328 
Q 3647 1150 3233 529 
Q 2819 -91 2034 -91 
Q 1250 -91 836 529 
Q 422 1150 422 2328 
Q 422 3509 836 4129 
Q 1250 4750 2034 4750 
z
" transform="scale(0.015625)"/>
        <path id="DejaVuSans-2e" d="M 684 794 
L 1344 794 
L 1344 0 
L 684 0 
L 684 794 
z
" transform="scale(0.015625)"/>
        <path id="DejaVuSans-34" d="M 2419 4116 
L 825 1625 
L 2419 1625 
L 2419 4116 
z
M 2253 4666 
L 3047 4666 
L 3047 1625 
L 3713 1625 
L 3713 1100 
L 3047 1100 
L 3047 0 
L 2419 0 
L 2419 1100 
L 313 1100 
L 313 1709 
L 2253 4666 
z
" transform="scale(0.015625)"/>
       </defs>
       <use xlink:href="#DejaVuSans-2212"/>
       <use xlink:href="#DejaVuSans-30" x="83.789062"/>
       <use xlink:href="#DejaVuSans-2e" x="147.412109"/>
       <use xlink:href="#DejaVuSans-34" x="179.199219"/>
      </g>
     </g>
    </g>
    <g id="xtick_2">
     <g id="line2d_2">
      <g>
       <use xlink:href="#maa7ece6558" x="171.229091" y="307.584" style="stroke: #000000; stroke-width: 0.8"/>
      </g>
     </g>
     <g id="text_2">
      <!-- −0.2 -->
      <g transform="translate(159.087685 322.182437) scale(0.1 -0.1)">
       <defs>
        <path id="DejaVuSans-32" d="M 1228 531 
L 3431 531 
L 3431 0 
L 469 0 
L 469 531 
Q 828 903 1448 1529 
Q 2069 2156 2228 2338 
Q 2531 2678 2651 2914 
Q 2772 3150 2772 3378 
Q 2772 3750 2511 3984 
Q 2250 4219 1831 4219 
Q 1534 4219 1204 4116 
Q 875 4013 500 3803 
L 500 4441 
Q 881 4594 1212 4672 
Q 1544 4750 1819 4750 
Q 2544 4750 2975 4387 
Q 3406 4025 3406 3419 
Q 3406 3131 3298 2873 
Q 3191 2616 2906 2266 
Q 2828 2175 2409 1742 
Q 1991 1309 1228 531 
z
" transform="scale(0.015625)"/>
       </defs>
       <use xlink:href="#DejaVuSans-2212"/>
       <use xlink:href="#DejaVuSans-30" x="83.789062"/>
       <use xlink:href="#DejaVuSans-2e" x="147.412109"/>
       <use xlink:href="#DejaVuSans-32" x="179.199219"/>
      </g>
     </g>
    </g>
    <g id="xtick_3">
     <g id="line2d_3">
      <g>
       <use xlink:href="#maa7ece6558" x="236.16" y="307.584" style="stroke: #000000; stroke-width: 0.8"/>
      </g>
     </g>
     <g id="text_3">
      <!-- 0.0 -->
      <g transform="translate(228.208438 322.182437) scale(0.1 -0.1)">
       <use xlink:href="#DejaVuSans-30"/>
       <use xlink:href="#DejaVuSans-2e" x="63.623047"/>
       <use xlink:href="#DejaVuSans-30" x="95.410156"/>
      </g>
     </g>
    </g>
    <g id="xtick_4">
     <g id="line2d_4">
      <g>
       <use xlink:href="#maa7ece6558" x="301.090909" y="307.584" style="stroke: #000000; stroke-width: 0.8"/>
      </g>
     </g>
     <g id="text_4">
      <!-- 0.2 -->
      <g transform="translate(293.139347 322.182437) scale(0.1 -0.1)">
       <use xlink:href="#DejaVuSans-30"/>
       <use xlink:href="#DejaVuSans-2e" x="63.623047"/>
       <use xlink:href="#DejaVuSans-32" x="95.410156"/>
      </g>
     </g>
    </g>
    <g id="xtick_5">
     <g id="line2d_5">
      <g>
       <use xlink:href="#maa7ece6558" x="366.021818" y="307.584" style="stroke: #000000; stroke-width: 0.8"/>
      </g>
     </g>
     <g id="text_5">
      <!-- 0.4 -->
      <g transform="translate(358.070256 322.182437) scale(0.1 -0.1)">
       <use xlink:href="#DejaVuSans-30"/>
       <use xlink:href="#DejaVuSans-2e" x="63.623047"/>
       <use xlink:href="#DejaVuSans-34" x="95.410156"/>
      </g>
     </g>
    </g>
   </g>
   <g id="matplotlib.axis_2">
    <g id="ytick_1">
     <g id="line2d_6">
      <defs>
       <path id="m50daaf6da0" d="M 0 0 
L -3.5 0 
" style="stroke: #000000; stroke-width: 0.8"/>
      </defs>
      <g>
       <use xlink:href="#m50daaf6da0" x="57.6" y="295.609202" style="stroke: #000000; stroke-width: 0.8"/>
      </g>
     </g>
     <g id="text_6">
      <!-- −1.00 -->
      <g transform="translate(19.954687 299.408421) scale(0.1 -0.1)">
       <defs>
        <path id="DejaVuSans-31" d="M 794 531 
L 1825 531 
L 1825 4091 
L 703 3866 
L 703 4441 
L 1819 4666 
L 2450 4666 
L 2450 531 
L 3481 531 
L 3481 0 
L 794 0 
L 794 531 
z
" transform="scale(0.015625)"/>
       </defs>
       <use xlink:href="#DejaVuSans-2212"/>
       <use xlink:href="#DejaVuSans-31" x="83.789062"/>
       <use xlink:href="#DejaVuSans-2e" x="147.412109"/>
       <use xlink:href="#DejaVuSans-30" x="179.199219"/>
       <use xlink:href="#DejaVuSans-30" x="242.822266"/>
      </g>
     </g>
    </g>
    <g id="ytick_2">
     <g id="line2d_7">
      <g>
       <use xlink:href="#m50daaf6da0" x="57.6" y="265.338902" style="stroke: #000000; stroke-width: 0.8"/>
      </g>
     </g>
     <g id="text_7">
      <!-- −0.75 -->
      <g transform="translate(19.954687 269.138121) scale(0.1 -0.1)">
       <defs>
        <path id="DejaVuSans-37" d="M 525 4666 
L 3525 4666 
L 3525 4397 
L 1831 0 
L 1172 0 
L 2766 4134 
L 525 4134 
L 525 4666 
z
" transform="scale(0.015625)"/>
        <path id="DejaVuSans-35" d="M 691 4666 
L 3169 4666 
L 3169 4134 
L 1269 4134 
L 1269 2991 
Q 1406 3038 1543 3061 
Q 1681 3084 1819 3084 
Q 2600 3084 3056 2656 
Q 3513 2228 3513 1497 
Q 3513 744 3044 326 
Q 2575 -91 1722 -91 
Q 1428 -91 1123 -41 
Q 819 9 494 109 
L 494 744 
Q 775 591 1075 516 
Q 1375 441 1709 441 
Q 2250 441 2565 725 
Q 2881 1009 2881 1497 
Q 2881 1984 2565 2268 
Q 2250 2553 1709 2553 
Q 1456 2553 1204 2497 
Q 953 2441 691 2322 
L 691 4666 
z
" transform="scale(0.015625)"/>
       </defs>
       <use xlink:href="#DejaVuSans-2212"/>
       <use xlink:href="#DejaVuSans-30" x="83.789062"/>
       <use xlink:href="#DejaVuSans-2e" x="147.412109"/>
       <use xlink:href="#DejaVuSans-37" x="179.199219"/>
       <use xlink:href="#DejaVuSans-35" x="242.822266"/>
      </g>
     </g>
    </g>
    <g id="ytick_3">
     <g id="line2d_8">
      <g>
       <use xlink:href="#m50daaf6da0" x="57.6" y="235.068601" style="stroke: #000000; stroke-width: 0.8"/>
      </g>
     </g>
     <g id="text_8">
      <!-- −0.50 -->
      <g transform="translate(19.954687 238.86782) scale(0.1 -0.1)">
       <use xlink:href="#DejaVuSans-2212"/>
       <use xlink:href="#DejaVuSans-30" x="83.789062"/>
       <use xlink:href="#DejaVuSans-2e" x="147.412109"/>
       <use xlink:href="#DejaVuSans-35" x="179.199219"/>
       <use xlink:href="#DejaVuSans-30" x="242.822266"/>
      </g>
     </g>
    </g>
    <g id="ytick_4">
     <g id="line2d_9">
      <g>
       <use xlink:href="#m50daaf6da0" x="57.6" y="204.798301" style="stroke: #000000; stroke-width: 0.8"/>
      </g>
     </g>
     <g id="text_9">
      <!-- −0.25 -->
      <g transform="translate(19.954687 208.597519) scale(0.1 -0.1)">
       <use xlink:href="#DejaVuSans-2212"/>
       <use xlink:href="#DejaVuSans-30" x="83.789062"/>
       <use xlink:href="#DejaVuSans-2e" x="147.412109"/>
       <use xlink:href="#DejaVuSans-32" x="179.199219"/>
       <use xlink:href="#DejaVuSans-35" x="242.822266"/>
      </g>
     </g>
    </g>
    <g id="ytick_5">
     <g id="line2d_10">
      <g>
       <use xlink:href="#m50daaf6da0" x="57.6" y="174.528" style="stroke: #000000; stroke-width: 0.8"/>
      </g>
     </g>
     <g id="text_10">
      <!-- 0.00 -->
      <g transform="translate(28.334375 178.327219) scale(0.1 -0.1)">
       <use xlink:href="#DejaVuSans-30"/>
       <use xlink:href="#DejaVuSans-2e" x="63.623047"/>
       <use xlink:href="#DejaVuSans-30" x="95.410156"/>
       <use xlink:href="#DejaVuSans-30" x="159.033203"/>
      </g>
     </g>
    </g>
    <g id="ytick_6">
     <g id="line2d_11">
      <g>
       <use xlink:href="#m50daaf6da0" x="57.6" y="144.257699" style="stroke: #000000; stroke-width: 0.8"/>
      </g>
     </g>
     <g id="text_11">
      <!-- 0.25 -->
      <g transform="translate(28.334375 148.056918) scale(0.1 -0.1)">
       <use xlink:href="#DejaVuSans-30"/>
       <use xlink:href="#DejaVuSans-2e" x="63.623047"/>
       <use xlink:href="#DejaVuSans-32" x="95.410156"/>
       <use xlink:href="#DejaVuSans-35" x="159.033203"/>
      </g>
     </g>
    </g>
    <g id="ytick_7">
     <g id="line2d_12">
      <g>
       <use xlink:href="#m50daaf6da0" x="57.6" y="113.987399" style="stroke: #000000; stroke-width: 0.8"/>
      </g>
     </g>
     <g id="text_12">
      <!-- 0.50 -->
      <g transform="translate(28.334375 117.786618) scale(0.1 -0.1)">
       <use xlink:href="#DejaVuSans-30"/>
       <use xlink:href="#DejaVuSans-2e" x="63.623047"/>
       <use xlink:href="#DejaVuSans-35" x="95.410156"/>
       <use xlink:href="#DejaVuSans-30" x="159.033203"/>
      </g>
     </g>
    </g>
    <g id="ytick_8">
     <g id="line2d_13">
      <g>
       <use xlink:href="#m50daaf6da0" x="57.6" y="83.717098" style="stroke: #000000; stroke-width: 0.8"/>
      </g>
     </g>
     <g id="text_13">
      <!-- 0.75 -->
      <g transform="translate(28.334375 87.516317) scale(0.1 -0.1)">
       <use xlink:href="#DejaVuSans-30"/>
       <use xlink:href="#DejaVuSans-2e" x="63.623047"/>
       <use xlink:href="#DejaVuSans-37" x="95.410156"/>
       <use xlink:href="#DejaVuSans-35" x="159.033203"/>
      </g>
     </g>
    </g>
    <g id="ytick_9">
     <g id="line2d_14">
      <g>
       <use xlink:href="#m50daaf6da0" x="57.6" y="53.446798" style="stroke: #000000; stroke-width: 0.8"/>
      </g>
     </g>
     <g id="text_14">
      <!-- 1.00 -->
      <g transform="translate(28.334375 57.246016) scale(0.1 -0.1)">
       <use xlink:href="#DejaVuSans-31"/>
       <use xlink:href="#DejaVuSans-2e" x="63.623047"/>
       <use xlink:href="#DejaVuSans-30" x="95.410156"/>
       <use xlink:href="#DejaVuSans-30" x="159.033203"/>
      </g>
     </g>
    </g>
   </g>
   <g id="line2d_15">
    <path d="M 73.832727 174.528 
L 235.99751 53.568 
L 236.32249 295.488 
L 398.487273 174.528 
L 398.487273 174.528 
" clip-path="url(#p35ac272be4)" style="fill: none; stroke: #1f77b4; stroke-width: 1.5; stroke-linecap: square"/>
   </g>
   <g id="line2d_16">
    <path d="M 73.832727 174.53406 
L 74.807666 174.487195 
L 75.457625 174.295782 
L 76.432563 173.732718 
L 78.382441 172.452335 
L 79.357379 172.207466 
L 81.632236 172.001265 
L 82.607174 171.505779 
L 84.882031 170.022604 
L 85.85697 169.802624 
L 87.806847 169.680691 
L 88.781785 169.269546 
L 91.706601 167.493598 
L 92.68154 167.386479 
L 93.981458 167.337538 
L 94.631417 167.161767 
L 95.606355 166.620829 
L 97.556233 165.298178 
L 98.531171 165.017467 
L 101.131007 164.741728 
L 102.105946 164.178159 
L 104.055823 162.862227 
L 105.030762 162.605579 
L 107.305618 162.444176 
L 108.280557 161.961287 
L 110.555414 160.425923 
L 111.530352 160.194166 
L 113.805209 160.032619 
L 114.780147 159.524309 
L 117.055004 157.989109 
L 118.029943 157.783384 
L 119.97982 157.718636 
L 120.629779 157.482172 
L 121.604717 156.845614 
L 123.229615 155.693178 
L 123.879574 155.45326 
L 124.854513 155.375921 
L 126.154431 155.379016 
L 126.80439 155.211438 
L 127.779328 154.648016 
L 129.729206 153.246714 
L 130.379165 153.024517 
L 131.354103 152.975205 
L 132.654021 152.984289 
L 133.30398 152.802179 
L 134.278919 152.208284 
L 136.228796 150.798548 
L 136.878755 150.595464 
L 137.853694 150.576419 
L 139.153612 150.591976 
L 139.803571 150.394111 
L 140.778509 149.767138 
L 142.403407 148.511679 
L 143.053366 148.233161 
L 143.703325 148.141675 
L 145.978182 148.119982 
L 146.628141 147.806192 
L 147.603079 147.047154 
L 148.902998 146.051093 
L 149.552957 145.790762 
L 150.202916 145.724942 
L 152.152793 145.817176 
L 152.802752 145.582825 
L 153.77769 144.879054 
L 155.077609 143.785096 
L 155.727568 143.43898 
L 156.377527 143.305579 
L 157.352465 143.397233 
L 158.327404 143.482484 
L 158.977363 143.336661 
L 159.627322 142.971086 
L 160.92724 141.830739 
L 161.902179 141.115926 
L 162.552138 140.899079 
L 163.202097 140.894761 
L 164.826994 141.113429 
L 165.476953 140.951782 
L 166.126912 140.554721 
L 168.726749 138.512172 
L 169.376708 138.442057 
L 171.651564 138.695656 
L 172.301523 138.385872 
L 173.276462 137.522523 
L 174.57638 136.332824 
L 175.226339 136.038603 
L 175.876298 136.008577 
L 178.151155 136.3402 
L 178.801114 135.995859 
L 179.776052 135.059035 
L 180.750991 134.067407 
L 181.40095 133.652231 
L 182.050909 133.531775 
L 182.700868 133.664481 
L 184.000786 134.074261 
L 184.650745 133.99978 
L 185.300704 133.613126 
L 186.275643 132.586023 
L 187.250581 131.539702 
L 187.900541 131.134813 
L 188.5505 131.061718 
L 189.200459 131.262104 
L 190.500377 131.766955 
L 191.150336 131.680875 
L 191.800295 131.240735 
L 192.775233 130.099011 
L 193.750172 128.9829 
L 194.400131 128.591221 
L 195.05009 128.579138 
L 195.700049 128.867054 
L 196.674988 129.40784 
L 197.324947 129.495535 
L 197.974906 129.188014 
L 198.624865 128.498118 
L 200.249762 126.381143 
L 200.899722 126.007213 
L 201.549681 126.077449 
L 202.19964 126.484082 
L 203.174578 127.173477 
L 203.824537 127.281469 
L 204.149517 127.159151 
L 204.799476 126.550845 
L 205.774414 125.045045 
L 206.424373 124.06837 
L 207.074333 123.46221 
L 207.399312 123.356041 
L 207.724292 123.387603 
L 208.374251 123.801672 
L 209.674169 125.02954 
L 209.999148 125.167447 
L 210.324128 125.167447 
L 210.649107 125.013874 
L 211.299066 124.259194 
L 213.248943 120.889896 
L 213.573923 120.647491 
L 213.898903 120.580906 
L 214.223882 120.689697 
L 214.873841 121.344438 
L 216.173759 123.065176 
L 216.498739 123.252086 
L 216.823718 123.252086 
L 217.148698 123.046614 
L 217.473677 122.637225 
L 218.123636 121.314598 
L 219.423554 118.242434 
L 219.748534 117.774441 
L 220.073514 117.532036 
L 220.398493 117.536695 
L 220.723473 117.785803 
L 221.373432 118.884554 
L 222.67335 121.541916 
L 222.998329 121.824856 
L 223.323309 121.824856 
L 223.648288 121.515076 
L 223.973268 120.898613 
L 224.623227 118.912158 
L 225.923145 114.402886 
L 226.248124 113.783441 
L 226.573104 113.541036 
L 226.898084 113.71411 
L 227.223063 114.301831 
L 227.873022 116.509451 
L 228.847961 120.67071 
L 229.17294 121.675646 
L 229.49792 122.236028 
L 229.822899 122.236028 
L 230.147879 121.604005 
L 230.472858 120.323645 
L 231.122817 116.06853 
L 232.422735 105.908826 
L 232.747715 104.590065 
L 233.072695 104.34766 
L 233.397674 105.434159 
L 233.722654 108.046058 
L 234.047633 112.307266 
L 234.697592 125.843481 
L 235.347551 145.266261 
L 237.622408 223.212519 
L 238.272367 236.748734 
L 238.597346 241.009942 
L 238.922326 243.621841 
L 239.247305 244.70834 
L 239.572285 244.465935 
L 239.897265 243.147174 
L 240.547224 238.451364 
L 241.522162 230.61472 
L 242.172121 227.451995 
L 242.497101 226.819972 
L 242.82208 226.819972 
L 243.14706 227.380354 
L 243.797019 229.688639 
L 244.771957 233.794554 
L 245.096937 234.754169 
L 245.421916 235.34189 
L 245.746896 235.514964 
L 246.071876 235.272559 
L 246.396855 234.653114 
L 247.046814 232.5944 
L 248.021753 229.046257 
L 248.671712 227.540924 
L 248.996691 227.231144 
L 249.321671 227.231144 
L 249.64665 227.514084 
L 250.296609 228.697915 
L 251.271548 230.804066 
L 251.596527 231.270197 
L 251.921507 231.519305 
L 252.246486 231.523964 
L 252.571466 231.281559 
L 253.221425 230.162548 
L 254.846323 226.418775 
L 255.171302 226.009386 
L 255.496282 225.803914 
L 255.821261 225.803914 
L 256.146241 225.990824 
L 256.7962 226.766887 
L 257.771138 228.100278 
L 258.096118 228.366303 
L 258.421097 228.475094 
L 258.746077 228.408509 
L 259.071057 228.166104 
L 259.721016 227.23619 
L 261.345913 224.349855 
L 261.670893 224.042126 
L 261.995872 223.888553 
L 262.320852 223.888553 
L 262.970811 224.273424 
L 264.270729 225.511439 
L 264.595708 225.668397 
L 264.920688 225.699959 
L 265.245667 225.59379 
L 265.895627 224.98763 
L 266.870565 223.473789 
L 267.520524 222.505155 
L 268.170483 221.896849 
L 268.495463 221.774531 
L 269.145422 221.882523 
L 270.12036 222.571918 
L 270.770319 222.978551 
L 271.420278 223.048787 
L 272.070238 222.674857 
L 272.720197 221.922404 
L 274.020115 220.172299 
L 274.670074 219.661759 
L 275.320033 219.560465 
L 275.969992 219.801489 
L 277.26991 220.476862 
L 277.919869 220.464779 
L 278.569828 220.0731 
L 279.544767 218.956989 
L 280.519705 217.815265 
L 281.169664 217.375125 
L 281.819623 217.289045 
L 282.469582 217.487592 
L 283.7695 217.994282 
L 284.419459 217.921187 
L 285.069419 217.516298 
L 286.044357 216.469977 
L 287.019296 215.442874 
L 287.669255 215.05622 
L 288.319214 214.981739 
L 289.294152 215.271962 
L 290.269091 215.524225 
L 290.91905 215.403769 
L 291.569009 214.988593 
L 292.868927 213.649131 
L 293.518886 213.060141 
L 294.168845 212.7158 
L 294.818804 212.650521 
L 295.793743 212.891688 
L 296.768681 213.062803 
L 297.41864 212.904244 
L 298.0686 212.480771 
L 300.343456 210.482703 
L 300.993415 210.302598 
L 301.643374 210.347799 
L 303.268272 210.607573 
L 303.918231 210.417468 
L 304.56819 209.987112 
L 306.843047 208.104218 
L 307.493006 207.942571 
L 308.467944 208.043277 
L 309.442883 208.181701 
L 310.092842 208.077637 
L 310.742801 207.746278 
L 311.71774 206.926357 
L 312.692678 206.084914 
L 313.342637 205.719339 
L 313.992596 205.573516 
L 314.967535 205.658767 
L 315.942473 205.750421 
L 316.592432 205.61702 
L 317.242391 205.270904 
L 318.54231 204.176946 
L 319.517248 203.473175 
L 320.167207 203.238824 
L 321.142146 203.226517 
L 322.442064 203.319898 
L 323.092023 203.1607 
L 323.741982 202.801588 
L 326.341818 200.936018 
L 326.991777 200.816282 
L 329.591613 200.707744 
L 330.566552 200.094607 
L 332.19145 198.831379 
L 332.841409 198.539469 
L 333.491368 198.430779 
L 335.766224 198.382107 
L 336.416183 198.087115 
L 337.391122 197.372109 
L 338.69104 196.412519 
L 339.340999 196.140543 
L 340.315938 196.041927 
L 341.940835 196.031483 
L 342.590794 195.809286 
L 343.565733 195.175952 
L 345.190631 193.993312 
L 345.84059 193.739714 
L 346.815528 193.650397 
L 348.115446 193.660062 
L 348.765405 193.504374 
L 349.740344 192.962922 
L 351.690221 191.573828 
L 352.34018 191.337364 
L 353.315119 191.256724 
L 354.615037 191.241045 
L 355.264996 191.066891 
L 356.239934 190.5094 
L 358.189812 189.154125 
L 358.839771 188.933805 
L 359.814709 188.861349 
L 361.114627 188.821711 
L 361.764586 188.630077 
L 362.739525 188.057388 
L 364.689402 186.734256 
L 365.664341 186.482751 
L 367.939197 186.317777 
L 368.914136 185.832132 
L 371.188993 184.314272 
L 372.163931 184.082476 
L 374.438788 183.889701 
L 375.413726 183.384638 
L 377.688583 181.894233 
L 378.663522 181.681635 
L 380.613399 181.562402 
L 381.588337 181.145469 
L 384.513153 179.375309 
L 385.488092 179.270209 
L 386.78801 179.214013 
L 387.762948 178.886012 
L 388.737887 178.256833 
L 390.037805 177.350602 
L 391.012744 176.963813 
L 391.987682 176.873234 
L 393.2876 176.801975 
L 394.262539 176.447458 
L 395.562457 175.559489 
L 396.537396 174.91493 
L 397.512334 174.568805 
L 398.487273 174.52194 
L 398.487273 174.52194 
" clip-path="url(#p35ac272be4)" style="fill: none; stroke: #ff7f0e; stroke-width: 1.5; stroke-linecap: square"/>
   </g>
   <g id="patch_3">
    <path d="M 57.6 307.584 
L 57.6 41.472 
" style="fill: none; stroke: #000000; stroke-width: 0.8; stroke-linejoin: miter; stroke-linecap: square"/>
   </g>
   <g id="patch_4">
    <path d="M 414.72 307.584 
L 414.72 41.472 
" style="fill: none; stroke: #000000; stroke-width: 0.8; stroke-linejoin: miter; stroke-linecap: square"/>
   </g>
   <g id="patch_5">
    <path d="M 57.6 307.584 
L 414.72 307.584 
" style="fill: none; stroke: #000000; stroke-width: 0.8; stroke-linejoin: miter; stroke-linecap: square"/>
   </g>
   <g id="patch_6">
    <path d="M 57.6 41.472 
L 414.72 41.472 
" style="fill: none; stroke: #000000; stroke-width: 0.8; stroke-linejoin: miter; stroke-linecap: square"/>
   </g>
   <g id="legend_1">
    <g id="patch_7">
     <path d="M 269.718437 78.82825 
L 407.72 78.82825 
Q 409.72 78.82825 409.72 76.82825 
L 409.72 48.472 
Q 409.72 46.472 407.72 46.472 
L 269.718437 46.472 
Q 267.718437 46.472 267.718437 48.472 
L 267.718437 76.82825 
Q 267.718437 78.82825 269.718437 78.82825 
z
" style="fill: #ffffff; opacity: 0.8; stroke: #cccccc; stroke-linejoin: miter"/>
    </g>
    <g id="line2d_17">
     <path d="M 271.718437 54.570437 
L 281.718437 54.570437 
L 291.718437 54.570437 
" style="fill: none; stroke: #1f77b4; stroke-width: 1.5; stroke-linecap: square"/>
    </g>
    <g id="text_15">
     <!-- Sawtooth Wave -->
     <g transform="translate(299.718437 58.070437) scale(0.1 -0.1)">
      <defs>
       <path id="DejaVuSans-53" d="M 3425 4513 
L 3425 3897 
Q 3066 4069 2747 4153 
Q 2428 4238 2131 4238 
Q 1616 4238 1336 4038 
Q 1056 3838 1056 3469 
Q 1056 3159 1242 3001 
Q 1428 2844 1947 2747 
L 2328 2669 
Q 3034 2534 3370 2195 
Q 3706 1856 3706 1288 
Q 3706 609 3251 259 
Q 2797 -91 1919 -91 
Q 1588 -91 1214 -16 
Q 841 59 441 206 
L 441 856 
Q 825 641 1194 531 
Q 1563 422 1919 422 
Q 2459 422 2753 634 
Q 3047 847 3047 1241 
Q 3047 1584 2836 1778 
Q 2625 1972 2144 2069 
L 1759 2144 
Q 1053 2284 737 2584 
Q 422 2884 422 3419 
Q 422 4038 858 4394 
Q 1294 4750 2059 4750 
Q 2388 4750 2728 4690 
Q 3069 4631 3425 4513 
z
" transform="scale(0.015625)"/>
       <path id="DejaVuSans-61" d="M 2194 1759 
Q 1497 1759 1228 1600 
Q 959 1441 959 1056 
Q 959 750 1161 570 
Q 1363 391 1709 391 
Q 2188 391 2477 730 
Q 2766 1069 2766 1631 
L 2766 1759 
L 2194 1759 
z
M 3341 1997 
L 3341 0 
L 2766 0 
L 2766 531 
Q 2569 213 2275 61 
Q 1981 -91 1556 -91 
Q 1019 -91 701 211 
Q 384 513 384 1019 
Q 384 1609 779 1909 
Q 1175 2209 1959 2209 
L 2766 2209 
L 2766 2266 
Q 2766 2663 2505 2880 
Q 2244 3097 1772 3097 
Q 1472 3097 1187 3025 
Q 903 2953 641 2809 
L 641 3341 
Q 956 3463 1253 3523 
Q 1550 3584 1831 3584 
Q 2591 3584 2966 3190 
Q 3341 2797 3341 1997 
z
" transform="scale(0.015625)"/>
       <path id="DejaVuSans-77" d="M 269 3500 
L 844 3500 
L 1563 769 
L 2278 3500 
L 2956 3500 
L 3675 769 
L 4391 3500 
L 4966 3500 
L 4050 0 
L 3372 0 
L 2619 2869 
L 1863 0 
L 1184 0 
L 269 3500 
z
" transform="scale(0.015625)"/>
       <path id="DejaVuSans-74" d="M 1172 4494 
L 1172 3500 
L 2356 3500 
L 2356 3053 
L 1172 3053 
L 1172 1153 
Q 1172 725 1289 603 
Q 1406 481 1766 481 
L 2356 481 
L 2356 0 
L 1766 0 
Q 1100 0 847 248 
Q 594 497 594 1153 
L 594 3053 
L 172 3053 
L 172 3500 
L 594 3500 
L 594 4494 
L 1172 4494 
z
" transform="scale(0.015625)"/>
       <path id="DejaVuSans-6f" d="M 1959 3097 
Q 1497 3097 1228 2736 
Q 959 2375 959 1747 
Q 959 1119 1226 758 
Q 1494 397 1959 397 
Q 2419 397 2687 759 
Q 2956 1122 2956 1747 
Q 2956 2369 2687 2733 
Q 2419 3097 1959 3097 
z
M 1959 3584 
Q 2709 3584 3137 3096 
Q 3566 2609 3566 1747 
Q 3566 888 3137 398 
Q 2709 -91 1959 -91 
Q 1206 -91 779 398 
Q 353 888 353 1747 
Q 353 2609 779 3096 
Q 1206 3584 1959 3584 
z
" transform="scale(0.015625)"/>
       <path id="DejaVuSans-68" d="M 3513 2113 
L 3513 0 
L 2938 0 
L 2938 2094 
Q 2938 2591 2744 2837 
Q 2550 3084 2163 3084 
Q 1697 3084 1428 2787 
Q 1159 2491 1159 1978 
L 1159 0 
L 581 0 
L 581 4863 
L 1159 4863 
L 1159 2956 
Q 1366 3272 1645 3428 
Q 1925 3584 2291 3584 
Q 2894 3584 3203 3211 
Q 3513 2838 3513 2113 
z
" transform="scale(0.015625)"/>
       <path id="DejaVuSans-20" transform="scale(0.015625)"/>
       <path id="DejaVuSans-57" d="M 213 4666 
L 850 4666 
L 1831 722 
L 2809 4666 
L 3519 4666 
L 4500 722 
L 5478 4666 
L 6119 4666 
L 4947 0 
L 4153 0 
L 3169 4050 
L 2175 0 
L 1381 0 
L 213 4666 
z
" transform="scale(0.015625)"/>
       <path id="DejaVuSans-76" d="M 191 3500 
L 800 3500 
L 1894 563 
L 2988 3500 
L 3597 3500 
L 2284 0 
L 1503 0 
L 191 3500 
z
" transform="scale(0.015625)"/>
       <path id="DejaVuSans-65" d="M 3597 1894 
L 3597 1613 
L 953 1613 
Q 991 1019 1311 708 
Q 1631 397 2203 397 
Q 2534 397 2845 478 
Q 3156 559 3463 722 
L 3463 178 
Q 3153 47 2828 -22 
Q 2503 -91 2169 -91 
Q 1331 -91 842 396 
Q 353 884 353 1716 
Q 353 2575 817 3079 
Q 1281 3584 2069 3584 
Q 2775 3584 3186 3129 
Q 3597 2675 3597 1894 
z
M 3022 2063 
Q 3016 2534 2758 2815 
Q 2500 3097 2075 3097 
Q 1594 3097 1305 2825 
Q 1016 2553 972 2059 
L 3022 2063 
z
" transform="scale(0.015625)"/>
      </defs>
      <use xlink:href="#DejaVuSans-53"/>
      <use xlink:href="#DejaVuSans-61" x="63.476562"/>
      <use xlink:href="#DejaVuSans-77" x="124.755859"/>
      <use xlink:href="#DejaVuSans-74" x="206.542969"/>
      <use xlink:href="#DejaVuSans-6f" x="245.751953"/>
      <use xlink:href="#DejaVuSans-6f" x="306.933594"/>
      <use xlink:href="#DejaVuSans-74" x="368.115234"/>
      <use xlink:href="#DejaVuSans-68" x="407.324219"/>
      <use xlink:href="#DejaVuSans-20" x="470.703125"/>
      <use xlink:href="#DejaVuSans-57" x="502.490234"/>
      <use xlink:href="#DejaVuSans-61" x="594.992188"/>
      <use xlink:href="#DejaVuSans-76" x="656.271484"/>
      <use xlink:href="#DejaVuSans-65" x="715.451172"/>
     </g>
    </g>
    <g id="line2d_18">
     <path d="M 271.718437 69.248562 
L 281.718437 69.248562 
L 291.718437 69.248562 
" style="fill: none; stroke: #ff7f0e; stroke-width: 1.5; stroke-linecap: square"/>
    </g>
    <g id="text_16">
     <!-- Reconstructed Signal -->
     <g transform="translate(299.718437 72.748562) scale(0.1 -0.1)">
      <defs>
       <path id="DejaVuSans-52" d="M 2841 2188 
Q 3044 2119 3236 1894 
Q 3428 1669 3622 1275 
L 4263 0 
L 3584 0 
L 2988 1197 
Q 2756 1666 2539 1819 
Q 2322 1972 1947 1972 
L 1259 1972 
L 1259 0 
L 628 0 
L 628 4666 
L 2053 4666 
Q 2853 4666 3247 4331 
Q 3641 3997 3641 3322 
Q 3641 2881 3436 2590 
Q 3231 2300 2841 2188 
z
M 1259 4147 
L 1259 2491 
L 2053 2491 
Q 2509 2491 2742 2702 
Q 2975 2913 2975 3322 
Q 2975 3731 2742 3939 
Q 2509 4147 2053 4147 
L 1259 4147 
z
" transform="scale(0.015625)"/>
       <path id="DejaVuSans-63" d="M 3122 3366 
L 3122 2828 
Q 2878 2963 2633 3030 
Q 2388 3097 2138 3097 
Q 1578 3097 1268 2742 
Q 959 2388 959 1747 
Q 959 1106 1268 751 
Q 1578 397 2138 397 
Q 2388 397 2633 464 
Q 2878 531 3122 666 
L 3122 134 
Q 2881 22 2623 -34 
Q 2366 -91 2075 -91 
Q 1284 -91 818 406 
Q 353 903 353 1747 
Q 353 2603 823 3093 
Q 1294 3584 2113 3584 
Q 2378 3584 2631 3529 
Q 2884 3475 3122 3366 
z
" transform="scale(0.015625)"/>
       <path id="DejaVuSans-6e" d="M 3513 2113 
L 3513 0 
L 2938 0 
L 2938 2094 
Q 2938 2591 2744 2837 
Q 2550 3084 2163 3084 
Q 1697 3084 1428 2787 
Q 1159 2491 1159 1978 
L 1159 0 
L 581 0 
L 581 3500 
L 1159 3500 
L 1159 2956 
Q 1366 3272 1645 3428 
Q 1925 3584 2291 3584 
Q 2894 3584 3203 3211 
Q 3513 2838 3513 2113 
z
" transform="scale(0.015625)"/>
       <path id="DejaVuSans-73" d="M 2834 3397 
L 2834 2853 
Q 2591 2978 2328 3040 
Q 2066 3103 1784 3103 
Q 1356 3103 1142 2972 
Q 928 2841 928 2578 
Q 928 2378 1081 2264 
Q 1234 2150 1697 2047 
L 1894 2003 
Q 2506 1872 2764 1633 
Q 3022 1394 3022 966 
Q 3022 478 2636 193 
Q 2250 -91 1575 -91 
Q 1294 -91 989 -36 
Q 684 19 347 128 
L 347 722 
Q 666 556 975 473 
Q 1284 391 1588 391 
Q 1994 391 2212 530 
Q 2431 669 2431 922 
Q 2431 1156 2273 1281 
Q 2116 1406 1581 1522 
L 1381 1569 
Q 847 1681 609 1914 
Q 372 2147 372 2553 
Q 372 3047 722 3315 
Q 1072 3584 1716 3584 
Q 2034 3584 2315 3537 
Q 2597 3491 2834 3397 
z
" transform="scale(0.015625)"/>
       <path id="DejaVuSans-72" d="M 2631 2963 
Q 2534 3019 2420 3045 
Q 2306 3072 2169 3072 
Q 1681 3072 1420 2755 
Q 1159 2438 1159 1844 
L 1159 0 
L 581 0 
L 581 3500 
L 1159 3500 
L 1159 2956 
Q 1341 3275 1631 3429 
Q 1922 3584 2338 3584 
Q 2397 3584 2469 3576 
Q 2541 3569 2628 3553 
L 2631 2963 
z
" transform="scale(0.015625)"/>
       <path id="DejaVuSans-75" d="M 544 1381 
L 544 3500 
L 1119 3500 
L 1119 1403 
Q 1119 906 1312 657 
Q 1506 409 1894 409 
Q 2359 409 2629 706 
Q 2900 1003 2900 1516 
L 2900 3500 
L 3475 3500 
L 3475 0 
L 2900 0 
L 2900 538 
Q 2691 219 2414 64 
Q 2138 -91 1772 -91 
Q 1169 -91 856 284 
Q 544 659 544 1381 
z
M 1991 3584 
L 1991 3584 
z
" transform="scale(0.015625)"/>
       <path id="DejaVuSans-64" d="M 2906 2969 
L 2906 4863 
L 3481 4863 
L 3481 0 
L 2906 0 
L 2906 525 
Q 2725 213 2448 61 
Q 2172 -91 1784 -91 
Q 1150 -91 751 415 
Q 353 922 353 1747 
Q 353 2572 751 3078 
Q 1150 3584 1784 3584 
Q 2172 3584 2448 3432 
Q 2725 3281 2906 2969 
z
M 947 1747 
Q 947 1113 1208 752 
Q 1469 391 1925 391 
Q 2381 391 2643 752 
Q 2906 1113 2906 1747 
Q 2906 2381 2643 2742 
Q 2381 3103 1925 3103 
Q 1469 3103 1208 2742 
Q 947 2381 947 1747 
z
" transform="scale(0.015625)"/>
       <path id="DejaVuSans-69" d="M 603 3500 
L 1178 3500 
L 1178 0 
L 603 0 
L 603 3500 
z
M 603 4863 
L 1178 4863 
L 1178 4134 
L 603 4134 
L 603 4863 
z
" transform="scale(0.015625)"/>
       <path id="DejaVuSans-67" d="M 2906 1791 
Q 2906 2416 2648 2759 
Q 2391 3103 1925 3103 
Q 1463 3103 1205 2759 
Q 947 2416 947 1791 
Q 947 1169 1205 825 
Q 1463 481 1925 481 
Q 2391 481 2648 825 
Q 2906 1169 2906 1791 
z
M 3481 434 
Q 3481 -459 3084 -895 
Q 2688 -1331 1869 -1331 
Q 1566 -1331 1297 -1286 
Q 1028 -1241 775 -1147 
L 775 -588 
Q 1028 -725 1275 -790 
Q 1522 -856 1778 -856 
Q 2344 -856 2625 -561 
Q 2906 -266 2906 331 
L 2906 616 
Q 2728 306 2450 153 
Q 2172 0 1784 0 
Q 1141 0 747 490 
Q 353 981 353 1791 
Q 353 2603 747 3093 
Q 1141 3584 1784 3584 
Q 2172 3584 2450 3431 
Q 2728 3278 2906 2969 
L 2906 3500 
L 3481 3500 
L 3481 434 
z
" transform="scale(0.015625)"/>
       <path id="DejaVuSans-6c" d="M 603 4863 
L 1178 4863 
L 1178 0 
L 603 0 
L 603 4863 
z
" transform="scale(0.015625)"/>
      </defs>
      <use xlink:href="#DejaVuSans-52"/>
      <use xlink:href="#DejaVuSans-65" x="64.982422"/>
      <use xlink:href="#DejaVuSans-63" x="126.505859"/>
      <use xlink:href="#DejaVuSans-6f" x="181.486328"/>
      <use xlink:href="#DejaVuSans-6e" x="242.667969"/>
      <use xlink:href="#DejaVuSans-73" x="306.046875"/>
      <use xlink:href="#DejaVuSans-74" x="358.146484"/>
      <use xlink:href="#DejaVuSans-72" x="397.355469"/>
      <use xlink:href="#DejaVuSans-75" x="438.46875"/>
      <use xlink:href="#DejaVuSans-63" x="501.847656"/>
      <use xlink:href="#DejaVuSans-74" x="556.828125"/>
      <use xlink:href="#DejaVuSans-65" x="596.037109"/>
      <use xlink:href="#DejaVuSans-64" x="657.560547"/>
      <use xlink:href="#DejaVuSans-20" x="721.037109"/>
      <use xlink:href="#DejaVuSans-53" x="752.824219"/>
      <use xlink:href="#DejaVuSans-69" x="816.300781"/>
      <use xlink:href="#DejaVuSans-67" x="844.083984"/>
      <use xlink:href="#DejaVuSans-6e" x="907.560547"/>
      <use xlink:href="#DejaVuSans-61" x="970.939453"/>
      <use xlink:href="#DejaVuSans-6c" x="1032.21875"/>
     </g>
    </g>
   </g>
  </g>
 </g>
 <defs>
  <clipPath id="p35ac272be4">
   <rect x="57.6" y="41.472" width="357.12" height="266.112"/>
  </clipPath>
 </defs>
</svg>
