<?xml version="1.0" encoding="utf-8" standalone="no"?>
<!DOCTYPE svg PUBLIC "-//W3C//DTD SVG 1.1//EN"
  "http://www.w3.org/Graphics/SVG/1.1/DTD/svg11.dtd">
<svg xmlns:xlink="http://www.w3.org/1999/xlink" width="460.8pt" height="345.6pt" viewBox="0 0 460.8 345.6" xmlns="http://www.w3.org/2000/svg" version="1.1">
 <metadata>
  <rdf:RDF xmlns:dc="http://purl.org/dc/elements/1.1/" xmlns:cc="http://creativecommons.org/ns#" xmlns:rdf="http://www.w3.org/1999/02/22-rdf-syntax-ns#">
   <cc:Work>
    <dc:type rdf:resource="http://purl.org/dc/dcmitype/StillImage"/>
    <dc:date>2023-05-14T23:54:56.990310</dc:date>
    <dc:format>image/svg+xml</dc:format>
    <dc:creator>
     <cc:Agent>
      <dc:title>Matplotlib v3.7.1, https://matplotlib.org/</dc:title>
     </cc:Agent>
    </dc:creator>
   </cc:Work>
  </rdf:RDF>
 </metadata>
 <defs>
  <style type="text/css">*{stroke-linejoin: round; stroke-linecap: butt}</style>
 </defs>
 <g id="figure_1">
  <g id="patch_1">
   <path d="M 0 345.6 
L 460.8 345.6 
L 460.8 0 
L 0 0 
z
" style="fill: #ffffff"/>
  </g>
  <g id="axes_1">
   <g id="patch_2">
    <path d="M 57.6 307.584 
L 414.72 307.584 
L 414.72 41.472 
L 57.6 41.472 
z
" style="fill: #ffffff"/>
   </g>
   <g id="matplotlib.axis_1">
    <g id="xtick_1">
     <g id="line2d_1">
      <defs>
       <path id="m05559fa2b9" d="M 0 0 
L 0 3.5 
" style="stroke: #000000; stroke-width: 0.8"/>
      </defs>
      <g>
       <use xlink:href="#m05559fa2b9" x="106.298182" y="307.584" style="stroke: #000000; stroke-width: 0.8"/>
      </g>
     </g>
     <g id="text_1">
      <!-- −0.4 -->
      <g transform="translate(94.156776 322.182437) scale(0.1 -0.1)">
       <defs>
        <path id="DejaVuSans-2212" d="M 678 2272 
L 4684 2272 
L 4684 1741 
L 678 1741 
L 678 2272 
z
" transform="scale(0.015625)"/>
        <path id="DejaVuSans-30" d="M 2034 4250 
Q 1547 4250 1301 3770 
Q 1056 3291 1056 2328 
Q 1056 1369 1301 889 
Q 1547 409 2034 409 
Q 2525 409 2770 889 
Q 3016 1369 3016 2328 
Q 3016 3291 2770 3770 
Q 2525 4250 2034 4250 
z
M 2034 4750 
Q 2819 4750 3233 4129 
Q 3647 3509 3647 2328 
Q 3647 1150 3233 529 
Q 2819 -91 2034 -91 
Q 1250 -91 836 529 
Q 422 1150 422 2328 
Q 422 3509 836 4129 
Q 1250 4750 2034 4750 
z
" transform="scale(0.015625)"/>
        <path id="DejaVuSans-2e" d="M 684 794 
L 1344 794 
L 1344 0 
L 684 0 
L 684 794 
z
" transform="scale(0.015625)"/>
        <path id="DejaVuSans-34" d="M 2419 4116 
L 825 1625 
L 2419 1625 
L 2419 4116 
z
M 2253 4666 
L 3047 4666 
L 3047 1625 
L 3713 1625 
L 3713 1100 
L 3047 1100 
L 3047 0 
L 2419 0 
L 2419 1100 
L 313 1100 
L 313 1709 
L 2253 4666 
z
" transform="scale(0.015625)"/>
       </defs>
       <use xlink:href="#DejaVuSans-2212"/>
       <use xlink:href="#DejaVuSans-30" x="83.789062"/>
       <use xlink:href="#DejaVuSans-2e" x="147.412109"/>
       <use xlink:href="#DejaVuSans-34" x="179.199219"/>
      </g>
     </g>
    </g>
    <g id="xtick_2">
     <g id="line2d_2">
      <g>
       <use xlink:href="#m05559fa2b9" x="171.229091" y="307.584" style="stroke: #000000; stroke-width: 0.8"/>
      </g>
     </g>
     <g id="text_2">
      <!-- −0.2 -->
      <g transform="translate(159.087685 322.182437) scale(0.1 -0.1)">
       <defs>
        <path id="DejaVuSans-32" d="M 1228 531 
L 3431 531 
L 3431 0 
L 469 0 
L 469 531 
Q 828 903 1448 1529 
Q 2069 2156 2228 2338 
Q 2531 2678 2651 2914 
Q 2772 3150 2772 3378 
Q 2772 3750 2511 3984 
Q 2250 4219 1831 4219 
Q 1534 4219 1204 4116 
Q 875 4013 500 3803 
L 500 4441 
Q 881 4594 1212 4672 
Q 1544 4750 1819 4750 
Q 2544 4750 2975 4387 
Q 3406 4025 3406 3419 
Q 3406 3131 3298 2873 
Q 3191 2616 2906 2266 
Q 2828 2175 2409 1742 
Q 1991 1309 1228 531 
z
" transform="scale(0.015625)"/>
       </defs>
       <use xlink:href="#DejaVuSans-2212"/>
       <use xlink:href="#DejaVuSans-30" x="83.789062"/>
       <use xlink:href="#DejaVuSans-2e" x="147.412109"/>
       <use xlink:href="#DejaVuSans-32" x="179.199219"/>
      </g>
     </g>
    </g>
    <g id="xtick_3">
     <g id="line2d_3">
      <g>
       <use xlink:href="#m05559fa2b9" x="236.16" y="307.584" style="stroke: #000000; stroke-width: 0.8"/>
      </g>
     </g>
     <g id="text_3">
      <!-- 0.0 -->
      <g transform="translate(228.208438 322.182437) scale(0.1 -0.1)">
       <use xlink:href="#DejaVuSans-30"/>
       <use xlink:href="#DejaVuSans-2e" x="63.623047"/>
       <use xlink:href="#DejaVuSans-30" x="95.410156"/>
      </g>
     </g>
    </g>
    <g id="xtick_4">
     <g id="line2d_4">
      <g>
       <use xlink:href="#m05559fa2b9" x="301.090909" y="307.584" style="stroke: #000000; stroke-width: 0.8"/>
      </g>
     </g>
     <g id="text_4">
      <!-- 0.2 -->
      <g transform="translate(293.139347 322.182437) scale(0.1 -0.1)">
       <use xlink:href="#DejaVuSans-30"/>
       <use xlink:href="#DejaVuSans-2e" x="63.623047"/>
       <use xlink:href="#DejaVuSans-32" x="95.410156"/>
      </g>
     </g>
    </g>
    <g id="xtick_5">
     <g id="line2d_5">
      <g>
       <use xlink:href="#m05559fa2b9" x="366.021818" y="307.584" style="stroke: #000000; stroke-width: 0.8"/>
      </g>
     </g>
     <g id="text_5">
      <!-- 0.4 -->
      <g transform="translate(358.070256 322.182437) scale(0.1 -0.1)">
       <use xlink:href="#DejaVuSans-30"/>
       <use xlink:href="#DejaVuSans-2e" x="63.623047"/>
       <use xlink:href="#DejaVuSans-34" x="95.410156"/>
      </g>
     </g>
    </g>
   </g>
   <g id="matplotlib.axis_2">
    <g id="ytick_1">
     <g id="line2d_6">
      <defs>
       <path id="m235795675b" d="M 0 0 
L -3.5 0 
" style="stroke: #000000; stroke-width: 0.8"/>
      </defs>
      <g>
       <use xlink:href="#m235795675b" x="57.6" y="295.488" style="stroke: #000000; stroke-width: 0.8"/>
      </g>
     </g>
     <g id="text_6">
      <!-- −10.0 -->
      <g transform="translate(19.954687 299.287219) scale(0.1 -0.1)">
       <defs>
        <path id="DejaVuSans-31" d="M 794 531 
L 1825 531 
L 1825 4091 
L 703 3866 
L 703 4441 
L 1819 4666 
L 2450 4666 
L 2450 531 
L 3481 531 
L 3481 0 
L 794 0 
L 794 531 
z
" transform="scale(0.015625)"/>
       </defs>
       <use xlink:href="#DejaVuSans-2212"/>
       <use xlink:href="#DejaVuSans-31" x="83.789062"/>
       <use xlink:href="#DejaVuSans-30" x="147.412109"/>
       <use xlink:href="#DejaVuSans-2e" x="211.035156"/>
       <use xlink:href="#DejaVuSans-30" x="242.822266"/>
      </g>
     </g>
    </g>
    <g id="ytick_2">
     <g id="line2d_7">
      <g>
       <use xlink:href="#m235795675b" x="57.6" y="265.248" style="stroke: #000000; stroke-width: 0.8"/>
      </g>
     </g>
     <g id="text_7">
      <!-- −7.5 -->
      <g transform="translate(26.317187 269.047219) scale(0.1 -0.1)">
       <defs>
        <path id="DejaVuSans-37" d="M 525 4666 
L 3525 4666 
L 3525 4397 
L 1831 0 
L 1172 0 
L 2766 4134 
L 525 4134 
L 525 4666 
z
" transform="scale(0.015625)"/>
        <path id="DejaVuSans-35" d="M 691 4666 
L 3169 4666 
L 3169 4134 
L 1269 4134 
L 1269 2991 
Q 1406 3038 1543 3061 
Q 1681 3084 1819 3084 
Q 2600 3084 3056 2656 
Q 3513 2228 3513 1497 
Q 3513 744 3044 326 
Q 2575 -91 1722 -91 
Q 1428 -91 1123 -41 
Q 819 9 494 109 
L 494 744 
Q 775 591 1075 516 
Q 1375 441 1709 441 
Q 2250 441 2565 725 
Q 2881 1009 2881 1497 
Q 2881 1984 2565 2268 
Q 2250 2553 1709 2553 
Q 1456 2553 1204 2497 
Q 953 2441 691 2322 
L 691 4666 
z
" transform="scale(0.015625)"/>
       </defs>
       <use xlink:href="#DejaVuSans-2212"/>
       <use xlink:href="#DejaVuSans-37" x="83.789062"/>
       <use xlink:href="#DejaVuSans-2e" x="147.412109"/>
       <use xlink:href="#DejaVuSans-35" x="179.199219"/>
      </g>
     </g>
    </g>
    <g id="ytick_3">
     <g id="line2d_8">
      <g>
       <use xlink:href="#m235795675b" x="57.6" y="235.008" style="stroke: #000000; stroke-width: 0.8"/>
      </g>
     </g>
     <g id="text_8">
      <!-- −5.0 -->
      <g transform="translate(26.317187 238.807219) scale(0.1 -0.1)">
       <use xlink:href="#DejaVuSans-2212"/>
       <use xlink:href="#DejaVuSans-35" x="83.789062"/>
       <use xlink:href="#DejaVuSans-2e" x="147.412109"/>
       <use xlink:href="#DejaVuSans-30" x="179.199219"/>
      </g>
     </g>
    </g>
    <g id="ytick_4">
     <g id="line2d_9">
      <g>
       <use xlink:href="#m235795675b" x="57.6" y="204.768" style="stroke: #000000; stroke-width: 0.8"/>
      </g>
     </g>
     <g id="text_9">
      <!-- −2.5 -->
      <g transform="translate(26.317187 208.567219) scale(0.1 -0.1)">
       <use xlink:href="#DejaVuSans-2212"/>
       <use xlink:href="#DejaVuSans-32" x="83.789062"/>
       <use xlink:href="#DejaVuSans-2e" x="147.412109"/>
       <use xlink:href="#DejaVuSans-35" x="179.199219"/>
      </g>
     </g>
    </g>
    <g id="ytick_5">
     <g id="line2d_10">
      <g>
       <use xlink:href="#m235795675b" x="57.6" y="174.528" style="stroke: #000000; stroke-width: 0.8"/>
      </g>
     </g>
     <g id="text_10">
      <!-- 0.0 -->
      <g transform="translate(34.696875 178.327219) scale(0.1 -0.1)">
       <use xlink:href="#DejaVuSans-30"/>
       <use xlink:href="#DejaVuSans-2e" x="63.623047"/>
       <use xlink:href="#DejaVuSans-30" x="95.410156"/>
      </g>
     </g>
    </g>
    <g id="ytick_6">
     <g id="line2d_11">
      <g>
       <use xlink:href="#m235795675b" x="57.6" y="144.288" style="stroke: #000000; stroke-width: 0.8"/>
      </g>
     </g>
     <g id="text_11">
      <!-- 2.5 -->
      <g transform="translate(34.696875 148.087219) scale(0.1 -0.1)">
       <use xlink:href="#DejaVuSans-32"/>
       <use xlink:href="#DejaVuSans-2e" x="63.623047"/>
       <use xlink:href="#DejaVuSans-35" x="95.410156"/>
      </g>
     </g>
    </g>
    <g id="ytick_7">
     <g id="line2d_12">
      <g>
       <use xlink:href="#m235795675b" x="57.6" y="114.048" style="stroke: #000000; stroke-width: 0.8"/>
      </g>
     </g>
     <g id="text_12">
      <!-- 5.0 -->
      <g transform="translate(34.696875 117.847219) scale(0.1 -0.1)">
       <use xlink:href="#DejaVuSans-35"/>
       <use xlink:href="#DejaVuSans-2e" x="63.623047"/>
       <use xlink:href="#DejaVuSans-30" x="95.410156"/>
      </g>
     </g>
    </g>
    <g id="ytick_8">
     <g id="line2d_13">
      <g>
       <use xlink:href="#m235795675b" x="57.6" y="83.808" style="stroke: #000000; stroke-width: 0.8"/>
      </g>
     </g>
     <g id="text_13">
      <!-- 7.5 -->
      <g transform="translate(34.696875 87.607219) scale(0.1 -0.1)">
       <use xlink:href="#DejaVuSans-37"/>
       <use xlink:href="#DejaVuSans-2e" x="63.623047"/>
       <use xlink:href="#DejaVuSans-35" x="95.410156"/>
      </g>
     </g>
    </g>
    <g id="ytick_9">
     <g id="line2d_14">
      <g>
       <use xlink:href="#m235795675b" x="57.6" y="53.568" style="stroke: #000000; stroke-width: 0.8"/>
      </g>
     </g>
     <g id="text_14">
      <!-- 10.0 -->
      <g transform="translate(28.334375 57.367219) scale(0.1 -0.1)">
       <use xlink:href="#DejaVuSans-31"/>
       <use xlink:href="#DejaVuSans-30" x="63.623047"/>
       <use xlink:href="#DejaVuSans-2e" x="127.246094"/>
       <use xlink:href="#DejaVuSans-30" x="159.033203"/>
      </g>
     </g>
    </g>
   </g>
   <g id="line2d_15">
    <path d="M 73.832727 295.488 
L 235.99751 295.488 
L 236.32249 53.568 
L 398.487273 53.568 
L 398.487273 53.568 
" clip-path="url(#p63af207da4)" style="fill: none; stroke: #1f77b4; stroke-width: 1.5; stroke-linecap: square"/>
   </g>
   <g id="line2d_16">
    <path d="M 73.832727 186.624 
L 74.482686 227.56514 
L 74.807666 239.771964 
L 75.132645 245.430399 
L 75.457625 245.430399 
L 75.782604 241.657613 
L 76.432563 231.845523 
L 76.757543 229.329587 
L 77.082523 229.329587 
L 77.407502 231.388622 
L 78.057461 237.262968 
L 78.382441 238.88158 
L 78.70742 238.88158 
L 79.0324 237.464735 
L 79.682359 233.267922 
L 80.007338 232.073964 
L 80.332318 232.073964 
L 80.657297 233.154781 
L 81.307256 236.422217 
L 81.632236 237.368774 
L 81.957215 237.368774 
L 82.282195 236.494453 
L 82.932154 233.817125 
L 83.257133 233.032399 
L 83.582113 233.032399 
L 83.907093 233.767079 
L 84.557052 236.036784 
L 84.882031 236.707502 
L 85.207011 236.707502 
L 85.53199 236.073461 
L 86.181949 234.101949 
L 86.506929 233.515809 
L 86.831908 233.515809 
L 87.156888 234.073947 
L 87.806847 235.818051 
L 88.131826 236.339011 
L 88.456806 236.339011 
L 88.781785 235.840108 
L 89.431744 234.274984 
L 89.756724 233.805742 
L 90.081704 233.805742 
L 90.406683 234.25718 
L 91.056642 235.677913 
L 91.381622 236.105163 
L 91.706601 236.105163 
L 92.031581 235.69257 
L 92.68154 234.390658 
L 93.006519 233.998147 
L 93.331499 233.998147 
L 93.656478 234.378395 
L 94.306437 235.580924 
L 94.631417 235.944252 
L 94.956396 235.944252 
L 95.281376 235.591324 
L 95.931335 234.473055 
L 96.256314 234.134559 
L 96.581294 234.134559 
L 96.906274 234.464134 
L 97.556233 235.510143 
L 97.881212 235.827276 
L 98.206192 235.827276 
L 98.531171 235.517869 
L 99.50611 234.235853 
L 99.831089 234.235853 
L 100.156069 234.527688 
L 101.131007 235.738823 
L 101.455987 235.738823 
L 101.780966 235.462411 
L 102.755905 234.313656 
L 103.080885 234.313656 
L 103.405864 234.576439 
L 104.380803 235.669952 
L 104.705782 235.669952 
L 105.030762 235.419282 
L 106.0057 234.374958 
L 106.33068 234.374958 
L 106.655659 234.614808 
L 107.630598 235.615124 
L 107.955577 235.615124 
L 108.280557 235.38498 
L 109.255495 234.424203 
L 109.580475 234.424203 
L 110.230434 235.001186 
L 110.880393 235.570729 
L 111.205373 235.570729 
L 111.855332 235.014173 
L 112.505291 234.464354 
L 112.83027 234.464354 
L 113.480229 235.002394 
L 114.130188 235.534316 
L 114.455168 235.534316 
L 115.105127 235.013102 
L 115.755086 234.497456 
L 116.080066 234.497456 
L 116.730025 235.003349 
L 117.379984 235.504164 
L 117.704963 235.504164 
L 118.354922 235.012247 
L 119.004881 234.524964 
L 119.329861 234.524964 
L 119.97982 235.004118 
L 120.629779 235.479037 
L 120.954758 235.479037 
L 121.604717 235.01155 
L 122.254676 234.547938 
L 122.579656 234.547938 
L 123.229615 235.004751 
L 123.879574 235.45802 
L 124.204554 235.45802 
L 124.854513 235.010972 
L 125.504472 234.567167 
L 125.829451 234.567167 
L 126.47941 235.005282 
L 127.129369 235.440431 
L 127.454349 235.440431 
L 128.104308 235.010483 
L 128.754267 234.583246 
L 129.079247 234.583246 
L 129.729206 235.005734 
L 130.379165 235.42575 
L 130.704144 235.42575 
L 131.354103 235.010063 
L 132.004062 234.596627 
L 132.329042 234.596627 
L 132.979001 235.006126 
L 133.62896 235.413581 
L 133.953939 235.413581 
L 134.603898 235.009696 
L 135.253857 234.607661 
L 135.578837 234.607661 
L 136.228796 235.006472 
L 136.878755 235.403617 
L 137.203735 235.403617 
L 137.853694 235.009369 
L 138.503653 234.616614 
L 138.828632 234.616614 
L 139.478591 235.006783 
L 140.12855 235.395623 
L 140.45353 235.395623 
L 141.103489 235.009073 
L 141.753448 234.623693 
L 142.078428 234.623693 
L 142.728387 235.007066 
L 143.378346 235.38942 
L 143.703325 235.38942 
L 144.353284 235.0088 
L 145.003243 234.629052 
L 145.328223 234.629052 
L 145.978182 235.00733 
L 146.628141 235.384876 
L 146.95312 235.384876 
L 147.603079 235.008544 
L 148.253038 234.632805 
L 148.578018 234.632805 
L 149.227977 235.00758 
L 149.877936 235.381897 
L 150.202916 235.381897 
L 150.852875 235.008299 
L 151.502834 234.635026 
L 151.827813 234.635026 
L 152.477772 235.007821 
L 153.127731 235.380422 
L 153.452711 235.380422 
L 154.10267 235.008059 
L 154.752629 234.635762 
L 155.077609 234.635762 
L 155.727568 235.008059 
L 156.377527 235.380422 
L 156.702506 235.380422 
L 157.352465 235.007821 
L 158.002424 234.635026 
L 158.327404 234.635026 
L 158.977363 235.008299 
L 159.627322 235.381897 
L 159.952301 235.381897 
L 160.60226 235.00758 
L 161.252219 234.632805 
L 161.577199 234.632805 
L 162.227158 235.008544 
L 162.877117 235.384876 
L 163.202097 235.384876 
L 163.852056 235.00733 
L 164.502015 234.629052 
L 164.826994 234.629052 
L 165.476953 235.0088 
L 166.126912 235.38942 
L 166.451892 235.38942 
L 167.101851 235.007066 
L 167.75181 234.623693 
L 168.07679 234.623693 
L 168.726749 235.009073 
L 169.376708 235.395623 
L 169.701687 235.395623 
L 170.351646 235.006783 
L 171.001605 234.616614 
L 171.326585 234.616614 
L 171.976544 235.009369 
L 172.626503 235.403617 
L 172.951482 235.403617 
L 173.601441 235.006472 
L 174.2514 234.607661 
L 174.57638 234.607661 
L 175.226339 235.009696 
L 175.876298 235.413581 
L 176.201278 235.413581 
L 176.851237 235.006126 
L 177.501196 234.596627 
L 177.826175 234.596627 
L 178.476134 235.010063 
L 179.126093 235.42575 
L 179.451073 235.42575 
L 180.101032 235.005734 
L 180.750991 234.583246 
L 181.075971 234.583246 
L 181.72593 235.010483 
L 182.375889 235.440431 
L 182.700868 235.440431 
L 183.350827 235.005282 
L 184.000786 234.567167 
L 184.325766 234.567167 
L 184.975725 235.010972 
L 185.625684 235.45802 
L 185.950663 235.45802 
L 186.600622 235.004751 
L 187.250581 234.547938 
L 187.575561 234.547938 
L 188.22552 235.01155 
L 188.875479 235.479037 
L 189.200459 235.479037 
L 189.850418 235.004118 
L 190.500377 234.524964 
L 190.825356 234.524964 
L 191.475315 235.012247 
L 192.125274 235.504164 
L 192.450254 235.504164 
L 193.100213 235.003349 
L 193.750172 234.497456 
L 194.075152 234.497456 
L 194.725111 235.013102 
L 195.37507 235.534316 
L 195.700049 235.534316 
L 196.350008 235.002394 
L 196.999967 234.464354 
L 197.324947 234.464354 
L 197.974906 235.014173 
L 198.624865 235.570729 
L 198.949844 235.570729 
L 199.274824 235.354159 
L 200.249762 234.424203 
L 200.574742 234.424203 
L 200.899722 234.648996 
L 201.87466 235.615124 
L 202.19964 235.615124 
L 202.524619 235.381221 
L 203.499558 234.374958 
L 203.824537 234.374958 
L 204.149517 234.618993 
L 205.124455 235.669952 
L 205.449435 235.669952 
L 205.774414 235.414604 
L 206.749353 234.313656 
L 207.074333 234.313656 
L 207.399312 234.581694 
L 208.374251 235.738823 
L 208.69923 235.738823 
L 209.02421 235.456475 
L 209.999148 234.235853 
L 210.324128 234.235853 
L 210.649107 234.534436 
L 211.624046 235.827276 
L 211.949025 235.827276 
L 212.274005 235.510143 
L 213.248943 234.134559 
L 213.573923 234.134559 
L 213.898903 234.473055 
L 214.873841 235.944252 
L 215.198821 235.944252 
L 215.5238 235.580924 
L 216.498739 233.998147 
L 216.823718 233.998147 
L 217.148698 234.390658 
L 218.123636 236.105163 
L 218.448616 236.105163 
L 218.773595 235.677913 
L 219.748534 233.805742 
L 220.073514 233.805742 
L 220.398493 234.274984 
L 221.373432 236.339011 
L 221.698411 236.339011 
L 222.023391 235.818051 
L 222.998329 233.515809 
L 223.323309 233.515809 
L 223.648288 234.101949 
L 224.623227 236.707502 
L 224.948206 236.707502 
L 225.273186 236.036784 
L 226.248124 233.032399 
L 226.573104 233.032399 
L 226.898084 233.817125 
L 227.873022 237.368774 
L 228.198002 237.368774 
L 228.522981 236.422217 
L 229.49792 232.073964 
L 229.822899 232.073964 
L 230.147879 233.267922 
L 231.122817 238.88158 
L 231.447797 238.88158 
L 231.772776 237.262968 
L 232.747715 229.329587 
L 233.072695 229.329587 
L 233.397674 231.845523 
L 234.372613 245.430399 
L 234.697592 245.430399 
L 235.022572 239.771964 
L 235.347551 227.56514 
L 235.99751 186.624 
L 236.972449 121.49086 
L 237.297428 109.284036 
L 237.622408 103.625601 
L 237.947387 103.625601 
L 238.272367 107.398387 
L 238.922326 117.210477 
L 239.247305 119.726413 
L 239.572285 119.726413 
L 239.897265 117.667378 
L 240.547224 111.793032 
L 240.872203 110.17442 
L 241.197183 110.17442 
L 241.522162 111.591265 
L 242.172121 115.788078 
L 242.497101 116.982036 
L 242.82208 116.982036 
L 243.14706 115.901219 
L 243.797019 112.633783 
L 244.121998 111.687226 
L 244.446978 111.687226 
L 244.771957 112.561547 
L 245.421916 115.238875 
L 245.746896 116.023601 
L 246.071876 116.023601 
L 246.396855 115.288921 
L 247.046814 113.019216 
L 247.371794 112.348498 
L 247.696773 112.348498 
L 248.021753 112.982539 
L 248.671712 114.954051 
L 248.996691 115.540191 
L 249.321671 115.540191 
L 249.64665 114.982053 
L 250.296609 113.237949 
L 250.621589 112.716989 
L 250.946568 112.716989 
L 251.271548 113.215892 
L 251.921507 114.781016 
L 252.246486 115.250258 
L 252.571466 115.250258 
L 252.896446 114.79882 
L 253.546405 113.378087 
L 253.871384 112.950837 
L 254.196364 112.950837 
L 254.521343 113.36343 
L 255.171302 114.665342 
L 255.496282 115.057853 
L 255.821261 115.057853 
L 256.146241 114.677605 
L 256.7962 113.475076 
L 257.121179 113.111748 
L 257.446159 113.111748 
L 257.771138 113.464676 
L 258.421097 114.582945 
L 258.746077 114.921441 
L 259.071057 114.921441 
L 259.396036 114.591866 
L 260.045995 113.545857 
L 260.370975 113.228724 
L 260.695954 113.228724 
L 261.020934 113.538131 
L 261.995872 114.820147 
L 262.320852 114.820147 
L 262.645831 114.528312 
L 263.62077 113.317177 
L 263.945749 113.317177 
L 264.270729 113.593589 
L 265.245667 114.742344 
L 265.570647 114.742344 
L 265.895627 114.479561 
L 266.870565 113.386048 
L 267.195545 113.386048 
L 267.520524 113.636718 
L 268.495463 114.681042 
L 268.820442 114.681042 
L 269.145422 114.441192 
L 270.12036 113.440876 
L 270.44534 113.440876 
L 270.770319 113.67102 
L 271.745258 114.631797 
L 272.070238 114.631797 
L 272.720197 114.054814 
L 273.370156 113.485271 
L 273.695135 113.485271 
L 274.345094 114.041827 
L 274.995053 114.591646 
L 275.320033 114.591646 
L 275.969992 114.053606 
L 276.619951 113.521684 
L 276.94493 113.521684 
L 277.594889 114.042898 
L 278.244848 114.558544 
L 278.569828 114.558544 
L 279.219787 114.052651 
L 279.869746 113.551836 
L 280.194726 113.551836 
L 280.844685 114.043753 
L 281.494644 114.531036 
L 281.819623 114.531036 
L 282.469582 114.051882 
L 283.119541 113.576963 
L 283.444521 113.576963 
L 284.09448 114.04445 
L 284.744439 114.508062 
L 285.069419 114.508062 
L 285.719378 114.051249 
L 286.369337 113.59798 
L 286.694316 113.59798 
L 287.344275 114.045028 
L 287.994234 114.488833 
L 288.319214 114.488833 
L 288.969173 114.050718 
L 289.619132 113.615569 
L 289.944111 113.615569 
L 290.59407 114.045517 
L 291.244029 114.472754 
L 291.569009 114.472754 
L 292.218968 114.050266 
L 292.868927 113.63025 
L 293.193907 113.63025 
L 293.843866 114.045937 
L 294.493825 114.459373 
L 294.818804 114.459373 
L 295.468763 114.049874 
L 296.118722 113.642419 
L 296.443702 113.642419 
L 297.093661 114.046304 
L 297.74362 114.448339 
L 298.0686 114.448339 
L 298.718559 114.049528 
L 299.368518 113.652383 
L 299.693497 113.652383 
L 300.343456 114.046631 
L 300.993415 114.439386 
L 301.318395 114.439386 
L 301.968354 114.049217 
L 302.618313 113.660377 
L 302.943292 113.660377 
L 303.593251 114.046927 
L 304.24321 114.432307 
L 304.56819 114.432307 
L 305.218149 114.048934 
L 305.868108 113.66658 
L 306.193088 113.66658 
L 306.843047 114.0472 
L 307.493006 114.426948 
L 307.817985 114.426948 
L 308.467944 114.04867 
L 309.117903 113.671124 
L 309.442883 113.671124 
L 310.092842 114.047456 
L 310.742801 114.423195 
L 311.067781 114.423195 
L 311.71774 114.04842 
L 312.367699 113.674103 
L 312.692678 113.674103 
L 313.342637 114.047701 
L 313.992596 114.420974 
L 314.317576 114.420974 
L 314.967535 114.048179 
L 315.617494 113.675578 
L 315.942473 113.675578 
L 316.592432 114.047941 
L 317.242391 114.420238 
L 317.567371 114.420238 
L 318.21733 114.047941 
L 318.867289 113.675578 
L 319.192269 113.675578 
L 319.842228 114.048179 
L 320.492187 114.420974 
L 320.817166 114.420974 
L 321.467125 114.047701 
L 322.117084 113.674103 
L 322.442064 113.674103 
L 323.092023 114.04842 
L 323.741982 114.423195 
L 324.066962 114.423195 
L 324.716921 114.047456 
L 325.36688 113.671124 
L 325.691859 113.671124 
L 326.341818 114.04867 
L 326.991777 114.426948 
L 327.316757 114.426948 
L 327.966716 114.0472 
L 328.616675 113.66658 
L 328.941654 113.66658 
L 329.591613 114.048934 
L 330.241572 114.432307 
L 330.566552 114.432307 
L 331.216511 114.046927 
L 331.86647 113.660377 
L 332.19145 113.660377 
L 332.841409 114.049217 
L 333.491368 114.439386 
L 333.816347 114.439386 
L 334.466306 114.046631 
L 335.116265 113.652383 
L 335.441245 113.652383 
L 336.091204 114.049528 
L 336.741163 114.448339 
L 337.066143 114.448339 
L 337.716102 114.046304 
L 338.366061 113.642419 
L 338.69104 113.642419 
L 339.340999 114.049874 
L 339.990958 114.459373 
L 340.315938 114.459373 
L 340.965897 114.045937 
L 341.615856 113.63025 
L 341.940835 113.63025 
L 342.590794 114.050266 
L 343.240753 114.472754 
L 343.565733 114.472754 
L 344.215692 114.045517 
L 344.865651 113.615569 
L 345.190631 113.615569 
L 345.84059 114.050718 
L 346.490549 114.488833 
L 346.815528 114.488833 
L 347.465487 114.045028 
L 348.115446 113.59798 
L 348.440426 113.59798 
L 349.090385 114.051249 
L 349.740344 114.508062 
L 350.065324 114.508062 
L 350.715283 114.04445 
L 351.365242 113.576963 
L 351.690221 113.576963 
L 352.34018 114.051882 
L 352.990139 114.531036 
L 353.315119 114.531036 
L 353.965078 114.043753 
L 354.615037 113.551836 
L 354.940016 113.551836 
L 355.589975 114.052651 
L 356.239934 114.558544 
L 356.564914 114.558544 
L 357.214873 114.042898 
L 357.864832 113.521684 
L 358.189812 113.521684 
L 358.839771 114.053606 
L 359.48973 114.591646 
L 359.814709 114.591646 
L 360.464668 114.041827 
L 361.114627 113.485271 
L 361.439607 113.485271 
L 361.764586 113.701841 
L 362.739525 114.631797 
L 363.064505 114.631797 
L 363.389484 114.407004 
L 364.364423 113.440876 
L 364.689402 113.440876 
L 365.014382 113.674779 
L 365.98932 114.681042 
L 366.3143 114.681042 
L 366.639279 114.437007 
L 367.614218 113.386048 
L 367.939197 113.386048 
L 368.264177 113.641396 
L 369.239115 114.742344 
L 369.564095 114.742344 
L 369.889075 114.474306 
L 370.864013 113.317177 
L 371.188993 113.317177 
L 371.513972 113.599525 
L 372.488911 114.820147 
L 372.81389 114.820147 
L 373.13887 114.521564 
L 374.113808 113.228724 
L 374.438788 113.228724 
L 374.763767 113.545857 
L 375.738706 114.921441 
L 376.063686 114.921441 
L 376.388665 114.582945 
L 377.363604 113.111748 
L 377.688583 113.111748 
L 378.013563 113.475076 
L 378.988501 115.057853 
L 379.313481 115.057853 
L 379.63846 114.665342 
L 380.613399 112.950837 
L 380.938378 112.950837 
L 381.263358 113.378087 
L 382.238296 115.250258 
L 382.563276 115.250258 
L 382.888256 114.781016 
L 383.863194 112.716989 
L 384.188174 112.716989 
L 384.513153 113.237949 
L 385.488092 115.540191 
L 385.813071 115.540191 
L 386.138051 114.954051 
L 387.112989 112.348498 
L 387.437969 112.348498 
L 387.762948 113.019216 
L 388.737887 116.023601 
L 389.062867 116.023601 
L 389.387846 115.238875 
L 390.362785 111.687226 
L 390.687764 111.687226 
L 391.012744 112.633783 
L 391.987682 116.982036 
L 392.312662 116.982036 
L 392.637641 115.788078 
L 393.61258 110.17442 
L 393.937559 110.17442 
L 394.262539 111.793032 
L 395.237477 119.726413 
L 395.562457 119.726413 
L 395.887437 117.210477 
L 396.862375 103.625601 
L 397.187355 103.625601 
L 397.512334 109.284036 
L 397.837314 121.49086 
L 398.487273 162.432 
L 398.487273 162.432 
" clip-path="url(#p63af207da4)" style="fill: none; stroke: #ff7f0e; stroke-width: 1.5; stroke-linecap: square"/>
   </g>
   <g id="patch_3">
    <path d="M 57.6 307.584 
L 57.6 41.472 
" style="fill: none; stroke: #000000; stroke-width: 0.8; stroke-linejoin: miter; stroke-linecap: square"/>
   </g>
   <g id="patch_4">
    <path d="M 414.72 307.584 
L 414.72 41.472 
" style="fill: none; stroke: #000000; stroke-width: 0.8; stroke-linejoin: miter; stroke-linecap: square"/>
   </g>
   <g id="patch_5">
    <path d="M 57.6 307.584 
L 414.72 307.584 
" style="fill: none; stroke: #000000; stroke-width: 0.8; stroke-linejoin: miter; stroke-linecap: square"/>
   </g>
   <g id="patch_6">
    <path d="M 57.6 41.472 
L 414.72 41.472 
" style="fill: none; stroke: #000000; stroke-width: 0.8; stroke-linejoin: miter; stroke-linecap: square"/>
   </g>
   <g id="legend_1">
    <g id="patch_7">
     <path d="M 64.6 78.82825 
L 202.601562 78.82825 
Q 204.601562 78.82825 204.601562 76.82825 
L 204.601562 48.472 
Q 204.601562 46.472 202.601562 46.472 
L 64.6 46.472 
Q 62.6 46.472 62.6 48.472 
L 62.6 76.82825 
Q 62.6 78.82825 64.6 78.82825 
z
" style="fill: #ffffff; opacity: 0.8; stroke: #cccccc; stroke-linejoin: miter"/>
    </g>
    <g id="line2d_17">
     <path d="M 66.6 54.570437 
L 76.6 54.570437 
L 86.6 54.570437 
" style="fill: none; stroke: #1f77b4; stroke-width: 1.5; stroke-linecap: square"/>
    </g>
    <g id="text_15">
     <!-- Square Wave -->
     <g transform="translate(94.6 58.070437) scale(0.1 -0.1)">
      <defs>
       <path id="DejaVuSans-53" d="M 3425 4513 
L 3425 3897 
Q 3066 4069 2747 4153 
Q 2428 4238 2131 4238 
Q 1616 4238 1336 4038 
Q 1056 3838 1056 3469 
Q 1056 3159 1242 3001 
Q 1428 2844 1947 2747 
L 2328 2669 
Q 3034 2534 3370 2195 
Q 3706 1856 3706 1288 
Q 3706 609 3251 259 
Q 2797 -91 1919 -91 
Q 1588 -91 1214 -16 
Q 841 59 441 206 
L 441 856 
Q 825 641 1194 531 
Q 1563 422 1919 422 
Q 2459 422 2753 634 
Q 3047 847 3047 1241 
Q 3047 1584 2836 1778 
Q 2625 1972 2144 2069 
L 1759 2144 
Q 1053 2284 737 2584 
Q 422 2884 422 3419 
Q 422 4038 858 4394 
Q 1294 4750 2059 4750 
Q 2388 4750 2728 4690 
Q 3069 4631 3425 4513 
z
" transform="scale(0.015625)"/>
       <path id="DejaVuSans-71" d="M 947 1747 
Q 947 1113 1208 752 
Q 1469 391 1925 391 
Q 2381 391 2643 752 
Q 2906 1113 2906 1747 
Q 2906 2381 2643 2742 
Q 2381 3103 1925 3103 
Q 1469 3103 1208 2742 
Q 947 2381 947 1747 
z
M 2906 525 
Q 2725 213 2448 61 
Q 2172 -91 1784 -91 
Q 1150 -91 751 415 
Q 353 922 353 1747 
Q 353 2572 751 3078 
Q 1150 3584 1784 3584 
Q 2172 3584 2448 3432 
Q 2725 3281 2906 2969 
L 2906 3500 
L 3481 3500 
L 3481 -1331 
L 2906 -1331 
L 2906 525 
z
" transform="scale(0.015625)"/>
       <path id="DejaVuSans-75" d="M 544 1381 
L 544 3500 
L 1119 3500 
L 1119 1403 
Q 1119 906 1312 657 
Q 1506 409 1894 409 
Q 2359 409 2629 706 
Q 2900 1003 2900 1516 
L 2900 3500 
L 3475 3500 
L 3475 0 
L 2900 0 
L 2900 538 
Q 2691 219 2414 64 
Q 2138 -91 1772 -91 
Q 1169 -91 856 284 
Q 544 659 544 1381 
z
M 1991 3584 
L 1991 3584 
z
" transform="scale(0.015625)"/>
       <path id="DejaVuSans-61" d="M 2194 1759 
Q 1497 1759 1228 1600 
Q 959 1441 959 1056 
Q 959 750 1161 570 
Q 1363 391 1709 391 
Q 2188 391 2477 730 
Q 2766 1069 2766 1631 
L 2766 1759 
L 2194 1759 
z
M 3341 1997 
L 3341 0 
L 2766 0 
L 2766 531 
Q 2569 213 2275 61 
Q 1981 -91 1556 -91 
Q 1019 -91 701 211 
Q 384 513 384 1019 
Q 384 1609 779 1909 
Q 1175 2209 1959 2209 
L 2766 2209 
L 2766 2266 
Q 2766 2663 2505 2880 
Q 2244 3097 1772 3097 
Q 1472 3097 1187 3025 
Q 903 2953 641 2809 
L 641 3341 
Q 956 3463 1253 3523 
Q 1550 3584 1831 3584 
Q 2591 3584 2966 3190 
Q 3341 2797 3341 1997 
z
" transform="scale(0.015625)"/>
       <path id="DejaVuSans-72" d="M 2631 2963 
Q 2534 3019 2420 3045 
Q 2306 3072 2169 3072 
Q 1681 3072 1420 2755 
Q 1159 2438 1159 1844 
L 1159 0 
L 581 0 
L 581 3500 
L 1159 3500 
L 1159 2956 
Q 1341 3275 1631 3429 
Q 1922 3584 2338 3584 
Q 2397 3584 2469 3576 
Q 2541 3569 2628 3553 
L 2631 2963 
z
" transform="scale(0.015625)"/>
       <path id="DejaVuSans-65" d="M 3597 1894 
L 3597 1613 
L 953 1613 
Q 991 1019 1311 708 
Q 1631 397 2203 397 
Q 2534 397 2845 478 
Q 3156 559 3463 722 
L 3463 178 
Q 3153 47 2828 -22 
Q 2503 -91 2169 -91 
Q 1331 -91 842 396 
Q 353 884 353 1716 
Q 353 2575 817 3079 
Q 1281 3584 2069 3584 
Q 2775 3584 3186 3129 
Q 3597 2675 3597 1894 
z
M 3022 2063 
Q 3016 2534 2758 2815 
Q 2500 3097 2075 3097 
Q 1594 3097 1305 2825 
Q 1016 2553 972 2059 
L 3022 2063 
z
" transform="scale(0.015625)"/>
       <path id="DejaVuSans-20" transform="scale(0.015625)"/>
       <path id="DejaVuSans-57" d="M 213 4666 
L 850 4666 
L 1831 722 
L 2809 4666 
L 3519 4666 
L 4500 722 
L 5478 4666 
L 6119 4666 
L 4947 0 
L 4153 0 
L 3169 4050 
L 2175 0 
L 1381 0 
L 213 4666 
z
" transform="scale(0.015625)"/>
       <path id="DejaVuSans-76" d="M 191 3500 
L 800 3500 
L 1894 563 
L 2988 3500 
L 3597 3500 
L 2284 0 
L 1503 0 
L 191 3500 
z
" transform="scale(0.015625)"/>
      </defs>
      <use xlink:href="#DejaVuSans-53"/>
      <use xlink:href="#DejaVuSans-71" x="63.476562"/>
      <use xlink:href="#DejaVuSans-75" x="126.953125"/>
      <use xlink:href="#DejaVuSans-61" x="190.332031"/>
      <use xlink:href="#DejaVuSans-72" x="251.611328"/>
      <use xlink:href="#DejaVuSans-65" x="290.474609"/>
      <use xlink:href="#DejaVuSans-20" x="351.998047"/>
      <use xlink:href="#DejaVuSans-57" x="383.785156"/>
      <use xlink:href="#DejaVuSans-61" x="476.287109"/>
      <use xlink:href="#DejaVuSans-76" x="537.566406"/>
      <use xlink:href="#DejaVuSans-65" x="596.746094"/>
     </g>
    </g>
    <g id="line2d_18">
     <path d="M 66.6 69.248562 
L 76.6 69.248562 
L 86.6 69.248562 
" style="fill: none; stroke: #ff7f0e; stroke-width: 1.5; stroke-linecap: square"/>
    </g>
    <g id="text_16">
     <!-- Reconstructed Signal -->
     <g transform="translate(94.6 72.748562) scale(0.1 -0.1)">
      <defs>
       <path id="DejaVuSans-52" d="M 2841 2188 
Q 3044 2119 3236 1894 
Q 3428 1669 3622 1275 
L 4263 0 
L 3584 0 
L 2988 1197 
Q 2756 1666 2539 1819 
Q 2322 1972 1947 1972 
L 1259 1972 
L 1259 0 
L 628 0 
L 628 4666 
L 2053 4666 
Q 2853 4666 3247 4331 
Q 3641 3997 3641 3322 
Q 3641 2881 3436 2590 
Q 3231 2300 2841 2188 
z
M 1259 4147 
L 1259 2491 
L 2053 2491 
Q 2509 2491 2742 2702 
Q 2975 2913 2975 3322 
Q 2975 3731 2742 3939 
Q 2509 4147 2053 4147 
L 1259 4147 
z
" transform="scale(0.015625)"/>
       <path id="DejaVuSans-63" d="M 3122 3366 
L 3122 2828 
Q 2878 2963 2633 3030 
Q 2388 3097 2138 3097 
Q 1578 3097 1268 2742 
Q 959 2388 959 1747 
Q 959 1106 1268 751 
Q 1578 397 2138 397 
Q 2388 397 2633 464 
Q 2878 531 3122 666 
L 3122 134 
Q 2881 22 2623 -34 
Q 2366 -91 2075 -91 
Q 1284 -91 818 406 
Q 353 903 353 1747 
Q 353 2603 823 3093 
Q 1294 3584 2113 3584 
Q 2378 3584 2631 3529 
Q 2884 3475 3122 3366 
z
" transform="scale(0.015625)"/>
       <path id="DejaVuSans-6f" d="M 1959 3097 
Q 1497 3097 1228 2736 
Q 959 2375 959 1747 
Q 959 1119 1226 758 
Q 1494 397 1959 397 
Q 2419 397 2687 759 
Q 2956 1122 2956 1747 
Q 2956 2369 2687 2733 
Q 2419 3097 1959 3097 
z
M 1959 3584 
Q 2709 3584 3137 3096 
Q 3566 2609 3566 1747 
Q 3566 888 3137 398 
Q 2709 -91 1959 -91 
Q 1206 -91 779 398 
Q 353 888 353 1747 
Q 353 2609 779 3096 
Q 1206 3584 1959 3584 
z
" transform="scale(0.015625)"/>
       <path id="DejaVuSans-6e" d="M 3513 2113 
L 3513 0 
L 2938 0 
L 2938 2094 
Q 2938 2591 2744 2837 
Q 2550 3084 2163 3084 
Q 1697 3084 1428 2787 
Q 1159 2491 1159 1978 
L 1159 0 
L 581 0 
L 581 3500 
L 1159 3500 
L 1159 2956 
Q 1366 3272 1645 3428 
Q 1925 3584 2291 3584 
Q 2894 3584 3203 3211 
Q 3513 2838 3513 2113 
z
" transform="scale(0.015625)"/>
       <path id="DejaVuSans-73" d="M 2834 3397 
L 2834 2853 
Q 2591 2978 2328 3040 
Q 2066 3103 1784 3103 
Q 1356 3103 1142 2972 
Q 928 2841 928 2578 
Q 928 2378 1081 2264 
Q 1234 2150 1697 2047 
L 1894 2003 
Q 2506 1872 2764 1633 
Q 3022 1394 3022 966 
Q 3022 478 2636 193 
Q 2250 -91 1575 -91 
Q 1294 -91 989 -36 
Q 684 19 347 128 
L 347 722 
Q 666 556 975 473 
Q 1284 391 1588 391 
Q 1994 391 2212 530 
Q 2431 669 2431 922 
Q 2431 1156 2273 1281 
Q 2116 1406 1581 1522 
L 1381 1569 
Q 847 1681 609 1914 
Q 372 2147 372 2553 
Q 372 3047 722 3315 
Q 1072 3584 1716 3584 
Q 2034 3584 2315 3537 
Q 2597 3491 2834 3397 
z
" transform="scale(0.015625)"/>
       <path id="DejaVuSans-74" d="M 1172 4494 
L 1172 3500 
L 2356 3500 
L 2356 3053 
L 1172 3053 
L 1172 1153 
Q 1172 725 1289 603 
Q 1406 481 1766 481 
L 2356 481 
L 2356 0 
L 1766 0 
Q 1100 0 847 248 
Q 594 497 594 1153 
L 594 3053 
L 172 3053 
L 172 3500 
L 594 3500 
L 594 4494 
L 1172 4494 
z
" transform="scale(0.015625)"/>
       <path id="DejaVuSans-64" d="M 2906 2969 
L 2906 4863 
L 3481 4863 
L 3481 0 
L 2906 0 
L 2906 525 
Q 2725 213 2448 61 
Q 2172 -91 1784 -91 
Q 1150 -91 751 415 
Q 353 922 353 1747 
Q 353 2572 751 3078 
Q 1150 3584 1784 3584 
Q 2172 3584 2448 3432 
Q 2725 3281 2906 2969 
z
M 947 1747 
Q 947 1113 1208 752 
Q 1469 391 1925 391 
Q 2381 391 2643 752 
Q 2906 1113 2906 1747 
Q 2906 2381 2643 2742 
Q 2381 3103 1925 3103 
Q 1469 3103 1208 2742 
Q 947 2381 947 1747 
z
" transform="scale(0.015625)"/>
       <path id="DejaVuSans-69" d="M 603 3500 
L 1178 3500 
L 1178 0 
L 603 0 
L 603 3500 
z
M 603 4863 
L 1178 4863 
L 1178 4134 
L 603 4134 
L 603 4863 
z
" transform="scale(0.015625)"/>
       <path id="DejaVuSans-67" d="M 2906 1791 
Q 2906 2416 2648 2759 
Q 2391 3103 1925 3103 
Q 1463 3103 1205 2759 
Q 947 2416 947 1791 
Q 947 1169 1205 825 
Q 1463 481 1925 481 
Q 2391 481 2648 825 
Q 2906 1169 2906 1791 
z
M 3481 434 
Q 3481 -459 3084 -895 
Q 2688 -1331 1869 -1331 
Q 1566 -1331 1297 -1286 
Q 1028 -1241 775 -1147 
L 775 -588 
Q 1028 -725 1275 -790 
Q 1522 -856 1778 -856 
Q 2344 -856 2625 -561 
Q 2906 -266 2906 331 
L 2906 616 
Q 2728 306 2450 153 
Q 2172 0 1784 0 
Q 1141 0 747 490 
Q 353 981 353 1791 
Q 353 2603 747 3093 
Q 1141 3584 1784 3584 
Q 2172 3584 2450 3431 
Q 2728 3278 2906 2969 
L 2906 3500 
L 3481 3500 
L 3481 434 
z
" transform="scale(0.015625)"/>
       <path id="DejaVuSans-6c" d="M 603 4863 
L 1178 4863 
L 1178 0 
L 603 0 
L 603 4863 
z
" transform="scale(0.015625)"/>
      </defs>
      <use xlink:href="#DejaVuSans-52"/>
      <use xlink:href="#DejaVuSans-65" x="64.982422"/>
      <use xlink:href="#DejaVuSans-63" x="126.505859"/>
      <use xlink:href="#DejaVuSans-6f" x="181.486328"/>
      <use xlink:href="#DejaVuSans-6e" x="242.667969"/>
      <use xlink:href="#DejaVuSans-73" x="306.046875"/>
      <use xlink:href="#DejaVuSans-74" x="358.146484"/>
      <use xlink:href="#DejaVuSans-72" x="397.355469"/>
      <use xlink:href="#DejaVuSans-75" x="438.46875"/>
      <use xlink:href="#DejaVuSans-63" x="501.847656"/>
      <use xlink:href="#DejaVuSans-74" x="556.828125"/>
      <use xlink:href="#DejaVuSans-65" x="596.037109"/>
      <use xlink:href="#DejaVuSans-64" x="657.560547"/>
      <use xlink:href="#DejaVuSans-20" x="721.037109"/>
      <use xlink:href="#DejaVuSans-53" x="752.824219"/>
      <use xlink:href="#DejaVuSans-69" x="816.300781"/>
      <use xlink:href="#DejaVuSans-67" x="844.083984"/>
      <use xlink:href="#DejaVuSans-6e" x="907.560547"/>
      <use xlink:href="#DejaVuSans-61" x="970.939453"/>
      <use xlink:href="#DejaVuSans-6c" x="1032.21875"/>
     </g>
    </g>
   </g>
  </g>
 </g>
 <defs>
  <clipPath id="p63af207da4">
   <rect x="57.6" y="41.472" width="357.12" height="266.112"/>
  </clipPath>
 </defs>
</svg>
