<?xml version="1.0" encoding="utf-8" standalone="no"?>
<!DOCTYPE svg PUBLIC "-//W3C//DTD SVG 1.1//EN"
  "http://www.w3.org/Graphics/SVG/1.1/DTD/svg11.dtd">
<!-- Created with matplotlib (https://matplotlib.org/) -->
<svg height="345.6pt" version="1.1" viewBox="0 0 460.8 345.6" width="460.8pt" xmlns="http://www.w3.org/2000/svg" xmlns:xlink="http://www.w3.org/1999/xlink">
 <defs>
  <style type="text/css">
*{stroke-linecap:butt;stroke-linejoin:round;}
  </style>
 </defs>
 <g id="figure_1">
  <g id="patch_1">
   <path d="M 0 345.6 
L 460.8 345.6 
L 460.8 0 
L 0 0 
z
" style="fill:#ffffff;"/>
  </g>
  <g id="axes_1">
   <g id="patch_2">
    <path d="M 57.6 307.584 
L 414.72 307.584 
L 414.72 41.472 
L 57.6 41.472 
z
" style="fill:#ffffff;"/>
   </g>
   <g id="matplotlib.axis_1">
    <g id="xtick_1">
     <g id="line2d_1">
      <defs>
       <path d="M 0 0 
L 0 3.5 
" id="me0b8fce9b6" style="stroke:#000000;stroke-width:0.8;"/>
      </defs>
      <g>
       <use style="stroke:#000000;stroke-width:0.8;" x="106.298182" xlink:href="#me0b8fce9b6" y="307.584"/>
      </g>
     </g>
     <g id="text_1">
      <!-- −0.4 -->
      <defs>
       <path d="M 10.59375 35.5 
L 73.1875 35.5 
L 73.1875 27.203125 
L 10.59375 27.203125 
z
" id="DejaVuSans-8722"/>
       <path d="M 31.78125 66.40625 
Q 24.171875 66.40625 20.328125 58.90625 
Q 16.5 51.421875 16.5 36.375 
Q 16.5 21.390625 20.328125 13.890625 
Q 24.171875 6.390625 31.78125 6.390625 
Q 39.453125 6.390625 43.28125 13.890625 
Q 47.125 21.390625 47.125 36.375 
Q 47.125 51.421875 43.28125 58.90625 
Q 39.453125 66.40625 31.78125 66.40625 
z
M 31.78125 74.21875 
Q 44.046875 74.21875 50.515625 64.515625 
Q 56.984375 54.828125 56.984375 36.375 
Q 56.984375 17.96875 50.515625 8.265625 
Q 44.046875 -1.421875 31.78125 -1.421875 
Q 19.53125 -1.421875 13.0625 8.265625 
Q 6.59375 17.96875 6.59375 36.375 
Q 6.59375 54.828125 13.0625 64.515625 
Q 19.53125 74.21875 31.78125 74.21875 
z
" id="DejaVuSans-48"/>
       <path d="M 10.6875 12.40625 
L 21 12.40625 
L 21 0 
L 10.6875 0 
z
" id="DejaVuSans-46"/>
       <path d="M 37.796875 64.3125 
L 12.890625 25.390625 
L 37.796875 25.390625 
z
M 35.203125 72.90625 
L 47.609375 72.90625 
L 47.609375 25.390625 
L 58.015625 25.390625 
L 58.015625 17.1875 
L 47.609375 17.1875 
L 47.609375 0 
L 37.796875 0 
L 37.796875 17.1875 
L 4.890625 17.1875 
L 4.890625 26.703125 
z
" id="DejaVuSans-52"/>
      </defs>
      <g transform="translate(94.156776 322.182437)scale(0.1 -0.1)">
       <use xlink:href="#DejaVuSans-8722"/>
       <use x="83.789062" xlink:href="#DejaVuSans-48"/>
       <use x="147.412109" xlink:href="#DejaVuSans-46"/>
       <use x="179.199219" xlink:href="#DejaVuSans-52"/>
      </g>
     </g>
    </g>
    <g id="xtick_2">
     <g id="line2d_2">
      <g>
       <use style="stroke:#000000;stroke-width:0.8;" x="171.229091" xlink:href="#me0b8fce9b6" y="307.584"/>
      </g>
     </g>
     <g id="text_2">
      <!-- −0.2 -->
      <defs>
       <path d="M 19.1875 8.296875 
L 53.609375 8.296875 
L 53.609375 0 
L 7.328125 0 
L 7.328125 8.296875 
Q 12.9375 14.109375 22.625 23.890625 
Q 32.328125 33.6875 34.8125 36.53125 
Q 39.546875 41.84375 41.421875 45.53125 
Q 43.3125 49.21875 43.3125 52.78125 
Q 43.3125 58.59375 39.234375 62.25 
Q 35.15625 65.921875 28.609375 65.921875 
Q 23.96875 65.921875 18.8125 64.3125 
Q 13.671875 62.703125 7.8125 59.421875 
L 7.8125 69.390625 
Q 13.765625 71.78125 18.9375 73 
Q 24.125 74.21875 28.421875 74.21875 
Q 39.75 74.21875 46.484375 68.546875 
Q 53.21875 62.890625 53.21875 53.421875 
Q 53.21875 48.921875 51.53125 44.890625 
Q 49.859375 40.875 45.40625 35.40625 
Q 44.1875 33.984375 37.640625 27.21875 
Q 31.109375 20.453125 19.1875 8.296875 
z
" id="DejaVuSans-50"/>
      </defs>
      <g transform="translate(159.087685 322.182437)scale(0.1 -0.1)">
       <use xlink:href="#DejaVuSans-8722"/>
       <use x="83.789062" xlink:href="#DejaVuSans-48"/>
       <use x="147.412109" xlink:href="#DejaVuSans-46"/>
       <use x="179.199219" xlink:href="#DejaVuSans-50"/>
      </g>
     </g>
    </g>
    <g id="xtick_3">
     <g id="line2d_3">
      <g>
       <use style="stroke:#000000;stroke-width:0.8;" x="236.16" xlink:href="#me0b8fce9b6" y="307.584"/>
      </g>
     </g>
     <g id="text_3">
      <!-- 0.0 -->
      <g transform="translate(228.208438 322.182437)scale(0.1 -0.1)">
       <use xlink:href="#DejaVuSans-48"/>
       <use x="63.623047" xlink:href="#DejaVuSans-46"/>
       <use x="95.410156" xlink:href="#DejaVuSans-48"/>
      </g>
     </g>
    </g>
    <g id="xtick_4">
     <g id="line2d_4">
      <g>
       <use style="stroke:#000000;stroke-width:0.8;" x="301.090909" xlink:href="#me0b8fce9b6" y="307.584"/>
      </g>
     </g>
     <g id="text_4">
      <!-- 0.2 -->
      <g transform="translate(293.139347 322.182437)scale(0.1 -0.1)">
       <use xlink:href="#DejaVuSans-48"/>
       <use x="63.623047" xlink:href="#DejaVuSans-46"/>
       <use x="95.410156" xlink:href="#DejaVuSans-50"/>
      </g>
     </g>
    </g>
    <g id="xtick_5">
     <g id="line2d_5">
      <g>
       <use style="stroke:#000000;stroke-width:0.8;" x="366.021818" xlink:href="#me0b8fce9b6" y="307.584"/>
      </g>
     </g>
     <g id="text_5">
      <!-- 0.4 -->
      <g transform="translate(358.070256 322.182437)scale(0.1 -0.1)">
       <use xlink:href="#DejaVuSans-48"/>
       <use x="63.623047" xlink:href="#DejaVuSans-46"/>
       <use x="95.410156" xlink:href="#DejaVuSans-52"/>
      </g>
     </g>
    </g>
   </g>
   <g id="matplotlib.axis_2">
    <g id="ytick_1">
     <g id="line2d_6">
      <defs>
       <path d="M 0 0 
L -3.5 0 
" id="ma37ad80fc2" style="stroke:#000000;stroke-width:0.8;"/>
      </defs>
      <g>
       <use style="stroke:#000000;stroke-width:0.8;" x="57.6" xlink:href="#ma37ad80fc2" y="295.488"/>
      </g>
     </g>
     <g id="text_6">
      <!-- −10.0 -->
      <defs>
       <path d="M 12.40625 8.296875 
L 28.515625 8.296875 
L 28.515625 63.921875 
L 10.984375 60.40625 
L 10.984375 69.390625 
L 28.421875 72.90625 
L 38.28125 72.90625 
L 38.28125 8.296875 
L 54.390625 8.296875 
L 54.390625 0 
L 12.40625 0 
z
" id="DejaVuSans-49"/>
      </defs>
      <g transform="translate(19.954687 299.287219)scale(0.1 -0.1)">
       <use xlink:href="#DejaVuSans-8722"/>
       <use x="83.789062" xlink:href="#DejaVuSans-49"/>
       <use x="147.412109" xlink:href="#DejaVuSans-48"/>
       <use x="211.035156" xlink:href="#DejaVuSans-46"/>
       <use x="242.822266" xlink:href="#DejaVuSans-48"/>
      </g>
     </g>
    </g>
    <g id="ytick_2">
     <g id="line2d_7">
      <g>
       <use style="stroke:#000000;stroke-width:0.8;" x="57.6" xlink:href="#ma37ad80fc2" y="265.248"/>
      </g>
     </g>
     <g id="text_7">
      <!-- −7.5 -->
      <defs>
       <path d="M 8.203125 72.90625 
L 55.078125 72.90625 
L 55.078125 68.703125 
L 28.609375 0 
L 18.3125 0 
L 43.21875 64.59375 
L 8.203125 64.59375 
z
" id="DejaVuSans-55"/>
       <path d="M 10.796875 72.90625 
L 49.515625 72.90625 
L 49.515625 64.59375 
L 19.828125 64.59375 
L 19.828125 46.734375 
Q 21.96875 47.46875 24.109375 47.828125 
Q 26.265625 48.1875 28.421875 48.1875 
Q 40.625 48.1875 47.75 41.5 
Q 54.890625 34.8125 54.890625 23.390625 
Q 54.890625 11.625 47.5625 5.09375 
Q 40.234375 -1.421875 26.90625 -1.421875 
Q 22.3125 -1.421875 17.546875 -0.640625 
Q 12.796875 0.140625 7.71875 1.703125 
L 7.71875 11.625 
Q 12.109375 9.234375 16.796875 8.0625 
Q 21.484375 6.890625 26.703125 6.890625 
Q 35.15625 6.890625 40.078125 11.328125 
Q 45.015625 15.765625 45.015625 23.390625 
Q 45.015625 31 40.078125 35.4375 
Q 35.15625 39.890625 26.703125 39.890625 
Q 22.75 39.890625 18.8125 39.015625 
Q 14.890625 38.140625 10.796875 36.28125 
z
" id="DejaVuSans-53"/>
      </defs>
      <g transform="translate(26.317187 269.047219)scale(0.1 -0.1)">
       <use xlink:href="#DejaVuSans-8722"/>
       <use x="83.789062" xlink:href="#DejaVuSans-55"/>
       <use x="147.412109" xlink:href="#DejaVuSans-46"/>
       <use x="179.199219" xlink:href="#DejaVuSans-53"/>
      </g>
     </g>
    </g>
    <g id="ytick_3">
     <g id="line2d_8">
      <g>
       <use style="stroke:#000000;stroke-width:0.8;" x="57.6" xlink:href="#ma37ad80fc2" y="235.008"/>
      </g>
     </g>
     <g id="text_8">
      <!-- −5.0 -->
      <g transform="translate(26.317187 238.807219)scale(0.1 -0.1)">
       <use xlink:href="#DejaVuSans-8722"/>
       <use x="83.789062" xlink:href="#DejaVuSans-53"/>
       <use x="147.412109" xlink:href="#DejaVuSans-46"/>
       <use x="179.199219" xlink:href="#DejaVuSans-48"/>
      </g>
     </g>
    </g>
    <g id="ytick_4">
     <g id="line2d_9">
      <g>
       <use style="stroke:#000000;stroke-width:0.8;" x="57.6" xlink:href="#ma37ad80fc2" y="204.768"/>
      </g>
     </g>
     <g id="text_9">
      <!-- −2.5 -->
      <g transform="translate(26.317187 208.567219)scale(0.1 -0.1)">
       <use xlink:href="#DejaVuSans-8722"/>
       <use x="83.789062" xlink:href="#DejaVuSans-50"/>
       <use x="147.412109" xlink:href="#DejaVuSans-46"/>
       <use x="179.199219" xlink:href="#DejaVuSans-53"/>
      </g>
     </g>
    </g>
    <g id="ytick_5">
     <g id="line2d_10">
      <g>
       <use style="stroke:#000000;stroke-width:0.8;" x="57.6" xlink:href="#ma37ad80fc2" y="174.528"/>
      </g>
     </g>
     <g id="text_10">
      <!-- 0.0 -->
      <g transform="translate(34.696875 178.327219)scale(0.1 -0.1)">
       <use xlink:href="#DejaVuSans-48"/>
       <use x="63.623047" xlink:href="#DejaVuSans-46"/>
       <use x="95.410156" xlink:href="#DejaVuSans-48"/>
      </g>
     </g>
    </g>
    <g id="ytick_6">
     <g id="line2d_11">
      <g>
       <use style="stroke:#000000;stroke-width:0.8;" x="57.6" xlink:href="#ma37ad80fc2" y="144.288"/>
      </g>
     </g>
     <g id="text_11">
      <!-- 2.5 -->
      <g transform="translate(34.696875 148.087219)scale(0.1 -0.1)">
       <use xlink:href="#DejaVuSans-50"/>
       <use x="63.623047" xlink:href="#DejaVuSans-46"/>
       <use x="95.410156" xlink:href="#DejaVuSans-53"/>
      </g>
     </g>
    </g>
    <g id="ytick_7">
     <g id="line2d_12">
      <g>
       <use style="stroke:#000000;stroke-width:0.8;" x="57.6" xlink:href="#ma37ad80fc2" y="114.048"/>
      </g>
     </g>
     <g id="text_12">
      <!-- 5.0 -->
      <g transform="translate(34.696875 117.847219)scale(0.1 -0.1)">
       <use xlink:href="#DejaVuSans-53"/>
       <use x="63.623047" xlink:href="#DejaVuSans-46"/>
       <use x="95.410156" xlink:href="#DejaVuSans-48"/>
      </g>
     </g>
    </g>
    <g id="ytick_8">
     <g id="line2d_13">
      <g>
       <use style="stroke:#000000;stroke-width:0.8;" x="57.6" xlink:href="#ma37ad80fc2" y="83.808"/>
      </g>
     </g>
     <g id="text_13">
      <!-- 7.5 -->
      <g transform="translate(34.696875 87.607219)scale(0.1 -0.1)">
       <use xlink:href="#DejaVuSans-55"/>
       <use x="63.623047" xlink:href="#DejaVuSans-46"/>
       <use x="95.410156" xlink:href="#DejaVuSans-53"/>
      </g>
     </g>
    </g>
    <g id="ytick_9">
     <g id="line2d_14">
      <g>
       <use style="stroke:#000000;stroke-width:0.8;" x="57.6" xlink:href="#ma37ad80fc2" y="53.568"/>
      </g>
     </g>
     <g id="text_14">
      <!-- 10.0 -->
      <g transform="translate(28.334375 57.367219)scale(0.1 -0.1)">
       <use xlink:href="#DejaVuSans-49"/>
       <use x="63.623047" xlink:href="#DejaVuSans-48"/>
       <use x="127.246094" xlink:href="#DejaVuSans-46"/>
       <use x="159.033203" xlink:href="#DejaVuSans-48"/>
      </g>
     </g>
    </g>
   </g>
   <g id="line2d_15">
    <path clip-path="url(#p62f75b5fe9)" d="M 73.832727 295.488 
L 235.99751 295.488 
L 236.32249 53.568 
L 398.487273 53.568 
L 398.487273 53.568 
" style="fill:none;stroke:#1f77b4;stroke-linecap:square;stroke-width:1.5;"/>
   </g>
   <g id="line2d_16">
    <path clip-path="url(#p62f75b5fe9)" d="M 73.832727 180.576 
L 74.807666 214.173808 
L 75.457625 231.031167 
L 76.107584 241.587012 
L 76.432563 244.417123 
L 76.757543 245.739829 
L 77.082523 245.739829 
L 77.407502 244.65733 
L 78.057461 240.370822 
L 79.0324 232.888694 
L 79.682359 229.792906 
L 80.007338 229.165206 
L 80.332318 229.165206 
L 80.657297 229.733425 
L 81.307256 232.124453 
L 82.607174 237.77639 
L 82.932154 238.588837 
L 83.257133 239.001392 
L 83.582113 239.001392 
L 83.907093 238.615148 
L 84.557052 236.952412 
L 85.85697 232.882763 
L 86.181949 232.281505 
L 86.506929 231.973353 
L 86.831908 231.973353 
L 87.156888 232.266783 
L 87.806847 233.545223 
L 89.106765 236.735005 
L 89.431744 237.213716 
L 89.756724 237.460412 
L 90.081704 237.460412 
L 90.406683 237.223076 
L 91.056642 236.181288 
L 92.35656 233.549875 
L 92.68154 233.150907 
L 93.006519 232.944551 
L 93.331499 232.944551 
L 93.656478 233.144459 
L 94.306437 234.026467 
L 95.606355 236.273474 
L 95.931335 236.616634 
L 96.256314 236.794591 
L 96.581294 236.794591 
L 96.906274 236.621324 
L 97.556233 235.853975 
L 98.856151 233.886578 
L 99.50611 233.427508 
L 99.831089 233.427508 
L 100.156069 233.580936 
L 100.806028 234.262388 
L 102.105946 236.018238 
L 102.755905 236.429915 
L 103.080885 236.429915 
L 103.405864 236.291762 
L 104.055823 235.676728 
L 105.355741 234.085671 
L 106.0057 233.711177 
L 106.33068 233.711177 
L 106.980639 234.075099 
L 107.955577 235.172883 
L 108.605536 235.859524 
L 109.255495 236.204245 
L 109.580475 236.204245 
L 110.230434 235.868086 
L 111.205373 234.851593 
L 111.855332 234.214317 
L 112.505291 233.893814 
L 113.15525 234.002297 
L 113.805209 234.487625 
L 115.105127 235.753926 
L 115.755086 236.0545 
L 116.405045 235.952548 
L 117.055004 235.49588 
L 118.354922 234.301803 
L 119.004881 234.017769 
L 119.65484 234.114292 
L 120.304799 234.547109 
L 121.604717 235.680991 
L 122.254676 235.951221 
L 122.904636 235.859233 
L 123.554595 235.446351 
L 125.179492 234.193033 
L 125.829451 234.104136 
L 126.47941 234.359422 
L 128.754267 235.87895 
L 129.404226 235.793932 
L 130.054185 235.411672 
L 131.679083 234.247315 
L 132.329042 234.164448 
L 132.979001 234.403069 
L 135.253857 235.828959 
L 135.903817 235.748753 
L 136.553776 235.387584 
L 138.178673 234.284144 
L 138.828632 234.205378 
L 139.478591 234.432742 
L 141.753448 235.796124 
L 142.403407 235.719065 
L 143.053366 235.371588 
L 144.678264 234.307051 
L 145.328223 234.230853 
L 145.978182 234.451295 
L 148.253038 235.777462 
L 148.902998 235.702168 
L 149.552957 235.362218 
L 151.177854 234.318025 
L 151.827813 234.243089 
L 152.477772 234.460343 
L 154.752629 235.771404 
L 155.402588 235.696645 
L 156.052547 235.358685 
L 157.677445 234.317966 
L 158.327404 234.243089 
L 158.977363 234.460628 
L 161.252219 235.777462 
L 161.902179 235.702049 
L 162.552138 235.360703 
L 164.177035 234.306869 
L 164.826994 234.230853 
L 165.476953 234.452172 
L 167.75181 235.796124 
L 168.401769 235.718816 
L 169.051728 235.368435 
L 170.676626 234.283823 
L 171.326585 234.205378 
L 171.976544 234.434284 
L 174.2514 235.828959 
L 174.90136 235.748353 
L 175.551319 235.382519 
L 177.176216 234.246827 
L 177.826175 234.164448 
L 178.476134 234.405417 
L 179.776052 235.411672 
L 180.426011 235.793932 
L 181.075971 235.87895 
L 181.72593 235.629932 
L 182.700868 234.856831 
L 183.675807 234.192327 
L 184.325766 234.104136 
L 184.975725 234.362815 
L 185.950663 235.16697 
L 186.925602 235.859233 
L 187.575561 235.951221 
L 188.22552 235.680991 
L 189.200459 234.839724 
L 189.850418 234.296956 
L 190.500377 234.017769 
L 191.150336 234.115301 
L 191.800295 234.559882 
L 193.425192 235.952548 
L 194.075152 236.0545 
L 194.725111 235.753926 
L 195.700049 234.815071 
L 196.350008 234.207294 
L 196.999967 233.893814 
L 197.649926 234.003759 
L 198.299885 234.506134 
L 199.924783 236.087846 
L 200.574742 236.204245 
L 201.224701 235.859524 
L 202.19964 234.778173 
L 202.849599 234.075099 
L 203.499558 233.711177 
L 203.824537 233.711177 
L 204.474496 234.085671 
L 205.449435 235.263567 
L 206.099394 236.031516 
L 206.749353 236.429915 
L 207.074333 236.429915 
L 207.399312 236.288999 
L 208.049271 235.641726 
L 209.674169 233.580936 
L 209.999148 233.427508 
L 210.324128 233.427508 
L 210.649107 233.584483 
L 211.299066 234.307339 
L 212.923964 236.621324 
L 213.248943 236.794591 
L 213.573923 236.794591 
L 213.898903 236.616634 
L 214.548862 235.794537 
L 216.173759 233.144459 
L 216.498739 232.944551 
L 216.823718 232.944551 
L 217.148698 233.150907 
L 217.798657 234.108215 
L 219.423554 237.223076 
L 219.748534 237.460412 
L 220.073514 237.460412 
L 220.398493 237.213716 
L 221.048452 236.062521 
L 222.67335 232.266783 
L 222.998329 231.973353 
L 223.323309 231.973353 
L 223.648288 232.281505 
L 223.973268 232.882763 
L 224.623227 234.758171 
L 225.598165 237.90313 
L 225.923145 238.615148 
L 226.248124 239.001392 
L 226.573104 239.001392 
L 226.898084 238.588837 
L 227.223063 237.77639 
L 227.873022 235.202476 
L 228.847961 230.765406 
L 229.17294 229.733425 
L 229.49792 229.165206 
L 229.822899 229.165206 
L 230.147879 229.792906 
L 230.472858 231.052888 
L 231.122817 235.181198 
L 232.422735 244.65733 
L 232.747715 245.739829 
L 233.072695 245.739829 
L 233.397674 244.417123 
L 233.722654 241.587012 
L 234.047633 237.135664 
L 234.697592 223.329348 
L 235.347551 203.790063 
L 237.622408 125.726652 
L 238.272367 111.920336 
L 238.597346 107.468988 
L 238.922326 104.638877 
L 239.247305 103.316171 
L 239.572285 103.316171 
L 239.897265 104.39867 
L 240.547224 108.685178 
L 241.522162 116.167306 
L 242.172121 119.263094 
L 242.497101 119.890794 
L 242.82208 119.890794 
L 243.14706 119.322575 
L 243.797019 116.931547 
L 245.096937 111.27961 
L 245.421916 110.467163 
L 245.746896 110.054608 
L 246.071876 110.054608 
L 246.396855 110.440852 
L 247.046814 112.103588 
L 248.346732 116.173237 
L 248.671712 116.774495 
L 248.996691 117.082647 
L 249.321671 117.082647 
L 249.64665 116.789217 
L 250.296609 115.510777 
L 251.596527 112.320995 
L 251.921507 111.842284 
L 252.246486 111.595588 
L 252.571466 111.595588 
L 252.896446 111.832924 
L 253.546405 112.874712 
L 254.846323 115.506125 
L 255.171302 115.905093 
L 255.496282 116.111449 
L 255.821261 116.111449 
L 256.146241 115.911541 
L 256.7962 115.029533 
L 258.096118 112.782526 
L 258.421097 112.439366 
L 258.746077 112.261409 
L 259.071057 112.261409 
L 259.396036 112.434676 
L 260.045995 113.202025 
L 261.345913 115.169422 
L 261.995872 115.628492 
L 262.320852 115.628492 
L 262.645831 115.475064 
L 263.29579 114.793612 
L 264.595708 113.037762 
L 265.245667 112.626085 
L 265.570647 112.626085 
L 265.895627 112.764238 
L 266.545586 113.379272 
L 267.845504 114.970329 
L 268.495463 115.344823 
L 268.820442 115.344823 
L 269.470401 114.980901 
L 270.44534 113.883117 
L 271.095299 113.196476 
L 271.745258 112.851755 
L 272.070238 112.851755 
L 272.720197 113.187914 
L 273.695135 114.204407 
L 274.345094 114.841683 
L 274.995053 115.162186 
L 275.645012 115.053703 
L 276.294971 114.568375 
L 277.594889 113.302074 
L 278.244848 113.0015 
L 278.894808 113.103452 
L 279.544767 113.56012 
L 280.844685 114.754197 
L 281.494644 115.038231 
L 282.144603 114.941708 
L 282.794562 114.508891 
L 284.09448 113.375009 
L 284.744439 113.104779 
L 285.394398 113.196767 
L 286.044357 113.609649 
L 287.669255 114.862967 
L 288.319214 114.951864 
L 288.969173 114.696578 
L 291.244029 113.17705 
L 291.893989 113.262068 
L 292.543948 113.644328 
L 294.168845 114.808685 
L 294.818804 114.891552 
L 295.468763 114.652931 
L 297.74362 113.227041 
L 298.393579 113.307247 
L 299.043538 113.668416 
L 300.668436 114.771856 
L 301.318395 114.850622 
L 301.968354 114.623258 
L 304.24321 113.259876 
L 304.89317 113.336935 
L 305.543129 113.684412 
L 307.168026 114.748949 
L 307.817985 114.825147 
L 308.467944 114.604705 
L 310.742801 113.278538 
L 311.39276 113.353832 
L 312.042719 113.693782 
L 313.667617 114.737975 
L 314.317576 114.812911 
L 314.967535 114.595657 
L 317.242391 113.284596 
L 317.892351 113.359355 
L 318.54231 113.697315 
L 320.167207 114.738034 
L 320.817166 114.812911 
L 321.467125 114.595372 
L 323.741982 113.278538 
L 324.391941 113.353951 
L 325.0419 113.695297 
L 326.666798 114.749131 
L 327.316757 114.825147 
L 327.966716 114.603828 
L 330.241572 113.259876 
L 330.891532 113.337184 
L 331.541491 113.687565 
L 333.166388 114.772177 
L 333.816347 114.850622 
L 334.466306 114.621716 
L 336.741163 113.227041 
L 337.391122 113.307647 
L 338.041081 113.673481 
L 339.665979 114.809173 
L 340.315938 114.891552 
L 340.965897 114.650583 
L 342.265815 113.644328 
L 342.915774 113.262068 
L 343.565733 113.17705 
L 344.215692 113.426068 
L 345.190631 114.199169 
L 346.165569 114.863673 
L 346.815528 114.951864 
L 347.465487 114.693185 
L 348.440426 113.88903 
L 349.415364 113.196767 
L 350.065324 113.104779 
L 350.715283 113.375009 
L 351.690221 114.216276 
L 352.34018 114.759044 
L 352.990139 115.038231 
L 353.640098 114.940699 
L 354.290057 114.496118 
L 355.914955 113.103452 
L 356.564914 113.0015 
L 357.214873 113.302074 
L 358.189812 114.240929 
L 358.839771 114.848706 
L 359.48973 115.162186 
L 360.139689 115.052241 
L 360.789648 114.549866 
L 362.414545 112.968154 
L 363.064505 112.851755 
L 363.714464 113.196476 
L 364.689402 114.277827 
L 365.339361 114.980901 
L 365.98932 115.344823 
L 366.3143 115.344823 
L 366.964259 114.970329 
L 367.939197 113.792433 
L 368.589156 113.024484 
L 369.239115 112.626085 
L 369.564095 112.626085 
L 369.889075 112.767001 
L 370.539034 113.414274 
L 372.163931 115.475064 
L 372.488911 115.628492 
L 372.81389 115.628492 
L 373.13887 115.471517 
L 373.788829 114.748661 
L 375.413726 112.434676 
L 375.738706 112.261409 
L 376.063686 112.261409 
L 376.388665 112.439366 
L 377.038624 113.261463 
L 378.663522 115.911541 
L 378.988501 116.111449 
L 379.313481 116.111449 
L 379.63846 115.905093 
L 380.288419 114.947785 
L 381.913317 111.832924 
L 382.238296 111.595588 
L 382.563276 111.595588 
L 382.888256 111.842284 
L 383.538215 112.993479 
L 385.163112 116.789217 
L 385.488092 117.082647 
L 385.813071 117.082647 
L 386.138051 116.774495 
L 386.46303 116.173237 
L 387.112989 114.297829 
L 388.087928 111.15287 
L 388.412907 110.440852 
L 388.737887 110.054608 
L 389.062867 110.054608 
L 389.387846 110.467163 
L 389.712826 111.27961 
L 390.362785 113.853524 
L 391.337723 118.290594 
L 391.662703 119.322575 
L 391.987682 119.890794 
L 392.312662 119.890794 
L 392.637641 119.263094 
L 392.962621 118.003112 
L 393.61258 113.874802 
L 394.912498 104.39867 
L 395.237477 103.316171 
L 395.562457 103.316171 
L 395.887437 104.638877 
L 396.212416 107.468988 
L 396.537396 111.920336 
L 397.187355 125.726652 
L 397.837314 145.265937 
L 398.487273 168.48 
L 398.487273 168.48 
" style="fill:none;stroke:#ff7f0e;stroke-linecap:square;stroke-width:1.5;"/>
   </g>
   <g id="patch_3">
    <path d="M 57.6 307.584 
L 57.6 41.472 
" style="fill:none;stroke:#000000;stroke-linecap:square;stroke-linejoin:miter;stroke-width:0.8;"/>
   </g>
   <g id="patch_4">
    <path d="M 414.72 307.584 
L 414.72 41.472 
" style="fill:none;stroke:#000000;stroke-linecap:square;stroke-linejoin:miter;stroke-width:0.8;"/>
   </g>
   <g id="patch_5">
    <path d="M 57.6 307.584 
L 414.72 307.584 
" style="fill:none;stroke:#000000;stroke-linecap:square;stroke-linejoin:miter;stroke-width:0.8;"/>
   </g>
   <g id="patch_6">
    <path d="M 57.6 41.472 
L 414.72 41.472 
" style="fill:none;stroke:#000000;stroke-linecap:square;stroke-linejoin:miter;stroke-width:0.8;"/>
   </g>
   <g id="legend_1">
    <g id="patch_7">
     <path d="M 64.6 78.82825 
L 203.045312 78.82825 
Q 205.045312 78.82825 205.045312 76.82825 
L 205.045312 48.472 
Q 205.045312 46.472 203.045312 46.472 
L 64.6 46.472 
Q 62.6 46.472 62.6 48.472 
L 62.6 76.82825 
Q 62.6 78.82825 64.6 78.82825 
z
" style="fill:#ffffff;opacity:0.8;stroke:#cccccc;stroke-linejoin:miter;"/>
    </g>
    <g id="line2d_17">
     <path d="M 66.6 54.570437 
L 86.6 54.570437 
" style="fill:none;stroke:#1f77b4;stroke-linecap:square;stroke-width:1.5;"/>
    </g>
    <g id="line2d_18"/>
    <g id="text_15">
     <!-- Square Wave -->
     <defs>
      <path d="M 53.515625 70.515625 
L 53.515625 60.890625 
Q 47.90625 63.578125 42.921875 64.890625 
Q 37.9375 66.21875 33.296875 66.21875 
Q 25.25 66.21875 20.875 63.09375 
Q 16.5 59.96875 16.5 54.203125 
Q 16.5 49.359375 19.40625 46.890625 
Q 22.3125 44.4375 30.421875 42.921875 
L 36.375 41.703125 
Q 47.40625 39.59375 52.65625 34.296875 
Q 57.90625 29 57.90625 20.125 
Q 57.90625 9.515625 50.796875 4.046875 
Q 43.703125 -1.421875 29.984375 -1.421875 
Q 24.8125 -1.421875 18.96875 -0.25 
Q 13.140625 0.921875 6.890625 3.21875 
L 6.890625 13.375 
Q 12.890625 10.015625 18.65625 8.296875 
Q 24.421875 6.59375 29.984375 6.59375 
Q 38.421875 6.59375 43.015625 9.90625 
Q 47.609375 13.234375 47.609375 19.390625 
Q 47.609375 24.75 44.3125 27.78125 
Q 41.015625 30.8125 33.5 32.328125 
L 27.484375 33.5 
Q 16.453125 35.6875 11.515625 40.375 
Q 6.59375 45.0625 6.59375 53.421875 
Q 6.59375 63.09375 13.40625 68.65625 
Q 20.21875 74.21875 32.171875 74.21875 
Q 37.3125 74.21875 42.625 73.28125 
Q 47.953125 72.359375 53.515625 70.515625 
z
" id="DejaVuSans-83"/>
      <path d="M 14.796875 27.296875 
Q 14.796875 17.390625 18.875 11.75 
Q 22.953125 6.109375 30.078125 6.109375 
Q 37.203125 6.109375 41.296875 11.75 
Q 45.40625 17.390625 45.40625 27.296875 
Q 45.40625 37.203125 41.296875 42.84375 
Q 37.203125 48.484375 30.078125 48.484375 
Q 22.953125 48.484375 18.875 42.84375 
Q 14.796875 37.203125 14.796875 27.296875 
z
M 45.40625 8.203125 
Q 42.578125 3.328125 38.25 0.953125 
Q 33.9375 -1.421875 27.875 -1.421875 
Q 17.96875 -1.421875 11.734375 6.484375 
Q 5.515625 14.40625 5.515625 27.296875 
Q 5.515625 40.1875 11.734375 48.09375 
Q 17.96875 56 27.875 56 
Q 33.9375 56 38.25 53.625 
Q 42.578125 51.265625 45.40625 46.390625 
L 45.40625 54.6875 
L 54.390625 54.6875 
L 54.390625 -20.796875 
L 45.40625 -20.796875 
z
" id="DejaVuSans-113"/>
      <path d="M 8.5 21.578125 
L 8.5 54.6875 
L 17.484375 54.6875 
L 17.484375 21.921875 
Q 17.484375 14.15625 20.5 10.265625 
Q 23.53125 6.390625 29.59375 6.390625 
Q 36.859375 6.390625 41.078125 11.03125 
Q 45.3125 15.671875 45.3125 23.6875 
L 45.3125 54.6875 
L 54.296875 54.6875 
L 54.296875 0 
L 45.3125 0 
L 45.3125 8.40625 
Q 42.046875 3.421875 37.71875 1 
Q 33.40625 -1.421875 27.6875 -1.421875 
Q 18.265625 -1.421875 13.375 4.4375 
Q 8.5 10.296875 8.5 21.578125 
z
M 31.109375 56 
z
" id="DejaVuSans-117"/>
      <path d="M 34.28125 27.484375 
Q 23.390625 27.484375 19.1875 25 
Q 14.984375 22.515625 14.984375 16.5 
Q 14.984375 11.71875 18.140625 8.90625 
Q 21.296875 6.109375 26.703125 6.109375 
Q 34.1875 6.109375 38.703125 11.40625 
Q 43.21875 16.703125 43.21875 25.484375 
L 43.21875 27.484375 
z
M 52.203125 31.203125 
L 52.203125 0 
L 43.21875 0 
L 43.21875 8.296875 
Q 40.140625 3.328125 35.546875 0.953125 
Q 30.953125 -1.421875 24.3125 -1.421875 
Q 15.921875 -1.421875 10.953125 3.296875 
Q 6 8.015625 6 15.921875 
Q 6 25.140625 12.171875 29.828125 
Q 18.359375 34.515625 30.609375 34.515625 
L 43.21875 34.515625 
L 43.21875 35.40625 
Q 43.21875 41.609375 39.140625 45 
Q 35.0625 48.390625 27.6875 48.390625 
Q 23 48.390625 18.546875 47.265625 
Q 14.109375 46.140625 10.015625 43.890625 
L 10.015625 52.203125 
Q 14.9375 54.109375 19.578125 55.046875 
Q 24.21875 56 28.609375 56 
Q 40.484375 56 46.34375 49.84375 
Q 52.203125 43.703125 52.203125 31.203125 
z
" id="DejaVuSans-97"/>
      <path d="M 41.109375 46.296875 
Q 39.59375 47.171875 37.8125 47.578125 
Q 36.03125 48 33.890625 48 
Q 26.265625 48 22.1875 43.046875 
Q 18.109375 38.09375 18.109375 28.8125 
L 18.109375 0 
L 9.078125 0 
L 9.078125 54.6875 
L 18.109375 54.6875 
L 18.109375 46.1875 
Q 20.953125 51.171875 25.484375 53.578125 
Q 30.03125 56 36.53125 56 
Q 37.453125 56 38.578125 55.875 
Q 39.703125 55.765625 41.0625 55.515625 
z
" id="DejaVuSans-114"/>
      <path d="M 56.203125 29.59375 
L 56.203125 25.203125 
L 14.890625 25.203125 
Q 15.484375 15.921875 20.484375 11.0625 
Q 25.484375 6.203125 34.421875 6.203125 
Q 39.59375 6.203125 44.453125 7.46875 
Q 49.3125 8.734375 54.109375 11.28125 
L 54.109375 2.78125 
Q 49.265625 0.734375 44.1875 -0.34375 
Q 39.109375 -1.421875 33.890625 -1.421875 
Q 20.796875 -1.421875 13.15625 6.1875 
Q 5.515625 13.8125 5.515625 26.8125 
Q 5.515625 40.234375 12.765625 48.109375 
Q 20.015625 56 32.328125 56 
Q 43.359375 56 49.78125 48.890625 
Q 56.203125 41.796875 56.203125 29.59375 
z
M 47.21875 32.234375 
Q 47.125 39.59375 43.09375 43.984375 
Q 39.0625 48.390625 32.421875 48.390625 
Q 24.90625 48.390625 20.390625 44.140625 
Q 15.875 39.890625 15.1875 32.171875 
z
" id="DejaVuSans-101"/>
      <path id="DejaVuSans-32"/>
      <path d="M 3.328125 72.90625 
L 13.28125 72.90625 
L 28.609375 11.28125 
L 43.890625 72.90625 
L 54.984375 72.90625 
L 70.3125 11.28125 
L 85.59375 72.90625 
L 95.609375 72.90625 
L 77.296875 0 
L 64.890625 0 
L 49.515625 63.28125 
L 33.984375 0 
L 21.578125 0 
z
" id="DejaVuSans-87"/>
      <path d="M 2.984375 54.6875 
L 12.5 54.6875 
L 29.59375 8.796875 
L 46.6875 54.6875 
L 56.203125 54.6875 
L 35.6875 0 
L 23.484375 0 
z
" id="DejaVuSans-118"/>
     </defs>
     <g transform="translate(94.6 58.070437)scale(0.1 -0.1)">
      <use xlink:href="#DejaVuSans-83"/>
      <use x="63.476562" xlink:href="#DejaVuSans-113"/>
      <use x="126.953125" xlink:href="#DejaVuSans-117"/>
      <use x="190.332031" xlink:href="#DejaVuSans-97"/>
      <use x="251.611328" xlink:href="#DejaVuSans-114"/>
      <use x="292.693359" xlink:href="#DejaVuSans-101"/>
      <use x="354.216797" xlink:href="#DejaVuSans-32"/>
      <use x="386.003906" xlink:href="#DejaVuSans-87"/>
      <use x="484.787109" xlink:href="#DejaVuSans-97"/>
      <use x="546.066406" xlink:href="#DejaVuSans-118"/>
      <use x="605.246094" xlink:href="#DejaVuSans-101"/>
     </g>
    </g>
    <g id="line2d_19">
     <path d="M 66.6 69.248562 
L 86.6 69.248562 
" style="fill:none;stroke:#ff7f0e;stroke-linecap:square;stroke-width:1.5;"/>
    </g>
    <g id="line2d_20"/>
    <g id="text_16">
     <!-- Reconstructed Signal -->
     <defs>
      <path d="M 44.390625 34.1875 
Q 47.5625 33.109375 50.5625 29.59375 
Q 53.5625 26.078125 56.59375 19.921875 
L 66.609375 0 
L 56 0 
L 46.6875 18.703125 
Q 43.0625 26.03125 39.671875 28.421875 
Q 36.28125 30.8125 30.421875 30.8125 
L 19.671875 30.8125 
L 19.671875 0 
L 9.8125 0 
L 9.8125 72.90625 
L 32.078125 72.90625 
Q 44.578125 72.90625 50.734375 67.671875 
Q 56.890625 62.453125 56.890625 51.90625 
Q 56.890625 45.015625 53.6875 40.46875 
Q 50.484375 35.9375 44.390625 34.1875 
z
M 19.671875 64.796875 
L 19.671875 38.921875 
L 32.078125 38.921875 
Q 39.203125 38.921875 42.84375 42.21875 
Q 46.484375 45.515625 46.484375 51.90625 
Q 46.484375 58.296875 42.84375 61.546875 
Q 39.203125 64.796875 32.078125 64.796875 
z
" id="DejaVuSans-82"/>
      <path d="M 48.78125 52.59375 
L 48.78125 44.1875 
Q 44.96875 46.296875 41.140625 47.34375 
Q 37.3125 48.390625 33.40625 48.390625 
Q 24.65625 48.390625 19.8125 42.84375 
Q 14.984375 37.3125 14.984375 27.296875 
Q 14.984375 17.28125 19.8125 11.734375 
Q 24.65625 6.203125 33.40625 6.203125 
Q 37.3125 6.203125 41.140625 7.25 
Q 44.96875 8.296875 48.78125 10.40625 
L 48.78125 2.09375 
Q 45.015625 0.34375 40.984375 -0.53125 
Q 36.96875 -1.421875 32.421875 -1.421875 
Q 20.0625 -1.421875 12.78125 6.34375 
Q 5.515625 14.109375 5.515625 27.296875 
Q 5.515625 40.671875 12.859375 48.328125 
Q 20.21875 56 33.015625 56 
Q 37.15625 56 41.109375 55.140625 
Q 45.0625 54.296875 48.78125 52.59375 
z
" id="DejaVuSans-99"/>
      <path d="M 30.609375 48.390625 
Q 23.390625 48.390625 19.1875 42.75 
Q 14.984375 37.109375 14.984375 27.296875 
Q 14.984375 17.484375 19.15625 11.84375 
Q 23.34375 6.203125 30.609375 6.203125 
Q 37.796875 6.203125 41.984375 11.859375 
Q 46.1875 17.53125 46.1875 27.296875 
Q 46.1875 37.015625 41.984375 42.703125 
Q 37.796875 48.390625 30.609375 48.390625 
z
M 30.609375 56 
Q 42.328125 56 49.015625 48.375 
Q 55.71875 40.765625 55.71875 27.296875 
Q 55.71875 13.875 49.015625 6.21875 
Q 42.328125 -1.421875 30.609375 -1.421875 
Q 18.84375 -1.421875 12.171875 6.21875 
Q 5.515625 13.875 5.515625 27.296875 
Q 5.515625 40.765625 12.171875 48.375 
Q 18.84375 56 30.609375 56 
z
" id="DejaVuSans-111"/>
      <path d="M 54.890625 33.015625 
L 54.890625 0 
L 45.90625 0 
L 45.90625 32.71875 
Q 45.90625 40.484375 42.875 44.328125 
Q 39.84375 48.1875 33.796875 48.1875 
Q 26.515625 48.1875 22.3125 43.546875 
Q 18.109375 38.921875 18.109375 30.90625 
L 18.109375 0 
L 9.078125 0 
L 9.078125 54.6875 
L 18.109375 54.6875 
L 18.109375 46.1875 
Q 21.34375 51.125 25.703125 53.5625 
Q 30.078125 56 35.796875 56 
Q 45.21875 56 50.046875 50.171875 
Q 54.890625 44.34375 54.890625 33.015625 
z
" id="DejaVuSans-110"/>
      <path d="M 44.28125 53.078125 
L 44.28125 44.578125 
Q 40.484375 46.53125 36.375 47.5 
Q 32.28125 48.484375 27.875 48.484375 
Q 21.1875 48.484375 17.84375 46.4375 
Q 14.5 44.390625 14.5 40.28125 
Q 14.5 37.15625 16.890625 35.375 
Q 19.28125 33.59375 26.515625 31.984375 
L 29.59375 31.296875 
Q 39.15625 29.25 43.1875 25.515625 
Q 47.21875 21.78125 47.21875 15.09375 
Q 47.21875 7.46875 41.1875 3.015625 
Q 35.15625 -1.421875 24.609375 -1.421875 
Q 20.21875 -1.421875 15.453125 -0.5625 
Q 10.6875 0.296875 5.421875 2 
L 5.421875 11.28125 
Q 10.40625 8.6875 15.234375 7.390625 
Q 20.0625 6.109375 24.8125 6.109375 
Q 31.15625 6.109375 34.5625 8.28125 
Q 37.984375 10.453125 37.984375 14.40625 
Q 37.984375 18.0625 35.515625 20.015625 
Q 33.0625 21.96875 24.703125 23.78125 
L 21.578125 24.515625 
Q 13.234375 26.265625 9.515625 29.90625 
Q 5.8125 33.546875 5.8125 39.890625 
Q 5.8125 47.609375 11.28125 51.796875 
Q 16.75 56 26.8125 56 
Q 31.78125 56 36.171875 55.265625 
Q 40.578125 54.546875 44.28125 53.078125 
z
" id="DejaVuSans-115"/>
      <path d="M 18.3125 70.21875 
L 18.3125 54.6875 
L 36.8125 54.6875 
L 36.8125 47.703125 
L 18.3125 47.703125 
L 18.3125 18.015625 
Q 18.3125 11.328125 20.140625 9.421875 
Q 21.96875 7.515625 27.59375 7.515625 
L 36.8125 7.515625 
L 36.8125 0 
L 27.59375 0 
Q 17.1875 0 13.234375 3.875 
Q 9.28125 7.765625 9.28125 18.015625 
L 9.28125 47.703125 
L 2.6875 47.703125 
L 2.6875 54.6875 
L 9.28125 54.6875 
L 9.28125 70.21875 
z
" id="DejaVuSans-116"/>
      <path d="M 45.40625 46.390625 
L 45.40625 75.984375 
L 54.390625 75.984375 
L 54.390625 0 
L 45.40625 0 
L 45.40625 8.203125 
Q 42.578125 3.328125 38.25 0.953125 
Q 33.9375 -1.421875 27.875 -1.421875 
Q 17.96875 -1.421875 11.734375 6.484375 
Q 5.515625 14.40625 5.515625 27.296875 
Q 5.515625 40.1875 11.734375 48.09375 
Q 17.96875 56 27.875 56 
Q 33.9375 56 38.25 53.625 
Q 42.578125 51.265625 45.40625 46.390625 
z
M 14.796875 27.296875 
Q 14.796875 17.390625 18.875 11.75 
Q 22.953125 6.109375 30.078125 6.109375 
Q 37.203125 6.109375 41.296875 11.75 
Q 45.40625 17.390625 45.40625 27.296875 
Q 45.40625 37.203125 41.296875 42.84375 
Q 37.203125 48.484375 30.078125 48.484375 
Q 22.953125 48.484375 18.875 42.84375 
Q 14.796875 37.203125 14.796875 27.296875 
z
" id="DejaVuSans-100"/>
      <path d="M 9.421875 54.6875 
L 18.40625 54.6875 
L 18.40625 0 
L 9.421875 0 
z
M 9.421875 75.984375 
L 18.40625 75.984375 
L 18.40625 64.59375 
L 9.421875 64.59375 
z
" id="DejaVuSans-105"/>
      <path d="M 45.40625 27.984375 
Q 45.40625 37.75 41.375 43.109375 
Q 37.359375 48.484375 30.078125 48.484375 
Q 22.859375 48.484375 18.828125 43.109375 
Q 14.796875 37.75 14.796875 27.984375 
Q 14.796875 18.265625 18.828125 12.890625 
Q 22.859375 7.515625 30.078125 7.515625 
Q 37.359375 7.515625 41.375 12.890625 
Q 45.40625 18.265625 45.40625 27.984375 
z
M 54.390625 6.78125 
Q 54.390625 -7.171875 48.1875 -13.984375 
Q 42 -20.796875 29.203125 -20.796875 
Q 24.46875 -20.796875 20.265625 -20.09375 
Q 16.0625 -19.390625 12.109375 -17.921875 
L 12.109375 -9.1875 
Q 16.0625 -11.328125 19.921875 -12.34375 
Q 23.78125 -13.375 27.78125 -13.375 
Q 36.625 -13.375 41.015625 -8.765625 
Q 45.40625 -4.15625 45.40625 5.171875 
L 45.40625 9.625 
Q 42.625 4.78125 38.28125 2.390625 
Q 33.9375 0 27.875 0 
Q 17.828125 0 11.671875 7.65625 
Q 5.515625 15.328125 5.515625 27.984375 
Q 5.515625 40.671875 11.671875 48.328125 
Q 17.828125 56 27.875 56 
Q 33.9375 56 38.28125 53.609375 
Q 42.625 51.21875 45.40625 46.390625 
L 45.40625 54.6875 
L 54.390625 54.6875 
z
" id="DejaVuSans-103"/>
      <path d="M 9.421875 75.984375 
L 18.40625 75.984375 
L 18.40625 0 
L 9.421875 0 
z
" id="DejaVuSans-108"/>
     </defs>
     <g transform="translate(94.6 72.748562)scale(0.1 -0.1)">
      <use xlink:href="#DejaVuSans-82"/>
      <use x="69.419922" xlink:href="#DejaVuSans-101"/>
      <use x="130.943359" xlink:href="#DejaVuSans-99"/>
      <use x="185.923828" xlink:href="#DejaVuSans-111"/>
      <use x="247.105469" xlink:href="#DejaVuSans-110"/>
      <use x="310.484375" xlink:href="#DejaVuSans-115"/>
      <use x="362.583984" xlink:href="#DejaVuSans-116"/>
      <use x="401.792969" xlink:href="#DejaVuSans-114"/>
      <use x="442.90625" xlink:href="#DejaVuSans-117"/>
      <use x="506.285156" xlink:href="#DejaVuSans-99"/>
      <use x="561.265625" xlink:href="#DejaVuSans-116"/>
      <use x="600.474609" xlink:href="#DejaVuSans-101"/>
      <use x="661.998047" xlink:href="#DejaVuSans-100"/>
      <use x="725.474609" xlink:href="#DejaVuSans-32"/>
      <use x="757.261719" xlink:href="#DejaVuSans-83"/>
      <use x="820.738281" xlink:href="#DejaVuSans-105"/>
      <use x="848.521484" xlink:href="#DejaVuSans-103"/>
      <use x="911.998047" xlink:href="#DejaVuSans-110"/>
      <use x="975.376953" xlink:href="#DejaVuSans-97"/>
      <use x="1036.65625" xlink:href="#DejaVuSans-108"/>
     </g>
    </g>
   </g>
  </g>
 </g>
 <defs>
  <clipPath id="p62f75b5fe9">
   <rect height="266.112" width="357.12" x="57.6" y="41.472"/>
  </clipPath>
 </defs>
</svg>
