<?xml version="1.0" encoding="utf-8" standalone="no"?>
<!DOCTYPE svg PUBLIC "-//W3C//DTD SVG 1.1//EN"
  "http://www.w3.org/Graphics/SVG/1.1/DTD/svg11.dtd">
<svg xmlns:xlink="http://www.w3.org/1999/xlink" width="460.8pt" height="345.6pt" viewBox="0 0 460.8 345.6" xmlns="http://www.w3.org/2000/svg" version="1.1">
 <metadata>
  <rdf:RDF xmlns:dc="http://purl.org/dc/elements/1.1/" xmlns:cc="http://creativecommons.org/ns#" xmlns:rdf="http://www.w3.org/1999/02/22-rdf-syntax-ns#">
   <cc:Work>
    <dc:type rdf:resource="http://purl.org/dc/dcmitype/StillImage"/>
    <dc:date>2023-05-14T23:54:55.965467</dc:date>
    <dc:format>image/svg+xml</dc:format>
    <dc:creator>
     <cc:Agent>
      <dc:title>Matplotlib v3.7.1, https://matplotlib.org/</dc:title>
     </cc:Agent>
    </dc:creator>
   </cc:Work>
  </rdf:RDF>
 </metadata>
 <defs>
  <style type="text/css">*{stroke-linejoin: round; stroke-linecap: butt}</style>
 </defs>
 <g id="figure_1">
  <g id="patch_1">
   <path d="M 0 345.6 
L 460.8 345.6 
L 460.8 0 
L 0 0 
z
" style="fill: #ffffff"/>
  </g>
  <g id="axes_1">
   <g id="patch_2">
    <path d="M 57.6 307.584 
L 414.72 307.584 
L 414.72 41.472 
L 57.6 41.472 
z
" style="fill: #ffffff"/>
   </g>
   <g id="matplotlib.axis_1">
    <g id="xtick_1">
     <g id="line2d_1">
      <defs>
       <path id="m9aeabcbf67" d="M 0 0 
L 0 3.5 
" style="stroke: #000000; stroke-width: 0.8"/>
      </defs>
      <g>
       <use xlink:href="#m9aeabcbf67" x="106.298182" y="307.584" style="stroke: #000000; stroke-width: 0.8"/>
      </g>
     </g>
     <g id="text_1">
      <!-- −0.4 -->
      <g transform="translate(94.156776 322.182437) scale(0.1 -0.1)">
       <defs>
        <path id="DejaVuSans-2212" d="M 678 2272 
L 4684 2272 
L 4684 1741 
L 678 1741 
L 678 2272 
z
" transform="scale(0.015625)"/>
        <path id="DejaVuSans-30" d="M 2034 4250 
Q 1547 4250 1301 3770 
Q 1056 3291 1056 2328 
Q 1056 1369 1301 889 
Q 1547 409 2034 409 
Q 2525 409 2770 889 
Q 3016 1369 3016 2328 
Q 3016 3291 2770 3770 
Q 2525 4250 2034 4250 
z
M 2034 4750 
Q 2819 4750 3233 4129 
Q 3647 3509 3647 2328 
Q 3647 1150 3233 529 
Q 2819 -91 2034 -91 
Q 1250 -91 836 529 
Q 422 1150 422 2328 
Q 422 3509 836 4129 
Q 1250 4750 2034 4750 
z
" transform="scale(0.015625)"/>
        <path id="DejaVuSans-2e" d="M 684 794 
L 1344 794 
L 1344 0 
L 684 0 
L 684 794 
z
" transform="scale(0.015625)"/>
        <path id="DejaVuSans-34" d="M 2419 4116 
L 825 1625 
L 2419 1625 
L 2419 4116 
z
M 2253 4666 
L 3047 4666 
L 3047 1625 
L 3713 1625 
L 3713 1100 
L 3047 1100 
L 3047 0 
L 2419 0 
L 2419 1100 
L 313 1100 
L 313 1709 
L 2253 4666 
z
" transform="scale(0.015625)"/>
       </defs>
       <use xlink:href="#DejaVuSans-2212"/>
       <use xlink:href="#DejaVuSans-30" x="83.789062"/>
       <use xlink:href="#DejaVuSans-2e" x="147.412109"/>
       <use xlink:href="#DejaVuSans-34" x="179.199219"/>
      </g>
     </g>
    </g>
    <g id="xtick_2">
     <g id="line2d_2">
      <g>
       <use xlink:href="#m9aeabcbf67" x="171.229091" y="307.584" style="stroke: #000000; stroke-width: 0.8"/>
      </g>
     </g>
     <g id="text_2">
      <!-- −0.2 -->
      <g transform="translate(159.087685 322.182437) scale(0.1 -0.1)">
       <defs>
        <path id="DejaVuSans-32" d="M 1228 531 
L 3431 531 
L 3431 0 
L 469 0 
L 469 531 
Q 828 903 1448 1529 
Q 2069 2156 2228 2338 
Q 2531 2678 2651 2914 
Q 2772 3150 2772 3378 
Q 2772 3750 2511 3984 
Q 2250 4219 1831 4219 
Q 1534 4219 1204 4116 
Q 875 4013 500 3803 
L 500 4441 
Q 881 4594 1212 4672 
Q 1544 4750 1819 4750 
Q 2544 4750 2975 4387 
Q 3406 4025 3406 3419 
Q 3406 3131 3298 2873 
Q 3191 2616 2906 2266 
Q 2828 2175 2409 1742 
Q 1991 1309 1228 531 
z
" transform="scale(0.015625)"/>
       </defs>
       <use xlink:href="#DejaVuSans-2212"/>
       <use xlink:href="#DejaVuSans-30" x="83.789062"/>
       <use xlink:href="#DejaVuSans-2e" x="147.412109"/>
       <use xlink:href="#DejaVuSans-32" x="179.199219"/>
      </g>
     </g>
    </g>
    <g id="xtick_3">
     <g id="line2d_3">
      <g>
       <use xlink:href="#m9aeabcbf67" x="236.16" y="307.584" style="stroke: #000000; stroke-width: 0.8"/>
      </g>
     </g>
     <g id="text_3">
      <!-- 0.0 -->
      <g transform="translate(228.208438 322.182437) scale(0.1 -0.1)">
       <use xlink:href="#DejaVuSans-30"/>
       <use xlink:href="#DejaVuSans-2e" x="63.623047"/>
       <use xlink:href="#DejaVuSans-30" x="95.410156"/>
      </g>
     </g>
    </g>
    <g id="xtick_4">
     <g id="line2d_4">
      <g>
       <use xlink:href="#m9aeabcbf67" x="301.090909" y="307.584" style="stroke: #000000; stroke-width: 0.8"/>
      </g>
     </g>
     <g id="text_4">
      <!-- 0.2 -->
      <g transform="translate(293.139347 322.182437) scale(0.1 -0.1)">
       <use xlink:href="#DejaVuSans-30"/>
       <use xlink:href="#DejaVuSans-2e" x="63.623047"/>
       <use xlink:href="#DejaVuSans-32" x="95.410156"/>
      </g>
     </g>
    </g>
    <g id="xtick_5">
     <g id="line2d_5">
      <g>
       <use xlink:href="#m9aeabcbf67" x="366.021818" y="307.584" style="stroke: #000000; stroke-width: 0.8"/>
      </g>
     </g>
     <g id="text_5">
      <!-- 0.4 -->
      <g transform="translate(358.070256 322.182437) scale(0.1 -0.1)">
       <use xlink:href="#DejaVuSans-30"/>
       <use xlink:href="#DejaVuSans-2e" x="63.623047"/>
       <use xlink:href="#DejaVuSans-34" x="95.410156"/>
      </g>
     </g>
    </g>
   </g>
   <g id="matplotlib.axis_2">
    <g id="ytick_1">
     <g id="line2d_6">
      <defs>
       <path id="m7bd6aa6ba5" d="M 0 0 
L -3.5 0 
" style="stroke: #000000; stroke-width: 0.8"/>
      </defs>
      <g>
       <use xlink:href="#m7bd6aa6ba5" x="57.6" y="295.488" style="stroke: #000000; stroke-width: 0.8"/>
      </g>
     </g>
     <g id="text_6">
      <!-- −10.0 -->
      <g transform="translate(19.954687 299.287219) scale(0.1 -0.1)">
       <defs>
        <path id="DejaVuSans-31" d="M 794 531 
L 1825 531 
L 1825 4091 
L 703 3866 
L 703 4441 
L 1819 4666 
L 2450 4666 
L 2450 531 
L 3481 531 
L 3481 0 
L 794 0 
L 794 531 
z
" transform="scale(0.015625)"/>
       </defs>
       <use xlink:href="#DejaVuSans-2212"/>
       <use xlink:href="#DejaVuSans-31" x="83.789062"/>
       <use xlink:href="#DejaVuSans-30" x="147.412109"/>
       <use xlink:href="#DejaVuSans-2e" x="211.035156"/>
       <use xlink:href="#DejaVuSans-30" x="242.822266"/>
      </g>
     </g>
    </g>
    <g id="ytick_2">
     <g id="line2d_7">
      <g>
       <use xlink:href="#m7bd6aa6ba5" x="57.6" y="265.248" style="stroke: #000000; stroke-width: 0.8"/>
      </g>
     </g>
     <g id="text_7">
      <!-- −7.5 -->
      <g transform="translate(26.317187 269.047219) scale(0.1 -0.1)">
       <defs>
        <path id="DejaVuSans-37" d="M 525 4666 
L 3525 4666 
L 3525 4397 
L 1831 0 
L 1172 0 
L 2766 4134 
L 525 4134 
L 525 4666 
z
" transform="scale(0.015625)"/>
        <path id="DejaVuSans-35" d="M 691 4666 
L 3169 4666 
L 3169 4134 
L 1269 4134 
L 1269 2991 
Q 1406 3038 1543 3061 
Q 1681 3084 1819 3084 
Q 2600 3084 3056 2656 
Q 3513 2228 3513 1497 
Q 3513 744 3044 326 
Q 2575 -91 1722 -91 
Q 1428 -91 1123 -41 
Q 819 9 494 109 
L 494 744 
Q 775 591 1075 516 
Q 1375 441 1709 441 
Q 2250 441 2565 725 
Q 2881 1009 2881 1497 
Q 2881 1984 2565 2268 
Q 2250 2553 1709 2553 
Q 1456 2553 1204 2497 
Q 953 2441 691 2322 
L 691 4666 
z
" transform="scale(0.015625)"/>
       </defs>
       <use xlink:href="#DejaVuSans-2212"/>
       <use xlink:href="#DejaVuSans-37" x="83.789062"/>
       <use xlink:href="#DejaVuSans-2e" x="147.412109"/>
       <use xlink:href="#DejaVuSans-35" x="179.199219"/>
      </g>
     </g>
    </g>
    <g id="ytick_3">
     <g id="line2d_8">
      <g>
       <use xlink:href="#m7bd6aa6ba5" x="57.6" y="235.008" style="stroke: #000000; stroke-width: 0.8"/>
      </g>
     </g>
     <g id="text_8">
      <!-- −5.0 -->
      <g transform="translate(26.317187 238.807219) scale(0.1 -0.1)">
       <use xlink:href="#DejaVuSans-2212"/>
       <use xlink:href="#DejaVuSans-35" x="83.789062"/>
       <use xlink:href="#DejaVuSans-2e" x="147.412109"/>
       <use xlink:href="#DejaVuSans-30" x="179.199219"/>
      </g>
     </g>
    </g>
    <g id="ytick_4">
     <g id="line2d_9">
      <g>
       <use xlink:href="#m7bd6aa6ba5" x="57.6" y="204.768" style="stroke: #000000; stroke-width: 0.8"/>
      </g>
     </g>
     <g id="text_9">
      <!-- −2.5 -->
      <g transform="translate(26.317187 208.567219) scale(0.1 -0.1)">
       <use xlink:href="#DejaVuSans-2212"/>
       <use xlink:href="#DejaVuSans-32" x="83.789062"/>
       <use xlink:href="#DejaVuSans-2e" x="147.412109"/>
       <use xlink:href="#DejaVuSans-35" x="179.199219"/>
      </g>
     </g>
    </g>
    <g id="ytick_5">
     <g id="line2d_10">
      <g>
       <use xlink:href="#m7bd6aa6ba5" x="57.6" y="174.528" style="stroke: #000000; stroke-width: 0.8"/>
      </g>
     </g>
     <g id="text_10">
      <!-- 0.0 -->
      <g transform="translate(34.696875 178.327219) scale(0.1 -0.1)">
       <use xlink:href="#DejaVuSans-30"/>
       <use xlink:href="#DejaVuSans-2e" x="63.623047"/>
       <use xlink:href="#DejaVuSans-30" x="95.410156"/>
      </g>
     </g>
    </g>
    <g id="ytick_6">
     <g id="line2d_11">
      <g>
       <use xlink:href="#m7bd6aa6ba5" x="57.6" y="144.288" style="stroke: #000000; stroke-width: 0.8"/>
      </g>
     </g>
     <g id="text_11">
      <!-- 2.5 -->
      <g transform="translate(34.696875 148.087219) scale(0.1 -0.1)">
       <use xlink:href="#DejaVuSans-32"/>
       <use xlink:href="#DejaVuSans-2e" x="63.623047"/>
       <use xlink:href="#DejaVuSans-35" x="95.410156"/>
      </g>
     </g>
    </g>
    <g id="ytick_7">
     <g id="line2d_12">
      <g>
       <use xlink:href="#m7bd6aa6ba5" x="57.6" y="114.048" style="stroke: #000000; stroke-width: 0.8"/>
      </g>
     </g>
     <g id="text_12">
      <!-- 5.0 -->
      <g transform="translate(34.696875 117.847219) scale(0.1 -0.1)">
       <use xlink:href="#DejaVuSans-35"/>
       <use xlink:href="#DejaVuSans-2e" x="63.623047"/>
       <use xlink:href="#DejaVuSans-30" x="95.410156"/>
      </g>
     </g>
    </g>
    <g id="ytick_8">
     <g id="line2d_13">
      <g>
       <use xlink:href="#m7bd6aa6ba5" x="57.6" y="83.808" style="stroke: #000000; stroke-width: 0.8"/>
      </g>
     </g>
     <g id="text_13">
      <!-- 7.5 -->
      <g transform="translate(34.696875 87.607219) scale(0.1 -0.1)">
       <use xlink:href="#DejaVuSans-37"/>
       <use xlink:href="#DejaVuSans-2e" x="63.623047"/>
       <use xlink:href="#DejaVuSans-35" x="95.410156"/>
      </g>
     </g>
    </g>
    <g id="ytick_9">
     <g id="line2d_14">
      <g>
       <use xlink:href="#m7bd6aa6ba5" x="57.6" y="53.568" style="stroke: #000000; stroke-width: 0.8"/>
      </g>
     </g>
     <g id="text_14">
      <!-- 10.0 -->
      <g transform="translate(28.334375 57.367219) scale(0.1 -0.1)">
       <use xlink:href="#DejaVuSans-31"/>
       <use xlink:href="#DejaVuSans-30" x="63.623047"/>
       <use xlink:href="#DejaVuSans-2e" x="127.246094"/>
       <use xlink:href="#DejaVuSans-30" x="159.033203"/>
      </g>
     </g>
    </g>
   </g>
   <g id="line2d_15">
    <path d="M 73.832727 295.488 
L 235.99751 295.488 
L 236.32249 53.568 
L 398.487273 53.568 
L 398.487273 53.568 
" clip-path="url(#pe4d1215d68)" style="fill: none; stroke: #1f77b4; stroke-width: 1.5; stroke-linecap: square"/>
   </g>
   <g id="line2d_16">
    <path d="M 73.832727 180.576 
L 74.807666 214.173808 
L 75.457625 231.031167 
L 76.107584 241.587012 
L 76.432563 244.417123 
L 76.757543 245.739829 
L 77.082523 245.739829 
L 77.407502 244.65733 
L 78.057461 240.370822 
L 79.0324 232.888694 
L 79.682359 229.792906 
L 80.007338 229.165206 
L 80.332318 229.165206 
L 80.657297 229.733425 
L 81.307256 232.124453 
L 82.607174 237.77639 
L 82.932154 238.588837 
L 83.257133 239.001392 
L 83.582113 239.001392 
L 83.907093 238.615148 
L 84.557052 236.952412 
L 85.85697 232.882763 
L 86.181949 232.281505 
L 86.506929 231.973353 
L 86.831908 231.973353 
L 87.156888 232.266783 
L 87.806847 233.545223 
L 89.106765 236.735005 
L 89.431744 237.213716 
L 89.756724 237.460412 
L 90.081704 237.460412 
L 90.406683 237.223076 
L 91.056642 236.181288 
L 92.35656 233.549875 
L 92.68154 233.150907 
L 93.006519 232.944551 
L 93.331499 232.944551 
L 93.656478 233.144459 
L 94.306437 234.026467 
L 95.606355 236.273474 
L 95.931335 236.616634 
L 96.256314 236.794591 
L 96.581294 236.794591 
L 96.906274 236.621324 
L 97.556233 235.853975 
L 98.856151 233.886578 
L 99.50611 233.427508 
L 99.831089 233.427508 
L 100.156069 233.580936 
L 100.806028 234.262388 
L 102.105946 236.018238 
L 102.755905 236.429915 
L 103.080885 236.429915 
L 103.405864 236.291762 
L 104.055823 235.676728 
L 105.355741 234.085671 
L 106.0057 233.711177 
L 106.33068 233.711177 
L 106.980639 234.075099 
L 107.955577 235.172883 
L 108.605536 235.859524 
L 109.255495 236.204245 
L 109.580475 236.204245 
L 110.230434 235.868086 
L 111.205373 234.851593 
L 111.855332 234.214317 
L 112.505291 233.893814 
L 113.15525 234.002297 
L 113.805209 234.487625 
L 115.105127 235.753926 
L 115.755086 236.0545 
L 116.405045 235.952548 
L 117.055004 235.49588 
L 118.354922 234.301803 
L 119.004881 234.017769 
L 119.65484 234.114292 
L 120.304799 234.547109 
L 121.604717 235.680991 
L 122.254676 235.951221 
L 122.904636 235.859233 
L 123.554595 235.446351 
L 125.179492 234.193033 
L 125.829451 234.104136 
L 126.47941 234.359422 
L 128.754267 235.87895 
L 129.404226 235.793932 
L 130.054185 235.411672 
L 131.679083 234.247315 
L 132.329042 234.164448 
L 132.979001 234.403069 
L 135.253857 235.828959 
L 135.903817 235.748753 
L 136.553776 235.387584 
L 138.178673 234.284144 
L 138.828632 234.205378 
L 139.478591 234.432742 
L 141.753448 235.796124 
L 142.403407 235.719065 
L 143.053366 235.371588 
L 144.678264 234.307051 
L 145.328223 234.230853 
L 145.978182 234.451295 
L 148.253038 235.777462 
L 148.902998 235.702168 
L 149.552957 235.362218 
L 151.177854 234.318025 
L 151.827813 234.243089 
L 152.477772 234.460343 
L 154.752629 235.771404 
L 155.402588 235.696645 
L 156.052547 235.358685 
L 157.677445 234.317966 
L 158.327404 234.243089 
L 158.977363 234.460628 
L 161.252219 235.777462 
L 161.902179 235.702049 
L 162.552138 235.360703 
L 164.177035 234.306869 
L 164.826994 234.230853 
L 165.476953 234.452172 
L 167.75181 235.796124 
L 168.401769 235.718816 
L 169.051728 235.368435 
L 170.676626 234.283823 
L 171.326585 234.205378 
L 171.976544 234.434284 
L 174.2514 235.828959 
L 174.90136 235.748353 
L 175.551319 235.382519 
L 177.176216 234.246827 
L 177.826175 234.164448 
L 178.476134 234.405417 
L 179.776052 235.411672 
L 180.426011 235.793932 
L 181.075971 235.87895 
L 181.72593 235.629932 
L 182.700868 234.856831 
L 183.675807 234.192327 
L 184.325766 234.104136 
L 184.975725 234.362815 
L 185.950663 235.16697 
L 186.925602 235.859233 
L 187.575561 235.951221 
L 188.22552 235.680991 
L 189.200459 234.839724 
L 189.850418 234.296956 
L 190.500377 234.017769 
L 191.150336 234.115301 
L 191.800295 234.559882 
L 193.425192 235.952548 
L 194.075152 236.0545 
L 194.725111 235.753926 
L 195.700049 234.815071 
L 196.350008 234.207294 
L 196.999967 233.893814 
L 197.649926 234.003759 
L 198.299885 234.506134 
L 199.924783 236.087846 
L 200.574742 236.204245 
L 201.224701 235.859524 
L 202.19964 234.778173 
L 202.849599 234.075099 
L 203.499558 233.711177 
L 203.824537 233.711177 
L 204.474496 234.085671 
L 205.449435 235.263567 
L 206.099394 236.031516 
L 206.749353 236.429915 
L 207.074333 236.429915 
L 207.399312 236.288999 
L 208.049271 235.641726 
L 209.674169 233.580936 
L 209.999148 233.427508 
L 210.324128 233.427508 
L 210.649107 233.584483 
L 211.299066 234.307339 
L 212.923964 236.621324 
L 213.248943 236.794591 
L 213.573923 236.794591 
L 213.898903 236.616634 
L 214.548862 235.794537 
L 216.173759 233.144459 
L 216.498739 232.944551 
L 216.823718 232.944551 
L 217.148698 233.150907 
L 217.798657 234.108215 
L 219.423554 237.223076 
L 219.748534 237.460412 
L 220.073514 237.460412 
L 220.398493 237.213716 
L 221.048452 236.062521 
L 222.67335 232.266783 
L 222.998329 231.973353 
L 223.323309 231.973353 
L 223.648288 232.281505 
L 223.973268 232.882763 
L 224.623227 234.758171 
L 225.598165 237.90313 
L 225.923145 238.615148 
L 226.248124 239.001392 
L 226.573104 239.001392 
L 226.898084 238.588837 
L 227.223063 237.77639 
L 227.873022 235.202476 
L 228.847961 230.765406 
L 229.17294 229.733425 
L 229.49792 229.165206 
L 229.822899 229.165206 
L 230.147879 229.792906 
L 230.472858 231.052888 
L 231.122817 235.181198 
L 232.422735 244.65733 
L 232.747715 245.739829 
L 233.072695 245.739829 
L 233.397674 244.417123 
L 233.722654 241.587012 
L 234.047633 237.135664 
L 234.697592 223.329348 
L 235.347551 203.790063 
L 237.622408 125.726652 
L 238.272367 111.920336 
L 238.597346 107.468988 
L 238.922326 104.638877 
L 239.247305 103.316171 
L 239.572285 103.316171 
L 239.897265 104.39867 
L 240.547224 108.685178 
L 241.522162 116.167306 
L 242.172121 119.263094 
L 242.497101 119.890794 
L 242.82208 119.890794 
L 243.14706 119.322575 
L 243.797019 116.931547 
L 245.096937 111.27961 
L 245.421916 110.467163 
L 245.746896 110.054608 
L 246.071876 110.054608 
L 246.396855 110.440852 
L 247.046814 112.103588 
L 248.346732 116.173237 
L 248.671712 116.774495 
L 248.996691 117.082647 
L 249.321671 117.082647 
L 249.64665 116.789217 
L 250.296609 115.510777 
L 251.596527 112.320995 
L 251.921507 111.842284 
L 252.246486 111.595588 
L 252.571466 111.595588 
L 252.896446 111.832924 
L 253.546405 112.874712 
L 254.846323 115.506125 
L 255.171302 115.905093 
L 255.496282 116.111449 
L 255.821261 116.111449 
L 256.146241 115.911541 
L 256.7962 115.029533 
L 258.096118 112.782526 
L 258.421097 112.439366 
L 258.746077 112.261409 
L 259.071057 112.261409 
L 259.396036 112.434676 
L 260.045995 113.202025 
L 261.345913 115.169422 
L 261.995872 115.628492 
L 262.320852 115.628492 
L 262.645831 115.475064 
L 263.29579 114.793612 
L 264.595708 113.037762 
L 265.245667 112.626085 
L 265.570647 112.626085 
L 265.895627 112.764238 
L 266.545586 113.379272 
L 267.845504 114.970329 
L 268.495463 115.344823 
L 268.820442 115.344823 
L 269.470401 114.980901 
L 270.44534 113.883117 
L 271.095299 113.196476 
L 271.745258 112.851755 
L 272.070238 112.851755 
L 272.720197 113.187914 
L 273.695135 114.204407 
L 274.345094 114.841683 
L 274.995053 115.162186 
L 275.645012 115.053703 
L 276.294971 114.568375 
L 277.594889 113.302074 
L 278.244848 113.0015 
L 278.894808 113.103452 
L 279.544767 113.56012 
L 280.844685 114.754197 
L 281.494644 115.038231 
L 282.144603 114.941708 
L 282.794562 114.508891 
L 284.09448 113.375009 
L 284.744439 113.104779 
L 285.394398 113.196767 
L 286.044357 113.609649 
L 287.669255 114.862967 
L 288.319214 114.951864 
L 288.969173 114.696578 
L 291.244029 113.17705 
L 291.893989 113.262068 
L 292.543948 113.644328 
L 294.168845 114.808685 
L 294.818804 114.891552 
L 295.468763 114.652931 
L 297.74362 113.227041 
L 298.393579 113.307247 
L 299.043538 113.668416 
L 300.668436 114.771856 
L 301.318395 114.850622 
L 301.968354 114.623258 
L 304.24321 113.259876 
L 304.89317 113.336935 
L 305.543129 113.684412 
L 307.168026 114.748949 
L 307.817985 114.825147 
L 308.467944 114.604705 
L 310.742801 113.278538 
L 311.39276 113.353832 
L 312.042719 113.693782 
L 313.667617 114.737975 
L 314.317576 114.812911 
L 314.967535 114.595657 
L 317.242391 113.284596 
L 317.892351 113.359355 
L 318.54231 113.697315 
L 320.167207 114.738034 
L 320.817166 114.812911 
L 321.467125 114.595372 
L 323.741982 113.278538 
L 324.391941 113.353951 
L 325.0419 113.695297 
L 326.666798 114.749131 
L 327.316757 114.825147 
L 327.966716 114.603828 
L 330.241572 113.259876 
L 330.891532 113.337184 
L 331.541491 113.687565 
L 333.166388 114.772177 
L 333.816347 114.850622 
L 334.466306 114.621716 
L 336.741163 113.227041 
L 337.391122 113.307647 
L 338.041081 113.673481 
L 339.665979 114.809173 
L 340.315938 114.891552 
L 340.965897 114.650583 
L 342.265815 113.644328 
L 342.915774 113.262068 
L 343.565733 113.17705 
L 344.215692 113.426068 
L 345.190631 114.199169 
L 346.165569 114.863673 
L 346.815528 114.951864 
L 347.465487 114.693185 
L 348.440426 113.88903 
L 349.415364 113.196767 
L 350.065324 113.104779 
L 350.715283 113.375009 
L 351.690221 114.216276 
L 352.34018 114.759044 
L 352.990139 115.038231 
L 353.640098 114.940699 
L 354.290057 114.496118 
L 355.914955 113.103452 
L 356.564914 113.0015 
L 357.214873 113.302074 
L 358.189812 114.240929 
L 358.839771 114.848706 
L 359.48973 115.162186 
L 360.139689 115.052241 
L 360.789648 114.549866 
L 362.414545 112.968154 
L 363.064505 112.851755 
L 363.714464 113.196476 
L 364.689402 114.277827 
L 365.339361 114.980901 
L 365.98932 115.344823 
L 366.3143 115.344823 
L 366.964259 114.970329 
L 367.939197 113.792433 
L 368.589156 113.024484 
L 369.239115 112.626085 
L 369.564095 112.626085 
L 369.889075 112.767001 
L 370.539034 113.414274 
L 372.163931 115.475064 
L 372.488911 115.628492 
L 372.81389 115.628492 
L 373.13887 115.471517 
L 373.788829 114.748661 
L 375.413726 112.434676 
L 375.738706 112.261409 
L 376.063686 112.261409 
L 376.388665 112.439366 
L 377.038624 113.261463 
L 378.663522 115.911541 
L 378.988501 116.111449 
L 379.313481 116.111449 
L 379.63846 115.905093 
L 380.288419 114.947785 
L 381.913317 111.832924 
L 382.238296 111.595588 
L 382.563276 111.595588 
L 382.888256 111.842284 
L 383.538215 112.993479 
L 385.163112 116.789217 
L 385.488092 117.082647 
L 385.813071 117.082647 
L 386.138051 116.774495 
L 386.46303 116.173237 
L 387.112989 114.297829 
L 388.087928 111.15287 
L 388.412907 110.440852 
L 388.737887 110.054608 
L 389.062867 110.054608 
L 389.387846 110.467163 
L 389.712826 111.27961 
L 390.362785 113.853524 
L 391.337723 118.290594 
L 391.662703 119.322575 
L 391.987682 119.890794 
L 392.312662 119.890794 
L 392.637641 119.263094 
L 392.962621 118.003112 
L 393.61258 113.874802 
L 394.912498 104.39867 
L 395.237477 103.316171 
L 395.562457 103.316171 
L 395.887437 104.638877 
L 396.212416 107.468988 
L 396.537396 111.920336 
L 397.187355 125.726652 
L 397.837314 145.265937 
L 398.487273 168.48 
L 398.487273 168.48 
" clip-path="url(#pe4d1215d68)" style="fill: none; stroke: #ff7f0e; stroke-width: 1.5; stroke-linecap: square"/>
   </g>
   <g id="patch_3">
    <path d="M 57.6 307.584 
L 57.6 41.472 
" style="fill: none; stroke: #000000; stroke-width: 0.8; stroke-linejoin: miter; stroke-linecap: square"/>
   </g>
   <g id="patch_4">
    <path d="M 414.72 307.584 
L 414.72 41.472 
" style="fill: none; stroke: #000000; stroke-width: 0.8; stroke-linejoin: miter; stroke-linecap: square"/>
   </g>
   <g id="patch_5">
    <path d="M 57.6 307.584 
L 414.72 307.584 
" style="fill: none; stroke: #000000; stroke-width: 0.8; stroke-linejoin: miter; stroke-linecap: square"/>
   </g>
   <g id="patch_6">
    <path d="M 57.6 41.472 
L 414.72 41.472 
" style="fill: none; stroke: #000000; stroke-width: 0.8; stroke-linejoin: miter; stroke-linecap: square"/>
   </g>
   <g id="legend_1">
    <g id="patch_7">
     <path d="M 64.6 78.82825 
L 202.601562 78.82825 
Q 204.601562 78.82825 204.601562 76.82825 
L 204.601562 48.472 
Q 204.601562 46.472 202.601562 46.472 
L 64.6 46.472 
Q 62.6 46.472 62.6 48.472 
L 62.6 76.82825 
Q 62.6 78.82825 64.6 78.82825 
z
" style="fill: #ffffff; opacity: 0.8; stroke: #cccccc; stroke-linejoin: miter"/>
    </g>
    <g id="line2d_17">
     <path d="M 66.6 54.570437 
L 76.6 54.570437 
L 86.6 54.570437 
" style="fill: none; stroke: #1f77b4; stroke-width: 1.5; stroke-linecap: square"/>
    </g>
    <g id="text_15">
     <!-- Square Wave -->
     <g transform="translate(94.6 58.070437) scale(0.1 -0.1)">
      <defs>
       <path id="DejaVuSans-53" d="M 3425 4513 
L 3425 3897 
Q 3066 4069 2747 4153 
Q 2428 4238 2131 4238 
Q 1616 4238 1336 4038 
Q 1056 3838 1056 3469 
Q 1056 3159 1242 3001 
Q 1428 2844 1947 2747 
L 2328 2669 
Q 3034 2534 3370 2195 
Q 3706 1856 3706 1288 
Q 3706 609 3251 259 
Q 2797 -91 1919 -91 
Q 1588 -91 1214 -16 
Q 841 59 441 206 
L 441 856 
Q 825 641 1194 531 
Q 1563 422 1919 422 
Q 2459 422 2753 634 
Q 3047 847 3047 1241 
Q 3047 1584 2836 1778 
Q 2625 1972 2144 2069 
L 1759 2144 
Q 1053 2284 737 2584 
Q 422 2884 422 3419 
Q 422 4038 858 4394 
Q 1294 4750 2059 4750 
Q 2388 4750 2728 4690 
Q 3069 4631 3425 4513 
z
" transform="scale(0.015625)"/>
       <path id="DejaVuSans-71" d="M 947 1747 
Q 947 1113 1208 752 
Q 1469 391 1925 391 
Q 2381 391 2643 752 
Q 2906 1113 2906 1747 
Q 2906 2381 2643 2742 
Q 2381 3103 1925 3103 
Q 1469 3103 1208 2742 
Q 947 2381 947 1747 
z
M 2906 525 
Q 2725 213 2448 61 
Q 2172 -91 1784 -91 
Q 1150 -91 751 415 
Q 353 922 353 1747 
Q 353 2572 751 3078 
Q 1150 3584 1784 3584 
Q 2172 3584 2448 3432 
Q 2725 3281 2906 2969 
L 2906 3500 
L 3481 3500 
L 3481 -1331 
L 2906 -1331 
L 2906 525 
z
" transform="scale(0.015625)"/>
       <path id="DejaVuSans-75" d="M 544 1381 
L 544 3500 
L 1119 3500 
L 1119 1403 
Q 1119 906 1312 657 
Q 1506 409 1894 409 
Q 2359 409 2629 706 
Q 2900 1003 2900 1516 
L 2900 3500 
L 3475 3500 
L 3475 0 
L 2900 0 
L 2900 538 
Q 2691 219 2414 64 
Q 2138 -91 1772 -91 
Q 1169 -91 856 284 
Q 544 659 544 1381 
z
M 1991 3584 
L 1991 3584 
z
" transform="scale(0.015625)"/>
       <path id="DejaVuSans-61" d="M 2194 1759 
Q 1497 1759 1228 1600 
Q 959 1441 959 1056 
Q 959 750 1161 570 
Q 1363 391 1709 391 
Q 2188 391 2477 730 
Q 2766 1069 2766 1631 
L 2766 1759 
L 2194 1759 
z
M 3341 1997 
L 3341 0 
L 2766 0 
L 2766 531 
Q 2569 213 2275 61 
Q 1981 -91 1556 -91 
Q 1019 -91 701 211 
Q 384 513 384 1019 
Q 384 1609 779 1909 
Q 1175 2209 1959 2209 
L 2766 2209 
L 2766 2266 
Q 2766 2663 2505 2880 
Q 2244 3097 1772 3097 
Q 1472 3097 1187 3025 
Q 903 2953 641 2809 
L 641 3341 
Q 956 3463 1253 3523 
Q 1550 3584 1831 3584 
Q 2591 3584 2966 3190 
Q 3341 2797 3341 1997 
z
" transform="scale(0.015625)"/>
       <path id="DejaVuSans-72" d="M 2631 2963 
Q 2534 3019 2420 3045 
Q 2306 3072 2169 3072 
Q 1681 3072 1420 2755 
Q 1159 2438 1159 1844 
L 1159 0 
L 581 0 
L 581 3500 
L 1159 3500 
L 1159 2956 
Q 1341 3275 1631 3429 
Q 1922 3584 2338 3584 
Q 2397 3584 2469 3576 
Q 2541 3569 2628 3553 
L 2631 2963 
z
" transform="scale(0.015625)"/>
       <path id="DejaVuSans-65" d="M 3597 1894 
L 3597 1613 
L 953 1613 
Q 991 1019 1311 708 
Q 1631 397 2203 397 
Q 2534 397 2845 478 
Q 3156 559 3463 722 
L 3463 178 
Q 3153 47 2828 -22 
Q 2503 -91 2169 -91 
Q 1331 -91 842 396 
Q 353 884 353 1716 
Q 353 2575 817 3079 
Q 1281 3584 2069 3584 
Q 2775 3584 3186 3129 
Q 3597 2675 3597 1894 
z
M 3022 2063 
Q 3016 2534 2758 2815 
Q 2500 3097 2075 3097 
Q 1594 3097 1305 2825 
Q 1016 2553 972 2059 
L 3022 2063 
z
" transform="scale(0.015625)"/>
       <path id="DejaVuSans-20" transform="scale(0.015625)"/>
       <path id="DejaVuSans-57" d="M 213 4666 
L 850 4666 
L 1831 722 
L 2809 4666 
L 3519 4666 
L 4500 722 
L 5478 4666 
L 6119 4666 
L 4947 0 
L 4153 0 
L 3169 4050 
L 2175 0 
L 1381 0 
L 213 4666 
z
" transform="scale(0.015625)"/>
       <path id="DejaVuSans-76" d="M 191 3500 
L 800 3500 
L 1894 563 
L 2988 3500 
L 3597 3500 
L 2284 0 
L 1503 0 
L 191 3500 
z
" transform="scale(0.015625)"/>
      </defs>
      <use xlink:href="#DejaVuSans-53"/>
      <use xlink:href="#DejaVuSans-71" x="63.476562"/>
      <use xlink:href="#DejaVuSans-75" x="126.953125"/>
      <use xlink:href="#DejaVuSans-61" x="190.332031"/>
      <use xlink:href="#DejaVuSans-72" x="251.611328"/>
      <use xlink:href="#DejaVuSans-65" x="290.474609"/>
      <use xlink:href="#DejaVuSans-20" x="351.998047"/>
      <use xlink:href="#DejaVuSans-57" x="383.785156"/>
      <use xlink:href="#DejaVuSans-61" x="476.287109"/>
      <use xlink:href="#DejaVuSans-76" x="537.566406"/>
      <use xlink:href="#DejaVuSans-65" x="596.746094"/>
     </g>
    </g>
    <g id="line2d_18">
     <path d="M 66.6 69.248562 
L 76.6 69.248562 
L 86.6 69.248562 
" style="fill: none; stroke: #ff7f0e; stroke-width: 1.5; stroke-linecap: square"/>
    </g>
    <g id="text_16">
     <!-- Reconstructed Signal -->
     <g transform="translate(94.6 72.748562) scale(0.1 -0.1)">
      <defs>
       <path id="DejaVuSans-52" d="M 2841 2188 
Q 3044 2119 3236 1894 
Q 3428 1669 3622 1275 
L 4263 0 
L 3584 0 
L 2988 1197 
Q 2756 1666 2539 1819 
Q 2322 1972 1947 1972 
L 1259 1972 
L 1259 0 
L 628 0 
L 628 4666 
L 2053 4666 
Q 2853 4666 3247 4331 
Q 3641 3997 3641 3322 
Q 3641 2881 3436 2590 
Q 3231 2300 2841 2188 
z
M 1259 4147 
L 1259 2491 
L 2053 2491 
Q 2509 2491 2742 2702 
Q 2975 2913 2975 3322 
Q 2975 3731 2742 3939 
Q 2509 4147 2053 4147 
L 1259 4147 
z
" transform="scale(0.015625)"/>
       <path id="DejaVuSans-63" d="M 3122 3366 
L 3122 2828 
Q 2878 2963 2633 3030 
Q 2388 3097 2138 3097 
Q 1578 3097 1268 2742 
Q 959 2388 959 1747 
Q 959 1106 1268 751 
Q 1578 397 2138 397 
Q 2388 397 2633 464 
Q 2878 531 3122 666 
L 3122 134 
Q 2881 22 2623 -34 
Q 2366 -91 2075 -91 
Q 1284 -91 818 406 
Q 353 903 353 1747 
Q 353 2603 823 3093 
Q 1294 3584 2113 3584 
Q 2378 3584 2631 3529 
Q 2884 3475 3122 3366 
z
" transform="scale(0.015625)"/>
       <path id="DejaVuSans-6f" d="M 1959 3097 
Q 1497 3097 1228 2736 
Q 959 2375 959 1747 
Q 959 1119 1226 758 
Q 1494 397 1959 397 
Q 2419 397 2687 759 
Q 2956 1122 2956 1747 
Q 2956 2369 2687 2733 
Q 2419 3097 1959 3097 
z
M 1959 3584 
Q 2709 3584 3137 3096 
Q 3566 2609 3566 1747 
Q 3566 888 3137 398 
Q 2709 -91 1959 -91 
Q 1206 -91 779 398 
Q 353 888 353 1747 
Q 353 2609 779 3096 
Q 1206 3584 1959 3584 
z
" transform="scale(0.015625)"/>
       <path id="DejaVuSans-6e" d="M 3513 2113 
L 3513 0 
L 2938 0 
L 2938 2094 
Q 2938 2591 2744 2837 
Q 2550 3084 2163 3084 
Q 1697 3084 1428 2787 
Q 1159 2491 1159 1978 
L 1159 0 
L 581 0 
L 581 3500 
L 1159 3500 
L 1159 2956 
Q 1366 3272 1645 3428 
Q 1925 3584 2291 3584 
Q 2894 3584 3203 3211 
Q 3513 2838 3513 2113 
z
" transform="scale(0.015625)"/>
       <path id="DejaVuSans-73" d="M 2834 3397 
L 2834 2853 
Q 2591 2978 2328 3040 
Q 2066 3103 1784 3103 
Q 1356 3103 1142 2972 
Q 928 2841 928 2578 
Q 928 2378 1081 2264 
Q 1234 2150 1697 2047 
L 1894 2003 
Q 2506 1872 2764 1633 
Q 3022 1394 3022 966 
Q 3022 478 2636 193 
Q 2250 -91 1575 -91 
Q 1294 -91 989 -36 
Q 684 19 347 128 
L 347 722 
Q 666 556 975 473 
Q 1284 391 1588 391 
Q 1994 391 2212 530 
Q 2431 669 2431 922 
Q 2431 1156 2273 1281 
Q 2116 1406 1581 1522 
L 1381 1569 
Q 847 1681 609 1914 
Q 372 2147 372 2553 
Q 372 3047 722 3315 
Q 1072 3584 1716 3584 
Q 2034 3584 2315 3537 
Q 2597 3491 2834 3397 
z
" transform="scale(0.015625)"/>
       <path id="DejaVuSans-74" d="M 1172 4494 
L 1172 3500 
L 2356 3500 
L 2356 3053 
L 1172 3053 
L 1172 1153 
Q 1172 725 1289 603 
Q 1406 481 1766 481 
L 2356 481 
L 2356 0 
L 1766 0 
Q 1100 0 847 248 
Q 594 497 594 1153 
L 594 3053 
L 172 3053 
L 172 3500 
L 594 3500 
L 594 4494 
L 1172 4494 
z
" transform="scale(0.015625)"/>
       <path id="DejaVuSans-64" d="M 2906 2969 
L 2906 4863 
L 3481 4863 
L 3481 0 
L 2906 0 
L 2906 525 
Q 2725 213 2448 61 
Q 2172 -91 1784 -91 
Q 1150 -91 751 415 
Q 353 922 353 1747 
Q 353 2572 751 3078 
Q 1150 3584 1784 3584 
Q 2172 3584 2448 3432 
Q 2725 3281 2906 2969 
z
M 947 1747 
Q 947 1113 1208 752 
Q 1469 391 1925 391 
Q 2381 391 2643 752 
Q 2906 1113 2906 1747 
Q 2906 2381 2643 2742 
Q 2381 3103 1925 3103 
Q 1469 3103 1208 2742 
Q 947 2381 947 1747 
z
" transform="scale(0.015625)"/>
       <path id="DejaVuSans-69" d="M 603 3500 
L 1178 3500 
L 1178 0 
L 603 0 
L 603 3500 
z
M 603 4863 
L 1178 4863 
L 1178 4134 
L 603 4134 
L 603 4863 
z
" transform="scale(0.015625)"/>
       <path id="DejaVuSans-67" d="M 2906 1791 
Q 2906 2416 2648 2759 
Q 2391 3103 1925 3103 
Q 1463 3103 1205 2759 
Q 947 2416 947 1791 
Q 947 1169 1205 825 
Q 1463 481 1925 481 
Q 2391 481 2648 825 
Q 2906 1169 2906 1791 
z
M 3481 434 
Q 3481 -459 3084 -895 
Q 2688 -1331 1869 -1331 
Q 1566 -1331 1297 -1286 
Q 1028 -1241 775 -1147 
L 775 -588 
Q 1028 -725 1275 -790 
Q 1522 -856 1778 -856 
Q 2344 -856 2625 -561 
Q 2906 -266 2906 331 
L 2906 616 
Q 2728 306 2450 153 
Q 2172 0 1784 0 
Q 1141 0 747 490 
Q 353 981 353 1791 
Q 353 2603 747 3093 
Q 1141 3584 1784 3584 
Q 2172 3584 2450 3431 
Q 2728 3278 2906 2969 
L 2906 3500 
L 3481 3500 
L 3481 434 
z
" transform="scale(0.015625)"/>
       <path id="DejaVuSans-6c" d="M 603 4863 
L 1178 4863 
L 1178 0 
L 603 0 
L 603 4863 
z
" transform="scale(0.015625)"/>
      </defs>
      <use xlink:href="#DejaVuSans-52"/>
      <use xlink:href="#DejaVuSans-65" x="64.982422"/>
      <use xlink:href="#DejaVuSans-63" x="126.505859"/>
      <use xlink:href="#DejaVuSans-6f" x="181.486328"/>
      <use xlink:href="#DejaVuSans-6e" x="242.667969"/>
      <use xlink:href="#DejaVuSans-73" x="306.046875"/>
      <use xlink:href="#DejaVuSans-74" x="358.146484"/>
      <use xlink:href="#DejaVuSans-72" x="397.355469"/>
      <use xlink:href="#DejaVuSans-75" x="438.46875"/>
      <use xlink:href="#DejaVuSans-63" x="501.847656"/>
      <use xlink:href="#DejaVuSans-74" x="556.828125"/>
      <use xlink:href="#DejaVuSans-65" x="596.037109"/>
      <use xlink:href="#DejaVuSans-64" x="657.560547"/>
      <use xlink:href="#DejaVuSans-20" x="721.037109"/>
      <use xlink:href="#DejaVuSans-53" x="752.824219"/>
      <use xlink:href="#DejaVuSans-69" x="816.300781"/>
      <use xlink:href="#DejaVuSans-67" x="844.083984"/>
      <use xlink:href="#DejaVuSans-6e" x="907.560547"/>
      <use xlink:href="#DejaVuSans-61" x="970.939453"/>
      <use xlink:href="#DejaVuSans-6c" x="1032.21875"/>
     </g>
    </g>
   </g>
  </g>
 </g>
 <defs>
  <clipPath id="pe4d1215d68">
   <rect x="57.6" y="41.472" width="357.12" height="266.112"/>
  </clipPath>
 </defs>
</svg>
