<?xml version="1.0" encoding="utf-8" standalone="no"?>
<!DOCTYPE svg PUBLIC "-//W3C//DTD SVG 1.1//EN"
  "http://www.w3.org/Graphics/SVG/1.1/DTD/svg11.dtd">
<!-- Created with matplotlib (https://matplotlib.org/) -->
<svg height="345.6pt" version="1.1" viewBox="0 0 460.8 345.6" width="460.8pt" xmlns="http://www.w3.org/2000/svg" xmlns:xlink="http://www.w3.org/1999/xlink">
 <defs>
  <style type="text/css">
*{stroke-linecap:butt;stroke-linejoin:round;}
  </style>
 </defs>
 <g id="figure_1">
  <g id="patch_1">
   <path d="M 0 345.6 
L 460.8 345.6 
L 460.8 0 
L 0 0 
z
" style="fill:#ffffff;"/>
  </g>
  <g id="axes_1">
   <g id="patch_2">
    <path d="M 57.6 307.584 
L 414.72 307.584 
L 414.72 41.472 
L 57.6 41.472 
z
" style="fill:#ffffff;"/>
   </g>
   <g id="matplotlib.axis_1">
    <g id="xtick_1">
     <g id="line2d_1">
      <defs>
       <path d="M 0 0 
L 0 3.5 
" id="mff59878059" style="stroke:#000000;stroke-width:0.8;"/>
      </defs>
      <g>
       <use style="stroke:#000000;stroke-width:0.8;" x="106.298182" xlink:href="#mff59878059" y="307.584"/>
      </g>
     </g>
     <g id="text_1">
      <!-- −0.4 -->
      <defs>
       <path d="M 10.59375 35.5 
L 73.1875 35.5 
L 73.1875 27.203125 
L 10.59375 27.203125 
z
" id="DejaVuSans-8722"/>
       <path d="M 31.78125 66.40625 
Q 24.171875 66.40625 20.328125 58.90625 
Q 16.5 51.421875 16.5 36.375 
Q 16.5 21.390625 20.328125 13.890625 
Q 24.171875 6.390625 31.78125 6.390625 
Q 39.453125 6.390625 43.28125 13.890625 
Q 47.125 21.390625 47.125 36.375 
Q 47.125 51.421875 43.28125 58.90625 
Q 39.453125 66.40625 31.78125 66.40625 
z
M 31.78125 74.21875 
Q 44.046875 74.21875 50.515625 64.515625 
Q 56.984375 54.828125 56.984375 36.375 
Q 56.984375 17.96875 50.515625 8.265625 
Q 44.046875 -1.421875 31.78125 -1.421875 
Q 19.53125 -1.421875 13.0625 8.265625 
Q 6.59375 17.96875 6.59375 36.375 
Q 6.59375 54.828125 13.0625 64.515625 
Q 19.53125 74.21875 31.78125 74.21875 
z
" id="DejaVuSans-48"/>
       <path d="M 10.6875 12.40625 
L 21 12.40625 
L 21 0 
L 10.6875 0 
z
" id="DejaVuSans-46"/>
       <path d="M 37.796875 64.3125 
L 12.890625 25.390625 
L 37.796875 25.390625 
z
M 35.203125 72.90625 
L 47.609375 72.90625 
L 47.609375 25.390625 
L 58.015625 25.390625 
L 58.015625 17.1875 
L 47.609375 17.1875 
L 47.609375 0 
L 37.796875 0 
L 37.796875 17.1875 
L 4.890625 17.1875 
L 4.890625 26.703125 
z
" id="DejaVuSans-52"/>
      </defs>
      <g transform="translate(94.156776 322.182437)scale(0.1 -0.1)">
       <use xlink:href="#DejaVuSans-8722"/>
       <use x="83.789062" xlink:href="#DejaVuSans-48"/>
       <use x="147.412109" xlink:href="#DejaVuSans-46"/>
       <use x="179.199219" xlink:href="#DejaVuSans-52"/>
      </g>
     </g>
    </g>
    <g id="xtick_2">
     <g id="line2d_2">
      <g>
       <use style="stroke:#000000;stroke-width:0.8;" x="171.229091" xlink:href="#mff59878059" y="307.584"/>
      </g>
     </g>
     <g id="text_2">
      <!-- −0.2 -->
      <defs>
       <path d="M 19.1875 8.296875 
L 53.609375 8.296875 
L 53.609375 0 
L 7.328125 0 
L 7.328125 8.296875 
Q 12.9375 14.109375 22.625 23.890625 
Q 32.328125 33.6875 34.8125 36.53125 
Q 39.546875 41.84375 41.421875 45.53125 
Q 43.3125 49.21875 43.3125 52.78125 
Q 43.3125 58.59375 39.234375 62.25 
Q 35.15625 65.921875 28.609375 65.921875 
Q 23.96875 65.921875 18.8125 64.3125 
Q 13.671875 62.703125 7.8125 59.421875 
L 7.8125 69.390625 
Q 13.765625 71.78125 18.9375 73 
Q 24.125 74.21875 28.421875 74.21875 
Q 39.75 74.21875 46.484375 68.546875 
Q 53.21875 62.890625 53.21875 53.421875 
Q 53.21875 48.921875 51.53125 44.890625 
Q 49.859375 40.875 45.40625 35.40625 
Q 44.1875 33.984375 37.640625 27.21875 
Q 31.109375 20.453125 19.1875 8.296875 
z
" id="DejaVuSans-50"/>
      </defs>
      <g transform="translate(159.087685 322.182437)scale(0.1 -0.1)">
       <use xlink:href="#DejaVuSans-8722"/>
       <use x="83.789062" xlink:href="#DejaVuSans-48"/>
       <use x="147.412109" xlink:href="#DejaVuSans-46"/>
       <use x="179.199219" xlink:href="#DejaVuSans-50"/>
      </g>
     </g>
    </g>
    <g id="xtick_3">
     <g id="line2d_3">
      <g>
       <use style="stroke:#000000;stroke-width:0.8;" x="236.16" xlink:href="#mff59878059" y="307.584"/>
      </g>
     </g>
     <g id="text_3">
      <!-- 0.0 -->
      <g transform="translate(228.208438 322.182437)scale(0.1 -0.1)">
       <use xlink:href="#DejaVuSans-48"/>
       <use x="63.623047" xlink:href="#DejaVuSans-46"/>
       <use x="95.410156" xlink:href="#DejaVuSans-48"/>
      </g>
     </g>
    </g>
    <g id="xtick_4">
     <g id="line2d_4">
      <g>
       <use style="stroke:#000000;stroke-width:0.8;" x="301.090909" xlink:href="#mff59878059" y="307.584"/>
      </g>
     </g>
     <g id="text_4">
      <!-- 0.2 -->
      <g transform="translate(293.139347 322.182437)scale(0.1 -0.1)">
       <use xlink:href="#DejaVuSans-48"/>
       <use x="63.623047" xlink:href="#DejaVuSans-46"/>
       <use x="95.410156" xlink:href="#DejaVuSans-50"/>
      </g>
     </g>
    </g>
    <g id="xtick_5">
     <g id="line2d_5">
      <g>
       <use style="stroke:#000000;stroke-width:0.8;" x="366.021818" xlink:href="#mff59878059" y="307.584"/>
      </g>
     </g>
     <g id="text_5">
      <!-- 0.4 -->
      <g transform="translate(358.070256 322.182437)scale(0.1 -0.1)">
       <use xlink:href="#DejaVuSans-48"/>
       <use x="63.623047" xlink:href="#DejaVuSans-46"/>
       <use x="95.410156" xlink:href="#DejaVuSans-52"/>
      </g>
     </g>
    </g>
   </g>
   <g id="matplotlib.axis_2">
    <g id="ytick_1">
     <g id="line2d_6">
      <defs>
       <path d="M 0 0 
L -3.5 0 
" id="mcd64f77966" style="stroke:#000000;stroke-width:0.8;"/>
      </defs>
      <g>
       <use style="stroke:#000000;stroke-width:0.8;" x="57.6" xlink:href="#mcd64f77966" y="295.488"/>
      </g>
     </g>
     <g id="text_6">
      <!-- −10.0 -->
      <defs>
       <path d="M 12.40625 8.296875 
L 28.515625 8.296875 
L 28.515625 63.921875 
L 10.984375 60.40625 
L 10.984375 69.390625 
L 28.421875 72.90625 
L 38.28125 72.90625 
L 38.28125 8.296875 
L 54.390625 8.296875 
L 54.390625 0 
L 12.40625 0 
z
" id="DejaVuSans-49"/>
      </defs>
      <g transform="translate(19.954687 299.287219)scale(0.1 -0.1)">
       <use xlink:href="#DejaVuSans-8722"/>
       <use x="83.789062" xlink:href="#DejaVuSans-49"/>
       <use x="147.412109" xlink:href="#DejaVuSans-48"/>
       <use x="211.035156" xlink:href="#DejaVuSans-46"/>
       <use x="242.822266" xlink:href="#DejaVuSans-48"/>
      </g>
     </g>
    </g>
    <g id="ytick_2">
     <g id="line2d_7">
      <g>
       <use style="stroke:#000000;stroke-width:0.8;" x="57.6" xlink:href="#mcd64f77966" y="265.248"/>
      </g>
     </g>
     <g id="text_7">
      <!-- −7.5 -->
      <defs>
       <path d="M 8.203125 72.90625 
L 55.078125 72.90625 
L 55.078125 68.703125 
L 28.609375 0 
L 18.3125 0 
L 43.21875 64.59375 
L 8.203125 64.59375 
z
" id="DejaVuSans-55"/>
       <path d="M 10.796875 72.90625 
L 49.515625 72.90625 
L 49.515625 64.59375 
L 19.828125 64.59375 
L 19.828125 46.734375 
Q 21.96875 47.46875 24.109375 47.828125 
Q 26.265625 48.1875 28.421875 48.1875 
Q 40.625 48.1875 47.75 41.5 
Q 54.890625 34.8125 54.890625 23.390625 
Q 54.890625 11.625 47.5625 5.09375 
Q 40.234375 -1.421875 26.90625 -1.421875 
Q 22.3125 -1.421875 17.546875 -0.640625 
Q 12.796875 0.140625 7.71875 1.703125 
L 7.71875 11.625 
Q 12.109375 9.234375 16.796875 8.0625 
Q 21.484375 6.890625 26.703125 6.890625 
Q 35.15625 6.890625 40.078125 11.328125 
Q 45.015625 15.765625 45.015625 23.390625 
Q 45.015625 31 40.078125 35.4375 
Q 35.15625 39.890625 26.703125 39.890625 
Q 22.75 39.890625 18.8125 39.015625 
Q 14.890625 38.140625 10.796875 36.28125 
z
" id="DejaVuSans-53"/>
      </defs>
      <g transform="translate(26.317187 269.047219)scale(0.1 -0.1)">
       <use xlink:href="#DejaVuSans-8722"/>
       <use x="83.789062" xlink:href="#DejaVuSans-55"/>
       <use x="147.412109" xlink:href="#DejaVuSans-46"/>
       <use x="179.199219" xlink:href="#DejaVuSans-53"/>
      </g>
     </g>
    </g>
    <g id="ytick_3">
     <g id="line2d_8">
      <g>
       <use style="stroke:#000000;stroke-width:0.8;" x="57.6" xlink:href="#mcd64f77966" y="235.008"/>
      </g>
     </g>
     <g id="text_8">
      <!-- −5.0 -->
      <g transform="translate(26.317187 238.807219)scale(0.1 -0.1)">
       <use xlink:href="#DejaVuSans-8722"/>
       <use x="83.789062" xlink:href="#DejaVuSans-53"/>
       <use x="147.412109" xlink:href="#DejaVuSans-46"/>
       <use x="179.199219" xlink:href="#DejaVuSans-48"/>
      </g>
     </g>
    </g>
    <g id="ytick_4">
     <g id="line2d_9">
      <g>
       <use style="stroke:#000000;stroke-width:0.8;" x="57.6" xlink:href="#mcd64f77966" y="204.768"/>
      </g>
     </g>
     <g id="text_9">
      <!-- −2.5 -->
      <g transform="translate(26.317187 208.567219)scale(0.1 -0.1)">
       <use xlink:href="#DejaVuSans-8722"/>
       <use x="83.789062" xlink:href="#DejaVuSans-50"/>
       <use x="147.412109" xlink:href="#DejaVuSans-46"/>
       <use x="179.199219" xlink:href="#DejaVuSans-53"/>
      </g>
     </g>
    </g>
    <g id="ytick_5">
     <g id="line2d_10">
      <g>
       <use style="stroke:#000000;stroke-width:0.8;" x="57.6" xlink:href="#mcd64f77966" y="174.528"/>
      </g>
     </g>
     <g id="text_10">
      <!-- 0.0 -->
      <g transform="translate(34.696875 178.327219)scale(0.1 -0.1)">
       <use xlink:href="#DejaVuSans-48"/>
       <use x="63.623047" xlink:href="#DejaVuSans-46"/>
       <use x="95.410156" xlink:href="#DejaVuSans-48"/>
      </g>
     </g>
    </g>
    <g id="ytick_6">
     <g id="line2d_11">
      <g>
       <use style="stroke:#000000;stroke-width:0.8;" x="57.6" xlink:href="#mcd64f77966" y="144.288"/>
      </g>
     </g>
     <g id="text_11">
      <!-- 2.5 -->
      <g transform="translate(34.696875 148.087219)scale(0.1 -0.1)">
       <use xlink:href="#DejaVuSans-50"/>
       <use x="63.623047" xlink:href="#DejaVuSans-46"/>
       <use x="95.410156" xlink:href="#DejaVuSans-53"/>
      </g>
     </g>
    </g>
    <g id="ytick_7">
     <g id="line2d_12">
      <g>
       <use style="stroke:#000000;stroke-width:0.8;" x="57.6" xlink:href="#mcd64f77966" y="114.048"/>
      </g>
     </g>
     <g id="text_12">
      <!-- 5.0 -->
      <g transform="translate(34.696875 117.847219)scale(0.1 -0.1)">
       <use xlink:href="#DejaVuSans-53"/>
       <use x="63.623047" xlink:href="#DejaVuSans-46"/>
       <use x="95.410156" xlink:href="#DejaVuSans-48"/>
      </g>
     </g>
    </g>
    <g id="ytick_8">
     <g id="line2d_13">
      <g>
       <use style="stroke:#000000;stroke-width:0.8;" x="57.6" xlink:href="#mcd64f77966" y="83.808"/>
      </g>
     </g>
     <g id="text_13">
      <!-- 7.5 -->
      <g transform="translate(34.696875 87.607219)scale(0.1 -0.1)">
       <use xlink:href="#DejaVuSans-55"/>
       <use x="63.623047" xlink:href="#DejaVuSans-46"/>
       <use x="95.410156" xlink:href="#DejaVuSans-53"/>
      </g>
     </g>
    </g>
    <g id="ytick_9">
     <g id="line2d_14">
      <g>
       <use style="stroke:#000000;stroke-width:0.8;" x="57.6" xlink:href="#mcd64f77966" y="53.568"/>
      </g>
     </g>
     <g id="text_14">
      <!-- 10.0 -->
      <g transform="translate(28.334375 57.367219)scale(0.1 -0.1)">
       <use xlink:href="#DejaVuSans-49"/>
       <use x="63.623047" xlink:href="#DejaVuSans-48"/>
       <use x="127.246094" xlink:href="#DejaVuSans-46"/>
       <use x="159.033203" xlink:href="#DejaVuSans-48"/>
      </g>
     </g>
    </g>
   </g>
   <g id="line2d_15">
    <path clip-path="url(#p76c10ad3ee)" d="M 73.832727 295.488 
L 235.99751 295.488 
L 236.32249 53.568 
L 398.487273 53.568 
L 398.487273 53.568 
" style="fill:none;stroke:#1f77b4;stroke-linecap:square;stroke-width:1.5;"/>
   </g>
   <g id="line2d_16">
    <path clip-path="url(#p76c10ad3ee)" d="M 73.832727 186.624 
L 74.482686 227.56514 
L 74.807666 239.771964 
L 75.132645 245.430399 
L 75.457625 245.430399 
L 75.782604 241.657613 
L 76.432563 231.845523 
L 76.757543 229.329587 
L 77.082523 229.329587 
L 77.407502 231.388622 
L 78.057461 237.262968 
L 78.382441 238.88158 
L 78.70742 238.88158 
L 79.0324 237.464735 
L 79.682359 233.267922 
L 80.007338 232.073964 
L 80.332318 232.073964 
L 80.657297 233.154781 
L 81.307256 236.422217 
L 81.632236 237.368774 
L 81.957215 237.368774 
L 82.282195 236.494453 
L 82.932154 233.817125 
L 83.257133 233.032399 
L 83.582113 233.032399 
L 83.907093 233.767079 
L 84.557052 236.036784 
L 84.882031 236.707502 
L 85.207011 236.707502 
L 85.53199 236.073461 
L 86.181949 234.101949 
L 86.506929 233.515809 
L 86.831908 233.515809 
L 87.156888 234.073947 
L 87.806847 235.818051 
L 88.131826 236.339011 
L 88.456806 236.339011 
L 88.781785 235.840108 
L 89.431744 234.274984 
L 89.756724 233.805742 
L 90.081704 233.805742 
L 90.406683 234.25718 
L 91.056642 235.677913 
L 91.381622 236.105163 
L 91.706601 236.105163 
L 92.031581 235.69257 
L 92.68154 234.390658 
L 93.006519 233.998147 
L 93.331499 233.998147 
L 93.656478 234.378395 
L 94.306437 235.580924 
L 94.631417 235.944252 
L 94.956396 235.944252 
L 95.281376 235.591324 
L 95.931335 234.473055 
L 96.256314 234.134559 
L 96.581294 234.134559 
L 96.906274 234.464134 
L 97.556233 235.510143 
L 97.881212 235.827276 
L 98.206192 235.827276 
L 98.531171 235.517869 
L 99.50611 234.235853 
L 99.831089 234.235853 
L 100.156069 234.527688 
L 101.131007 235.738823 
L 101.455987 235.738823 
L 101.780966 235.462411 
L 102.755905 234.313656 
L 103.080885 234.313656 
L 103.405864 234.576439 
L 104.380803 235.669952 
L 104.705782 235.669952 
L 105.030762 235.419282 
L 106.0057 234.374958 
L 106.33068 234.374958 
L 106.655659 234.614808 
L 107.630598 235.615124 
L 107.955577 235.615124 
L 108.280557 235.38498 
L 109.255495 234.424203 
L 109.580475 234.424203 
L 110.230434 235.001186 
L 110.880393 235.570729 
L 111.205373 235.570729 
L 111.855332 235.014173 
L 112.505291 234.464354 
L 112.83027 234.464354 
L 113.480229 235.002394 
L 114.130188 235.534316 
L 114.455168 235.534316 
L 115.105127 235.013102 
L 115.755086 234.497456 
L 116.080066 234.497456 
L 116.730025 235.003349 
L 117.379984 235.504164 
L 117.704963 235.504164 
L 118.354922 235.012247 
L 119.004881 234.524964 
L 119.329861 234.524964 
L 119.97982 235.004118 
L 120.629779 235.479037 
L 120.954758 235.479037 
L 121.604717 235.01155 
L 122.254676 234.547938 
L 122.579656 234.547938 
L 123.229615 235.004751 
L 123.879574 235.45802 
L 124.204554 235.45802 
L 124.854513 235.010972 
L 125.504472 234.567167 
L 125.829451 234.567167 
L 126.47941 235.005282 
L 127.129369 235.440431 
L 127.454349 235.440431 
L 128.104308 235.010483 
L 128.754267 234.583246 
L 129.079247 234.583246 
L 129.729206 235.005734 
L 130.379165 235.42575 
L 130.704144 235.42575 
L 131.354103 235.010063 
L 132.004062 234.596627 
L 132.329042 234.596627 
L 132.979001 235.006126 
L 133.62896 235.413581 
L 133.953939 235.413581 
L 134.603898 235.009696 
L 135.253857 234.607661 
L 135.578837 234.607661 
L 136.228796 235.006472 
L 136.878755 235.403617 
L 137.203735 235.403617 
L 137.853694 235.009369 
L 138.503653 234.616614 
L 138.828632 234.616614 
L 139.478591 235.006783 
L 140.12855 235.395623 
L 140.45353 235.395623 
L 141.103489 235.009073 
L 141.753448 234.623693 
L 142.078428 234.623693 
L 142.728387 235.007066 
L 143.378346 235.38942 
L 143.703325 235.38942 
L 144.353284 235.0088 
L 145.003243 234.629052 
L 145.328223 234.629052 
L 145.978182 235.00733 
L 146.628141 235.384876 
L 146.95312 235.384876 
L 147.603079 235.008544 
L 148.253038 234.632805 
L 148.578018 234.632805 
L 149.227977 235.00758 
L 149.877936 235.381897 
L 150.202916 235.381897 
L 150.852875 235.008299 
L 151.502834 234.635026 
L 151.827813 234.635026 
L 152.477772 235.007821 
L 153.127731 235.380422 
L 153.452711 235.380422 
L 154.10267 235.008059 
L 154.752629 234.635762 
L 155.077609 234.635762 
L 155.727568 235.008059 
L 156.377527 235.380422 
L 156.702506 235.380422 
L 157.352465 235.007821 
L 158.002424 234.635026 
L 158.327404 234.635026 
L 158.977363 235.008299 
L 159.627322 235.381897 
L 159.952301 235.381897 
L 160.60226 235.00758 
L 161.252219 234.632805 
L 161.577199 234.632805 
L 162.227158 235.008544 
L 162.877117 235.384876 
L 163.202097 235.384876 
L 163.852056 235.00733 
L 164.502015 234.629052 
L 164.826994 234.629052 
L 165.476953 235.0088 
L 166.126912 235.38942 
L 166.451892 235.38942 
L 167.101851 235.007066 
L 167.75181 234.623693 
L 168.07679 234.623693 
L 168.726749 235.009073 
L 169.376708 235.395623 
L 169.701687 235.395623 
L 170.351646 235.006783 
L 171.001605 234.616614 
L 171.326585 234.616614 
L 171.976544 235.009369 
L 172.626503 235.403617 
L 172.951482 235.403617 
L 173.601441 235.006472 
L 174.2514 234.607661 
L 174.57638 234.607661 
L 175.226339 235.009696 
L 175.876298 235.413581 
L 176.201278 235.413581 
L 176.851237 235.006126 
L 177.501196 234.596627 
L 177.826175 234.596627 
L 178.476134 235.010063 
L 179.126093 235.42575 
L 179.451073 235.42575 
L 180.101032 235.005734 
L 180.750991 234.583246 
L 181.075971 234.583246 
L 181.72593 235.010483 
L 182.375889 235.440431 
L 182.700868 235.440431 
L 183.350827 235.005282 
L 184.000786 234.567167 
L 184.325766 234.567167 
L 184.975725 235.010972 
L 185.625684 235.45802 
L 185.950663 235.45802 
L 186.600622 235.004751 
L 187.250581 234.547938 
L 187.575561 234.547938 
L 188.22552 235.01155 
L 188.875479 235.479037 
L 189.200459 235.479037 
L 189.850418 235.004118 
L 190.500377 234.524964 
L 190.825356 234.524964 
L 191.475315 235.012247 
L 192.125274 235.504164 
L 192.450254 235.504164 
L 193.100213 235.003349 
L 193.750172 234.497456 
L 194.075152 234.497456 
L 194.725111 235.013102 
L 195.37507 235.534316 
L 195.700049 235.534316 
L 196.350008 235.002394 
L 196.999967 234.464354 
L 197.324947 234.464354 
L 197.974906 235.014173 
L 198.624865 235.570729 
L 198.949844 235.570729 
L 199.274824 235.354159 
L 200.249762 234.424203 
L 200.574742 234.424203 
L 200.899722 234.648996 
L 201.87466 235.615124 
L 202.19964 235.615124 
L 202.524619 235.381221 
L 203.499558 234.374958 
L 203.824537 234.374958 
L 204.149517 234.618993 
L 205.124455 235.669952 
L 205.449435 235.669952 
L 205.774414 235.414604 
L 206.749353 234.313656 
L 207.074333 234.313656 
L 207.399312 234.581694 
L 208.374251 235.738823 
L 208.69923 235.738823 
L 209.02421 235.456475 
L 209.999148 234.235853 
L 210.324128 234.235853 
L 210.649107 234.534436 
L 211.624046 235.827276 
L 211.949025 235.827276 
L 212.274005 235.510143 
L 213.248943 234.134559 
L 213.573923 234.134559 
L 213.898903 234.473055 
L 214.873841 235.944252 
L 215.198821 235.944252 
L 215.5238 235.580924 
L 216.498739 233.998147 
L 216.823718 233.998147 
L 217.148698 234.390658 
L 218.123636 236.105163 
L 218.448616 236.105163 
L 218.773595 235.677913 
L 219.748534 233.805742 
L 220.073514 233.805742 
L 220.398493 234.274984 
L 221.373432 236.339011 
L 221.698411 236.339011 
L 222.023391 235.818051 
L 222.998329 233.515809 
L 223.323309 233.515809 
L 223.648288 234.101949 
L 224.623227 236.707502 
L 224.948206 236.707502 
L 225.273186 236.036784 
L 226.248124 233.032399 
L 226.573104 233.032399 
L 226.898084 233.817125 
L 227.873022 237.368774 
L 228.198002 237.368774 
L 228.522981 236.422217 
L 229.49792 232.073964 
L 229.822899 232.073964 
L 230.147879 233.267922 
L 231.122817 238.88158 
L 231.447797 238.88158 
L 231.772776 237.262968 
L 232.747715 229.329587 
L 233.072695 229.329587 
L 233.397674 231.845523 
L 234.372613 245.430399 
L 234.697592 245.430399 
L 235.022572 239.771964 
L 235.347551 227.56514 
L 235.99751 186.624 
L 236.972449 121.49086 
L 237.297428 109.284036 
L 237.622408 103.625601 
L 237.947387 103.625601 
L 238.272367 107.398387 
L 238.922326 117.210477 
L 239.247305 119.726413 
L 239.572285 119.726413 
L 239.897265 117.667378 
L 240.547224 111.793032 
L 240.872203 110.17442 
L 241.197183 110.17442 
L 241.522162 111.591265 
L 242.172121 115.788078 
L 242.497101 116.982036 
L 242.82208 116.982036 
L 243.14706 115.901219 
L 243.797019 112.633783 
L 244.121998 111.687226 
L 244.446978 111.687226 
L 244.771957 112.561547 
L 245.421916 115.238875 
L 245.746896 116.023601 
L 246.071876 116.023601 
L 246.396855 115.288921 
L 247.046814 113.019216 
L 247.371794 112.348498 
L 247.696773 112.348498 
L 248.021753 112.982539 
L 248.671712 114.954051 
L 248.996691 115.540191 
L 249.321671 115.540191 
L 249.64665 114.982053 
L 250.296609 113.237949 
L 250.621589 112.716989 
L 250.946568 112.716989 
L 251.271548 113.215892 
L 251.921507 114.781016 
L 252.246486 115.250258 
L 252.571466 115.250258 
L 252.896446 114.79882 
L 253.546405 113.378087 
L 253.871384 112.950837 
L 254.196364 112.950837 
L 254.521343 113.36343 
L 255.171302 114.665342 
L 255.496282 115.057853 
L 255.821261 115.057853 
L 256.146241 114.677605 
L 256.7962 113.475076 
L 257.121179 113.111748 
L 257.446159 113.111748 
L 257.771138 113.464676 
L 258.421097 114.582945 
L 258.746077 114.921441 
L 259.071057 114.921441 
L 259.396036 114.591866 
L 260.045995 113.545857 
L 260.370975 113.228724 
L 260.695954 113.228724 
L 261.020934 113.538131 
L 261.995872 114.820147 
L 262.320852 114.820147 
L 262.645831 114.528312 
L 263.62077 113.317177 
L 263.945749 113.317177 
L 264.270729 113.593589 
L 265.245667 114.742344 
L 265.570647 114.742344 
L 265.895627 114.479561 
L 266.870565 113.386048 
L 267.195545 113.386048 
L 267.520524 113.636718 
L 268.495463 114.681042 
L 268.820442 114.681042 
L 269.145422 114.441192 
L 270.12036 113.440876 
L 270.44534 113.440876 
L 270.770319 113.67102 
L 271.745258 114.631797 
L 272.070238 114.631797 
L 272.720197 114.054814 
L 273.370156 113.485271 
L 273.695135 113.485271 
L 274.345094 114.041827 
L 274.995053 114.591646 
L 275.320033 114.591646 
L 275.969992 114.053606 
L 276.619951 113.521684 
L 276.94493 113.521684 
L 277.594889 114.042898 
L 278.244848 114.558544 
L 278.569828 114.558544 
L 279.219787 114.052651 
L 279.869746 113.551836 
L 280.194726 113.551836 
L 280.844685 114.043753 
L 281.494644 114.531036 
L 281.819623 114.531036 
L 282.469582 114.051882 
L 283.119541 113.576963 
L 283.444521 113.576963 
L 284.09448 114.04445 
L 284.744439 114.508062 
L 285.069419 114.508062 
L 285.719378 114.051249 
L 286.369337 113.59798 
L 286.694316 113.59798 
L 287.344275 114.045028 
L 287.994234 114.488833 
L 288.319214 114.488833 
L 288.969173 114.050718 
L 289.619132 113.615569 
L 289.944111 113.615569 
L 290.59407 114.045517 
L 291.244029 114.472754 
L 291.569009 114.472754 
L 292.218968 114.050266 
L 292.868927 113.63025 
L 293.193907 113.63025 
L 293.843866 114.045937 
L 294.493825 114.459373 
L 294.818804 114.459373 
L 295.468763 114.049874 
L 296.118722 113.642419 
L 296.443702 113.642419 
L 297.093661 114.046304 
L 297.74362 114.448339 
L 298.0686 114.448339 
L 298.718559 114.049528 
L 299.368518 113.652383 
L 299.693497 113.652383 
L 300.343456 114.046631 
L 300.993415 114.439386 
L 301.318395 114.439386 
L 301.968354 114.049217 
L 302.618313 113.660377 
L 302.943292 113.660377 
L 303.593251 114.046927 
L 304.24321 114.432307 
L 304.56819 114.432307 
L 305.218149 114.048934 
L 305.868108 113.66658 
L 306.193088 113.66658 
L 306.843047 114.0472 
L 307.493006 114.426948 
L 307.817985 114.426948 
L 308.467944 114.04867 
L 309.117903 113.671124 
L 309.442883 113.671124 
L 310.092842 114.047456 
L 310.742801 114.423195 
L 311.067781 114.423195 
L 311.71774 114.04842 
L 312.367699 113.674103 
L 312.692678 113.674103 
L 313.342637 114.047701 
L 313.992596 114.420974 
L 314.317576 114.420974 
L 314.967535 114.048179 
L 315.617494 113.675578 
L 315.942473 113.675578 
L 316.592432 114.047941 
L 317.242391 114.420238 
L 317.567371 114.420238 
L 318.21733 114.047941 
L 318.867289 113.675578 
L 319.192269 113.675578 
L 319.842228 114.048179 
L 320.492187 114.420974 
L 320.817166 114.420974 
L 321.467125 114.047701 
L 322.117084 113.674103 
L 322.442064 113.674103 
L 323.092023 114.04842 
L 323.741982 114.423195 
L 324.066962 114.423195 
L 324.716921 114.047456 
L 325.36688 113.671124 
L 325.691859 113.671124 
L 326.341818 114.04867 
L 326.991777 114.426948 
L 327.316757 114.426948 
L 327.966716 114.0472 
L 328.616675 113.66658 
L 328.941654 113.66658 
L 329.591613 114.048934 
L 330.241572 114.432307 
L 330.566552 114.432307 
L 331.216511 114.046927 
L 331.86647 113.660377 
L 332.19145 113.660377 
L 332.841409 114.049217 
L 333.491368 114.439386 
L 333.816347 114.439386 
L 334.466306 114.046631 
L 335.116265 113.652383 
L 335.441245 113.652383 
L 336.091204 114.049528 
L 336.741163 114.448339 
L 337.066143 114.448339 
L 337.716102 114.046304 
L 338.366061 113.642419 
L 338.69104 113.642419 
L 339.340999 114.049874 
L 339.990958 114.459373 
L 340.315938 114.459373 
L 340.965897 114.045937 
L 341.615856 113.63025 
L 341.940835 113.63025 
L 342.590794 114.050266 
L 343.240753 114.472754 
L 343.565733 114.472754 
L 344.215692 114.045517 
L 344.865651 113.615569 
L 345.190631 113.615569 
L 345.84059 114.050718 
L 346.490549 114.488833 
L 346.815528 114.488833 
L 347.465487 114.045028 
L 348.115446 113.59798 
L 348.440426 113.59798 
L 349.090385 114.051249 
L 349.740344 114.508062 
L 350.065324 114.508062 
L 350.715283 114.04445 
L 351.365242 113.576963 
L 351.690221 113.576963 
L 352.34018 114.051882 
L 352.990139 114.531036 
L 353.315119 114.531036 
L 353.965078 114.043753 
L 354.615037 113.551836 
L 354.940016 113.551836 
L 355.589975 114.052651 
L 356.239934 114.558544 
L 356.564914 114.558544 
L 357.214873 114.042898 
L 357.864832 113.521684 
L 358.189812 113.521684 
L 358.839771 114.053606 
L 359.48973 114.591646 
L 359.814709 114.591646 
L 360.464668 114.041827 
L 361.114627 113.485271 
L 361.439607 113.485271 
L 361.764586 113.701841 
L 362.739525 114.631797 
L 363.064505 114.631797 
L 363.389484 114.407004 
L 364.364423 113.440876 
L 364.689402 113.440876 
L 365.014382 113.674779 
L 365.98932 114.681042 
L 366.3143 114.681042 
L 366.639279 114.437007 
L 367.614218 113.386048 
L 367.939197 113.386048 
L 368.264177 113.641396 
L 369.239115 114.742344 
L 369.564095 114.742344 
L 369.889075 114.474306 
L 370.864013 113.317177 
L 371.188993 113.317177 
L 371.513972 113.599525 
L 372.488911 114.820147 
L 372.81389 114.820147 
L 373.13887 114.521564 
L 374.113808 113.228724 
L 374.438788 113.228724 
L 374.763767 113.545857 
L 375.738706 114.921441 
L 376.063686 114.921441 
L 376.388665 114.582945 
L 377.363604 113.111748 
L 377.688583 113.111748 
L 378.013563 113.475076 
L 378.988501 115.057853 
L 379.313481 115.057853 
L 379.63846 114.665342 
L 380.613399 112.950837 
L 380.938378 112.950837 
L 381.263358 113.378087 
L 382.238296 115.250258 
L 382.563276 115.250258 
L 382.888256 114.781016 
L 383.863194 112.716989 
L 384.188174 112.716989 
L 384.513153 113.237949 
L 385.488092 115.540191 
L 385.813071 115.540191 
L 386.138051 114.954051 
L 387.112989 112.348498 
L 387.437969 112.348498 
L 387.762948 113.019216 
L 388.737887 116.023601 
L 389.062867 116.023601 
L 389.387846 115.238875 
L 390.362785 111.687226 
L 390.687764 111.687226 
L 391.012744 112.633783 
L 391.987682 116.982036 
L 392.312662 116.982036 
L 392.637641 115.788078 
L 393.61258 110.17442 
L 393.937559 110.17442 
L 394.262539 111.793032 
L 395.237477 119.726413 
L 395.562457 119.726413 
L 395.887437 117.210477 
L 396.862375 103.625601 
L 397.187355 103.625601 
L 397.512334 109.284036 
L 397.837314 121.49086 
L 398.487273 162.432 
L 398.487273 162.432 
" style="fill:none;stroke:#ff7f0e;stroke-linecap:square;stroke-width:1.5;"/>
   </g>
   <g id="patch_3">
    <path d="M 57.6 307.584 
L 57.6 41.472 
" style="fill:none;stroke:#000000;stroke-linecap:square;stroke-linejoin:miter;stroke-width:0.8;"/>
   </g>
   <g id="patch_4">
    <path d="M 414.72 307.584 
L 414.72 41.472 
" style="fill:none;stroke:#000000;stroke-linecap:square;stroke-linejoin:miter;stroke-width:0.8;"/>
   </g>
   <g id="patch_5">
    <path d="M 57.6 307.584 
L 414.72 307.584 
" style="fill:none;stroke:#000000;stroke-linecap:square;stroke-linejoin:miter;stroke-width:0.8;"/>
   </g>
   <g id="patch_6">
    <path d="M 57.6 41.472 
L 414.72 41.472 
" style="fill:none;stroke:#000000;stroke-linecap:square;stroke-linejoin:miter;stroke-width:0.8;"/>
   </g>
   <g id="legend_1">
    <g id="patch_7">
     <path d="M 64.6 78.82825 
L 203.045312 78.82825 
Q 205.045312 78.82825 205.045312 76.82825 
L 205.045312 48.472 
Q 205.045312 46.472 203.045312 46.472 
L 64.6 46.472 
Q 62.6 46.472 62.6 48.472 
L 62.6 76.82825 
Q 62.6 78.82825 64.6 78.82825 
z
" style="fill:#ffffff;opacity:0.8;stroke:#cccccc;stroke-linejoin:miter;"/>
    </g>
    <g id="line2d_17">
     <path d="M 66.6 54.570437 
L 86.6 54.570437 
" style="fill:none;stroke:#1f77b4;stroke-linecap:square;stroke-width:1.5;"/>
    </g>
    <g id="line2d_18"/>
    <g id="text_15">
     <!-- Square Wave -->
     <defs>
      <path d="M 53.515625 70.515625 
L 53.515625 60.890625 
Q 47.90625 63.578125 42.921875 64.890625 
Q 37.9375 66.21875 33.296875 66.21875 
Q 25.25 66.21875 20.875 63.09375 
Q 16.5 59.96875 16.5 54.203125 
Q 16.5 49.359375 19.40625 46.890625 
Q 22.3125 44.4375 30.421875 42.921875 
L 36.375 41.703125 
Q 47.40625 39.59375 52.65625 34.296875 
Q 57.90625 29 57.90625 20.125 
Q 57.90625 9.515625 50.796875 4.046875 
Q 43.703125 -1.421875 29.984375 -1.421875 
Q 24.8125 -1.421875 18.96875 -0.25 
Q 13.140625 0.921875 6.890625 3.21875 
L 6.890625 13.375 
Q 12.890625 10.015625 18.65625 8.296875 
Q 24.421875 6.59375 29.984375 6.59375 
Q 38.421875 6.59375 43.015625 9.90625 
Q 47.609375 13.234375 47.609375 19.390625 
Q 47.609375 24.75 44.3125 27.78125 
Q 41.015625 30.8125 33.5 32.328125 
L 27.484375 33.5 
Q 16.453125 35.6875 11.515625 40.375 
Q 6.59375 45.0625 6.59375 53.421875 
Q 6.59375 63.09375 13.40625 68.65625 
Q 20.21875 74.21875 32.171875 74.21875 
Q 37.3125 74.21875 42.625 73.28125 
Q 47.953125 72.359375 53.515625 70.515625 
z
" id="DejaVuSans-83"/>
      <path d="M 14.796875 27.296875 
Q 14.796875 17.390625 18.875 11.75 
Q 22.953125 6.109375 30.078125 6.109375 
Q 37.203125 6.109375 41.296875 11.75 
Q 45.40625 17.390625 45.40625 27.296875 
Q 45.40625 37.203125 41.296875 42.84375 
Q 37.203125 48.484375 30.078125 48.484375 
Q 22.953125 48.484375 18.875 42.84375 
Q 14.796875 37.203125 14.796875 27.296875 
z
M 45.40625 8.203125 
Q 42.578125 3.328125 38.25 0.953125 
Q 33.9375 -1.421875 27.875 -1.421875 
Q 17.96875 -1.421875 11.734375 6.484375 
Q 5.515625 14.40625 5.515625 27.296875 
Q 5.515625 40.1875 11.734375 48.09375 
Q 17.96875 56 27.875 56 
Q 33.9375 56 38.25 53.625 
Q 42.578125 51.265625 45.40625 46.390625 
L 45.40625 54.6875 
L 54.390625 54.6875 
L 54.390625 -20.796875 
L 45.40625 -20.796875 
z
" id="DejaVuSans-113"/>
      <path d="M 8.5 21.578125 
L 8.5 54.6875 
L 17.484375 54.6875 
L 17.484375 21.921875 
Q 17.484375 14.15625 20.5 10.265625 
Q 23.53125 6.390625 29.59375 6.390625 
Q 36.859375 6.390625 41.078125 11.03125 
Q 45.3125 15.671875 45.3125 23.6875 
L 45.3125 54.6875 
L 54.296875 54.6875 
L 54.296875 0 
L 45.3125 0 
L 45.3125 8.40625 
Q 42.046875 3.421875 37.71875 1 
Q 33.40625 -1.421875 27.6875 -1.421875 
Q 18.265625 -1.421875 13.375 4.4375 
Q 8.5 10.296875 8.5 21.578125 
z
M 31.109375 56 
z
" id="DejaVuSans-117"/>
      <path d="M 34.28125 27.484375 
Q 23.390625 27.484375 19.1875 25 
Q 14.984375 22.515625 14.984375 16.5 
Q 14.984375 11.71875 18.140625 8.90625 
Q 21.296875 6.109375 26.703125 6.109375 
Q 34.1875 6.109375 38.703125 11.40625 
Q 43.21875 16.703125 43.21875 25.484375 
L 43.21875 27.484375 
z
M 52.203125 31.203125 
L 52.203125 0 
L 43.21875 0 
L 43.21875 8.296875 
Q 40.140625 3.328125 35.546875 0.953125 
Q 30.953125 -1.421875 24.3125 -1.421875 
Q 15.921875 -1.421875 10.953125 3.296875 
Q 6 8.015625 6 15.921875 
Q 6 25.140625 12.171875 29.828125 
Q 18.359375 34.515625 30.609375 34.515625 
L 43.21875 34.515625 
L 43.21875 35.40625 
Q 43.21875 41.609375 39.140625 45 
Q 35.0625 48.390625 27.6875 48.390625 
Q 23 48.390625 18.546875 47.265625 
Q 14.109375 46.140625 10.015625 43.890625 
L 10.015625 52.203125 
Q 14.9375 54.109375 19.578125 55.046875 
Q 24.21875 56 28.609375 56 
Q 40.484375 56 46.34375 49.84375 
Q 52.203125 43.703125 52.203125 31.203125 
z
" id="DejaVuSans-97"/>
      <path d="M 41.109375 46.296875 
Q 39.59375 47.171875 37.8125 47.578125 
Q 36.03125 48 33.890625 48 
Q 26.265625 48 22.1875 43.046875 
Q 18.109375 38.09375 18.109375 28.8125 
L 18.109375 0 
L 9.078125 0 
L 9.078125 54.6875 
L 18.109375 54.6875 
L 18.109375 46.1875 
Q 20.953125 51.171875 25.484375 53.578125 
Q 30.03125 56 36.53125 56 
Q 37.453125 56 38.578125 55.875 
Q 39.703125 55.765625 41.0625 55.515625 
z
" id="DejaVuSans-114"/>
      <path d="M 56.203125 29.59375 
L 56.203125 25.203125 
L 14.890625 25.203125 
Q 15.484375 15.921875 20.484375 11.0625 
Q 25.484375 6.203125 34.421875 6.203125 
Q 39.59375 6.203125 44.453125 7.46875 
Q 49.3125 8.734375 54.109375 11.28125 
L 54.109375 2.78125 
Q 49.265625 0.734375 44.1875 -0.34375 
Q 39.109375 -1.421875 33.890625 -1.421875 
Q 20.796875 -1.421875 13.15625 6.1875 
Q 5.515625 13.8125 5.515625 26.8125 
Q 5.515625 40.234375 12.765625 48.109375 
Q 20.015625 56 32.328125 56 
Q 43.359375 56 49.78125 48.890625 
Q 56.203125 41.796875 56.203125 29.59375 
z
M 47.21875 32.234375 
Q 47.125 39.59375 43.09375 43.984375 
Q 39.0625 48.390625 32.421875 48.390625 
Q 24.90625 48.390625 20.390625 44.140625 
Q 15.875 39.890625 15.1875 32.171875 
z
" id="DejaVuSans-101"/>
      <path id="DejaVuSans-32"/>
      <path d="M 3.328125 72.90625 
L 13.28125 72.90625 
L 28.609375 11.28125 
L 43.890625 72.90625 
L 54.984375 72.90625 
L 70.3125 11.28125 
L 85.59375 72.90625 
L 95.609375 72.90625 
L 77.296875 0 
L 64.890625 0 
L 49.515625 63.28125 
L 33.984375 0 
L 21.578125 0 
z
" id="DejaVuSans-87"/>
      <path d="M 2.984375 54.6875 
L 12.5 54.6875 
L 29.59375 8.796875 
L 46.6875 54.6875 
L 56.203125 54.6875 
L 35.6875 0 
L 23.484375 0 
z
" id="DejaVuSans-118"/>
     </defs>
     <g transform="translate(94.6 58.070437)scale(0.1 -0.1)">
      <use xlink:href="#DejaVuSans-83"/>
      <use x="63.476562" xlink:href="#DejaVuSans-113"/>
      <use x="126.953125" xlink:href="#DejaVuSans-117"/>
      <use x="190.332031" xlink:href="#DejaVuSans-97"/>
      <use x="251.611328" xlink:href="#DejaVuSans-114"/>
      <use x="292.693359" xlink:href="#DejaVuSans-101"/>
      <use x="354.216797" xlink:href="#DejaVuSans-32"/>
      <use x="386.003906" xlink:href="#DejaVuSans-87"/>
      <use x="484.787109" xlink:href="#DejaVuSans-97"/>
      <use x="546.066406" xlink:href="#DejaVuSans-118"/>
      <use x="605.246094" xlink:href="#DejaVuSans-101"/>
     </g>
    </g>
    <g id="line2d_19">
     <path d="M 66.6 69.248562 
L 86.6 69.248562 
" style="fill:none;stroke:#ff7f0e;stroke-linecap:square;stroke-width:1.5;"/>
    </g>
    <g id="line2d_20"/>
    <g id="text_16">
     <!-- Reconstructed Signal -->
     <defs>
      <path d="M 44.390625 34.1875 
Q 47.5625 33.109375 50.5625 29.59375 
Q 53.5625 26.078125 56.59375 19.921875 
L 66.609375 0 
L 56 0 
L 46.6875 18.703125 
Q 43.0625 26.03125 39.671875 28.421875 
Q 36.28125 30.8125 30.421875 30.8125 
L 19.671875 30.8125 
L 19.671875 0 
L 9.8125 0 
L 9.8125 72.90625 
L 32.078125 72.90625 
Q 44.578125 72.90625 50.734375 67.671875 
Q 56.890625 62.453125 56.890625 51.90625 
Q 56.890625 45.015625 53.6875 40.46875 
Q 50.484375 35.9375 44.390625 34.1875 
z
M 19.671875 64.796875 
L 19.671875 38.921875 
L 32.078125 38.921875 
Q 39.203125 38.921875 42.84375 42.21875 
Q 46.484375 45.515625 46.484375 51.90625 
Q 46.484375 58.296875 42.84375 61.546875 
Q 39.203125 64.796875 32.078125 64.796875 
z
" id="DejaVuSans-82"/>
      <path d="M 48.78125 52.59375 
L 48.78125 44.1875 
Q 44.96875 46.296875 41.140625 47.34375 
Q 37.3125 48.390625 33.40625 48.390625 
Q 24.65625 48.390625 19.8125 42.84375 
Q 14.984375 37.3125 14.984375 27.296875 
Q 14.984375 17.28125 19.8125 11.734375 
Q 24.65625 6.203125 33.40625 6.203125 
Q 37.3125 6.203125 41.140625 7.25 
Q 44.96875 8.296875 48.78125 10.40625 
L 48.78125 2.09375 
Q 45.015625 0.34375 40.984375 -0.53125 
Q 36.96875 -1.421875 32.421875 -1.421875 
Q 20.0625 -1.421875 12.78125 6.34375 
Q 5.515625 14.109375 5.515625 27.296875 
Q 5.515625 40.671875 12.859375 48.328125 
Q 20.21875 56 33.015625 56 
Q 37.15625 56 41.109375 55.140625 
Q 45.0625 54.296875 48.78125 52.59375 
z
" id="DejaVuSans-99"/>
      <path d="M 30.609375 48.390625 
Q 23.390625 48.390625 19.1875 42.75 
Q 14.984375 37.109375 14.984375 27.296875 
Q 14.984375 17.484375 19.15625 11.84375 
Q 23.34375 6.203125 30.609375 6.203125 
Q 37.796875 6.203125 41.984375 11.859375 
Q 46.1875 17.53125 46.1875 27.296875 
Q 46.1875 37.015625 41.984375 42.703125 
Q 37.796875 48.390625 30.609375 48.390625 
z
M 30.609375 56 
Q 42.328125 56 49.015625 48.375 
Q 55.71875 40.765625 55.71875 27.296875 
Q 55.71875 13.875 49.015625 6.21875 
Q 42.328125 -1.421875 30.609375 -1.421875 
Q 18.84375 -1.421875 12.171875 6.21875 
Q 5.515625 13.875 5.515625 27.296875 
Q 5.515625 40.765625 12.171875 48.375 
Q 18.84375 56 30.609375 56 
z
" id="DejaVuSans-111"/>
      <path d="M 54.890625 33.015625 
L 54.890625 0 
L 45.90625 0 
L 45.90625 32.71875 
Q 45.90625 40.484375 42.875 44.328125 
Q 39.84375 48.1875 33.796875 48.1875 
Q 26.515625 48.1875 22.3125 43.546875 
Q 18.109375 38.921875 18.109375 30.90625 
L 18.109375 0 
L 9.078125 0 
L 9.078125 54.6875 
L 18.109375 54.6875 
L 18.109375 46.1875 
Q 21.34375 51.125 25.703125 53.5625 
Q 30.078125 56 35.796875 56 
Q 45.21875 56 50.046875 50.171875 
Q 54.890625 44.34375 54.890625 33.015625 
z
" id="DejaVuSans-110"/>
      <path d="M 44.28125 53.078125 
L 44.28125 44.578125 
Q 40.484375 46.53125 36.375 47.5 
Q 32.28125 48.484375 27.875 48.484375 
Q 21.1875 48.484375 17.84375 46.4375 
Q 14.5 44.390625 14.5 40.28125 
Q 14.5 37.15625 16.890625 35.375 
Q 19.28125 33.59375 26.515625 31.984375 
L 29.59375 31.296875 
Q 39.15625 29.25 43.1875 25.515625 
Q 47.21875 21.78125 47.21875 15.09375 
Q 47.21875 7.46875 41.1875 3.015625 
Q 35.15625 -1.421875 24.609375 -1.421875 
Q 20.21875 -1.421875 15.453125 -0.5625 
Q 10.6875 0.296875 5.421875 2 
L 5.421875 11.28125 
Q 10.40625 8.6875 15.234375 7.390625 
Q 20.0625 6.109375 24.8125 6.109375 
Q 31.15625 6.109375 34.5625 8.28125 
Q 37.984375 10.453125 37.984375 14.40625 
Q 37.984375 18.0625 35.515625 20.015625 
Q 33.0625 21.96875 24.703125 23.78125 
L 21.578125 24.515625 
Q 13.234375 26.265625 9.515625 29.90625 
Q 5.8125 33.546875 5.8125 39.890625 
Q 5.8125 47.609375 11.28125 51.796875 
Q 16.75 56 26.8125 56 
Q 31.78125 56 36.171875 55.265625 
Q 40.578125 54.546875 44.28125 53.078125 
z
" id="DejaVuSans-115"/>
      <path d="M 18.3125 70.21875 
L 18.3125 54.6875 
L 36.8125 54.6875 
L 36.8125 47.703125 
L 18.3125 47.703125 
L 18.3125 18.015625 
Q 18.3125 11.328125 20.140625 9.421875 
Q 21.96875 7.515625 27.59375 7.515625 
L 36.8125 7.515625 
L 36.8125 0 
L 27.59375 0 
Q 17.1875 0 13.234375 3.875 
Q 9.28125 7.765625 9.28125 18.015625 
L 9.28125 47.703125 
L 2.6875 47.703125 
L 2.6875 54.6875 
L 9.28125 54.6875 
L 9.28125 70.21875 
z
" id="DejaVuSans-116"/>
      <path d="M 45.40625 46.390625 
L 45.40625 75.984375 
L 54.390625 75.984375 
L 54.390625 0 
L 45.40625 0 
L 45.40625 8.203125 
Q 42.578125 3.328125 38.25 0.953125 
Q 33.9375 -1.421875 27.875 -1.421875 
Q 17.96875 -1.421875 11.734375 6.484375 
Q 5.515625 14.40625 5.515625 27.296875 
Q 5.515625 40.1875 11.734375 48.09375 
Q 17.96875 56 27.875 56 
Q 33.9375 56 38.25 53.625 
Q 42.578125 51.265625 45.40625 46.390625 
z
M 14.796875 27.296875 
Q 14.796875 17.390625 18.875 11.75 
Q 22.953125 6.109375 30.078125 6.109375 
Q 37.203125 6.109375 41.296875 11.75 
Q 45.40625 17.390625 45.40625 27.296875 
Q 45.40625 37.203125 41.296875 42.84375 
Q 37.203125 48.484375 30.078125 48.484375 
Q 22.953125 48.484375 18.875 42.84375 
Q 14.796875 37.203125 14.796875 27.296875 
z
" id="DejaVuSans-100"/>
      <path d="M 9.421875 54.6875 
L 18.40625 54.6875 
L 18.40625 0 
L 9.421875 0 
z
M 9.421875 75.984375 
L 18.40625 75.984375 
L 18.40625 64.59375 
L 9.421875 64.59375 
z
" id="DejaVuSans-105"/>
      <path d="M 45.40625 27.984375 
Q 45.40625 37.75 41.375 43.109375 
Q 37.359375 48.484375 30.078125 48.484375 
Q 22.859375 48.484375 18.828125 43.109375 
Q 14.796875 37.75 14.796875 27.984375 
Q 14.796875 18.265625 18.828125 12.890625 
Q 22.859375 7.515625 30.078125 7.515625 
Q 37.359375 7.515625 41.375 12.890625 
Q 45.40625 18.265625 45.40625 27.984375 
z
M 54.390625 6.78125 
Q 54.390625 -7.171875 48.1875 -13.984375 
Q 42 -20.796875 29.203125 -20.796875 
Q 24.46875 -20.796875 20.265625 -20.09375 
Q 16.0625 -19.390625 12.109375 -17.921875 
L 12.109375 -9.1875 
Q 16.0625 -11.328125 19.921875 -12.34375 
Q 23.78125 -13.375 27.78125 -13.375 
Q 36.625 -13.375 41.015625 -8.765625 
Q 45.40625 -4.15625 45.40625 5.171875 
L 45.40625 9.625 
Q 42.625 4.78125 38.28125 2.390625 
Q 33.9375 0 27.875 0 
Q 17.828125 0 11.671875 7.65625 
Q 5.515625 15.328125 5.515625 27.984375 
Q 5.515625 40.671875 11.671875 48.328125 
Q 17.828125 56 27.875 56 
Q 33.9375 56 38.28125 53.609375 
Q 42.625 51.21875 45.40625 46.390625 
L 45.40625 54.6875 
L 54.390625 54.6875 
z
" id="DejaVuSans-103"/>
      <path d="M 9.421875 75.984375 
L 18.40625 75.984375 
L 18.40625 0 
L 9.421875 0 
z
" id="DejaVuSans-108"/>
     </defs>
     <g transform="translate(94.6 72.748562)scale(0.1 -0.1)">
      <use xlink:href="#DejaVuSans-82"/>
      <use x="69.419922" xlink:href="#DejaVuSans-101"/>
      <use x="130.943359" xlink:href="#DejaVuSans-99"/>
      <use x="185.923828" xlink:href="#DejaVuSans-111"/>
      <use x="247.105469" xlink:href="#DejaVuSans-110"/>
      <use x="310.484375" xlink:href="#DejaVuSans-115"/>
      <use x="362.583984" xlink:href="#DejaVuSans-116"/>
      <use x="401.792969" xlink:href="#DejaVuSans-114"/>
      <use x="442.90625" xlink:href="#DejaVuSans-117"/>
      <use x="506.285156" xlink:href="#DejaVuSans-99"/>
      <use x="561.265625" xlink:href="#DejaVuSans-116"/>
      <use x="600.474609" xlink:href="#DejaVuSans-101"/>
      <use x="661.998047" xlink:href="#DejaVuSans-100"/>
      <use x="725.474609" xlink:href="#DejaVuSans-32"/>
      <use x="757.261719" xlink:href="#DejaVuSans-83"/>
      <use x="820.738281" xlink:href="#DejaVuSans-105"/>
      <use x="848.521484" xlink:href="#DejaVuSans-103"/>
      <use x="911.998047" xlink:href="#DejaVuSans-110"/>
      <use x="975.376953" xlink:href="#DejaVuSans-97"/>
      <use x="1036.65625" xlink:href="#DejaVuSans-108"/>
     </g>
    </g>
   </g>
  </g>
 </g>
 <defs>
  <clipPath id="p76c10ad3ee">
   <rect height="266.112" width="357.12" x="57.6" y="41.472"/>
  </clipPath>
 </defs>
</svg>
