<svg version="1.1" xmlns="http://www.w3.org/2000/svg" xmlns:xlink="http://www.w3.org/1999/xlink" width="1227" height="911"><defs/><g><g transform="translate(-54,-13) scale(1,1)"><rect fill="#C0C0C0" stroke="none" x="484" y="30" width="384" height="224" opacity="0.2"/></g><g transform="translate(-54,-13) scale(1,1)"><rect fill="#ffffff" stroke="none" x="477" y="23" width="384" height="224"/></g><g transform="translate(-54,-13) scale(1,1)"><path fill="none" stroke="#000000" d="M 477 23 L 861 23 L 861 247 L 477 247 L 477 23 Z Z" stroke-miterlimit="10"/></g><g transform="translate(-54,-13) scale(1,1)"><rect fill="#ffffff" stroke="none" x="477" y="23" width="384" height="224"/></g><g transform="translate(-54,-13) scale(1,1)"><path fill="none" stroke="#000000" d="M 477 23 L 861 23 L 861 247 L 477 247 L 477 23 Z Z" stroke-miterlimit="10"/></g><g transform="translate(-54,-13) scale(1,1)"><g><path fill="none" stroke="none"/><text fill="#000000" stroke="none" font-family="Arial" font-size="13px" font-style="normal" font-weight="bold" text-decoration="none" x="669" y="36"></text><path fill="none" stroke="#000000" d="M 669 42.5 L 669 42.5" stroke-miterlimit="10"/></g></g><g transform="translate(-54,-13) scale(1,1)"><rect fill="#C0C0C0" stroke="none" x="77" y="685" width="384" height="224" opacity="0.2"/></g><g transform="translate(-54,-13) scale(1,1)"><rect fill="#ffffff" stroke="none" x="70" y="678" width="384" height="224"/></g><g transform="translate(-54,-13) scale(1,1)"><path fill="none" stroke="#000000" d="M 70 678 L 454 678 L 454 902 L 70 902 L 70 678 Z Z" stroke-miterlimit="10"/></g><g transform="translate(-54,-13) scale(1,1)"><rect fill="#ffffff" stroke="none" x="70" y="678" width="384" height="224"/></g><g transform="translate(-54,-13) scale(1,1)"><path fill="none" stroke="#000000" d="M 70 678 L 454 678 L 454 902 L 70 902 L 70 678 Z Z" stroke-miterlimit="10"/></g><g transform="translate(-54,-13) scale(1,1)"><g><path fill="none" stroke="none"/><text fill="#000000" stroke="none" font-family="Arial" font-size="13px" font-style="normal" font-weight="bold" text-decoration="none" x="262" y="691"></text><path fill="none" stroke="#000000" d="M 262 697.5 L 262 697.5" stroke-miterlimit="10"/></g></g><g transform="translate(-54,-13) scale(1,1)"><rect fill="#C0C0C0" stroke="none" x="430" y="342" width="496" height="280" opacity="0.2"/></g><g transform="translate(-54,-13) scale(1,1)"><rect fill="#ffffff" stroke="none" x="423" y="335" width="496" height="280"/></g><g transform="translate(-54,-13) scale(1,1)"><path fill="none" stroke="#000000" d="M 423 335 L 919 335 L 919 615 L 423 615 L 423 335 Z Z" stroke-miterlimit="10"/></g><g transform="translate(-54,-13) scale(1,1)"><rect fill="#ffffff" stroke="none" x="423" y="335" width="496" height="280"/></g><g transform="translate(-54,-13) scale(1,1)"><path fill="none" stroke="#000000" d="M 423 335 L 919 335 L 919 615 L 423 615 L 423 335 Z Z" stroke-miterlimit="10"/></g><g transform="translate(-54,-13) scale(1,1)"><g><path fill="none" stroke="none"/><text fill="#000000" stroke="none" font-family="Arial" font-size="13px" font-style="normal" font-weight="bold" text-decoration="none" x="671" y="348"></text><path fill="none" stroke="#000000" d="M 671 354.5 L 671 354.5" stroke-miterlimit="10"/></g></g><g transform="translate(-54,-13) scale(1,1)"><g><path fill="none" stroke="none"/><text fill="#000000" stroke="none" font-family="Arial" font-size="42px" font-style="normal" font-weight="normal" text-decoration="none" x="556.5" y="484">afetbilgi.com</text></g></g><g transform="translate(-54,-13) scale(1,1)"><g><path fill="none" stroke="none"/><text fill="#000000" stroke="none" font-family="Arial" font-size="32px" font-style="normal" font-weight="normal" text-decoration="none" x="545" y="142">Admins</text></g></g><g transform="translate(-54,-13) scale(1,1)"><g><path fill="none" stroke="none"/><text fill="#000000" stroke="none" font-family="Arial" font-size="32px" font-style="normal" font-weight="normal" text-decoration="none" x="149" y="797">Static Web Site</text></g></g><g transform="translate(-54,-13) scale(1,1)"><path fill="none" stroke="#000000" d="M 670 248 L 670 334" stroke-miterlimit="10"/></g><g transform="translate(-54,-13) scale(1,1)"><path fill="none" stroke="#000000" d="M 665.790482243984 323.83732514237585 L 670 334 L 674.209517756016 323.83732514237585" stroke-miterlimit="10"/></g><g transform="translate(-54,-13) scale(1,1)"><path fill="none" stroke="#000000" d="M 674.209517756016 258.16267485762415 L 670 248 L 665.790482243984 258.16267485762415" stroke-miterlimit="10"/></g><g transform="translate(-54,-13) scale(1,1)"><rect fill="#C0C0C0" stroke="none" x="71" y="95" width="191" height="151" opacity="0.2"/></g><g transform="translate(-54,-13) scale(1,1)"><rect fill="#ffffff" stroke="none" x="64" y="88" width="191" height="151"/></g><g transform="translate(-54,-13) scale(1,1)"><path fill="none" stroke="#000000" d="M 64 88 L 255 88 L 255 239 L 64 239 L 64 88 Z Z" stroke-miterlimit="10"/></g><g transform="translate(-54,-13) scale(1,1)"><rect fill="#ffffff" stroke="none" x="64" y="88" width="191" height="151"/></g><g transform="translate(-54,-13) scale(1,1)"><path fill="none" stroke="#000000" d="M 64 88 L 255 88 L 255 239 L 64 239 L 64 88 Z Z" stroke-miterlimit="10"/></g><g transform="translate(-54,-13) scale(1,1)"><g><path fill="none" stroke="none"/><text fill="#000000" stroke="none" font-family="Arial" font-size="13px" font-style="normal" font-weight="bold" text-decoration="none" x="159.5" y="101"></text><path fill="none" stroke="#000000" d="M 159.5 107.5 L 159.5 107.5" stroke-miterlimit="10"/></g></g><g transform="translate(-54,-13) scale(1,1)"><rect fill="#C0C0C0" stroke="none" x="1087" y="71" width="191" height="151" opacity="0.2"/></g><g transform="translate(-54,-13) scale(1,1)"><rect fill="#ffffff" stroke="none" x="1080" y="64" width="191" height="151"/></g><g transform="translate(-54,-13) scale(1,1)"><path fill="none" stroke="#000000" d="M 1080 64 L 1271 64 L 1271 215 L 1080 215 L 1080 64 Z Z" stroke-miterlimit="10"/></g><g transform="translate(-54,-13) scale(1,1)"><rect fill="#ffffff" stroke="none" x="1080" y="64" width="191" height="151"/></g><g transform="translate(-54,-13) scale(1,1)"><path fill="none" stroke="#000000" d="M 1080 64 L 1271 64 L 1271 215 L 1080 215 L 1080 64 Z Z" stroke-miterlimit="10"/></g><g transform="translate(-54,-13) scale(1,1)"><g><path fill="none" stroke="none"/><text fill="#000000" stroke="none" font-family="Arial" font-size="13px" font-style="normal" font-weight="bold" text-decoration="none" x="1175.5" y="77"></text><path fill="none" stroke="#000000" d="M 1175.5 83.5 L 1175.5 83.5" stroke-miterlimit="10"/></g></g><g transform="translate(-54,-13) scale(1,1)"><rect fill="#C0C0C0" stroke="none" x="1079" y="751" width="191" height="151" opacity="0.2"/></g><g transform="translate(-54,-13) scale(1,1)"><rect fill="#ffffff" stroke="none" x="1072" y="744" width="191" height="151"/></g><g transform="translate(-54,-13) scale(1,1)"><path fill="none" stroke="#000000" d="M 1072 744 L 1263 744 L 1263 895 L 1072 895 L 1072 744 Z Z" stroke-miterlimit="10"/></g><g transform="translate(-54,-13) scale(1,1)"><rect fill="#ffffff" stroke="none" x="1072" y="744" width="191" height="151"/></g><g transform="translate(-54,-13) scale(1,1)"><path fill="none" stroke="#000000" d="M 1072 744 L 1263 744 L 1263 895 L 1072 895 L 1072 744 Z Z" stroke-miterlimit="10"/></g><g transform="translate(-54,-13) scale(1,1)"><g><path fill="none" stroke="none"/><text fill="#000000" stroke="none" font-family="Arial" font-size="13px" font-style="normal" font-weight="bold" text-decoration="none" x="1167.5" y="757"></text><path fill="none" stroke="#000000" d="M 1167.5 763.5 L 1167.5 763.5" stroke-miterlimit="10"/></g></g><g transform="translate(-54,-13) scale(1,1)"><g><path fill="none" stroke="none"/><text fill="#000000" stroke="none" font-family="Arial" font-size="22px" font-style="normal" font-weight="normal" text-decoration="none" x="109" y="140">Amazon</text><text fill="#000000" stroke="none" font-family="Arial" font-size="22px" font-style="normal" font-weight="normal" text-decoration="none" x="109" y="163">Web</text><text fill="#000000" stroke="none" font-family="Arial" font-size="22px" font-style="normal" font-weight="normal" text-decoration="none" x="109" y="185">Services</text></g></g><g transform="translate(-54,-13) scale(1,1)"><g><path fill="none" stroke="none"/><text fill="#000000" stroke="none" font-family="Arial" font-size="22px" font-style="normal" font-weight="normal" text-decoration="none" x="1117" y="812">Data</text><text fill="#000000" stroke="none" font-family="Arial" font-size="22px" font-style="normal" font-weight="normal" text-decoration="none" x="1117" y="835">Collectors</text></g></g><g transform="translate(-54,-13) scale(1,1)"><g><path fill="none" stroke="none"/><text fill="#000000" stroke="none" font-family="Arial" font-size="22px" font-style="normal" font-weight="normal" text-decoration="none" x="1141" y="141">GitHub</text></g></g><g transform="translate(-54,-13) scale(1,1)"><path fill="none" stroke="#000000" d="M 204 240 Q 264 344 422 395" stroke-miterlimit="10"/></g><g transform="translate(-54,-13) scale(1,1)"><path fill="none" stroke="#000000" d="M 411.03559741237535 395.8842374661195 L 422 395 L 413.62174627015895 387.8722468871036" stroke-miterlimit="10"/></g><g transform="translate(-54,-13) scale(1,1)"><path fill="none" stroke="#000000" d="M 513 334 Q 408 240 256 193" stroke-miterlimit="10"/></g><g transform="translate(-54,-13) scale(1,1)"><path fill="none" stroke="#000000" d="M 266.9526547641612 191.98051306183106 L 256 193 L 264.4655825830439 200.02381032842317" stroke-miterlimit="10"/></g><g transform="translate(-54,-13) scale(1,1)"><path fill="none" stroke="#000000" d="M 488 616 L 409 677" stroke-miterlimit="10"/></g><g transform="translate(-54,-13) scale(1,1)"><path fill="none" stroke="#000000" d="M 414.47111231391534 667.4571005428893 L 409 677 L 419.6165095361072 674.1208116994984" stroke-miterlimit="10"/></g><g transform="translate(-54,-13) scale(1,1)"><path fill="none" stroke="#000000" d="M 1071 752 L 874 616" stroke-miterlimit="10"/></g><g transform="translate(-54,-13) scale(1,1)"><path fill="none" stroke="#000000" d="M 884.7548316115201 618.3094581632602 L 874 616 L 879.9717808349174 625.2378478911331" stroke-miterlimit="10"/></g><g transform="translate(-54,-13) scale(1,1)"><g><path fill="none" stroke="none"/><text fill="#000000" stroke="none" font-family="Arial" font-size="18px" font-style="normal" font-weight="normal" text-decoration="none" x="325" y="194">Store</text><text fill="#000000" stroke="none" font-family="Arial" font-size="18px" font-style="normal" font-weight="normal" text-decoration="none" x="325" y="212">data</text><text fill="#000000" stroke="none" font-family="Arial" font-size="18px" font-style="normal" font-weight="normal" text-decoration="none" x="325" y="230">and</text><text fill="#000000" stroke="none" font-family="Arial" font-size="18px" font-style="normal" font-weight="normal" text-decoration="none" x="325" y="248">logs</text></g></g><g transform="translate(-54,-13) scale(1,1)"><g><path fill="none" stroke="none"/><text fill="#000000" stroke="none" font-family="Arial" font-size="18px" font-style="normal" font-weight="normal" text-decoration="none" x="309" y="330">Provide</text><text fill="#000000" stroke="none" font-family="Arial" font-size="18px" font-style="normal" font-weight="normal" text-decoration="none" x="309" y="348">info</text><text fill="#000000" stroke="none" font-family="Arial" font-size="18px" font-style="normal" font-weight="normal" text-decoration="none" x="309" y="366">and</text><text fill="#000000" stroke="none" font-family="Arial" font-size="18px" font-style="normal" font-weight="normal" text-decoration="none" x="309" y="384">logs</text></g></g><g transform="translate(-54,-13) scale(1,1)"><g><path fill="none" stroke="none"/><text fill="#000000" stroke="none" font-family="Arial" font-size="18px" font-style="normal" font-weight="normal" text-decoration="none" x="957" y="266">Control</text><text fill="#000000" stroke="none" font-family="Arial" font-size="18px" font-style="normal" font-weight="normal" text-decoration="none" x="957" y="284">automated</text><text fill="#000000" stroke="none" font-family="Arial" font-size="18px" font-style="normal" font-weight="normal" text-decoration="none" x="957" y="302">tasks</text></g></g><g transform="translate(-54,-13) scale(1,1)"><g><path fill="none" stroke="none"/><text fill="#000000" stroke="none" font-family="Arial" font-size="18px" font-style="normal" font-weight="normal" text-decoration="none" x="933" y="642">Provide</text><text fill="#000000" stroke="none" font-family="Arial" font-size="18px" font-style="normal" font-weight="normal" text-decoration="none" x="933" y="660">&amp;</text><text fill="#000000" stroke="none" font-family="Arial" font-size="18px" font-style="normal" font-weight="normal" text-decoration="none" x="933" y="678">validate</text><text fill="#000000" stroke="none" font-family="Arial" font-size="18px" font-style="normal" font-weight="normal" text-decoration="none" x="933" y="696">useful</text><text fill="#000000" stroke="none" font-family="Arial" font-size="18px" font-style="normal" font-weight="normal" text-decoration="none" x="933" y="714">inforation</text></g></g><g transform="translate(-54,-13) scale(1,1)"><rect fill="#C0C0C0" stroke="none" x="586" y="770" width="191" height="151" opacity="0.2"/></g><g transform="translate(-54,-13) scale(1,1)"><rect fill="#ffffff" stroke="none" x="579" y="763" width="191" height="151"/></g><g transform="translate(-54,-13) scale(1,1)"><path fill="none" stroke="#000000" d="M 579 763 L 770 763 L 770 914 L 579 914 L 579 763 Z Z" stroke-miterlimit="10"/></g><g transform="translate(-54,-13) scale(1,1)"><rect fill="#ffffff" stroke="none" x="579" y="763" width="191" height="151"/></g><g transform="translate(-54,-13) scale(1,1)"><path fill="none" stroke="#000000" d="M 579 763 L 770 763 L 770 914 L 579 914 L 579 763 Z Z" stroke-miterlimit="10"/></g><g transform="translate(-54,-13) scale(1,1)"><g><path fill="none" stroke="none"/><text fill="#000000" stroke="none" font-family="Arial" font-size="13px" font-style="normal" font-weight="bold" text-decoration="none" x="674.5" y="776"></text><path fill="none" stroke="#000000" d="M 674.5 782.5 L 674.5 782.5" stroke-miterlimit="10"/></g></g><g transform="translate(-54,-13) scale(1,1)"><g><path fill="none" stroke="none"/><text fill="#000000" stroke="none" font-family="Arial" font-size="22px" font-style="normal" font-weight="normal" text-decoration="none" x="635" y="843">Google</text><text fill="#000000" stroke="none" font-family="Arial" font-size="22px" font-style="normal" font-weight="normal" text-decoration="none" x="635" y="865">Sheets</text></g></g><g transform="translate(-54,-13) scale(1,1)"><path fill="none" stroke="#000000" d="M 632 762 Q 600 704 627 616" stroke-miterlimit="10"/></g><g transform="translate(-54,-13) scale(1,1)"><path fill="none" stroke="#000000" d="M 628.0434165027907 626.9504009973016 L 627 616 L 619.9947040828214 624.4809096866292" stroke-miterlimit="10"/></g><g transform="translate(-54,-13) scale(1,1)"><g><path fill="none" stroke="none"/><text fill="#000000" stroke="none" font-family="Arial" font-size="18px" font-style="normal" font-weight="normal" text-decoration="none" x="589" y="674">Provide</text><text fill="#000000" stroke="none" font-family="Arial" font-size="18px" font-style="normal" font-weight="normal" text-decoration="none" x="589" y="692">data</text><text fill="#000000" stroke="none" font-family="Arial" font-size="18px" font-style="normal" font-weight="normal" text-decoration="none" x="589" y="710">from</text><text fill="#000000" stroke="none" font-family="Arial" font-size="18px" font-style="normal" font-weight="normal" text-decoration="none" x="589" y="726">users</text></g></g><g transform="translate(-54,-13) scale(1,1)"><path fill="none" stroke="#000000" d="M 741 616 Q 776 688 726 762" stroke-miterlimit="10"/></g><g transform="translate(-54,-13) scale(1,1)"><path fill="none" stroke="#000000" d="M 728.2016888613039 751.2225900069632 L 726 762 L 735.1776088135948 755.9360494341868" stroke-miterlimit="10"/></g><g transform="translate(-54,-13) scale(1,1)"><g><path fill="none" stroke="none"/><text fill="#000000" stroke="none" font-family="Arial" font-size="18px" font-style="normal" font-weight="normal" text-decoration="none" x="725" y="674">Store</text><text fill="#000000" stroke="none" font-family="Arial" font-size="18px" font-style="normal" font-weight="normal" text-decoration="none" x="725" y="692">data</text><text fill="#000000" stroke="none" font-family="Arial" font-size="18px" font-style="normal" font-weight="normal" text-decoration="none" x="725" y="710">from</text><text fill="#000000" stroke="none" font-family="Arial" font-size="18px" font-style="normal" font-weight="normal" text-decoration="none" x="725" y="726">users</text></g></g><g transform="translate(-54,-13) scale(1,1)"><path fill="none" stroke="#000000" d="M 883 334 L 1079 203" stroke-miterlimit="10"/></g><g transform="translate(-54,-13) scale(1,1)"><path fill="none" stroke="#000000" d="M 1072.8899206156575 212.1469628793952 L 1079 203 L 1068.2116419544614 205.1474009130253" stroke-miterlimit="10"/></g><g transform="translate(-54,-13) scale(1,1)"><g><path fill="none" stroke="none"/><text fill="#000000" stroke="none" font-family="Arial" font-size="18px" font-style="normal" font-weight="normal" text-decoration="none" x="629" y="274">view</text><text fill="#000000" stroke="none" font-family="Arial" font-size="18px" font-style="normal" font-weight="normal" text-decoration="none" x="629" y="291">system</text><text fill="#000000" stroke="none" font-family="Arial" font-size="18px" font-style="normal" font-weight="normal" text-decoration="none" x="629" y="310">logs</text></g></g></g></svg>